G04 #@! TF.FileFunction,Legend,Top*
%FSLAX46Y46*%
G04 Gerber Fmt 4.6, Leading zero omitted, Abs format (unit mm)*
G04 Created by KiCad (PCBNEW 4.0.2-stable) date 30/10/2016 11:04:25*
%MOMM*%
G01*
G04 APERTURE LIST*
%ADD10C,0.100000*%
%ADD11C,0.150000*%
%ADD12C,0.200000*%
%ADD13C,0.127000*%
%ADD14C,0.002540*%
%ADD15C,0.010000*%
%ADD16C,0.120000*%
%ADD17C,0.170000*%
%ADD18C,0.175000*%
G04 APERTURE END LIST*
D10*
D11*
X1666666Y0D02*
G75*
G03X1666666Y0I-1666666J0D01*
G01*
X-2500000Y0D02*
X2500000Y0D01*
X0Y2500000D02*
X0Y-2500000D01*
D12*
X17150000Y5100000D02*
X17650000Y5100000D01*
X17150000Y13100000D02*
X17650000Y13100000D01*
X17150000Y7600000D02*
X17150000Y5100000D01*
X17150000Y13100000D02*
X17150000Y11100000D01*
D13*
X17044714Y8166285D02*
X16282714Y8166285D01*
X16282714Y8287238D01*
X16319000Y8359809D01*
X16391571Y8408190D01*
X16464143Y8432381D01*
X16609286Y8456571D01*
X16718143Y8456571D01*
X16863286Y8432381D01*
X16935857Y8408190D01*
X17008429Y8359809D01*
X17044714Y8287238D01*
X17044714Y8166285D01*
X17008429Y8867809D02*
X17044714Y8819428D01*
X17044714Y8722666D01*
X17008429Y8674285D01*
X16935857Y8650095D01*
X16645571Y8650095D01*
X16573000Y8674285D01*
X16536714Y8722666D01*
X16536714Y8819428D01*
X16573000Y8867809D01*
X16645571Y8892000D01*
X16718143Y8892000D01*
X16790714Y8650095D01*
X16536714Y9037143D02*
X16536714Y9230667D01*
X17044714Y9109714D02*
X16391571Y9109714D01*
X16319000Y9133905D01*
X16282714Y9182286D01*
X16282714Y9230667D01*
X17044714Y9617715D02*
X16645571Y9617715D01*
X16573000Y9593524D01*
X16536714Y9545143D01*
X16536714Y9448381D01*
X16573000Y9400000D01*
X17008429Y9617715D02*
X17044714Y9569334D01*
X17044714Y9448381D01*
X17008429Y9400000D01*
X16935857Y9375810D01*
X16863286Y9375810D01*
X16790714Y9400000D01*
X16754429Y9448381D01*
X16754429Y9569334D01*
X16718143Y9617715D01*
X16536714Y10077334D02*
X17044714Y10077334D01*
X16536714Y9859619D02*
X16935857Y9859619D01*
X17008429Y9883810D01*
X17044714Y9932191D01*
X17044714Y10004762D01*
X17008429Y10053143D01*
X16972143Y10077334D01*
X17044714Y10391810D02*
X17008429Y10343429D01*
X16935857Y10319238D01*
X16282714Y10319238D01*
X16536714Y10512762D02*
X16536714Y10706286D01*
X16282714Y10585333D02*
X16935857Y10585333D01*
X17008429Y10609524D01*
X17044714Y10657905D01*
X17044714Y10706286D01*
X17976666Y6767286D02*
X17976666Y6223000D01*
X17952476Y6114143D01*
X17904095Y6041571D01*
X17831523Y6005286D01*
X17783142Y6005286D01*
X18218571Y6005286D02*
X18218571Y6767286D01*
X18412095Y6767286D01*
X18460476Y6731000D01*
X18484667Y6694714D01*
X18508857Y6622143D01*
X18508857Y6513286D01*
X18484667Y6440714D01*
X18460476Y6404429D01*
X18412095Y6368143D01*
X18218571Y6368143D01*
X18944286Y6513286D02*
X18944286Y6005286D01*
X18823333Y6803571D02*
X18702381Y6259286D01*
X19016857Y6259286D01*
X17976666Y9267286D02*
X17976666Y8723000D01*
X17952476Y8614143D01*
X17904095Y8541571D01*
X17831523Y8505286D01*
X17783142Y8505286D01*
X18218571Y8505286D02*
X18218571Y9267286D01*
X18412095Y9267286D01*
X18460476Y9231000D01*
X18484667Y9194714D01*
X18508857Y9122143D01*
X18508857Y9013286D01*
X18484667Y8940714D01*
X18460476Y8904429D01*
X18412095Y8868143D01*
X18218571Y8868143D01*
X18678190Y9267286D02*
X18992667Y9267286D01*
X18823333Y8977000D01*
X18895905Y8977000D01*
X18944286Y8940714D01*
X18968476Y8904429D01*
X18992667Y8831857D01*
X18992667Y8650429D01*
X18968476Y8577857D01*
X18944286Y8541571D01*
X18895905Y8505286D01*
X18750762Y8505286D01*
X18702381Y8541571D01*
X18678190Y8577857D01*
X17976666Y11267286D02*
X17976666Y10723000D01*
X17952476Y10614143D01*
X17904095Y10541571D01*
X17831523Y10505286D01*
X17783142Y10505286D01*
X18218571Y10505286D02*
X18218571Y11267286D01*
X18412095Y11267286D01*
X18460476Y11231000D01*
X18484667Y11194714D01*
X18508857Y11122143D01*
X18508857Y11013286D01*
X18484667Y10940714D01*
X18460476Y10904429D01*
X18412095Y10868143D01*
X18218571Y10868143D01*
X18702381Y11194714D02*
X18726571Y11231000D01*
X18774952Y11267286D01*
X18895905Y11267286D01*
X18944286Y11231000D01*
X18968476Y11194714D01*
X18992667Y11122143D01*
X18992667Y11049571D01*
X18968476Y10940714D01*
X18678190Y10505286D01*
X18992667Y10505286D01*
X17976666Y12767286D02*
X17976666Y12223000D01*
X17952476Y12114143D01*
X17904095Y12041571D01*
X17831523Y12005286D01*
X17783142Y12005286D01*
X18218571Y12005286D02*
X18218571Y12767286D01*
X18412095Y12767286D01*
X18460476Y12731000D01*
X18484667Y12694714D01*
X18508857Y12622143D01*
X18508857Y12513286D01*
X18484667Y12440714D01*
X18460476Y12404429D01*
X18412095Y12368143D01*
X18218571Y12368143D01*
X18992667Y12005286D02*
X18702381Y12005286D01*
X18847524Y12005286D02*
X18847524Y12767286D01*
X18799143Y12658429D01*
X18750762Y12585857D01*
X18702381Y12549571D01*
X75943524Y21840714D02*
X75895143Y21877000D01*
X75870952Y21913286D01*
X75846762Y21985857D01*
X75846762Y22022143D01*
X75870952Y22094714D01*
X75895143Y22131000D01*
X75943524Y22167286D01*
X76040286Y22167286D01*
X76088667Y22131000D01*
X76112857Y22094714D01*
X76137048Y22022143D01*
X76137048Y21985857D01*
X76112857Y21913286D01*
X76088667Y21877000D01*
X76040286Y21840714D01*
X75943524Y21840714D01*
X75895143Y21804429D01*
X75870952Y21768143D01*
X75846762Y21695571D01*
X75846762Y21550429D01*
X75870952Y21477857D01*
X75895143Y21441571D01*
X75943524Y21405286D01*
X76040286Y21405286D01*
X76088667Y21441571D01*
X76112857Y21477857D01*
X76137048Y21550429D01*
X76137048Y21695571D01*
X76112857Y21768143D01*
X76088667Y21804429D01*
X76040286Y21840714D01*
X76354762Y21695571D02*
X76741810Y21695571D01*
X76137048Y59405286D02*
X75846762Y59405286D01*
X75991905Y59405286D02*
X75991905Y60167286D01*
X75943524Y60058429D01*
X75895143Y59985857D01*
X75846762Y59949571D01*
X76354762Y59695571D02*
X76741810Y59695571D01*
X76548286Y59405286D02*
X76548286Y59985857D01*
X76137048Y57155286D02*
X75846762Y57155286D01*
X75991905Y57155286D02*
X75991905Y57917286D01*
X75943524Y57808429D01*
X75895143Y57735857D01*
X75846762Y57699571D01*
X76354762Y57445571D02*
X76741810Y57445571D01*
X75846762Y55344714D02*
X75870952Y55381000D01*
X75919333Y55417286D01*
X76040286Y55417286D01*
X76088667Y55381000D01*
X76112857Y55344714D01*
X76137048Y55272143D01*
X76137048Y55199571D01*
X76112857Y55090714D01*
X75822571Y54655286D01*
X76137048Y54655286D01*
X76354762Y54945571D02*
X76741810Y54945571D01*
X76548286Y54655286D02*
X76548286Y55235857D01*
X75846762Y52594714D02*
X75870952Y52631000D01*
X75919333Y52667286D01*
X76040286Y52667286D01*
X76088667Y52631000D01*
X76112857Y52594714D01*
X76137048Y52522143D01*
X76137048Y52449571D01*
X76112857Y52340714D01*
X75822571Y51905286D01*
X76137048Y51905286D01*
X76354762Y52195571D02*
X76741810Y52195571D01*
X75822571Y50167286D02*
X76137048Y50167286D01*
X75967714Y49877000D01*
X76040286Y49877000D01*
X76088667Y49840714D01*
X76112857Y49804429D01*
X76137048Y49731857D01*
X76137048Y49550429D01*
X76112857Y49477857D01*
X76088667Y49441571D01*
X76040286Y49405286D01*
X75895143Y49405286D01*
X75846762Y49441571D01*
X75822571Y49477857D01*
X76354762Y49695571D02*
X76741810Y49695571D01*
X76548286Y49405286D02*
X76548286Y49985857D01*
X75822571Y47667286D02*
X76137048Y47667286D01*
X75967714Y47377000D01*
X76040286Y47377000D01*
X76088667Y47340714D01*
X76112857Y47304429D01*
X76137048Y47231857D01*
X76137048Y47050429D01*
X76112857Y46977857D01*
X76088667Y46941571D01*
X76040286Y46905286D01*
X75895143Y46905286D01*
X75846762Y46941571D01*
X75822571Y46977857D01*
X76354762Y47195571D02*
X76741810Y47195571D01*
X76088667Y44913286D02*
X76088667Y44405286D01*
X75967714Y45203571D02*
X75846762Y44659286D01*
X76161238Y44659286D01*
X76354762Y44695571D02*
X76741810Y44695571D01*
X76548286Y44405286D02*
X76548286Y44985857D01*
X76088667Y42413286D02*
X76088667Y41905286D01*
X75967714Y42703571D02*
X75846762Y42159286D01*
X76161238Y42159286D01*
X76354762Y42195571D02*
X76741810Y42195571D01*
X76112857Y39917286D02*
X75870952Y39917286D01*
X75846762Y39554429D01*
X75870952Y39590714D01*
X75919333Y39627000D01*
X76040286Y39627000D01*
X76088667Y39590714D01*
X76112857Y39554429D01*
X76137048Y39481857D01*
X76137048Y39300429D01*
X76112857Y39227857D01*
X76088667Y39191571D01*
X76040286Y39155286D01*
X75919333Y39155286D01*
X75870952Y39191571D01*
X75846762Y39227857D01*
X76354762Y39445571D02*
X76741810Y39445571D01*
X76548286Y39155286D02*
X76548286Y39735857D01*
X76112857Y37417286D02*
X75870952Y37417286D01*
X75846762Y37054429D01*
X75870952Y37090714D01*
X75919333Y37127000D01*
X76040286Y37127000D01*
X76088667Y37090714D01*
X76112857Y37054429D01*
X76137048Y36981857D01*
X76137048Y36800429D01*
X76112857Y36727857D01*
X76088667Y36691571D01*
X76040286Y36655286D01*
X75919333Y36655286D01*
X75870952Y36691571D01*
X75846762Y36727857D01*
X76354762Y36945571D02*
X76741810Y36945571D01*
X76088667Y34917286D02*
X75991905Y34917286D01*
X75943524Y34881000D01*
X75919333Y34844714D01*
X75870952Y34735857D01*
X75846762Y34590714D01*
X75846762Y34300429D01*
X75870952Y34227857D01*
X75895143Y34191571D01*
X75943524Y34155286D01*
X76040286Y34155286D01*
X76088667Y34191571D01*
X76112857Y34227857D01*
X76137048Y34300429D01*
X76137048Y34481857D01*
X76112857Y34554429D01*
X76088667Y34590714D01*
X76040286Y34627000D01*
X75943524Y34627000D01*
X75895143Y34590714D01*
X75870952Y34554429D01*
X75846762Y34481857D01*
X76354762Y34445571D02*
X76741810Y34445571D01*
X76548286Y34155286D02*
X76548286Y34735857D01*
X76088667Y32417286D02*
X75991905Y32417286D01*
X75943524Y32381000D01*
X75919333Y32344714D01*
X75870952Y32235857D01*
X75846762Y32090714D01*
X75846762Y31800429D01*
X75870952Y31727857D01*
X75895143Y31691571D01*
X75943524Y31655286D01*
X76040286Y31655286D01*
X76088667Y31691571D01*
X76112857Y31727857D01*
X76137048Y31800429D01*
X76137048Y31981857D01*
X76112857Y32054429D01*
X76088667Y32090714D01*
X76040286Y32127000D01*
X75943524Y32127000D01*
X75895143Y32090714D01*
X75870952Y32054429D01*
X75846762Y31981857D01*
X76354762Y31945571D02*
X76741810Y31945571D01*
X75822571Y29917286D02*
X76161238Y29917286D01*
X75943524Y29155286D01*
X76354762Y29445571D02*
X76741810Y29445571D01*
X76548286Y29155286D02*
X76548286Y29735857D01*
X75822571Y27417286D02*
X76161238Y27417286D01*
X75943524Y26655286D01*
X76354762Y26945571D02*
X76741810Y26945571D01*
X75943524Y24590714D02*
X75895143Y24627000D01*
X75870952Y24663286D01*
X75846762Y24735857D01*
X75846762Y24772143D01*
X75870952Y24844714D01*
X75895143Y24881000D01*
X75943524Y24917286D01*
X76040286Y24917286D01*
X76088667Y24881000D01*
X76112857Y24844714D01*
X76137048Y24772143D01*
X76137048Y24735857D01*
X76112857Y24663286D01*
X76088667Y24627000D01*
X76040286Y24590714D01*
X75943524Y24590714D01*
X75895143Y24554429D01*
X75870952Y24518143D01*
X75846762Y24445571D01*
X75846762Y24300429D01*
X75870952Y24227857D01*
X75895143Y24191571D01*
X75943524Y24155286D01*
X76040286Y24155286D01*
X76088667Y24191571D01*
X76112857Y24227857D01*
X76137048Y24300429D01*
X76137048Y24445571D01*
X76112857Y24518143D01*
X76088667Y24554429D01*
X76040286Y24590714D01*
X76354762Y24445571D02*
X76741810Y24445571D01*
X76548286Y24155286D02*
X76548286Y24735857D01*
X74620952Y18905286D02*
X74620952Y19667286D01*
X74862857Y18905286D02*
X74862857Y19667286D01*
X75153143Y18905286D01*
X75153143Y19667286D01*
X75274095Y18832714D02*
X75661143Y18832714D01*
X76072381Y18905286D02*
X75903048Y19268143D01*
X75782095Y18905286D02*
X75782095Y19667286D01*
X75975619Y19667286D01*
X76024000Y19631000D01*
X76048191Y19594714D01*
X76072381Y19522143D01*
X76072381Y19413286D01*
X76048191Y19340714D01*
X76024000Y19304429D01*
X75975619Y19268143D01*
X75782095Y19268143D01*
X76290095Y19304429D02*
X76459429Y19304429D01*
X76532000Y18905286D02*
X76290095Y18905286D01*
X76290095Y19667286D01*
X76532000Y19667286D01*
X76919048Y19304429D02*
X76749714Y19304429D01*
X76749714Y18905286D02*
X76749714Y19667286D01*
X76991619Y19667286D01*
X74040286Y16554429D02*
X74112857Y16518143D01*
X74137048Y16481857D01*
X74161238Y16409286D01*
X74161238Y16300429D01*
X74137048Y16227857D01*
X74112857Y16191571D01*
X74064476Y16155286D01*
X73870952Y16155286D01*
X73870952Y16917286D01*
X74040286Y16917286D01*
X74088667Y16881000D01*
X74112857Y16844714D01*
X74137048Y16772143D01*
X74137048Y16699571D01*
X74112857Y16627000D01*
X74088667Y16590714D01*
X74040286Y16554429D01*
X73870952Y16554429D01*
X74378952Y16155286D02*
X74378952Y16917286D01*
X74596667Y16373000D02*
X74838572Y16373000D01*
X74548286Y16155286D02*
X74717619Y16917286D01*
X74886953Y16155286D01*
X75032096Y16191571D02*
X75104667Y16155286D01*
X75225620Y16155286D01*
X75274001Y16191571D01*
X75298191Y16227857D01*
X75322382Y16300429D01*
X75322382Y16373000D01*
X75298191Y16445571D01*
X75274001Y16481857D01*
X75225620Y16518143D01*
X75128858Y16554429D01*
X75080477Y16590714D01*
X75056286Y16627000D01*
X75032096Y16699571D01*
X75032096Y16772143D01*
X75056286Y16844714D01*
X75080477Y16881000D01*
X75128858Y16917286D01*
X75249810Y16917286D01*
X75322382Y16881000D01*
X75419144Y16082714D02*
X75806192Y16082714D01*
X75927144Y16155286D02*
X75927144Y16917286D01*
X76048097Y16917286D01*
X76120668Y16881000D01*
X76169049Y16808429D01*
X76193240Y16735857D01*
X76217430Y16590714D01*
X76217430Y16481857D01*
X76193240Y16336714D01*
X76169049Y16264143D01*
X76120668Y16191571D01*
X76048097Y16155286D01*
X75927144Y16155286D01*
X76725430Y16155286D02*
X76556097Y16518143D01*
X76435144Y16155286D02*
X76435144Y16917286D01*
X76628668Y16917286D01*
X76677049Y16881000D01*
X76701240Y16844714D01*
X76725430Y16772143D01*
X76725430Y16663286D01*
X76701240Y16590714D01*
X76677049Y16554429D01*
X76628668Y16518143D01*
X76435144Y16518143D01*
X76870573Y16917286D02*
X77039906Y16155286D01*
X77209240Y16917286D01*
X73540286Y14304429D02*
X73612857Y14268143D01*
X73637048Y14231857D01*
X73661238Y14159286D01*
X73661238Y14050429D01*
X73637048Y13977857D01*
X73612857Y13941571D01*
X73564476Y13905286D01*
X73370952Y13905286D01*
X73370952Y14667286D01*
X73540286Y14667286D01*
X73588667Y14631000D01*
X73612857Y14594714D01*
X73637048Y14522143D01*
X73637048Y14449571D01*
X73612857Y14377000D01*
X73588667Y14340714D01*
X73540286Y14304429D01*
X73370952Y14304429D01*
X73878952Y13905286D02*
X73878952Y14667286D01*
X74096667Y14123000D02*
X74338572Y14123000D01*
X74048286Y13905286D02*
X74217619Y14667286D01*
X74386953Y13905286D01*
X74532096Y13941571D02*
X74604667Y13905286D01*
X74725620Y13905286D01*
X74774001Y13941571D01*
X74798191Y13977857D01*
X74822382Y14050429D01*
X74822382Y14123000D01*
X74798191Y14195571D01*
X74774001Y14231857D01*
X74725620Y14268143D01*
X74628858Y14304429D01*
X74580477Y14340714D01*
X74556286Y14377000D01*
X74532096Y14449571D01*
X74532096Y14522143D01*
X74556286Y14594714D01*
X74580477Y14631000D01*
X74628858Y14667286D01*
X74749810Y14667286D01*
X74822382Y14631000D01*
X74919144Y13832714D02*
X75306192Y13832714D01*
X75427144Y14304429D02*
X75596478Y14304429D01*
X75669049Y13905286D02*
X75427144Y13905286D01*
X75427144Y14667286D01*
X75669049Y14667286D01*
X76128668Y13905286D02*
X75886763Y13905286D01*
X75886763Y14667286D01*
X76298001Y14304429D02*
X76467335Y14304429D01*
X76539906Y13905286D02*
X76298001Y13905286D01*
X76298001Y14667286D01*
X76539906Y14667286D01*
X77047906Y13977857D02*
X77023716Y13941571D01*
X76951144Y13905286D01*
X76902763Y13905286D01*
X76830192Y13941571D01*
X76781811Y14014143D01*
X76757620Y14086714D01*
X76733430Y14231857D01*
X76733430Y14340714D01*
X76757620Y14485857D01*
X76781811Y14558429D01*
X76830192Y14631000D01*
X76902763Y14667286D01*
X76951144Y14667286D01*
X77023716Y14631000D01*
X77047906Y14594714D01*
X22466001Y44245476D02*
X22466001Y43338333D01*
X22429715Y43156905D01*
X22357144Y43035952D01*
X22248287Y42975476D01*
X22175715Y42975476D01*
X22792572Y44124524D02*
X22828858Y44185000D01*
X22901429Y44245476D01*
X23082858Y44245476D01*
X23155429Y44185000D01*
X23191715Y44124524D01*
X23228000Y44003571D01*
X23228000Y43882619D01*
X23191715Y43701190D01*
X22756286Y42975476D01*
X23228000Y42975476D01*
D12*
X21750000Y32590000D02*
X21750000Y42590000D01*
X21750000Y40590000D02*
X23750000Y40590000D01*
D13*
X18352857Y33135286D02*
X18352857Y33897286D01*
X18473810Y33897286D01*
X18546381Y33861000D01*
X18594762Y33788429D01*
X18618953Y33715857D01*
X18643143Y33570714D01*
X18643143Y33461857D01*
X18618953Y33316714D01*
X18594762Y33244143D01*
X18546381Y33171571D01*
X18473810Y33135286D01*
X18352857Y33135286D01*
X19126953Y33861000D02*
X19078572Y33897286D01*
X19006000Y33897286D01*
X18933429Y33861000D01*
X18885048Y33788429D01*
X18860857Y33715857D01*
X18836667Y33570714D01*
X18836667Y33461857D01*
X18860857Y33316714D01*
X18885048Y33244143D01*
X18933429Y33171571D01*
X19006000Y33135286D01*
X19054381Y33135286D01*
X19126953Y33171571D01*
X19151143Y33207857D01*
X19151143Y33461857D01*
X19054381Y33461857D01*
X19368857Y33135286D02*
X19368857Y33897286D01*
X19659143Y33135286D01*
X19659143Y33897286D01*
X19901047Y33135286D02*
X19901047Y33897286D01*
X20022000Y33897286D01*
X20094571Y33861000D01*
X20142952Y33788429D01*
X20167143Y33715857D01*
X20191333Y33570714D01*
X20191333Y33461857D01*
X20167143Y33316714D01*
X20142952Y33244143D01*
X20094571Y33171571D01*
X20022000Y33135286D01*
X19901047Y33135286D01*
X18316572Y35991000D02*
X18268191Y36027286D01*
X18195619Y36027286D01*
X18123048Y35991000D01*
X18074667Y35918429D01*
X18050476Y35845857D01*
X18026286Y35700714D01*
X18026286Y35591857D01*
X18050476Y35446714D01*
X18074667Y35374143D01*
X18123048Y35301571D01*
X18195619Y35265286D01*
X18244000Y35265286D01*
X18316572Y35301571D01*
X18340762Y35337857D01*
X18340762Y35591857D01*
X18244000Y35591857D01*
X18558476Y35265286D02*
X18558476Y36027286D01*
X18752000Y36027286D01*
X18800381Y35991000D01*
X18824572Y35954714D01*
X18848762Y35882143D01*
X18848762Y35773286D01*
X18824572Y35700714D01*
X18800381Y35664429D01*
X18752000Y35628143D01*
X18558476Y35628143D01*
X19066476Y35265286D02*
X19066476Y36027286D01*
X19405143Y36027286D02*
X19501905Y36027286D01*
X19550286Y35991000D01*
X19598667Y35918429D01*
X19622858Y35773286D01*
X19622858Y35519286D01*
X19598667Y35374143D01*
X19550286Y35301571D01*
X19501905Y35265286D01*
X19405143Y35265286D01*
X19356762Y35301571D01*
X19308381Y35374143D01*
X19284191Y35519286D01*
X19284191Y35773286D01*
X19308381Y35918429D01*
X19356762Y35991000D01*
X19405143Y36027286D01*
X19719619Y35192714D02*
X20106667Y35192714D01*
X20445334Y35773286D02*
X20445334Y35265286D01*
X20324381Y36063571D02*
X20203429Y35519286D01*
X20517905Y35519286D01*
X18306572Y41971000D02*
X18258191Y42007286D01*
X18185619Y42007286D01*
X18113048Y41971000D01*
X18064667Y41898429D01*
X18040476Y41825857D01*
X18016286Y41680714D01*
X18016286Y41571857D01*
X18040476Y41426714D01*
X18064667Y41354143D01*
X18113048Y41281571D01*
X18185619Y41245286D01*
X18234000Y41245286D01*
X18306572Y41281571D01*
X18330762Y41317857D01*
X18330762Y41571857D01*
X18234000Y41571857D01*
X18548476Y41245286D02*
X18548476Y42007286D01*
X18742000Y42007286D01*
X18790381Y41971000D01*
X18814572Y41934714D01*
X18838762Y41862143D01*
X18838762Y41753286D01*
X18814572Y41680714D01*
X18790381Y41644429D01*
X18742000Y41608143D01*
X18548476Y41608143D01*
X19056476Y41245286D02*
X19056476Y42007286D01*
X19395143Y42007286D02*
X19491905Y42007286D01*
X19540286Y41971000D01*
X19588667Y41898429D01*
X19612858Y41753286D01*
X19612858Y41499286D01*
X19588667Y41354143D01*
X19540286Y41281571D01*
X19491905Y41245286D01*
X19395143Y41245286D01*
X19346762Y41281571D01*
X19298381Y41354143D01*
X19274191Y41499286D01*
X19274191Y41753286D01*
X19298381Y41898429D01*
X19346762Y41971000D01*
X19395143Y42007286D01*
X19709619Y41172714D02*
X20096667Y41172714D01*
X20483715Y41245286D02*
X20193429Y41245286D01*
X20338572Y41245286D02*
X20338572Y42007286D01*
X20290191Y41898429D01*
X20241810Y41825857D01*
X20193429Y41789571D01*
X18306572Y37971000D02*
X18258191Y38007286D01*
X18185619Y38007286D01*
X18113048Y37971000D01*
X18064667Y37898429D01*
X18040476Y37825857D01*
X18016286Y37680714D01*
X18016286Y37571857D01*
X18040476Y37426714D01*
X18064667Y37354143D01*
X18113048Y37281571D01*
X18185619Y37245286D01*
X18234000Y37245286D01*
X18306572Y37281571D01*
X18330762Y37317857D01*
X18330762Y37571857D01*
X18234000Y37571857D01*
X18548476Y37245286D02*
X18548476Y38007286D01*
X18742000Y38007286D01*
X18790381Y37971000D01*
X18814572Y37934714D01*
X18838762Y37862143D01*
X18838762Y37753286D01*
X18814572Y37680714D01*
X18790381Y37644429D01*
X18742000Y37608143D01*
X18548476Y37608143D01*
X19056476Y37245286D02*
X19056476Y38007286D01*
X19395143Y38007286D02*
X19491905Y38007286D01*
X19540286Y37971000D01*
X19588667Y37898429D01*
X19612858Y37753286D01*
X19612858Y37499286D01*
X19588667Y37354143D01*
X19540286Y37281571D01*
X19491905Y37245286D01*
X19395143Y37245286D01*
X19346762Y37281571D01*
X19298381Y37354143D01*
X19274191Y37499286D01*
X19274191Y37753286D01*
X19298381Y37898429D01*
X19346762Y37971000D01*
X19395143Y38007286D01*
X19709619Y37172714D02*
X20096667Y37172714D01*
X20169238Y38007286D02*
X20483715Y38007286D01*
X20314381Y37717000D01*
X20386953Y37717000D01*
X20435334Y37680714D01*
X20459524Y37644429D01*
X20483715Y37571857D01*
X20483715Y37390429D01*
X20459524Y37317857D01*
X20435334Y37281571D01*
X20386953Y37245286D01*
X20241810Y37245286D01*
X20193429Y37281571D01*
X20169238Y37317857D01*
X18306572Y39971000D02*
X18258191Y40007286D01*
X18185619Y40007286D01*
X18113048Y39971000D01*
X18064667Y39898429D01*
X18040476Y39825857D01*
X18016286Y39680714D01*
X18016286Y39571857D01*
X18040476Y39426714D01*
X18064667Y39354143D01*
X18113048Y39281571D01*
X18185619Y39245286D01*
X18234000Y39245286D01*
X18306572Y39281571D01*
X18330762Y39317857D01*
X18330762Y39571857D01*
X18234000Y39571857D01*
X18548476Y39245286D02*
X18548476Y40007286D01*
X18742000Y40007286D01*
X18790381Y39971000D01*
X18814572Y39934714D01*
X18838762Y39862143D01*
X18838762Y39753286D01*
X18814572Y39680714D01*
X18790381Y39644429D01*
X18742000Y39608143D01*
X18548476Y39608143D01*
X19056476Y39245286D02*
X19056476Y40007286D01*
X19395143Y40007286D02*
X19491905Y40007286D01*
X19540286Y39971000D01*
X19588667Y39898429D01*
X19612858Y39753286D01*
X19612858Y39499286D01*
X19588667Y39354143D01*
X19540286Y39281571D01*
X19491905Y39245286D01*
X19395143Y39245286D01*
X19346762Y39281571D01*
X19298381Y39354143D01*
X19274191Y39499286D01*
X19274191Y39753286D01*
X19298381Y39898429D01*
X19346762Y39971000D01*
X19395143Y40007286D01*
X19709619Y39172714D02*
X20096667Y39172714D01*
X20193429Y39934714D02*
X20217619Y39971000D01*
X20266000Y40007286D01*
X20386953Y40007286D01*
X20435334Y39971000D01*
X20459524Y39934714D01*
X20483715Y39862143D01*
X20483715Y39789571D01*
X20459524Y39680714D01*
X20169238Y39245286D01*
X20483715Y39245286D01*
D12*
X23150000Y33490000D02*
G75*
G03X23150000Y33490000I-400000J0D01*
G01*
X23162311Y35490000D02*
G75*
G03X23162311Y35490000I-412311J0D01*
G01*
X23150000Y37490000D02*
G75*
G03X23150000Y37490000I-400000J0D01*
G01*
X23150000Y39590000D02*
G75*
G03X23150000Y39590000I-400000J0D01*
G01*
X23150000Y41590000D02*
G75*
G03X23150000Y41590000I-400000J0D01*
G01*
X21750000Y34590000D02*
X23750000Y34590000D01*
X21750000Y36590000D02*
X23750000Y36590000D01*
X21750000Y38590000D02*
X23750000Y38590000D01*
X23750000Y32590000D02*
X21750000Y32590000D01*
X23750000Y42590000D02*
X23750000Y32590000D01*
X21750000Y42590000D02*
X23750000Y42590000D01*
D13*
X74040286Y12054429D02*
X74112857Y12018143D01*
X74137048Y11981857D01*
X74161238Y11909286D01*
X74161238Y11800429D01*
X74137048Y11727857D01*
X74112857Y11691571D01*
X74064476Y11655286D01*
X73870952Y11655286D01*
X73870952Y12417286D01*
X74040286Y12417286D01*
X74088667Y12381000D01*
X74112857Y12344714D01*
X74137048Y12272143D01*
X74137048Y12199571D01*
X74112857Y12127000D01*
X74088667Y12090714D01*
X74040286Y12054429D01*
X73870952Y12054429D01*
X74378952Y11655286D02*
X74378952Y12417286D01*
X74596667Y11873000D02*
X74838572Y11873000D01*
X74548286Y11655286D02*
X74717619Y12417286D01*
X74886953Y11655286D01*
X75032096Y11691571D02*
X75104667Y11655286D01*
X75225620Y11655286D01*
X75274001Y11691571D01*
X75298191Y11727857D01*
X75322382Y11800429D01*
X75322382Y11873000D01*
X75298191Y11945571D01*
X75274001Y11981857D01*
X75225620Y12018143D01*
X75128858Y12054429D01*
X75080477Y12090714D01*
X75056286Y12127000D01*
X75032096Y12199571D01*
X75032096Y12272143D01*
X75056286Y12344714D01*
X75080477Y12381000D01*
X75128858Y12417286D01*
X75249810Y12417286D01*
X75322382Y12381000D01*
X75419144Y11582714D02*
X75806192Y11582714D01*
X75902954Y11691571D02*
X75975525Y11655286D01*
X76096478Y11655286D01*
X76144859Y11691571D01*
X76169049Y11727857D01*
X76193240Y11800429D01*
X76193240Y11873000D01*
X76169049Y11945571D01*
X76144859Y11981857D01*
X76096478Y12018143D01*
X75999716Y12054429D01*
X75951335Y12090714D01*
X75927144Y12127000D01*
X75902954Y12199571D01*
X75902954Y12272143D01*
X75927144Y12344714D01*
X75951335Y12381000D01*
X75999716Y12417286D01*
X76120668Y12417286D01*
X76193240Y12381000D01*
X76410954Y11655286D02*
X76410954Y12417286D01*
X76410954Y12054429D02*
X76701240Y12054429D01*
X76701240Y11655286D02*
X76701240Y12417286D01*
X76943144Y11655286D02*
X76943144Y12417286D01*
X77064097Y12417286D01*
X77136668Y12381000D01*
X77185049Y12308429D01*
X77209240Y12235857D01*
X77233430Y12090714D01*
X77233430Y11981857D01*
X77209240Y11836714D01*
X77185049Y11764143D01*
X77136668Y11691571D01*
X77064097Y11655286D01*
X76943144Y11655286D01*
D11*
X-3985000Y76580000D02*
X81880000Y76580000D01*
X-3985000Y76580000D02*
X-3985000Y-3920000D01*
X81875000Y-3920000D02*
X81875000Y76580000D01*
X-3990000Y-3920000D02*
X81875000Y-3920000D01*
X6880000Y59580000D02*
X6680000Y59580000D01*
X6680000Y59580000D02*
X6680000Y58580000D01*
X6680000Y58580000D02*
X6480000Y58580000D01*
X6880000Y57780000D02*
X6680000Y57780000D01*
X6680000Y57780000D02*
X6680000Y56180000D01*
X6680000Y56180000D02*
X6480000Y56180000D01*
X6880000Y52780000D02*
X6680000Y52780000D01*
X6680000Y52780000D02*
X6680000Y53580000D01*
X6680000Y53580000D02*
X6480000Y53580000D01*
X6880000Y50280000D02*
X6680000Y50280000D01*
X6680000Y50280000D02*
X6680000Y51080000D01*
X6680000Y51080000D02*
X6480000Y51080000D01*
X1410000Y61180000D02*
X1410000Y62450000D01*
X1410000Y62450000D02*
X6490000Y62450000D01*
X6490000Y62450000D02*
X6490000Y11650000D01*
X6490000Y11650000D02*
X1410000Y11650000D01*
X1410000Y11650000D02*
X1410000Y61180000D01*
X51500000Y12830000D02*
X51500000Y7750000D01*
X51500000Y7750000D02*
X54040000Y7750000D01*
X54040000Y7750000D02*
X54040000Y12830000D01*
X54320000Y15650000D02*
X54320000Y14100000D01*
X54040000Y12830000D02*
X51500000Y12830000D01*
X51220000Y14100000D02*
X51220000Y15650000D01*
X51220000Y15650000D02*
X54320000Y15650000D01*
X40266000Y17320000D02*
X40266000Y12240000D01*
X40266000Y12240000D02*
X35694000Y12240000D01*
X35694000Y12240000D02*
X35694000Y17320000D01*
X35694000Y17320000D02*
X40266000Y17320000D01*
X38742000Y17320000D02*
X38742000Y16812000D01*
X38742000Y16812000D02*
X37472000Y16812000D01*
X37472000Y16812000D02*
X37472000Y17320000D01*
X15643000Y29141000D02*
X23644000Y29141000D01*
X23644000Y18219000D02*
X15643000Y18219000D01*
X23644000Y29141000D02*
X23644000Y18219000D01*
X15643000Y18219000D02*
X15643000Y29141000D01*
X20088000Y29141000D02*
X20088000Y28379000D01*
X20088000Y28379000D02*
X19072000Y28379000D01*
X19072000Y28379000D02*
X19072000Y29141000D01*
X37680000Y59605000D02*
X36480000Y59605000D01*
X36480000Y61355000D02*
X37680000Y61355000D01*
X15343000Y57441000D02*
X23344000Y57441000D01*
X23344000Y46519000D02*
X15343000Y46519000D01*
X23344000Y57441000D02*
X23344000Y46519000D01*
X15343000Y46519000D02*
X15343000Y57441000D01*
X19788000Y57441000D02*
X19788000Y56679000D01*
X19788000Y56679000D02*
X18772000Y56679000D01*
X18772000Y56679000D02*
X18772000Y57441000D01*
X42755000Y31805000D02*
X42755000Y32755000D01*
X32405000Y31805000D02*
X32405000Y32855000D01*
X32405000Y42155000D02*
X32405000Y41105000D01*
X42755000Y42155000D02*
X42755000Y41105000D01*
X42755000Y31805000D02*
X41705000Y31805000D01*
X42755000Y42155000D02*
X41705000Y42155000D01*
X32405000Y42155000D02*
X33455000Y42155000D01*
X32405000Y31805000D02*
X33455000Y31805000D01*
X42755000Y32755000D02*
X44030000Y32755000D01*
X61230000Y65180000D02*
X61230000Y64180000D01*
X62930000Y64180000D02*
X62930000Y65180000D01*
X67030000Y65180000D02*
X67030000Y64180000D01*
X68730000Y64180000D02*
X68730000Y65180000D01*
X61230000Y58880000D02*
X61230000Y57880000D01*
X62930000Y57880000D02*
X62930000Y58880000D01*
X67030000Y58680000D02*
X67030000Y57680000D01*
X68730000Y57680000D02*
X68730000Y58680000D01*
X61230000Y52480000D02*
X61230000Y51480000D01*
X62930000Y51480000D02*
X62930000Y52480000D01*
X67030000Y52580000D02*
X67030000Y51580000D01*
X68730000Y51580000D02*
X68730000Y52580000D01*
X61230000Y46280000D02*
X61230000Y45280000D01*
X62930000Y45280000D02*
X62930000Y46280000D01*
X67030000Y46380000D02*
X67030000Y45380000D01*
X68730000Y45380000D02*
X68730000Y46380000D01*
X61230000Y39780000D02*
X61230000Y38780000D01*
X62930000Y38780000D02*
X62930000Y39780000D01*
X67030000Y39580000D02*
X67030000Y38580000D01*
X68730000Y38580000D02*
X68730000Y39580000D01*
X61230000Y32780000D02*
X61230000Y31780000D01*
X62930000Y31780000D02*
X62930000Y32780000D01*
X67130000Y32580000D02*
X67130000Y31580000D01*
X68830000Y31580000D02*
X68830000Y32580000D01*
X61230000Y25780000D02*
X61230000Y24780000D01*
X62930000Y24780000D02*
X62930000Y25780000D01*
X67130000Y25580000D02*
X67130000Y24580000D01*
X68830000Y24580000D02*
X68830000Y25580000D01*
X61230000Y18580000D02*
X61230000Y17580000D01*
X62930000Y17580000D02*
X62930000Y18580000D01*
X67130000Y18380000D02*
X67130000Y17380000D01*
X68830000Y17380000D02*
X68830000Y18380000D01*
X61230000Y11680000D02*
X61230000Y10680000D01*
X62930000Y10680000D02*
X62930000Y11680000D01*
X67130000Y11680000D02*
X67130000Y10680000D01*
X68830000Y10680000D02*
X68830000Y11680000D01*
X43280000Y51230000D02*
X42280000Y51230000D01*
X42280000Y49530000D02*
X43280000Y49530000D01*
X39080000Y46430000D02*
X38080000Y46430000D01*
X38080000Y44730000D02*
X39080000Y44730000D01*
X31280000Y51230000D02*
X30280000Y51230000D01*
X30280000Y49530000D02*
X31280000Y49530000D01*
X33280000Y44730000D02*
X34280000Y44730000D01*
X34280000Y46430000D02*
X33280000Y46430000D01*
X32290000Y27180000D02*
X32290000Y26180000D01*
X33990000Y26180000D02*
X33990000Y27180000D01*
X35750000Y26830000D02*
X36750000Y26830000D01*
X36750000Y28530000D02*
X35750000Y28530000D01*
X28230000Y63380000D02*
X28230000Y64380000D01*
X26530000Y64380000D02*
X26530000Y63380000D01*
X32630000Y63380000D02*
X32630000Y64380000D01*
X30930000Y64380000D02*
X30930000Y63380000D01*
X42230000Y55280000D02*
X42230000Y56280000D01*
X40530000Y56280000D02*
X40530000Y55280000D01*
X46730000Y55280000D02*
X46730000Y56280000D01*
X45030000Y56280000D02*
X45030000Y55280000D01*
X29130000Y55280000D02*
X29130000Y56280000D01*
X27430000Y56280000D02*
X27430000Y55280000D01*
X33530000Y55280000D02*
X33530000Y56280000D01*
X31830000Y56280000D02*
X31830000Y55280000D01*
X37930000Y55280000D02*
X37930000Y56280000D01*
X36230000Y56280000D02*
X36230000Y55280000D01*
X36130000Y67280000D02*
X36130000Y66280000D01*
X37830000Y66280000D02*
X37830000Y67280000D01*
X58205000Y64080000D02*
X58205000Y65280000D01*
X59955000Y65280000D02*
X59955000Y64080000D01*
X65855000Y65280000D02*
X65855000Y64080000D01*
X64105000Y64080000D02*
X64105000Y65280000D01*
X59955000Y58980000D02*
X59955000Y57780000D01*
X58205000Y57780000D02*
X58205000Y58980000D01*
X65755000Y58880000D02*
X65755000Y57680000D01*
X64005000Y57680000D02*
X64005000Y58880000D01*
X58205000Y51380000D02*
X58205000Y52580000D01*
X59955000Y52580000D02*
X59955000Y51380000D01*
X65755000Y52580000D02*
X65755000Y51380000D01*
X64005000Y51380000D02*
X64005000Y52580000D01*
X59955000Y46480000D02*
X59955000Y45280000D01*
X58205000Y45280000D02*
X58205000Y46480000D01*
X65755000Y46480000D02*
X65755000Y45280000D01*
X64005000Y45280000D02*
X64005000Y46480000D01*
X58205000Y38780000D02*
X58205000Y39980000D01*
X59955000Y39980000D02*
X59955000Y38780000D01*
X65855000Y39880000D02*
X65855000Y38680000D01*
X64105000Y38680000D02*
X64105000Y39880000D01*
X59955000Y33080000D02*
X59955000Y31880000D01*
X58205000Y31880000D02*
X58205000Y33080000D01*
X65955000Y32780000D02*
X65955000Y31580000D01*
X64205000Y31580000D02*
X64205000Y32780000D01*
X58305000Y24680000D02*
X58305000Y25880000D01*
X60055000Y25880000D02*
X60055000Y24680000D01*
X65955000Y25780000D02*
X65955000Y24580000D01*
X64205000Y24580000D02*
X64205000Y25780000D01*
X59955000Y18780000D02*
X59955000Y17580000D01*
X58205000Y17580000D02*
X58205000Y18780000D01*
X65955000Y18580000D02*
X65955000Y17380000D01*
X64205000Y17380000D02*
X64205000Y18580000D01*
X58205000Y10680000D02*
X58205000Y11880000D01*
X59955000Y11880000D02*
X59955000Y10680000D01*
X65955000Y11680000D02*
X65955000Y10480000D01*
X64205000Y10480000D02*
X64205000Y11680000D01*
X72230000Y62730000D02*
G75*
G03X72230000Y62730000I-100000J0D01*
G01*
X71580000Y62980000D02*
X72080000Y62980000D01*
X71580000Y65880000D02*
X71580000Y62980000D01*
X72080000Y65880000D02*
X71580000Y65880000D01*
X72080000Y62980000D02*
X72080000Y65880000D01*
X72230000Y56530000D02*
G75*
G03X72230000Y56530000I-100000J0D01*
G01*
X71580000Y56780000D02*
X72080000Y56780000D01*
X71580000Y59680000D02*
X71580000Y56780000D01*
X72080000Y59680000D02*
X71580000Y59680000D01*
X72080000Y56780000D02*
X72080000Y59680000D01*
X72230000Y50330000D02*
G75*
G03X72230000Y50330000I-100000J0D01*
G01*
X71580000Y50580000D02*
X72080000Y50580000D01*
X71580000Y53480000D02*
X71580000Y50580000D01*
X72080000Y53480000D02*
X71580000Y53480000D01*
X72080000Y50580000D02*
X72080000Y53480000D01*
X72230000Y44230000D02*
G75*
G03X72230000Y44230000I-100000J0D01*
G01*
X71580000Y44480000D02*
X72080000Y44480000D01*
X71580000Y47380000D02*
X71580000Y44480000D01*
X72080000Y47380000D02*
X71580000Y47380000D01*
X72080000Y44480000D02*
X72080000Y47380000D01*
X72280000Y37580000D02*
G75*
G03X72280000Y37580000I-100000J0D01*
G01*
X71630000Y37830000D02*
X72130000Y37830000D01*
X71630000Y40730000D02*
X71630000Y37830000D01*
X72130000Y40730000D02*
X71630000Y40730000D01*
X72130000Y37830000D02*
X72130000Y40730000D01*
X72180000Y30380000D02*
G75*
G03X72180000Y30380000I-100000J0D01*
G01*
X71530000Y30630000D02*
X72030000Y30630000D01*
X71530000Y33530000D02*
X71530000Y30630000D01*
X72030000Y33530000D02*
X71530000Y33530000D01*
X72030000Y30630000D02*
X72030000Y33530000D01*
X72180000Y23180000D02*
G75*
G03X72180000Y23180000I-100000J0D01*
G01*
X71530000Y23430000D02*
X72030000Y23430000D01*
X71530000Y26330000D02*
X71530000Y23430000D01*
X72030000Y26330000D02*
X71530000Y26330000D01*
X72030000Y23430000D02*
X72030000Y26330000D01*
X72180000Y16280000D02*
G75*
G03X72180000Y16280000I-100000J0D01*
G01*
X71530000Y16530000D02*
X72030000Y16530000D01*
X71530000Y19430000D02*
X71530000Y16530000D01*
X72030000Y19430000D02*
X71530000Y19430000D01*
X72030000Y16530000D02*
X72030000Y19430000D01*
X72180000Y9480000D02*
G75*
G03X72180000Y9480000I-100000J0D01*
G01*
X71530000Y9730000D02*
X72030000Y9730000D01*
X71530000Y12630000D02*
X71530000Y9730000D01*
X72030000Y12630000D02*
X71530000Y12630000D01*
X72030000Y9730000D02*
X72030000Y12630000D01*
X41724000Y63256000D02*
X41724000Y60208000D01*
X41724000Y60208000D02*
X48836000Y60208000D01*
X48836000Y60208000D02*
X48836000Y63256000D01*
X41724000Y66304000D02*
X41724000Y67066000D01*
X41724000Y67066000D02*
X43248000Y69352000D01*
X43248000Y69352000D02*
X47312000Y69352000D01*
X47312000Y69352000D02*
X48836000Y67066000D01*
X48836000Y67066000D02*
X48836000Y66304000D01*
X35380000Y49355000D02*
X37380000Y49355000D01*
X37380000Y51405000D02*
X35380000Y51405000D01*
X39780000Y23430000D02*
X40780000Y23430000D01*
X40780000Y25130000D02*
X39780000Y25130000D01*
X33930000Y20280000D02*
X33930000Y21280000D01*
X32230000Y21280000D02*
X32230000Y20280000D01*
X26330000Y14380000D02*
X26330000Y13380000D01*
X28030000Y13380000D02*
X28030000Y14380000D01*
X42380000Y44730000D02*
X43380000Y44730000D01*
X43380000Y46430000D02*
X42380000Y46430000D01*
X29330000Y19580000D02*
X29330000Y20580000D01*
X27630000Y20580000D02*
X27630000Y19580000D01*
X30150000Y14400000D02*
X30150000Y13400000D01*
X31850000Y13400000D02*
X31850000Y14400000D01*
X51510000Y3050000D02*
X46430000Y3050000D01*
X46430000Y3050000D02*
X46430000Y510000D01*
X46430000Y510000D02*
X51510000Y510000D01*
X54330000Y230000D02*
X52780000Y230000D01*
X51510000Y510000D02*
X51510000Y3050000D01*
X52780000Y3330000D02*
X54330000Y3330000D01*
X54330000Y3330000D02*
X54330000Y230000D01*
X38780000Y3020000D02*
X41320000Y3020000D01*
X35960000Y3300000D02*
X37510000Y3300000D01*
X38780000Y3020000D02*
X38780000Y480000D01*
X37510000Y200000D02*
X35960000Y200000D01*
X35960000Y200000D02*
X35960000Y3300000D01*
X38780000Y480000D02*
X41320000Y480000D01*
X41320000Y480000D02*
X41320000Y3020000D01*
X45510000Y12810000D02*
X45510000Y7730000D01*
X45510000Y7730000D02*
X48050000Y7730000D01*
X48050000Y7730000D02*
X48050000Y12810000D01*
X48330000Y15630000D02*
X48330000Y14080000D01*
X48050000Y12810000D02*
X45510000Y12810000D01*
X45230000Y14080000D02*
X45230000Y15630000D01*
X45230000Y15630000D02*
X48330000Y15630000D01*
X42755000Y28380000D02*
X42755000Y27180000D01*
X41005000Y27180000D02*
X41005000Y28380000D01*
X39780000Y22055000D02*
X40980000Y22055000D01*
X40980000Y20305000D02*
X39780000Y20305000D01*
X33905000Y7480000D02*
X33905000Y8680000D01*
X35655000Y8680000D02*
X35655000Y7480000D01*
X48355000Y29180000D02*
X48355000Y27980000D01*
X46605000Y27980000D02*
X46605000Y29180000D01*
X48080000Y17305000D02*
X46880000Y17305000D01*
X46880000Y19055000D02*
X48080000Y19055000D01*
X51920000Y6195000D02*
X53120000Y6195000D01*
X53120000Y4445000D02*
X51920000Y4445000D01*
X67230000Y4680000D02*
X67230000Y3680000D01*
X68930000Y3680000D02*
X68930000Y4680000D01*
X61230000Y4580000D02*
X61230000Y3580000D01*
X62930000Y3580000D02*
X62930000Y4580000D01*
X64205000Y3580000D02*
X64205000Y4780000D01*
X65955000Y4780000D02*
X65955000Y3580000D01*
X58205000Y3480000D02*
X58205000Y4680000D01*
X59955000Y4680000D02*
X59955000Y3480000D01*
X79950000Y58610000D02*
X79950000Y10350000D01*
X79950000Y10350000D02*
X77410000Y10350000D01*
X77410000Y10350000D02*
X77410000Y58610000D01*
X80230000Y61430000D02*
X80230000Y59880000D01*
X79950000Y58610000D02*
X77410000Y58610000D01*
X77130000Y59880000D02*
X77130000Y61430000D01*
X77130000Y61430000D02*
X80230000Y61430000D01*
X72180000Y2480000D02*
G75*
G03X72180000Y2480000I-100000J0D01*
G01*
X71530000Y2730000D02*
X72030000Y2730000D01*
X71530000Y5630000D02*
X71530000Y2730000D01*
X72030000Y5630000D02*
X71530000Y5630000D01*
X72030000Y2730000D02*
X72030000Y5630000D01*
X53180000Y68255000D02*
X54380000Y68255000D01*
X54380000Y66505000D02*
X53180000Y66505000D01*
X12850000Y55000000D02*
X12850000Y56000000D01*
X11150000Y56000000D02*
X11150000Y55000000D01*
X10350000Y55000000D02*
X10350000Y56000000D01*
X8650000Y56000000D02*
X8650000Y55000000D01*
X13050000Y27100000D02*
X13050000Y28100000D01*
X11350000Y28100000D02*
X11350000Y27100000D01*
X80086000Y72500000D02*
G75*
G03X80086000Y72500000I-2286000J0D01*
G01*
X80286000Y0D02*
G75*
G03X80286000Y0I-2286000J0D01*
G01*
X2286000Y72500000D02*
G75*
G03X2286000Y72500000I-2286000J0D01*
G01*
X2286000Y0D02*
G75*
G03X2286000Y0I-2286000J0D01*
G01*
X28370000Y31230000D02*
X28370000Y29680000D01*
X28370000Y29680000D02*
X25270000Y29680000D01*
X25270000Y29680000D02*
X25270000Y31230000D01*
X25550000Y32500000D02*
X25550000Y42660000D01*
X25550000Y42660000D02*
X28090000Y42660000D01*
X28090000Y42660000D02*
X28090000Y32500000D01*
X25550000Y32500000D02*
X28090000Y32500000D01*
D14*
G36*
X17076840Y-3091560D02*
X17117480Y-3071240D01*
X17211460Y-3012820D01*
X17346080Y-2923920D01*
X17503560Y-2819780D01*
X17661040Y-2710560D01*
X17790580Y-2624200D01*
X17882020Y-2565780D01*
X17920120Y-2545460D01*
X17940440Y-2550540D01*
X18016640Y-2588640D01*
X18125860Y-2644520D01*
X18189360Y-2677540D01*
X18288420Y-2720720D01*
X18339220Y-2730880D01*
X18346840Y-2715640D01*
X18384940Y-2639440D01*
X18440820Y-2507360D01*
X18517020Y-2334640D01*
X18603380Y-2131440D01*
X18697360Y-1913000D01*
X18788800Y-1689480D01*
X18877700Y-1476120D01*
X18956440Y-1285620D01*
X19019940Y-1130680D01*
X19060580Y-1021460D01*
X19075820Y-975740D01*
X19070740Y-965580D01*
X19019940Y-917320D01*
X18933580Y-851280D01*
X18743080Y-696340D01*
X18557660Y-462660D01*
X18443360Y-198500D01*
X18405260Y96140D01*
X18438280Y367920D01*
X18544960Y629540D01*
X18727840Y865760D01*
X18948820Y1041020D01*
X19207900Y1152780D01*
X19500000Y1188340D01*
X19779400Y1157860D01*
X20046100Y1051180D01*
X20282320Y870840D01*
X20381380Y756540D01*
X20518540Y517780D01*
X20597280Y261240D01*
X20604900Y197740D01*
X20594740Y-84200D01*
X20510920Y-353440D01*
X20363600Y-594740D01*
X20157860Y-790320D01*
X20129920Y-810640D01*
X20035940Y-881760D01*
X19972440Y-930020D01*
X19921640Y-970660D01*
X20279780Y-1831720D01*
X20335660Y-1968880D01*
X20434720Y-2205100D01*
X20521080Y-2408300D01*
X20589660Y-2568320D01*
X20637920Y-2677540D01*
X20658240Y-2720720D01*
X20660780Y-2723260D01*
X20691260Y-2728340D01*
X20757300Y-2702940D01*
X20876680Y-2644520D01*
X20957960Y-2603880D01*
X21049400Y-2560700D01*
X21090040Y-2545460D01*
X21125600Y-2563240D01*
X21211960Y-2621660D01*
X21341500Y-2705480D01*
X21493900Y-2809620D01*
X21641220Y-2911220D01*
X21775840Y-3000120D01*
X21874900Y-3061080D01*
X21923160Y-3089020D01*
X21930780Y-3089020D01*
X21971420Y-3063620D01*
X22050160Y-3000120D01*
X22167000Y-2888360D01*
X22332100Y-2725800D01*
X22357500Y-2700400D01*
X22494660Y-2560700D01*
X22606420Y-2443860D01*
X22680080Y-2362580D01*
X22705480Y-2324480D01*
X22705480Y-2324480D01*
X22682620Y-2276220D01*
X22619120Y-2179700D01*
X22530220Y-2042540D01*
X22421000Y-1882520D01*
X22136520Y-1468500D01*
X22294000Y-1077340D01*
X22342260Y-957960D01*
X22403220Y-813180D01*
X22446400Y-709040D01*
X22471800Y-663320D01*
X22512440Y-648080D01*
X22621660Y-622680D01*
X22776600Y-589660D01*
X22959480Y-556640D01*
X23137280Y-523620D01*
X23297300Y-493140D01*
X23411600Y-470280D01*
X23462400Y-460120D01*
X23475100Y-452500D01*
X23485260Y-427100D01*
X23492880Y-373760D01*
X23495420Y-277240D01*
X23497960Y-124840D01*
X23497960Y96140D01*
X23497960Y119000D01*
X23495420Y329820D01*
X23492880Y497460D01*
X23487800Y606680D01*
X23480180Y649860D01*
X23480180Y649860D01*
X23429380Y662560D01*
X23317620Y685420D01*
X23157600Y718440D01*
X22967100Y754000D01*
X22956940Y756540D01*
X22766440Y792100D01*
X22608960Y825120D01*
X22497200Y850520D01*
X22451480Y865760D01*
X22441320Y878460D01*
X22403220Y952120D01*
X22347340Y1068960D01*
X22286380Y1213740D01*
X22222880Y1361060D01*
X22169540Y1495680D01*
X22133980Y1594740D01*
X22123820Y1640460D01*
X22123820Y1640460D01*
X22151760Y1686180D01*
X22217800Y1785240D01*
X22309240Y1919860D01*
X22421000Y2082420D01*
X22428620Y2095120D01*
X22537840Y2255140D01*
X22626740Y2389760D01*
X22685160Y2486280D01*
X22705480Y2529460D01*
X22705480Y2532000D01*
X22669920Y2580260D01*
X22588640Y2669160D01*
X22471800Y2791080D01*
X22332100Y2933320D01*
X22286380Y2976500D01*
X22131440Y3128900D01*
X22024760Y3227960D01*
X21956180Y3281300D01*
X21923160Y3294000D01*
X21923160Y3291460D01*
X21874900Y3263520D01*
X21773300Y3197480D01*
X21636140Y3103500D01*
X21473580Y2994280D01*
X21463420Y2986660D01*
X21303400Y2877440D01*
X21171320Y2788540D01*
X21074800Y2725040D01*
X21034160Y2699640D01*
X21026540Y2699640D01*
X20963040Y2719960D01*
X20848740Y2758060D01*
X20709040Y2813940D01*
X20561720Y2872360D01*
X20427100Y2928240D01*
X20325500Y2976500D01*
X20277240Y3001900D01*
X20277240Y3004440D01*
X20259460Y3062860D01*
X20231520Y3182240D01*
X20198500Y3347340D01*
X20160400Y3542920D01*
X20155320Y3573400D01*
X20119760Y3763900D01*
X20089280Y3921380D01*
X20066420Y4030600D01*
X20053720Y4076320D01*
X20028320Y4081400D01*
X19934340Y4089020D01*
X19792100Y4091560D01*
X19619380Y4094100D01*
X19439040Y4091560D01*
X19263780Y4089020D01*
X19111380Y4083940D01*
X19004700Y4076320D01*
X18958980Y4066160D01*
X18956440Y4063620D01*
X18941200Y4005200D01*
X18915800Y3885820D01*
X18880240Y3720720D01*
X18842140Y3522600D01*
X18837060Y3489580D01*
X18801500Y3299080D01*
X18768480Y3144140D01*
X18745620Y3034920D01*
X18732920Y2994280D01*
X18717680Y2984120D01*
X18638940Y2951100D01*
X18511940Y2897760D01*
X18351920Y2834260D01*
X17986160Y2684400D01*
X17539120Y2994280D01*
X17495940Y3022220D01*
X17335920Y3131440D01*
X17201300Y3220340D01*
X17109860Y3278760D01*
X17071760Y3301620D01*
X17069220Y3299080D01*
X17023500Y3260980D01*
X16934600Y3177160D01*
X16812680Y3057780D01*
X16672980Y2918080D01*
X16568840Y2813940D01*
X16444380Y2686940D01*
X16365640Y2603120D01*
X16322460Y2547240D01*
X16307220Y2514220D01*
X16312300Y2493900D01*
X16340240Y2448180D01*
X16406280Y2349120D01*
X16497720Y2211960D01*
X16606940Y2054480D01*
X16698380Y1919860D01*
X16794900Y1770000D01*
X16858400Y1663320D01*
X16881260Y1609980D01*
X16876180Y1587120D01*
X16843160Y1500760D01*
X16789820Y1366140D01*
X16723780Y1208660D01*
X16566300Y853060D01*
X16332620Y809880D01*
X16192920Y781940D01*
X15994800Y743840D01*
X15806840Y708280D01*
X15512200Y649860D01*
X15502040Y-432180D01*
X15547760Y-452500D01*
X15590940Y-465200D01*
X15700160Y-488060D01*
X15855100Y-518540D01*
X16040520Y-554100D01*
X16195460Y-584580D01*
X16355480Y-612520D01*
X16467240Y-635380D01*
X16518040Y-645540D01*
X16530740Y-663320D01*
X16571380Y-739520D01*
X16627260Y-861440D01*
X16688220Y-1008760D01*
X16751720Y-1158620D01*
X16807600Y-1298320D01*
X16848240Y-1405000D01*
X16860940Y-1460880D01*
X16840620Y-1504060D01*
X16779660Y-1595500D01*
X16693300Y-1727580D01*
X16586620Y-1885060D01*
X16477400Y-2042540D01*
X16388500Y-2177160D01*
X16325000Y-2273680D01*
X16299600Y-2316860D01*
X16312300Y-2347340D01*
X16373260Y-2423540D01*
X16492640Y-2545460D01*
X16667900Y-2720720D01*
X16698380Y-2748660D01*
X16838080Y-2883280D01*
X16957460Y-2992500D01*
X17038740Y-3066160D01*
X17076840Y-3091560D01*
X17076840Y-3091560D01*
G37*
X17076840Y-3091560D02*
X17117480Y-3071240D01*
X17211460Y-3012820D01*
X17346080Y-2923920D01*
X17503560Y-2819780D01*
X17661040Y-2710560D01*
X17790580Y-2624200D01*
X17882020Y-2565780D01*
X17920120Y-2545460D01*
X17940440Y-2550540D01*
X18016640Y-2588640D01*
X18125860Y-2644520D01*
X18189360Y-2677540D01*
X18288420Y-2720720D01*
X18339220Y-2730880D01*
X18346840Y-2715640D01*
X18384940Y-2639440D01*
X18440820Y-2507360D01*
X18517020Y-2334640D01*
X18603380Y-2131440D01*
X18697360Y-1913000D01*
X18788800Y-1689480D01*
X18877700Y-1476120D01*
X18956440Y-1285620D01*
X19019940Y-1130680D01*
X19060580Y-1021460D01*
X19075820Y-975740D01*
X19070740Y-965580D01*
X19019940Y-917320D01*
X18933580Y-851280D01*
X18743080Y-696340D01*
X18557660Y-462660D01*
X18443360Y-198500D01*
X18405260Y96140D01*
X18438280Y367920D01*
X18544960Y629540D01*
X18727840Y865760D01*
X18948820Y1041020D01*
X19207900Y1152780D01*
X19500000Y1188340D01*
X19779400Y1157860D01*
X20046100Y1051180D01*
X20282320Y870840D01*
X20381380Y756540D01*
X20518540Y517780D01*
X20597280Y261240D01*
X20604900Y197740D01*
X20594740Y-84200D01*
X20510920Y-353440D01*
X20363600Y-594740D01*
X20157860Y-790320D01*
X20129920Y-810640D01*
X20035940Y-881760D01*
X19972440Y-930020D01*
X19921640Y-970660D01*
X20279780Y-1831720D01*
X20335660Y-1968880D01*
X20434720Y-2205100D01*
X20521080Y-2408300D01*
X20589660Y-2568320D01*
X20637920Y-2677540D01*
X20658240Y-2720720D01*
X20660780Y-2723260D01*
X20691260Y-2728340D01*
X20757300Y-2702940D01*
X20876680Y-2644520D01*
X20957960Y-2603880D01*
X21049400Y-2560700D01*
X21090040Y-2545460D01*
X21125600Y-2563240D01*
X21211960Y-2621660D01*
X21341500Y-2705480D01*
X21493900Y-2809620D01*
X21641220Y-2911220D01*
X21775840Y-3000120D01*
X21874900Y-3061080D01*
X21923160Y-3089020D01*
X21930780Y-3089020D01*
X21971420Y-3063620D01*
X22050160Y-3000120D01*
X22167000Y-2888360D01*
X22332100Y-2725800D01*
X22357500Y-2700400D01*
X22494660Y-2560700D01*
X22606420Y-2443860D01*
X22680080Y-2362580D01*
X22705480Y-2324480D01*
X22705480Y-2324480D01*
X22682620Y-2276220D01*
X22619120Y-2179700D01*
X22530220Y-2042540D01*
X22421000Y-1882520D01*
X22136520Y-1468500D01*
X22294000Y-1077340D01*
X22342260Y-957960D01*
X22403220Y-813180D01*
X22446400Y-709040D01*
X22471800Y-663320D01*
X22512440Y-648080D01*
X22621660Y-622680D01*
X22776600Y-589660D01*
X22959480Y-556640D01*
X23137280Y-523620D01*
X23297300Y-493140D01*
X23411600Y-470280D01*
X23462400Y-460120D01*
X23475100Y-452500D01*
X23485260Y-427100D01*
X23492880Y-373760D01*
X23495420Y-277240D01*
X23497960Y-124840D01*
X23497960Y96140D01*
X23497960Y119000D01*
X23495420Y329820D01*
X23492880Y497460D01*
X23487800Y606680D01*
X23480180Y649860D01*
X23480180Y649860D01*
X23429380Y662560D01*
X23317620Y685420D01*
X23157600Y718440D01*
X22967100Y754000D01*
X22956940Y756540D01*
X22766440Y792100D01*
X22608960Y825120D01*
X22497200Y850520D01*
X22451480Y865760D01*
X22441320Y878460D01*
X22403220Y952120D01*
X22347340Y1068960D01*
X22286380Y1213740D01*
X22222880Y1361060D01*
X22169540Y1495680D01*
X22133980Y1594740D01*
X22123820Y1640460D01*
X22123820Y1640460D01*
X22151760Y1686180D01*
X22217800Y1785240D01*
X22309240Y1919860D01*
X22421000Y2082420D01*
X22428620Y2095120D01*
X22537840Y2255140D01*
X22626740Y2389760D01*
X22685160Y2486280D01*
X22705480Y2529460D01*
X22705480Y2532000D01*
X22669920Y2580260D01*
X22588640Y2669160D01*
X22471800Y2791080D01*
X22332100Y2933320D01*
X22286380Y2976500D01*
X22131440Y3128900D01*
X22024760Y3227960D01*
X21956180Y3281300D01*
X21923160Y3294000D01*
X21923160Y3291460D01*
X21874900Y3263520D01*
X21773300Y3197480D01*
X21636140Y3103500D01*
X21473580Y2994280D01*
X21463420Y2986660D01*
X21303400Y2877440D01*
X21171320Y2788540D01*
X21074800Y2725040D01*
X21034160Y2699640D01*
X21026540Y2699640D01*
X20963040Y2719960D01*
X20848740Y2758060D01*
X20709040Y2813940D01*
X20561720Y2872360D01*
X20427100Y2928240D01*
X20325500Y2976500D01*
X20277240Y3001900D01*
X20277240Y3004440D01*
X20259460Y3062860D01*
X20231520Y3182240D01*
X20198500Y3347340D01*
X20160400Y3542920D01*
X20155320Y3573400D01*
X20119760Y3763900D01*
X20089280Y3921380D01*
X20066420Y4030600D01*
X20053720Y4076320D01*
X20028320Y4081400D01*
X19934340Y4089020D01*
X19792100Y4091560D01*
X19619380Y4094100D01*
X19439040Y4091560D01*
X19263780Y4089020D01*
X19111380Y4083940D01*
X19004700Y4076320D01*
X18958980Y4066160D01*
X18956440Y4063620D01*
X18941200Y4005200D01*
X18915800Y3885820D01*
X18880240Y3720720D01*
X18842140Y3522600D01*
X18837060Y3489580D01*
X18801500Y3299080D01*
X18768480Y3144140D01*
X18745620Y3034920D01*
X18732920Y2994280D01*
X18717680Y2984120D01*
X18638940Y2951100D01*
X18511940Y2897760D01*
X18351920Y2834260D01*
X17986160Y2684400D01*
X17539120Y2994280D01*
X17495940Y3022220D01*
X17335920Y3131440D01*
X17201300Y3220340D01*
X17109860Y3278760D01*
X17071760Y3301620D01*
X17069220Y3299080D01*
X17023500Y3260980D01*
X16934600Y3177160D01*
X16812680Y3057780D01*
X16672980Y2918080D01*
X16568840Y2813940D01*
X16444380Y2686940D01*
X16365640Y2603120D01*
X16322460Y2547240D01*
X16307220Y2514220D01*
X16312300Y2493900D01*
X16340240Y2448180D01*
X16406280Y2349120D01*
X16497720Y2211960D01*
X16606940Y2054480D01*
X16698380Y1919860D01*
X16794900Y1770000D01*
X16858400Y1663320D01*
X16881260Y1609980D01*
X16876180Y1587120D01*
X16843160Y1500760D01*
X16789820Y1366140D01*
X16723780Y1208660D01*
X16566300Y853060D01*
X16332620Y809880D01*
X16192920Y781940D01*
X15994800Y743840D01*
X15806840Y708280D01*
X15512200Y649860D01*
X15502040Y-432180D01*
X15547760Y-452500D01*
X15590940Y-465200D01*
X15700160Y-488060D01*
X15855100Y-518540D01*
X16040520Y-554100D01*
X16195460Y-584580D01*
X16355480Y-612520D01*
X16467240Y-635380D01*
X16518040Y-645540D01*
X16530740Y-663320D01*
X16571380Y-739520D01*
X16627260Y-861440D01*
X16688220Y-1008760D01*
X16751720Y-1158620D01*
X16807600Y-1298320D01*
X16848240Y-1405000D01*
X16860940Y-1460880D01*
X16840620Y-1504060D01*
X16779660Y-1595500D01*
X16693300Y-1727580D01*
X16586620Y-1885060D01*
X16477400Y-2042540D01*
X16388500Y-2177160D01*
X16325000Y-2273680D01*
X16299600Y-2316860D01*
X16312300Y-2347340D01*
X16373260Y-2423540D01*
X16492640Y-2545460D01*
X16667900Y-2720720D01*
X16698380Y-2748660D01*
X16838080Y-2883280D01*
X16957460Y-2992500D01*
X17038740Y-3066160D01*
X17076840Y-3091560D01*
D10*
G36*
X24035714Y71627021D02*
X23998746Y71420109D01*
X23905012Y71135200D01*
X23780272Y70837103D01*
X23650281Y70590626D01*
X23623376Y70552587D01*
X23623376Y71123701D01*
X23558326Y71436938D01*
X23369112Y71644378D01*
X23064639Y71737671D01*
X22963636Y71742208D01*
X22629516Y71681223D01*
X22408248Y71503835D01*
X22308734Y71218392D01*
X22303896Y71123701D01*
X22368946Y70810464D01*
X22558159Y70603025D01*
X22862633Y70509731D01*
X22963636Y70505195D01*
X23297606Y70563508D01*
X23458441Y70670130D01*
X23592315Y70907970D01*
X23623376Y71123701D01*
X23623376Y70552587D01*
X23589856Y70505195D01*
X23513749Y70378075D01*
X23395220Y70138635D01*
X23253792Y69827415D01*
X23172876Y69639286D01*
X22921635Y69070728D01*
X22649718Y68503192D01*
X22369494Y67958307D01*
X22093334Y67457704D01*
X22056493Y67396045D01*
X22056493Y71123701D01*
X22052598Y71439936D01*
X22034834Y71625484D01*
X21994089Y71714524D01*
X21921247Y71741238D01*
X21891558Y71742208D01*
X21770831Y71703329D01*
X21728325Y71558669D01*
X21726623Y71494805D01*
X21706189Y71319570D01*
X21609798Y71254982D01*
X21479220Y71247402D01*
X21303985Y71267837D01*
X21239397Y71364227D01*
X21231818Y71494805D01*
X21205898Y71675896D01*
X21109459Y71739655D01*
X21066883Y71742208D01*
X20982553Y71727599D01*
X20933074Y71660988D01*
X20909330Y71508193D01*
X20902206Y71235036D01*
X20901948Y71123701D01*
X20905843Y70807467D01*
X20923606Y70621919D01*
X20964351Y70532878D01*
X21037193Y70506165D01*
X21066883Y70505195D01*
X21180559Y70537482D01*
X21226426Y70663528D01*
X21231818Y70793831D01*
X21245609Y70987755D01*
X21315564Y71067294D01*
X21479220Y71082467D01*
X21645441Y71066377D01*
X21713617Y70984763D01*
X21726623Y70793831D01*
X21745073Y70594897D01*
X21817099Y70514630D01*
X21891558Y70505195D01*
X21975887Y70519803D01*
X22025367Y70586414D01*
X22049111Y70739209D01*
X22056234Y71012366D01*
X22056493Y71123701D01*
X22056493Y67396045D01*
X21833610Y67023014D01*
X21602692Y66675868D01*
X21412952Y66437897D01*
X21281691Y66332488D01*
X21160102Y66345998D01*
X20938445Y66419108D01*
X20663465Y66536254D01*
X20654545Y66540454D01*
X20654545Y70638510D01*
X20610706Y70731595D01*
X20456623Y70733841D01*
X20438776Y70730578D01*
X20217011Y70756055D01*
X20023128Y70884690D01*
X19917755Y71071210D01*
X19912337Y71123701D01*
X19984303Y71318602D01*
X20158393Y71472009D01*
X20371896Y71536691D01*
X20449632Y71528355D01*
X20605982Y71515384D01*
X20654279Y71597467D01*
X20654545Y71609566D01*
X20614247Y71695280D01*
X20470303Y71735064D01*
X20283441Y71742208D01*
X19929195Y71687347D01*
X19698088Y71523118D01*
X19590717Y71250044D01*
X19582467Y71123701D01*
X19644642Y70811131D01*
X19830769Y70607213D01*
X20140252Y70512474D01*
X20283441Y70505195D01*
X20522962Y70519485D01*
X20634243Y70570709D01*
X20654545Y70638510D01*
X20654545Y66540454D01*
X20648315Y66543386D01*
X20092041Y66743062D01*
X19561238Y66792114D01*
X19335065Y66750157D01*
X19335065Y71123701D01*
X19331169Y71439936D01*
X19313406Y71625484D01*
X19272661Y71714524D01*
X19199819Y71741238D01*
X19170129Y71742208D01*
X19064651Y71716231D01*
X19016125Y71609894D01*
X19004414Y71391721D01*
X19003634Y71041234D01*
X18793571Y71391721D01*
X18625995Y71625569D01*
X18470269Y71729733D01*
X18382014Y71742208D01*
X18279505Y71733937D01*
X18219414Y71685976D01*
X18190429Y71563603D01*
X18181238Y71332094D01*
X18180519Y71123701D01*
X18184415Y70807467D01*
X18202178Y70621919D01*
X18242923Y70532878D01*
X18315765Y70506165D01*
X18345454Y70505195D01*
X18450932Y70531171D01*
X18499459Y70637508D01*
X18511169Y70855682D01*
X18511950Y71206169D01*
X18722012Y70855682D01*
X18889588Y70621833D01*
X19045315Y70517670D01*
X19133570Y70505195D01*
X19236078Y70513465D01*
X19296169Y70561426D01*
X19325154Y70683800D01*
X19334345Y70915308D01*
X19335065Y71123701D01*
X19335065Y66750157D01*
X19017590Y66691262D01*
X18716558Y66579585D01*
X18440534Y66464168D01*
X18214037Y66373203D01*
X18098052Y66330487D01*
X17981124Y66374601D01*
X17933116Y66415967D01*
X17933116Y71123701D01*
X17868066Y71436938D01*
X17678853Y71644378D01*
X17374380Y71737671D01*
X17273376Y71742208D01*
X16939257Y71681223D01*
X16717988Y71503835D01*
X16618475Y71218392D01*
X16613636Y71123701D01*
X16678686Y70810464D01*
X16867900Y70603025D01*
X17172373Y70509731D01*
X17273376Y70505195D01*
X17607347Y70563508D01*
X17768181Y70670130D01*
X17902055Y70907970D01*
X17933116Y71123701D01*
X17933116Y66415967D01*
X17782824Y66545464D01*
X17514180Y66833201D01*
X17438311Y66921076D01*
X17130139Y67292730D01*
X16867799Y67636571D01*
X16629659Y67986884D01*
X16531168Y68150386D01*
X16531168Y71329870D01*
X16492515Y71545980D01*
X16359854Y71675280D01*
X16108131Y71734039D01*
X15896168Y71742208D01*
X15459090Y71742208D01*
X15459090Y71123701D01*
X15462986Y70807467D01*
X15480749Y70621919D01*
X15521494Y70532878D01*
X15594336Y70506165D01*
X15624026Y70505195D01*
X15753361Y70553515D01*
X15788961Y70711363D01*
X15812327Y70853773D01*
X15915269Y70909768D01*
X16061103Y70917532D01*
X16339350Y70965207D01*
X16491932Y71114765D01*
X16531168Y71329870D01*
X16531168Y68150386D01*
X16394084Y68377954D01*
X16139442Y68844065D01*
X15844100Y69419501D01*
X15775195Y69556818D01*
X15572554Y69959004D01*
X15392532Y70311090D01*
X15249373Y70585615D01*
X15157322Y70755120D01*
X15133488Y70793831D01*
X15020287Y71061738D01*
X15029598Y71368299D01*
X15107920Y71562072D01*
X15288246Y71794239D01*
X15529229Y72027175D01*
X15770117Y72205582D01*
X15871428Y72257014D01*
X15984414Y72328258D01*
X16189280Y72481511D01*
X16452796Y72691308D01*
X16638847Y72845142D01*
X17021606Y73151727D01*
X17406040Y73434151D01*
X17764115Y73674156D01*
X18067798Y73853482D01*
X18289055Y73953871D01*
X18364077Y73968831D01*
X18507245Y73911987D01*
X18631204Y73807085D01*
X18701177Y73718089D01*
X18731535Y73621372D01*
X18720852Y73476306D01*
X18667698Y73242261D01*
X18602752Y72997411D01*
X18497923Y72614541D01*
X18436300Y72342913D01*
X18437106Y72163551D01*
X18519564Y72057480D01*
X18702895Y72005726D01*
X19006322Y71989314D01*
X19449068Y71989267D01*
X19623701Y71989610D01*
X20116616Y71993152D01*
X20463601Y72004879D01*
X20683529Y72026446D01*
X20795275Y72059505D01*
X20819480Y72094352D01*
X20798521Y72220340D01*
X20743133Y72457326D01*
X20664548Y72757819D01*
X20650407Y72809213D01*
X20543088Y73255847D01*
X20508894Y73569631D01*
X20548676Y73765972D01*
X20663285Y73860279D01*
X20708992Y73870512D01*
X20920553Y73839910D01*
X21239874Y73711189D01*
X21649801Y73493929D01*
X22133175Y73197713D01*
X22672841Y72832122D01*
X23025487Y72576813D01*
X23429546Y72272303D01*
X23714754Y72043490D01*
X23898878Y71873667D01*
X23999689Y71746128D01*
X24034955Y71644167D01*
X24035714Y71627021D01*
X24035714Y71627021D01*
X24035714Y71627021D01*
G37*
X24035714Y71627021D02*
X23998746Y71420109D01*
X23905012Y71135200D01*
X23780272Y70837103D01*
X23650281Y70590626D01*
X23623376Y70552587D01*
X23623376Y71123701D01*
X23558326Y71436938D01*
X23369112Y71644378D01*
X23064639Y71737671D01*
X22963636Y71742208D01*
X22629516Y71681223D01*
X22408248Y71503835D01*
X22308734Y71218392D01*
X22303896Y71123701D01*
X22368946Y70810464D01*
X22558159Y70603025D01*
X22862633Y70509731D01*
X22963636Y70505195D01*
X23297606Y70563508D01*
X23458441Y70670130D01*
X23592315Y70907970D01*
X23623376Y71123701D01*
X23623376Y70552587D01*
X23589856Y70505195D01*
X23513749Y70378075D01*
X23395220Y70138635D01*
X23253792Y69827415D01*
X23172876Y69639286D01*
X22921635Y69070728D01*
X22649718Y68503192D01*
X22369494Y67958307D01*
X22093334Y67457704D01*
X22056493Y67396045D01*
X22056493Y71123701D01*
X22052598Y71439936D01*
X22034834Y71625484D01*
X21994089Y71714524D01*
X21921247Y71741238D01*
X21891558Y71742208D01*
X21770831Y71703329D01*
X21728325Y71558669D01*
X21726623Y71494805D01*
X21706189Y71319570D01*
X21609798Y71254982D01*
X21479220Y71247402D01*
X21303985Y71267837D01*
X21239397Y71364227D01*
X21231818Y71494805D01*
X21205898Y71675896D01*
X21109459Y71739655D01*
X21066883Y71742208D01*
X20982553Y71727599D01*
X20933074Y71660988D01*
X20909330Y71508193D01*
X20902206Y71235036D01*
X20901948Y71123701D01*
X20905843Y70807467D01*
X20923606Y70621919D01*
X20964351Y70532878D01*
X21037193Y70506165D01*
X21066883Y70505195D01*
X21180559Y70537482D01*
X21226426Y70663528D01*
X21231818Y70793831D01*
X21245609Y70987755D01*
X21315564Y71067294D01*
X21479220Y71082467D01*
X21645441Y71066377D01*
X21713617Y70984763D01*
X21726623Y70793831D01*
X21745073Y70594897D01*
X21817099Y70514630D01*
X21891558Y70505195D01*
X21975887Y70519803D01*
X22025367Y70586414D01*
X22049111Y70739209D01*
X22056234Y71012366D01*
X22056493Y71123701D01*
X22056493Y67396045D01*
X21833610Y67023014D01*
X21602692Y66675868D01*
X21412952Y66437897D01*
X21281691Y66332488D01*
X21160102Y66345998D01*
X20938445Y66419108D01*
X20663465Y66536254D01*
X20654545Y66540454D01*
X20654545Y70638510D01*
X20610706Y70731595D01*
X20456623Y70733841D01*
X20438776Y70730578D01*
X20217011Y70756055D01*
X20023128Y70884690D01*
X19917755Y71071210D01*
X19912337Y71123701D01*
X19984303Y71318602D01*
X20158393Y71472009D01*
X20371896Y71536691D01*
X20449632Y71528355D01*
X20605982Y71515384D01*
X20654279Y71597467D01*
X20654545Y71609566D01*
X20614247Y71695280D01*
X20470303Y71735064D01*
X20283441Y71742208D01*
X19929195Y71687347D01*
X19698088Y71523118D01*
X19590717Y71250044D01*
X19582467Y71123701D01*
X19644642Y70811131D01*
X19830769Y70607213D01*
X20140252Y70512474D01*
X20283441Y70505195D01*
X20522962Y70519485D01*
X20634243Y70570709D01*
X20654545Y70638510D01*
X20654545Y66540454D01*
X20648315Y66543386D01*
X20092041Y66743062D01*
X19561238Y66792114D01*
X19335065Y66750157D01*
X19335065Y71123701D01*
X19331169Y71439936D01*
X19313406Y71625484D01*
X19272661Y71714524D01*
X19199819Y71741238D01*
X19170129Y71742208D01*
X19064651Y71716231D01*
X19016125Y71609894D01*
X19004414Y71391721D01*
X19003634Y71041234D01*
X18793571Y71391721D01*
X18625995Y71625569D01*
X18470269Y71729733D01*
X18382014Y71742208D01*
X18279505Y71733937D01*
X18219414Y71685976D01*
X18190429Y71563603D01*
X18181238Y71332094D01*
X18180519Y71123701D01*
X18184415Y70807467D01*
X18202178Y70621919D01*
X18242923Y70532878D01*
X18315765Y70506165D01*
X18345454Y70505195D01*
X18450932Y70531171D01*
X18499459Y70637508D01*
X18511169Y70855682D01*
X18511950Y71206169D01*
X18722012Y70855682D01*
X18889588Y70621833D01*
X19045315Y70517670D01*
X19133570Y70505195D01*
X19236078Y70513465D01*
X19296169Y70561426D01*
X19325154Y70683800D01*
X19334345Y70915308D01*
X19335065Y71123701D01*
X19335065Y66750157D01*
X19017590Y66691262D01*
X18716558Y66579585D01*
X18440534Y66464168D01*
X18214037Y66373203D01*
X18098052Y66330487D01*
X17981124Y66374601D01*
X17933116Y66415967D01*
X17933116Y71123701D01*
X17868066Y71436938D01*
X17678853Y71644378D01*
X17374380Y71737671D01*
X17273376Y71742208D01*
X16939257Y71681223D01*
X16717988Y71503835D01*
X16618475Y71218392D01*
X16613636Y71123701D01*
X16678686Y70810464D01*
X16867900Y70603025D01*
X17172373Y70509731D01*
X17273376Y70505195D01*
X17607347Y70563508D01*
X17768181Y70670130D01*
X17902055Y70907970D01*
X17933116Y71123701D01*
X17933116Y66415967D01*
X17782824Y66545464D01*
X17514180Y66833201D01*
X17438311Y66921076D01*
X17130139Y67292730D01*
X16867799Y67636571D01*
X16629659Y67986884D01*
X16531168Y68150386D01*
X16531168Y71329870D01*
X16492515Y71545980D01*
X16359854Y71675280D01*
X16108131Y71734039D01*
X15896168Y71742208D01*
X15459090Y71742208D01*
X15459090Y71123701D01*
X15462986Y70807467D01*
X15480749Y70621919D01*
X15521494Y70532878D01*
X15594336Y70506165D01*
X15624026Y70505195D01*
X15753361Y70553515D01*
X15788961Y70711363D01*
X15812327Y70853773D01*
X15915269Y70909768D01*
X16061103Y70917532D01*
X16339350Y70965207D01*
X16491932Y71114765D01*
X16531168Y71329870D01*
X16531168Y68150386D01*
X16394084Y68377954D01*
X16139442Y68844065D01*
X15844100Y69419501D01*
X15775195Y69556818D01*
X15572554Y69959004D01*
X15392532Y70311090D01*
X15249373Y70585615D01*
X15157322Y70755120D01*
X15133488Y70793831D01*
X15020287Y71061738D01*
X15029598Y71368299D01*
X15107920Y71562072D01*
X15288246Y71794239D01*
X15529229Y72027175D01*
X15770117Y72205582D01*
X15871428Y72257014D01*
X15984414Y72328258D01*
X16189280Y72481511D01*
X16452796Y72691308D01*
X16638847Y72845142D01*
X17021606Y73151727D01*
X17406040Y73434151D01*
X17764115Y73674156D01*
X18067798Y73853482D01*
X18289055Y73953871D01*
X18364077Y73968831D01*
X18507245Y73911987D01*
X18631204Y73807085D01*
X18701177Y73718089D01*
X18731535Y73621372D01*
X18720852Y73476306D01*
X18667698Y73242261D01*
X18602752Y72997411D01*
X18497923Y72614541D01*
X18436300Y72342913D01*
X18437106Y72163551D01*
X18519564Y72057480D01*
X18702895Y72005726D01*
X19006322Y71989314D01*
X19449068Y71989267D01*
X19623701Y71989610D01*
X20116616Y71993152D01*
X20463601Y72004879D01*
X20683529Y72026446D01*
X20795275Y72059505D01*
X20819480Y72094352D01*
X20798521Y72220340D01*
X20743133Y72457326D01*
X20664548Y72757819D01*
X20650407Y72809213D01*
X20543088Y73255847D01*
X20508894Y73569631D01*
X20548676Y73765972D01*
X20663285Y73860279D01*
X20708992Y73870512D01*
X20920553Y73839910D01*
X21239874Y73711189D01*
X21649801Y73493929D01*
X22133175Y73197713D01*
X22672841Y72832122D01*
X23025487Y72576813D01*
X23429546Y72272303D01*
X23714754Y72043490D01*
X23898878Y71873667D01*
X23999689Y71746128D01*
X24034955Y71644167D01*
X24035714Y71627021D01*
X24035714Y71627021D01*
G36*
X20523542Y74736319D02*
X20395402Y74389445D01*
X20179417Y74112230D01*
X20063302Y73982356D01*
X20008034Y73869698D01*
X20006066Y73720981D01*
X20049854Y73482930D01*
X20074294Y73370022D01*
X20158312Y72973188D01*
X20196110Y72709422D01*
X20175383Y72550382D01*
X20083822Y72467723D01*
X19909122Y72433104D01*
X19661440Y72419187D01*
X19376450Y72415195D01*
X19160118Y72428263D01*
X19063550Y72453549D01*
X19009692Y72618268D01*
X19033559Y72923684D01*
X19134776Y73365222D01*
X19139985Y73384058D01*
X19274775Y73868872D01*
X19011192Y74104404D01*
X18785647Y74402585D01*
X18691576Y74746824D01*
X18724480Y75096523D01*
X18879862Y75411085D01*
X19153223Y75649915D01*
X19184290Y75666738D01*
X19533719Y75763905D01*
X19880075Y75715730D01*
X20187140Y75538441D01*
X20418691Y75248265D01*
X20489692Y75081895D01*
X20523542Y74736319D01*
X20523542Y74736319D01*
X20523542Y74736319D01*
G37*
X20523542Y74736319D02*
X20395402Y74389445D01*
X20179417Y74112230D01*
X20063302Y73982356D01*
X20008034Y73869698D01*
X20006066Y73720981D01*
X20049854Y73482930D01*
X20074294Y73370022D01*
X20158312Y72973188D01*
X20196110Y72709422D01*
X20175383Y72550382D01*
X20083822Y72467723D01*
X19909122Y72433104D01*
X19661440Y72419187D01*
X19376450Y72415195D01*
X19160118Y72428263D01*
X19063550Y72453549D01*
X19009692Y72618268D01*
X19033559Y72923684D01*
X19134776Y73365222D01*
X19139985Y73384058D01*
X19274775Y73868872D01*
X19011192Y74104404D01*
X18785647Y74402585D01*
X18691576Y74746824D01*
X18724480Y75096523D01*
X18879862Y75411085D01*
X19153223Y75649915D01*
X19184290Y75666738D01*
X19533719Y75763905D01*
X19880075Y75715730D01*
X20187140Y75538441D01*
X20418691Y75248265D01*
X20489692Y75081895D01*
X20523542Y74736319D01*
X20523542Y74736319D01*
G36*
X16179921Y71321578D02*
X16118831Y71206169D01*
X15962394Y71087441D01*
X15843056Y71122650D01*
X15789586Y71301007D01*
X15788961Y71329870D01*
X15833119Y71523821D01*
X15946417Y71575850D01*
X16100085Y71475170D01*
X16118831Y71453571D01*
X16179921Y71321578D01*
X16179921Y71321578D01*
X16179921Y71321578D01*
G37*
X16179921Y71321578D02*
X16118831Y71206169D01*
X15962394Y71087441D01*
X15843056Y71122650D01*
X15789586Y71301007D01*
X15788961Y71329870D01*
X15833119Y71523821D01*
X15946417Y71575850D01*
X16100085Y71475170D01*
X16118831Y71453571D01*
X16179921Y71321578D01*
X16179921Y71321578D01*
G36*
X17588176Y71146700D02*
X17564806Y71006732D01*
X17493355Y70885801D01*
X17371495Y70734516D01*
X17274528Y70670152D01*
X17273376Y70670130D01*
X17177357Y70732458D01*
X17055448Y70882683D01*
X17053397Y70885801D01*
X16962594Y71056840D01*
X16973440Y71197017D01*
X17034042Y71318756D01*
X17156518Y71473895D01*
X17273376Y71536039D01*
X17393963Y71470510D01*
X17512711Y71318756D01*
X17588176Y71146700D01*
X17588176Y71146700D01*
X17588176Y71146700D01*
G37*
X17588176Y71146700D02*
X17564806Y71006732D01*
X17493355Y70885801D01*
X17371495Y70734516D01*
X17274528Y70670152D01*
X17273376Y70670130D01*
X17177357Y70732458D01*
X17055448Y70882683D01*
X17053397Y70885801D01*
X16962594Y71056840D01*
X16973440Y71197017D01*
X17034042Y71318756D01*
X17156518Y71473895D01*
X17273376Y71536039D01*
X17393963Y71470510D01*
X17512711Y71318756D01*
X17588176Y71146700D01*
X17588176Y71146700D01*
G36*
X23278435Y71146700D02*
X23255065Y71006732D01*
X23183615Y70885801D01*
X23061755Y70734516D01*
X22964788Y70670152D01*
X22963636Y70670130D01*
X22867616Y70732458D01*
X22745708Y70882683D01*
X22743657Y70885801D01*
X22652854Y71056840D01*
X22663699Y71197017D01*
X22724301Y71318756D01*
X22846778Y71473895D01*
X22963636Y71536039D01*
X23084223Y71470510D01*
X23202971Y71318756D01*
X23278435Y71146700D01*
X23278435Y71146700D01*
X23278435Y71146700D01*
G37*
X23278435Y71146700D02*
X23255065Y71006732D01*
X23183615Y70885801D01*
X23061755Y70734516D01*
X22964788Y70670152D01*
X22963636Y70670130D01*
X22867616Y70732458D01*
X22745708Y70882683D01*
X22743657Y70885801D01*
X22652854Y71056840D01*
X22663699Y71197017D01*
X22724301Y71318756D01*
X22846778Y71473895D01*
X22963636Y71536039D01*
X23084223Y71470510D01*
X23202971Y71318756D01*
X23278435Y71146700D01*
X23278435Y71146700D01*
D15*
G36*
X21150000Y5205333D02*
X20134000Y5205333D01*
X20134000Y7322000D01*
X20218667Y7322000D01*
X20218667Y6644666D01*
X21065333Y6644666D01*
X21065333Y7322000D01*
X20218667Y7322000D01*
X20134000Y7322000D01*
X20134000Y7406666D01*
X21150000Y7406666D01*
X21150000Y5205333D01*
X21150000Y5205333D01*
G37*
X21150000Y5205333D02*
X20134000Y5205333D01*
X20134000Y7322000D01*
X20218667Y7322000D01*
X20218667Y6644666D01*
X21065333Y6644666D01*
X21065333Y7322000D01*
X20218667Y7322000D01*
X20134000Y7322000D01*
X20134000Y7406666D01*
X21150000Y7406666D01*
X21150000Y5205333D01*
G36*
X21150000Y7830000D02*
X20134000Y7830000D01*
X20134000Y9862000D01*
X20218667Y9862000D01*
X20218667Y9184666D01*
X21065333Y9184666D01*
X21065333Y9862000D01*
X20218667Y9862000D01*
X20134000Y9862000D01*
X20134000Y9946666D01*
X21150000Y9946666D01*
X21150000Y7830000D01*
X21150000Y7830000D01*
G37*
X21150000Y7830000D02*
X20134000Y7830000D01*
X20134000Y9862000D01*
X20218667Y9862000D01*
X20218667Y9184666D01*
X21065333Y9184666D01*
X21065333Y9862000D01*
X20218667Y9862000D01*
X20134000Y9862000D01*
X20134000Y9946666D01*
X21150000Y9946666D01*
X21150000Y7830000D01*
G36*
X21573333Y10370000D02*
X20134000Y10370000D01*
X20134000Y11216666D01*
X20218667Y11216666D01*
X20218667Y10454666D01*
X21488667Y10454666D01*
X21488667Y11216666D01*
X20218667Y11216666D01*
X20134000Y11216666D01*
X20134000Y11301333D01*
X21573333Y11301333D01*
X21573333Y10370000D01*
X21573333Y10370000D01*
G37*
X21573333Y10370000D02*
X20134000Y10370000D01*
X20134000Y11216666D01*
X20218667Y11216666D01*
X20218667Y10454666D01*
X21488667Y10454666D01*
X21488667Y11216666D01*
X20218667Y11216666D01*
X20134000Y11216666D01*
X20134000Y11301333D01*
X21573333Y11301333D01*
X21573333Y10370000D01*
G36*
X22335333Y11809333D02*
X20134000Y11809333D01*
X20134000Y12740666D01*
X20218667Y12740666D01*
X20218667Y11894000D01*
X22250667Y11894000D01*
X22250667Y12740666D01*
X20218667Y12740666D01*
X20134000Y12740666D01*
X20134000Y12825333D01*
X22335333Y12825333D01*
X22335333Y11809333D01*
X22335333Y11809333D01*
G37*
X22335333Y11809333D02*
X20134000Y11809333D01*
X20134000Y12740666D01*
X20218667Y12740666D01*
X20218667Y11894000D01*
X22250667Y11894000D01*
X22250667Y12740666D01*
X20218667Y12740666D01*
X20134000Y12740666D01*
X20134000Y12825333D01*
X22335333Y12825333D01*
X22335333Y11809333D01*
D16*
X1435524Y64920095D02*
X1968857Y64120095D01*
X1968857Y64920095D02*
X1435524Y64120095D01*
X2235524Y64348667D02*
X2616476Y64348667D01*
X2159333Y64120095D02*
X2426000Y64920095D01*
X2692667Y64120095D01*
X3378381Y64120095D02*
X2921238Y64120095D01*
X3149809Y64120095D02*
X3149809Y64920095D01*
X3073619Y64805810D01*
X2997428Y64729619D01*
X2921238Y64691524D01*
D12*
X7807810Y13420000D02*
X7712572Y13467619D01*
X7569715Y13467619D01*
X7426857Y13420000D01*
X7331619Y13324762D01*
X7284000Y13229524D01*
X7236381Y13039048D01*
X7236381Y12896190D01*
X7284000Y12705714D01*
X7331619Y12610476D01*
X7426857Y12515238D01*
X7569715Y12467619D01*
X7664953Y12467619D01*
X7807810Y12515238D01*
X7855429Y12562857D01*
X7855429Y12896190D01*
X7664953Y12896190D01*
X8284000Y12467619D02*
X8284000Y13467619D01*
X8664953Y13467619D01*
X8760191Y13420000D01*
X8807810Y13372381D01*
X8855429Y13277143D01*
X8855429Y13134286D01*
X8807810Y13039048D01*
X8760191Y12991429D01*
X8664953Y12943810D01*
X8284000Y12943810D01*
X9284000Y12467619D02*
X9284000Y13467619D01*
X9950666Y13467619D02*
X10141143Y13467619D01*
X10236381Y13420000D01*
X10331619Y13324762D01*
X10379238Y13134286D01*
X10379238Y12800952D01*
X10331619Y12610476D01*
X10236381Y12515238D01*
X10141143Y12467619D01*
X9950666Y12467619D01*
X9855428Y12515238D01*
X9760190Y12610476D01*
X9712571Y12800952D01*
X9712571Y13134286D01*
X9760190Y13324762D01*
X9855428Y13420000D01*
X9950666Y13467619D01*
X10950666Y13039048D02*
X10855428Y13086667D01*
X10807809Y13134286D01*
X10760190Y13229524D01*
X10760190Y13277143D01*
X10807809Y13372381D01*
X10855428Y13420000D01*
X10950666Y13467619D01*
X11141143Y13467619D01*
X11236381Y13420000D01*
X11284000Y13372381D01*
X11331619Y13277143D01*
X11331619Y13229524D01*
X11284000Y13134286D01*
X11236381Y13086667D01*
X11141143Y13039048D01*
X10950666Y13039048D01*
X10855428Y12991429D01*
X10807809Y12943810D01*
X10760190Y12848571D01*
X10760190Y12658095D01*
X10807809Y12562857D01*
X10855428Y12515238D01*
X10950666Y12467619D01*
X11141143Y12467619D01*
X11236381Y12515238D01*
X11284000Y12562857D01*
X11331619Y12658095D01*
X11331619Y12848571D01*
X11284000Y12943810D01*
X11236381Y12991429D01*
X11141143Y13039048D01*
X7807810Y15960000D02*
X7712572Y16007619D01*
X7569715Y16007619D01*
X7426857Y15960000D01*
X7331619Y15864762D01*
X7284000Y15769524D01*
X7236381Y15579048D01*
X7236381Y15436190D01*
X7284000Y15245714D01*
X7331619Y15150476D01*
X7426857Y15055238D01*
X7569715Y15007619D01*
X7664953Y15007619D01*
X7807810Y15055238D01*
X7855429Y15102857D01*
X7855429Y15436190D01*
X7664953Y15436190D01*
X8284000Y15007619D02*
X8284000Y16007619D01*
X8664953Y16007619D01*
X8760191Y15960000D01*
X8807810Y15912381D01*
X8855429Y15817143D01*
X8855429Y15674286D01*
X8807810Y15579048D01*
X8760191Y15531429D01*
X8664953Y15483810D01*
X8284000Y15483810D01*
X9284000Y15007619D02*
X9284000Y16007619D01*
X9950666Y16007619D02*
X10141143Y16007619D01*
X10236381Y15960000D01*
X10331619Y15864762D01*
X10379238Y15674286D01*
X10379238Y15340952D01*
X10331619Y15150476D01*
X10236381Y15055238D01*
X10141143Y15007619D01*
X9950666Y15007619D01*
X9855428Y15055238D01*
X9760190Y15150476D01*
X9712571Y15340952D01*
X9712571Y15674286D01*
X9760190Y15864762D01*
X9855428Y15960000D01*
X9950666Y16007619D01*
X10712571Y16007619D02*
X11379238Y16007619D01*
X10950666Y15007619D01*
X7807810Y18500000D02*
X7712572Y18547619D01*
X7569715Y18547619D01*
X7426857Y18500000D01*
X7331619Y18404762D01*
X7284000Y18309524D01*
X7236381Y18119048D01*
X7236381Y17976190D01*
X7284000Y17785714D01*
X7331619Y17690476D01*
X7426857Y17595238D01*
X7569715Y17547619D01*
X7664953Y17547619D01*
X7807810Y17595238D01*
X7855429Y17642857D01*
X7855429Y17976190D01*
X7664953Y17976190D01*
X8284000Y17547619D02*
X8284000Y18547619D01*
X8664953Y18547619D01*
X8760191Y18500000D01*
X8807810Y18452381D01*
X8855429Y18357143D01*
X8855429Y18214286D01*
X8807810Y18119048D01*
X8760191Y18071429D01*
X8664953Y18023810D01*
X8284000Y18023810D01*
X9284000Y17547619D02*
X9284000Y18547619D01*
X9950666Y18547619D02*
X10141143Y18547619D01*
X10236381Y18500000D01*
X10331619Y18404762D01*
X10379238Y18214286D01*
X10379238Y17880952D01*
X10331619Y17690476D01*
X10236381Y17595238D01*
X10141143Y17547619D01*
X9950666Y17547619D01*
X9855428Y17595238D01*
X9760190Y17690476D01*
X9712571Y17880952D01*
X9712571Y18214286D01*
X9760190Y18404762D01*
X9855428Y18500000D01*
X9950666Y18547619D01*
X11284000Y18547619D02*
X10807809Y18547619D01*
X10760190Y18071429D01*
X10807809Y18119048D01*
X10903047Y18166667D01*
X11141143Y18166667D01*
X11236381Y18119048D01*
X11284000Y18071429D01*
X11331619Y17976190D01*
X11331619Y17738095D01*
X11284000Y17642857D01*
X11236381Y17595238D01*
X11141143Y17547619D01*
X10903047Y17547619D01*
X10807809Y17595238D01*
X10760190Y17642857D01*
X7807810Y21040000D02*
X7712572Y21087619D01*
X7569715Y21087619D01*
X7426857Y21040000D01*
X7331619Y20944762D01*
X7284000Y20849524D01*
X7236381Y20659048D01*
X7236381Y20516190D01*
X7284000Y20325714D01*
X7331619Y20230476D01*
X7426857Y20135238D01*
X7569715Y20087619D01*
X7664953Y20087619D01*
X7807810Y20135238D01*
X7855429Y20182857D01*
X7855429Y20516190D01*
X7664953Y20516190D01*
X8284000Y20087619D02*
X8284000Y21087619D01*
X8664953Y21087619D01*
X8760191Y21040000D01*
X8807810Y20992381D01*
X8855429Y20897143D01*
X8855429Y20754286D01*
X8807810Y20659048D01*
X8760191Y20611429D01*
X8664953Y20563810D01*
X8284000Y20563810D01*
X9284000Y20087619D02*
X9284000Y21087619D01*
X9950666Y21087619D02*
X10141143Y21087619D01*
X10236381Y21040000D01*
X10331619Y20944762D01*
X10379238Y20754286D01*
X10379238Y20420952D01*
X10331619Y20230476D01*
X10236381Y20135238D01*
X10141143Y20087619D01*
X9950666Y20087619D01*
X9855428Y20135238D01*
X9760190Y20230476D01*
X9712571Y20420952D01*
X9712571Y20754286D01*
X9760190Y20944762D01*
X9855428Y21040000D01*
X9950666Y21087619D01*
X10712571Y21087619D02*
X11331619Y21087619D01*
X10998285Y20706667D01*
X11141143Y20706667D01*
X11236381Y20659048D01*
X11284000Y20611429D01*
X11331619Y20516190D01*
X11331619Y20278095D01*
X11284000Y20182857D01*
X11236381Y20135238D01*
X11141143Y20087619D01*
X10855428Y20087619D01*
X10760190Y20135238D01*
X10712571Y20182857D01*
X7807810Y23580000D02*
X7712572Y23627619D01*
X7569715Y23627619D01*
X7426857Y23580000D01*
X7331619Y23484762D01*
X7284000Y23389524D01*
X7236381Y23199048D01*
X7236381Y23056190D01*
X7284000Y22865714D01*
X7331619Y22770476D01*
X7426857Y22675238D01*
X7569715Y22627619D01*
X7664953Y22627619D01*
X7807810Y22675238D01*
X7855429Y22722857D01*
X7855429Y23056190D01*
X7664953Y23056190D01*
X8284000Y22627619D02*
X8284000Y23627619D01*
X8664953Y23627619D01*
X8760191Y23580000D01*
X8807810Y23532381D01*
X8855429Y23437143D01*
X8855429Y23294286D01*
X8807810Y23199048D01*
X8760191Y23151429D01*
X8664953Y23103810D01*
X8284000Y23103810D01*
X9284000Y22627619D02*
X9284000Y23627619D01*
X9950666Y23627619D02*
X10141143Y23627619D01*
X10236381Y23580000D01*
X10331619Y23484762D01*
X10379238Y23294286D01*
X10379238Y22960952D01*
X10331619Y22770476D01*
X10236381Y22675238D01*
X10141143Y22627619D01*
X9950666Y22627619D01*
X9855428Y22675238D01*
X9760190Y22770476D01*
X9712571Y22960952D01*
X9712571Y23294286D01*
X9760190Y23484762D01*
X9855428Y23580000D01*
X9950666Y23627619D01*
X11331619Y22627619D02*
X10760190Y22627619D01*
X11045904Y22627619D02*
X11045904Y23627619D01*
X10950666Y23484762D01*
X10855428Y23389524D01*
X10760190Y23341905D01*
X7609334Y25167619D02*
X7133143Y25167619D01*
X7133143Y26167619D01*
X8514096Y25262857D02*
X8466477Y25215238D01*
X8323620Y25167619D01*
X8228382Y25167619D01*
X8085524Y25215238D01*
X7990286Y25310476D01*
X7942667Y25405714D01*
X7895048Y25596190D01*
X7895048Y25739048D01*
X7942667Y25929524D01*
X7990286Y26024762D01*
X8085524Y26120000D01*
X8228382Y26167619D01*
X8323620Y26167619D01*
X8466477Y26120000D01*
X8514096Y26072381D01*
X8942667Y25167619D02*
X8942667Y26167619D01*
X9180762Y26167619D01*
X9323620Y26120000D01*
X9418858Y26024762D01*
X9466477Y25929524D01*
X9514096Y25739048D01*
X9514096Y25596190D01*
X9466477Y25405714D01*
X9418858Y25310476D01*
X9323620Y25215238D01*
X9180762Y25167619D01*
X8942667Y25167619D01*
X10466477Y25167619D02*
X9895048Y25167619D01*
X10180762Y25167619D02*
X10180762Y26167619D01*
X10085524Y26024762D01*
X9990286Y25929524D01*
X9895048Y25881905D01*
X7609334Y27707619D02*
X7133143Y27707619D01*
X7133143Y28707619D01*
X8514096Y27802857D02*
X8466477Y27755238D01*
X8323620Y27707619D01*
X8228382Y27707619D01*
X8085524Y27755238D01*
X7990286Y27850476D01*
X7942667Y27945714D01*
X7895048Y28136190D01*
X7895048Y28279048D01*
X7942667Y28469524D01*
X7990286Y28564762D01*
X8085524Y28660000D01*
X8228382Y28707619D01*
X8323620Y28707619D01*
X8466477Y28660000D01*
X8514096Y28612381D01*
X8942667Y27707619D02*
X8942667Y28707619D01*
X9180762Y28707619D01*
X9323620Y28660000D01*
X9418858Y28564762D01*
X9466477Y28469524D01*
X9514096Y28279048D01*
X9514096Y28136190D01*
X9466477Y27945714D01*
X9418858Y27850476D01*
X9323620Y27755238D01*
X9180762Y27707619D01*
X8942667Y27707619D01*
X9895048Y28612381D02*
X9942667Y28660000D01*
X10037905Y28707619D01*
X10276001Y28707619D01*
X10371239Y28660000D01*
X10418858Y28612381D01*
X10466477Y28517143D01*
X10466477Y28421905D01*
X10418858Y28279048D01*
X9847429Y27707619D01*
X10466477Y27707619D01*
X7609334Y30247619D02*
X7133143Y30247619D01*
X7133143Y31247619D01*
X8514096Y30342857D02*
X8466477Y30295238D01*
X8323620Y30247619D01*
X8228382Y30247619D01*
X8085524Y30295238D01*
X7990286Y30390476D01*
X7942667Y30485714D01*
X7895048Y30676190D01*
X7895048Y30819048D01*
X7942667Y31009524D01*
X7990286Y31104762D01*
X8085524Y31200000D01*
X8228382Y31247619D01*
X8323620Y31247619D01*
X8466477Y31200000D01*
X8514096Y31152381D01*
X8942667Y30247619D02*
X8942667Y31247619D01*
X9180762Y31247619D01*
X9323620Y31200000D01*
X9418858Y31104762D01*
X9466477Y31009524D01*
X9514096Y30819048D01*
X9514096Y30676190D01*
X9466477Y30485714D01*
X9418858Y30390476D01*
X9323620Y30295238D01*
X9180762Y30247619D01*
X8942667Y30247619D01*
X9847429Y31247619D02*
X10466477Y31247619D01*
X10133143Y30866667D01*
X10276001Y30866667D01*
X10371239Y30819048D01*
X10418858Y30771429D01*
X10466477Y30676190D01*
X10466477Y30438095D01*
X10418858Y30342857D01*
X10371239Y30295238D01*
X10276001Y30247619D01*
X9990286Y30247619D01*
X9895048Y30295238D01*
X9847429Y30342857D01*
X7744381Y32787619D02*
X7268190Y32787619D01*
X7268190Y33787619D01*
X8649143Y32882857D02*
X8601524Y32835238D01*
X8458667Y32787619D01*
X8363429Y32787619D01*
X8220571Y32835238D01*
X8125333Y32930476D01*
X8077714Y33025714D01*
X8030095Y33216190D01*
X8030095Y33359048D01*
X8077714Y33549524D01*
X8125333Y33644762D01*
X8220571Y33740000D01*
X8363429Y33787619D01*
X8458667Y33787619D01*
X8601524Y33740000D01*
X8649143Y33692381D01*
X9077714Y32787619D02*
X9077714Y33787619D01*
X9315809Y33787619D01*
X9458667Y33740000D01*
X9553905Y33644762D01*
X9601524Y33549524D01*
X9649143Y33359048D01*
X9649143Y33216190D01*
X9601524Y33025714D01*
X9553905Y32930476D01*
X9458667Y32835238D01*
X9315809Y32787619D01*
X9077714Y32787619D01*
X9839619Y32692381D02*
X10601524Y32692381D01*
X11411048Y32787619D02*
X11077714Y33263810D01*
X10839619Y32787619D02*
X10839619Y33787619D01*
X11220572Y33787619D01*
X11315810Y33740000D01*
X11363429Y33692381D01*
X11411048Y33597143D01*
X11411048Y33454286D01*
X11363429Y33359048D01*
X11315810Y33311429D01*
X11220572Y33263810D01*
X10839619Y33263810D01*
X11792000Y32835238D02*
X11934857Y32787619D01*
X12172953Y32787619D01*
X12268191Y32835238D01*
X12315810Y32882857D01*
X12363429Y32978095D01*
X12363429Y33073333D01*
X12315810Y33168571D01*
X12268191Y33216190D01*
X12172953Y33263810D01*
X11982476Y33311429D01*
X11887238Y33359048D01*
X11839619Y33406667D01*
X11792000Y33501905D01*
X11792000Y33597143D01*
X11839619Y33692381D01*
X11887238Y33740000D01*
X11982476Y33787619D01*
X12220572Y33787619D01*
X12363429Y33740000D01*
X7609334Y35327619D02*
X7133143Y35327619D01*
X7133143Y36327619D01*
X8514096Y35422857D02*
X8466477Y35375238D01*
X8323620Y35327619D01*
X8228382Y35327619D01*
X8085524Y35375238D01*
X7990286Y35470476D01*
X7942667Y35565714D01*
X7895048Y35756190D01*
X7895048Y35899048D01*
X7942667Y36089524D01*
X7990286Y36184762D01*
X8085524Y36280000D01*
X8228382Y36327619D01*
X8323620Y36327619D01*
X8466477Y36280000D01*
X8514096Y36232381D01*
X8942667Y35327619D02*
X8942667Y36327619D01*
X9180762Y36327619D01*
X9323620Y36280000D01*
X9418858Y36184762D01*
X9466477Y36089524D01*
X9514096Y35899048D01*
X9514096Y35756190D01*
X9466477Y35565714D01*
X9418858Y35470476D01*
X9323620Y35375238D01*
X9180762Y35327619D01*
X8942667Y35327619D01*
X10371239Y35994286D02*
X10371239Y35327619D01*
X10133143Y36375238D02*
X9895048Y35660952D01*
X10514096Y35660952D01*
X7165048Y37915238D02*
X7307905Y37867619D01*
X7546001Y37867619D01*
X7641239Y37915238D01*
X7688858Y37962857D01*
X7736477Y38058095D01*
X7736477Y38153333D01*
X7688858Y38248571D01*
X7641239Y38296190D01*
X7546001Y38343810D01*
X7355524Y38391429D01*
X7260286Y38439048D01*
X7212667Y38486667D01*
X7165048Y38581905D01*
X7165048Y38677143D01*
X7212667Y38772381D01*
X7260286Y38820000D01*
X7355524Y38867619D01*
X7593620Y38867619D01*
X7736477Y38820000D01*
X8165048Y37867619D02*
X8165048Y38867619D01*
X8546001Y38867619D01*
X8641239Y38820000D01*
X8688858Y38772381D01*
X8736477Y38677143D01*
X8736477Y38534286D01*
X8688858Y38439048D01*
X8641239Y38391429D01*
X8546001Y38343810D01*
X8165048Y38343810D01*
X9165048Y37867619D02*
X9165048Y38867619D01*
X9403143Y37772381D02*
X10165048Y37772381D01*
X10355524Y37915238D02*
X10498381Y37867619D01*
X10736477Y37867619D01*
X10831715Y37915238D01*
X10879334Y37962857D01*
X10926953Y38058095D01*
X10926953Y38153333D01*
X10879334Y38248571D01*
X10831715Y38296190D01*
X10736477Y38343810D01*
X10546000Y38391429D01*
X10450762Y38439048D01*
X10403143Y38486667D01*
X10355524Y38581905D01*
X10355524Y38677143D01*
X10403143Y38772381D01*
X10450762Y38820000D01*
X10546000Y38867619D01*
X10784096Y38867619D01*
X10926953Y38820000D01*
X11926953Y37962857D02*
X11879334Y37915238D01*
X11736477Y37867619D01*
X11641239Y37867619D01*
X11498381Y37915238D01*
X11403143Y38010476D01*
X11355524Y38105714D01*
X11307905Y38296190D01*
X11307905Y38439048D01*
X11355524Y38629524D01*
X11403143Y38724762D01*
X11498381Y38820000D01*
X11641239Y38867619D01*
X11736477Y38867619D01*
X11879334Y38820000D01*
X11926953Y38772381D01*
X12355524Y37867619D02*
X12355524Y38867619D01*
X12926953Y37867619D02*
X12498381Y38439048D01*
X12926953Y38867619D02*
X12355524Y38296190D01*
X7085715Y40455238D02*
X7228572Y40407619D01*
X7466668Y40407619D01*
X7561906Y40455238D01*
X7609525Y40502857D01*
X7657144Y40598095D01*
X7657144Y40693333D01*
X7609525Y40788571D01*
X7561906Y40836190D01*
X7466668Y40883810D01*
X7276191Y40931429D01*
X7180953Y40979048D01*
X7133334Y41026667D01*
X7085715Y41121905D01*
X7085715Y41217143D01*
X7133334Y41312381D01*
X7180953Y41360000D01*
X7276191Y41407619D01*
X7514287Y41407619D01*
X7657144Y41360000D01*
X8085715Y40407619D02*
X8085715Y41407619D01*
X8466668Y41407619D01*
X8561906Y41360000D01*
X8609525Y41312381D01*
X8657144Y41217143D01*
X8657144Y41074286D01*
X8609525Y40979048D01*
X8561906Y40931429D01*
X8466668Y40883810D01*
X8085715Y40883810D01*
X9085715Y40407619D02*
X9085715Y41407619D01*
X9323810Y40312381D02*
X10085715Y40312381D01*
X10323810Y40407619D02*
X10323810Y41407619D01*
X10657144Y40693333D01*
X10990477Y41407619D01*
X10990477Y40407619D01*
X11466667Y40407619D02*
X11466667Y41407619D01*
X11895238Y40455238D02*
X12038095Y40407619D01*
X12276191Y40407619D01*
X12371429Y40455238D01*
X12419048Y40502857D01*
X12466667Y40598095D01*
X12466667Y40693333D01*
X12419048Y40788571D01*
X12371429Y40836190D01*
X12276191Y40883810D01*
X12085714Y40931429D01*
X11990476Y40979048D01*
X11942857Y41026667D01*
X11895238Y41121905D01*
X11895238Y41217143D01*
X11942857Y41312381D01*
X11990476Y41360000D01*
X12085714Y41407619D01*
X12323810Y41407619D01*
X12466667Y41360000D01*
X13085714Y41407619D02*
X13276191Y41407619D01*
X13371429Y41360000D01*
X13466667Y41264762D01*
X13514286Y41074286D01*
X13514286Y40740952D01*
X13466667Y40550476D01*
X13371429Y40455238D01*
X13276191Y40407619D01*
X13085714Y40407619D01*
X12990476Y40455238D01*
X12895238Y40550476D01*
X12847619Y40740952D01*
X12847619Y41074286D01*
X12895238Y41264762D01*
X12990476Y41360000D01*
X13085714Y41407619D01*
X7037905Y43947619D02*
X7609334Y43947619D01*
X7323619Y42947619D02*
X7323619Y43947619D01*
X7847429Y43947619D02*
X8514096Y42947619D01*
X8514096Y43947619D02*
X7847429Y42947619D01*
X8895048Y42947619D02*
X8895048Y43947619D01*
X9133143Y43947619D01*
X9276001Y43900000D01*
X9371239Y43804762D01*
X9418858Y43709524D01*
X9466477Y43519048D01*
X9466477Y43376190D01*
X9418858Y43185714D01*
X9371239Y43090476D01*
X9276001Y42995238D01*
X9133143Y42947619D01*
X8895048Y42947619D01*
X10418858Y42947619D02*
X9847429Y42947619D01*
X10133143Y42947619D02*
X10133143Y43947619D01*
X10037905Y43804762D01*
X9942667Y43709524D01*
X9847429Y43661905D01*
X7037905Y46487619D02*
X7609334Y46487619D01*
X7323619Y45487619D02*
X7323619Y46487619D01*
X7847429Y46487619D02*
X8514096Y45487619D01*
X8514096Y46487619D02*
X7847429Y45487619D01*
X8895048Y45487619D02*
X8895048Y46487619D01*
X9133143Y46487619D01*
X9276001Y46440000D01*
X9371239Y46344762D01*
X9418858Y46249524D01*
X9466477Y46059048D01*
X9466477Y45916190D01*
X9418858Y45725714D01*
X9371239Y45630476D01*
X9276001Y45535238D01*
X9133143Y45487619D01*
X8895048Y45487619D01*
X10085524Y46487619D02*
X10180763Y46487619D01*
X10276001Y46440000D01*
X10323620Y46392381D01*
X10371239Y46297143D01*
X10418858Y46106667D01*
X10418858Y45868571D01*
X10371239Y45678095D01*
X10323620Y45582857D01*
X10276001Y45535238D01*
X10180763Y45487619D01*
X10085524Y45487619D01*
X9990286Y45535238D01*
X9942667Y45582857D01*
X9895048Y45678095D01*
X9847429Y45868571D01*
X9847429Y46106667D01*
X9895048Y46297143D01*
X9942667Y46392381D01*
X9990286Y46440000D01*
X10085524Y46487619D01*
X7180762Y48027619D02*
X7180762Y49027619D01*
X7514096Y48313333D01*
X7847429Y49027619D01*
X7847429Y48027619D01*
X8323619Y48027619D02*
X8323619Y49027619D01*
X8561714Y49027619D01*
X8704572Y48980000D01*
X8799810Y48884762D01*
X8847429Y48789524D01*
X8895048Y48599048D01*
X8895048Y48456190D01*
X8847429Y48265714D01*
X8799810Y48170476D01*
X8704572Y48075238D01*
X8561714Y48027619D01*
X8323619Y48027619D01*
X9323619Y48027619D02*
X9323619Y49027619D01*
X9990285Y49027619D02*
X10180762Y49027619D01*
X10276000Y48980000D01*
X10371238Y48884762D01*
X10418857Y48694286D01*
X10418857Y48360952D01*
X10371238Y48170476D01*
X10276000Y48075238D01*
X10180762Y48027619D01*
X9990285Y48027619D01*
X9895047Y48075238D01*
X9799809Y48170476D01*
X9752190Y48360952D01*
X9752190Y48694286D01*
X9799809Y48884762D01*
X9895047Y48980000D01*
X9990285Y49027619D01*
X7703810Y49822857D02*
X7656191Y49775238D01*
X7513334Y49727619D01*
X7418096Y49727619D01*
X7275238Y49775238D01*
X7180000Y49870476D01*
X7132381Y49965714D01*
X7084762Y50156190D01*
X7084762Y50299048D01*
X7132381Y50489524D01*
X7180000Y50584762D01*
X7275238Y50680000D01*
X7418096Y50727619D01*
X7513334Y50727619D01*
X7656191Y50680000D01*
X7703810Y50632381D01*
X8703810Y49727619D02*
X8370476Y50203810D01*
X8132381Y49727619D02*
X8132381Y50727619D01*
X8513334Y50727619D01*
X8608572Y50680000D01*
X8656191Y50632381D01*
X8703810Y50537143D01*
X8703810Y50394286D01*
X8656191Y50299048D01*
X8608572Y50251429D01*
X8513334Y50203810D01*
X8132381Y50203810D01*
X9084762Y49775238D02*
X9227619Y49727619D01*
X9465715Y49727619D01*
X9560953Y49775238D01*
X9608572Y49822857D01*
X9656191Y49918095D01*
X9656191Y50013333D01*
X9608572Y50108571D01*
X9560953Y50156190D01*
X9465715Y50203810D01*
X9275238Y50251429D01*
X9180000Y50299048D01*
X9132381Y50346667D01*
X9084762Y50441905D01*
X9084762Y50537143D01*
X9132381Y50632381D01*
X9180000Y50680000D01*
X9275238Y50727619D01*
X9513334Y50727619D01*
X9656191Y50680000D01*
X9846667Y49632381D02*
X10608572Y49632381D01*
X10846667Y49727619D02*
X10846667Y50727619D01*
X11084762Y50727619D01*
X11227620Y50680000D01*
X11322858Y50584762D01*
X11370477Y50489524D01*
X11418096Y50299048D01*
X11418096Y50156190D01*
X11370477Y49965714D01*
X11322858Y49870476D01*
X11227620Y49775238D01*
X11084762Y49727619D01*
X10846667Y49727619D01*
X11703810Y50727619D02*
X12037143Y49727619D01*
X12370477Y50727619D01*
X7146667Y52227619D02*
X7146667Y53227619D01*
X7480001Y52513333D01*
X7813334Y53227619D01*
X7813334Y52227619D01*
X8289524Y52227619D02*
X8289524Y53227619D01*
X8527619Y53227619D01*
X8670477Y53180000D01*
X8765715Y53084762D01*
X8813334Y52989524D01*
X8860953Y52799048D01*
X8860953Y52656190D01*
X8813334Y52465714D01*
X8765715Y52370476D01*
X8670477Y52275238D01*
X8527619Y52227619D01*
X8289524Y52227619D01*
X9860953Y52322857D02*
X9813334Y52275238D01*
X9670477Y52227619D01*
X9575239Y52227619D01*
X9432381Y52275238D01*
X9337143Y52370476D01*
X9289524Y52465714D01*
X9241905Y52656190D01*
X9241905Y52799048D01*
X9289524Y52989524D01*
X9337143Y53084762D01*
X9432381Y53180000D01*
X9575239Y53227619D01*
X9670477Y53227619D01*
X9813334Y53180000D01*
X9860953Y53132381D01*
X6960952Y58527619D02*
X7532381Y58527619D01*
X7246666Y57527619D02*
X7246666Y58527619D01*
X7770476Y58527619D02*
X8437143Y57527619D01*
X8437143Y58527619D02*
X7770476Y57527619D01*
X8580000Y57432381D02*
X9341905Y57432381D01*
X9580000Y58051429D02*
X9913334Y58051429D01*
X10056191Y57527619D02*
X9580000Y57527619D01*
X9580000Y58527619D01*
X10056191Y58527619D01*
X10484762Y57527619D02*
X10484762Y58527619D01*
X11056191Y57527619D01*
X11056191Y58527619D01*
X7637143Y59027619D02*
X7303809Y59503810D01*
X7065714Y59027619D02*
X7065714Y60027619D01*
X7446667Y60027619D01*
X7541905Y59980000D01*
X7589524Y59932381D01*
X7637143Y59837143D01*
X7637143Y59694286D01*
X7589524Y59599048D01*
X7541905Y59551429D01*
X7446667Y59503810D01*
X7065714Y59503810D01*
X7970476Y60027619D02*
X8637143Y59027619D01*
X8637143Y60027619D02*
X7970476Y59027619D01*
X9018095Y59027619D02*
X9018095Y60027619D01*
X9256190Y60027619D01*
X9399048Y59980000D01*
X9494286Y59884762D01*
X9541905Y59789524D01*
X9589524Y59599048D01*
X9589524Y59456190D01*
X9541905Y59265714D01*
X9494286Y59170476D01*
X9399048Y59075238D01*
X9256190Y59027619D01*
X9018095Y59027619D01*
X10541905Y59027619D02*
X9970476Y59027619D01*
X10256190Y59027619D02*
X10256190Y60027619D01*
X10160952Y59884762D01*
X10065714Y59789524D01*
X9970476Y59741905D01*
X6982286Y61108571D02*
X7744191Y61108571D01*
X7363239Y60727619D02*
X7363239Y61489524D01*
X8696572Y61727619D02*
X8220381Y61727619D01*
X8172762Y61251429D01*
X8220381Y61299048D01*
X8315619Y61346667D01*
X8553715Y61346667D01*
X8648953Y61299048D01*
X8696572Y61251429D01*
X8744191Y61156190D01*
X8744191Y60918095D01*
X8696572Y60822857D01*
X8648953Y60775238D01*
X8553715Y60727619D01*
X8315619Y60727619D01*
X8220381Y60775238D01*
X8172762Y60822857D01*
X9029905Y61727619D02*
X9363238Y60727619D01*
X9696572Y61727619D01*
X-1129904Y13674000D02*
X-1225142Y13721619D01*
X-1367999Y13721619D01*
X-1510857Y13674000D01*
X-1606095Y13578762D01*
X-1653714Y13483524D01*
X-1701333Y13293048D01*
X-1701333Y13150190D01*
X-1653714Y12959714D01*
X-1606095Y12864476D01*
X-1510857Y12769238D01*
X-1367999Y12721619D01*
X-1272761Y12721619D01*
X-1129904Y12769238D01*
X-1082285Y12816857D01*
X-1082285Y13150190D01*
X-1272761Y13150190D01*
X-653714Y12721619D02*
X-653714Y13721619D01*
X-82285Y12721619D01*
X-82285Y13721619D01*
X393905Y12721619D02*
X393905Y13721619D01*
X632000Y13721619D01*
X774858Y13674000D01*
X870096Y13578762D01*
X917715Y13483524D01*
X965334Y13293048D01*
X965334Y13150190D01*
X917715Y12959714D01*
X870096Y12864476D01*
X774858Y12769238D01*
X632000Y12721619D01*
X393905Y12721619D01*
X-1129904Y15960000D02*
X-1225142Y16007619D01*
X-1367999Y16007619D01*
X-1510857Y15960000D01*
X-1606095Y15864762D01*
X-1653714Y15769524D01*
X-1701333Y15579048D01*
X-1701333Y15436190D01*
X-1653714Y15245714D01*
X-1606095Y15150476D01*
X-1510857Y15055238D01*
X-1367999Y15007619D01*
X-1272761Y15007619D01*
X-1129904Y15055238D01*
X-1082285Y15102857D01*
X-1082285Y15436190D01*
X-1272761Y15436190D01*
X-653714Y15007619D02*
X-653714Y16007619D01*
X-82285Y15007619D01*
X-82285Y16007619D01*
X393905Y15007619D02*
X393905Y16007619D01*
X632000Y16007619D01*
X774858Y15960000D01*
X870096Y15864762D01*
X917715Y15769524D01*
X965334Y15579048D01*
X965334Y15436190D01*
X917715Y15245714D01*
X870096Y15150476D01*
X774858Y15055238D01*
X632000Y15007619D01*
X393905Y15007619D01*
X-2458571Y18500000D02*
X-2544285Y18547619D01*
X-2672856Y18547619D01*
X-2801428Y18500000D01*
X-2887142Y18404762D01*
X-2929999Y18309524D01*
X-2972856Y18119048D01*
X-2972856Y17976190D01*
X-2929999Y17785714D01*
X-2887142Y17690476D01*
X-2801428Y17595238D01*
X-2672856Y17547619D01*
X-2587142Y17547619D01*
X-2458571Y17595238D01*
X-2415714Y17642857D01*
X-2415714Y17976190D01*
X-2587142Y17976190D01*
X-2029999Y17547619D02*
X-2029999Y18547619D01*
X-1687142Y18547619D01*
X-1601428Y18500000D01*
X-1558571Y18452381D01*
X-1515714Y18357143D01*
X-1515714Y18214286D01*
X-1558571Y18119048D01*
X-1601428Y18071429D01*
X-1687142Y18023810D01*
X-2029999Y18023810D01*
X-1129999Y17547619D02*
X-1129999Y18547619D01*
X-530000Y18547619D02*
X-358571Y18547619D01*
X-272857Y18500000D01*
X-187143Y18404762D01*
X-144285Y18214286D01*
X-144285Y17880952D01*
X-187143Y17690476D01*
X-272857Y17595238D01*
X-358571Y17547619D01*
X-530000Y17547619D01*
X-615714Y17595238D01*
X-701428Y17690476D01*
X-744285Y17880952D01*
X-744285Y18214286D01*
X-701428Y18404762D01*
X-615714Y18500000D01*
X-530000Y18547619D01*
X627143Y18547619D02*
X455714Y18547619D01*
X370000Y18500000D01*
X327143Y18452381D01*
X241429Y18309524D01*
X198572Y18119048D01*
X198572Y17738095D01*
X241429Y17642857D01*
X284286Y17595238D01*
X370000Y17547619D01*
X541429Y17547619D01*
X627143Y17595238D01*
X670000Y17642857D01*
X712857Y17738095D01*
X712857Y17976190D01*
X670000Y18071429D01*
X627143Y18119048D01*
X541429Y18166667D01*
X370000Y18166667D01*
X284286Y18119048D01*
X241429Y18071429D01*
X198572Y17976190D01*
X-2458571Y21040000D02*
X-2544285Y21087619D01*
X-2672856Y21087619D01*
X-2801428Y21040000D01*
X-2887142Y20944762D01*
X-2929999Y20849524D01*
X-2972856Y20659048D01*
X-2972856Y20516190D01*
X-2929999Y20325714D01*
X-2887142Y20230476D01*
X-2801428Y20135238D01*
X-2672856Y20087619D01*
X-2587142Y20087619D01*
X-2458571Y20135238D01*
X-2415714Y20182857D01*
X-2415714Y20516190D01*
X-2587142Y20516190D01*
X-2029999Y20087619D02*
X-2029999Y21087619D01*
X-1687142Y21087619D01*
X-1601428Y21040000D01*
X-1558571Y20992381D01*
X-1515714Y20897143D01*
X-1515714Y20754286D01*
X-1558571Y20659048D01*
X-1601428Y20611429D01*
X-1687142Y20563810D01*
X-2029999Y20563810D01*
X-1129999Y20087619D02*
X-1129999Y21087619D01*
X-530000Y21087619D02*
X-358571Y21087619D01*
X-272857Y21040000D01*
X-187143Y20944762D01*
X-144285Y20754286D01*
X-144285Y20420952D01*
X-187143Y20230476D01*
X-272857Y20135238D01*
X-358571Y20087619D01*
X-530000Y20087619D01*
X-615714Y20135238D01*
X-701428Y20230476D01*
X-744285Y20420952D01*
X-744285Y20754286D01*
X-701428Y20944762D01*
X-615714Y21040000D01*
X-530000Y21087619D01*
X627143Y20754286D02*
X627143Y20087619D01*
X412857Y21135238D02*
X198572Y20420952D01*
X755714Y20420952D01*
X-2458571Y23580000D02*
X-2544285Y23627619D01*
X-2672856Y23627619D01*
X-2801428Y23580000D01*
X-2887142Y23484762D01*
X-2929999Y23389524D01*
X-2972856Y23199048D01*
X-2972856Y23056190D01*
X-2929999Y22865714D01*
X-2887142Y22770476D01*
X-2801428Y22675238D01*
X-2672856Y22627619D01*
X-2587142Y22627619D01*
X-2458571Y22675238D01*
X-2415714Y22722857D01*
X-2415714Y23056190D01*
X-2587142Y23056190D01*
X-2029999Y22627619D02*
X-2029999Y23627619D01*
X-1687142Y23627619D01*
X-1601428Y23580000D01*
X-1558571Y23532381D01*
X-1515714Y23437143D01*
X-1515714Y23294286D01*
X-1558571Y23199048D01*
X-1601428Y23151429D01*
X-1687142Y23103810D01*
X-2029999Y23103810D01*
X-1129999Y22627619D02*
X-1129999Y23627619D01*
X-530000Y23627619D02*
X-358571Y23627619D01*
X-272857Y23580000D01*
X-187143Y23484762D01*
X-144285Y23294286D01*
X-144285Y22960952D01*
X-187143Y22770476D01*
X-272857Y22675238D01*
X-358571Y22627619D01*
X-530000Y22627619D01*
X-615714Y22675238D01*
X-701428Y22770476D01*
X-744285Y22960952D01*
X-744285Y23294286D01*
X-701428Y23484762D01*
X-615714Y23580000D01*
X-530000Y23627619D01*
X198572Y23532381D02*
X241429Y23580000D01*
X327143Y23627619D01*
X541429Y23627619D01*
X627143Y23580000D01*
X670000Y23532381D01*
X712857Y23437143D01*
X712857Y23341905D01*
X670000Y23199048D01*
X155714Y22627619D01*
X712857Y22627619D01*
X-2458571Y26120000D02*
X-2544285Y26167619D01*
X-2672856Y26167619D01*
X-2801428Y26120000D01*
X-2887142Y26024762D01*
X-2929999Y25929524D01*
X-2972856Y25739048D01*
X-2972856Y25596190D01*
X-2929999Y25405714D01*
X-2887142Y25310476D01*
X-2801428Y25215238D01*
X-2672856Y25167619D01*
X-2587142Y25167619D01*
X-2458571Y25215238D01*
X-2415714Y25262857D01*
X-2415714Y25596190D01*
X-2587142Y25596190D01*
X-2029999Y25167619D02*
X-2029999Y26167619D01*
X-1687142Y26167619D01*
X-1601428Y26120000D01*
X-1558571Y26072381D01*
X-1515714Y25977143D01*
X-1515714Y25834286D01*
X-1558571Y25739048D01*
X-1601428Y25691429D01*
X-1687142Y25643810D01*
X-2029999Y25643810D01*
X-1129999Y25167619D02*
X-1129999Y26167619D01*
X-530000Y26167619D02*
X-358571Y26167619D01*
X-272857Y26120000D01*
X-187143Y26024762D01*
X-144285Y25834286D01*
X-144285Y25500952D01*
X-187143Y25310476D01*
X-272857Y25215238D01*
X-358571Y25167619D01*
X-530000Y25167619D01*
X-615714Y25215238D01*
X-701428Y25310476D01*
X-744285Y25500952D01*
X-744285Y25834286D01*
X-701428Y26024762D01*
X-615714Y26120000D01*
X-530000Y26167619D01*
X412857Y26167619D02*
X498572Y26167619D01*
X584286Y26120000D01*
X627143Y26072381D01*
X670000Y25977143D01*
X712857Y25786667D01*
X712857Y25548571D01*
X670000Y25358095D01*
X627143Y25262857D01*
X584286Y25215238D01*
X498572Y25167619D01*
X412857Y25167619D01*
X327143Y25215238D01*
X284286Y25262857D01*
X241429Y25358095D01*
X198572Y25548571D01*
X198572Y25786667D01*
X241429Y25977143D01*
X284286Y26072381D01*
X327143Y26120000D01*
X412857Y26167619D01*
X-1129904Y28660000D02*
X-1225142Y28707619D01*
X-1367999Y28707619D01*
X-1510857Y28660000D01*
X-1606095Y28564762D01*
X-1653714Y28469524D01*
X-1701333Y28279048D01*
X-1701333Y28136190D01*
X-1653714Y27945714D01*
X-1606095Y27850476D01*
X-1510857Y27755238D01*
X-1367999Y27707619D01*
X-1272761Y27707619D01*
X-1129904Y27755238D01*
X-1082285Y27802857D01*
X-1082285Y28136190D01*
X-1272761Y28136190D01*
X-653714Y27707619D02*
X-653714Y28707619D01*
X-82285Y27707619D01*
X-82285Y28707619D01*
X393905Y27707619D02*
X393905Y28707619D01*
X632000Y28707619D01*
X774858Y28660000D01*
X870096Y28564762D01*
X917715Y28469524D01*
X965334Y28279048D01*
X965334Y28136190D01*
X917715Y27945714D01*
X870096Y27850476D01*
X774858Y27755238D01*
X632000Y27707619D01*
X393905Y27707619D01*
X-1129904Y31200000D02*
X-1225142Y31247619D01*
X-1367999Y31247619D01*
X-1510857Y31200000D01*
X-1606095Y31104762D01*
X-1653714Y31009524D01*
X-1701333Y30819048D01*
X-1701333Y30676190D01*
X-1653714Y30485714D01*
X-1606095Y30390476D01*
X-1510857Y30295238D01*
X-1367999Y30247619D01*
X-1272761Y30247619D01*
X-1129904Y30295238D01*
X-1082285Y30342857D01*
X-1082285Y30676190D01*
X-1272761Y30676190D01*
X-653714Y30247619D02*
X-653714Y31247619D01*
X-82285Y30247619D01*
X-82285Y31247619D01*
X393905Y30247619D02*
X393905Y31247619D01*
X632000Y31247619D01*
X774858Y31200000D01*
X870096Y31104762D01*
X917715Y31009524D01*
X965334Y30819048D01*
X965334Y30676190D01*
X917715Y30485714D01*
X870096Y30390476D01*
X774858Y30295238D01*
X632000Y30247619D01*
X393905Y30247619D01*
D17*
X-2309333Y33041619D02*
X-2642666Y33041619D01*
X-2642666Y34041619D01*
X-1675999Y33136857D02*
X-1709333Y33089238D01*
X-1809333Y33041619D01*
X-1875999Y33041619D01*
X-1975999Y33089238D01*
X-2042666Y33184476D01*
X-2075999Y33279714D01*
X-2109333Y33470190D01*
X-2109333Y33613048D01*
X-2075999Y33803524D01*
X-2042666Y33898762D01*
X-1975999Y33994000D01*
X-1875999Y34041619D01*
X-1809333Y34041619D01*
X-1709333Y33994000D01*
X-1675999Y33946381D01*
X-1375999Y33041619D02*
X-1375999Y34041619D01*
X-1209333Y34041619D01*
X-1109333Y33994000D01*
X-1042666Y33898762D01*
X-1009333Y33803524D01*
X-975999Y33613048D01*
X-975999Y33470190D01*
X-1009333Y33279714D01*
X-1042666Y33184476D01*
X-1109333Y33089238D01*
X-1209333Y33041619D01*
X-1375999Y33041619D01*
X-842666Y32946381D02*
X-309333Y32946381D01*
X-142666Y33565429D02*
X90667Y33565429D01*
X190667Y33041619D02*
X-142666Y33041619D01*
X-142666Y34041619D01*
X190667Y34041619D01*
X490667Y33041619D02*
X490667Y34041619D01*
X890667Y33041619D01*
X890667Y34041619D01*
X-3380000Y35629238D02*
X-3280000Y35581619D01*
X-3113333Y35581619D01*
X-3046666Y35629238D01*
X-3013333Y35676857D01*
X-2980000Y35772095D01*
X-2980000Y35867333D01*
X-3013333Y35962571D01*
X-3046666Y36010190D01*
X-3113333Y36057810D01*
X-3246666Y36105429D01*
X-3313333Y36153048D01*
X-3346666Y36200667D01*
X-3380000Y36295905D01*
X-3380000Y36391143D01*
X-3346666Y36486381D01*
X-3313333Y36534000D01*
X-3246666Y36581619D01*
X-3080000Y36581619D01*
X-2980000Y36534000D01*
X-2679999Y35581619D02*
X-2679999Y36581619D01*
X-2413333Y36581619D01*
X-2346666Y36534000D01*
X-2313333Y36486381D01*
X-2279999Y36391143D01*
X-2279999Y36248286D01*
X-2313333Y36153048D01*
X-2346666Y36105429D01*
X-2413333Y36057810D01*
X-2679999Y36057810D01*
X-1979999Y35581619D02*
X-1979999Y36581619D01*
X-1813333Y35486381D02*
X-1280000Y35486381D01*
X-1113333Y35581619D02*
X-1113333Y36581619D01*
X-880000Y35867333D01*
X-646667Y36581619D01*
X-646667Y35581619D01*
X-180000Y36581619D02*
X-46667Y36581619D01*
X20000Y36534000D01*
X86667Y36438762D01*
X120000Y36248286D01*
X120000Y35914952D01*
X86667Y35724476D01*
X20000Y35629238D01*
X-46667Y35581619D01*
X-180000Y35581619D01*
X-246667Y35629238D01*
X-313333Y35724476D01*
X-346667Y35914952D01*
X-346667Y36248286D01*
X-313333Y36438762D01*
X-246667Y36534000D01*
X-180000Y36581619D01*
X386666Y35629238D02*
X486666Y35581619D01*
X653333Y35581619D01*
X720000Y35629238D01*
X753333Y35676857D01*
X786666Y35772095D01*
X786666Y35867333D01*
X753333Y35962571D01*
X720000Y36010190D01*
X653333Y36057810D01*
X520000Y36105429D01*
X453333Y36153048D01*
X420000Y36200667D01*
X386666Y36295905D01*
X386666Y36391143D01*
X420000Y36486381D01*
X453333Y36534000D01*
X520000Y36581619D01*
X686666Y36581619D01*
X786666Y36534000D01*
X1086667Y35581619D02*
X1086667Y36581619D01*
D12*
X-1129904Y38820000D02*
X-1225142Y38867619D01*
X-1367999Y38867619D01*
X-1510857Y38820000D01*
X-1606095Y38724762D01*
X-1653714Y38629524D01*
X-1701333Y38439048D01*
X-1701333Y38296190D01*
X-1653714Y38105714D01*
X-1606095Y38010476D01*
X-1510857Y37915238D01*
X-1367999Y37867619D01*
X-1272761Y37867619D01*
X-1129904Y37915238D01*
X-1082285Y37962857D01*
X-1082285Y38296190D01*
X-1272761Y38296190D01*
X-653714Y37867619D02*
X-653714Y38867619D01*
X-82285Y37867619D01*
X-82285Y38867619D01*
X393905Y37867619D02*
X393905Y38867619D01*
X632000Y38867619D01*
X774858Y38820000D01*
X870096Y38724762D01*
X917715Y38629524D01*
X965334Y38439048D01*
X965334Y38296190D01*
X917715Y38105714D01*
X870096Y38010476D01*
X774858Y37915238D01*
X632000Y37867619D01*
X393905Y37867619D01*
X-1129904Y41360000D02*
X-1225142Y41407619D01*
X-1367999Y41407619D01*
X-1510857Y41360000D01*
X-1606095Y41264762D01*
X-1653714Y41169524D01*
X-1701333Y40979048D01*
X-1701333Y40836190D01*
X-1653714Y40645714D01*
X-1606095Y40550476D01*
X-1510857Y40455238D01*
X-1367999Y40407619D01*
X-1272761Y40407619D01*
X-1129904Y40455238D01*
X-1082285Y40502857D01*
X-1082285Y40836190D01*
X-1272761Y40836190D01*
X-653714Y40407619D02*
X-653714Y41407619D01*
X-82285Y40407619D01*
X-82285Y41407619D01*
X393905Y40407619D02*
X393905Y41407619D01*
X632000Y41407619D01*
X774858Y41360000D01*
X870096Y41264762D01*
X917715Y41169524D01*
X965334Y40979048D01*
X965334Y40836190D01*
X917715Y40645714D01*
X870096Y40550476D01*
X774858Y40455238D01*
X632000Y40407619D01*
X393905Y40407619D01*
D18*
X-2779999Y42992857D02*
X-3013333Y43421429D01*
X-3179999Y42992857D02*
X-3179999Y43892857D01*
X-2913333Y43892857D01*
X-2846666Y43850000D01*
X-2813333Y43807143D01*
X-2779999Y43721429D01*
X-2779999Y43592857D01*
X-2813333Y43507143D01*
X-2846666Y43464286D01*
X-2913333Y43421429D01*
X-3179999Y43421429D01*
X-2479999Y43464286D02*
X-2246666Y43464286D01*
X-2146666Y42992857D02*
X-2479999Y42992857D01*
X-2479999Y43892857D01*
X-2146666Y43892857D01*
X-1613333Y43464286D02*
X-1846666Y43464286D01*
X-1846666Y42992857D02*
X-1846666Y43892857D01*
X-1513333Y43892857D01*
X-1413333Y42907143D02*
X-880000Y42907143D01*
X-313333Y43078571D02*
X-346667Y43035714D01*
X-446667Y42992857D01*
X-513333Y42992857D01*
X-613333Y43035714D01*
X-680000Y43121429D01*
X-713333Y43207143D01*
X-746667Y43378571D01*
X-746667Y43507143D01*
X-713333Y43678571D01*
X-680000Y43764286D01*
X-613333Y43850000D01*
X-513333Y43892857D01*
X-446667Y43892857D01*
X-346667Y43850000D01*
X-313333Y43807143D01*
X320000Y42992857D02*
X-13333Y42992857D01*
X-13333Y43892857D01*
X553334Y42992857D02*
X553334Y43892857D01*
X953334Y42992857D02*
X653334Y43507143D01*
X953334Y43892857D02*
X553334Y43378571D01*
D12*
X-1129904Y46440000D02*
X-1225142Y46487619D01*
X-1367999Y46487619D01*
X-1510857Y46440000D01*
X-1606095Y46344762D01*
X-1653714Y46249524D01*
X-1701333Y46059048D01*
X-1701333Y45916190D01*
X-1653714Y45725714D01*
X-1606095Y45630476D01*
X-1510857Y45535238D01*
X-1367999Y45487619D01*
X-1272761Y45487619D01*
X-1129904Y45535238D01*
X-1082285Y45582857D01*
X-1082285Y45916190D01*
X-1272761Y45916190D01*
X-653714Y45487619D02*
X-653714Y46487619D01*
X-82285Y45487619D01*
X-82285Y46487619D01*
X393905Y45487619D02*
X393905Y46487619D01*
X632000Y46487619D01*
X774858Y46440000D01*
X870096Y46344762D01*
X917715Y46249524D01*
X965334Y46059048D01*
X965334Y45916190D01*
X917715Y45725714D01*
X870096Y45630476D01*
X774858Y45535238D01*
X632000Y45487619D01*
X393905Y45487619D01*
X-1129904Y48980000D02*
X-1225142Y49027619D01*
X-1367999Y49027619D01*
X-1510857Y48980000D01*
X-1606095Y48884762D01*
X-1653714Y48789524D01*
X-1701333Y48599048D01*
X-1701333Y48456190D01*
X-1653714Y48265714D01*
X-1606095Y48170476D01*
X-1510857Y48075238D01*
X-1367999Y48027619D01*
X-1272761Y48027619D01*
X-1129904Y48075238D01*
X-1082285Y48122857D01*
X-1082285Y48456190D01*
X-1272761Y48456190D01*
X-653714Y48027619D02*
X-653714Y49027619D01*
X-82285Y48027619D01*
X-82285Y49027619D01*
X393905Y48027619D02*
X393905Y49027619D01*
X632000Y49027619D01*
X774858Y48980000D01*
X870096Y48884762D01*
X917715Y48789524D01*
X965334Y48599048D01*
X965334Y48456190D01*
X917715Y48265714D01*
X870096Y48170476D01*
X774858Y48075238D01*
X632000Y48027619D01*
X393905Y48027619D01*
X-1129904Y54060000D02*
X-1225142Y54107619D01*
X-1367999Y54107619D01*
X-1510857Y54060000D01*
X-1606095Y53964762D01*
X-1653714Y53869524D01*
X-1701333Y53679048D01*
X-1701333Y53536190D01*
X-1653714Y53345714D01*
X-1606095Y53250476D01*
X-1510857Y53155238D01*
X-1367999Y53107619D01*
X-1272761Y53107619D01*
X-1129904Y53155238D01*
X-1082285Y53202857D01*
X-1082285Y53536190D01*
X-1272761Y53536190D01*
X-653714Y53107619D02*
X-653714Y54107619D01*
X-82285Y53107619D01*
X-82285Y54107619D01*
X393905Y53107619D02*
X393905Y54107619D01*
X632000Y54107619D01*
X774858Y54060000D01*
X870096Y53964762D01*
X917715Y53869524D01*
X965334Y53679048D01*
X965334Y53536190D01*
X917715Y53345714D01*
X870096Y53250476D01*
X774858Y53155238D01*
X632000Y53107619D01*
X393905Y53107619D01*
X-2018857Y50567619D02*
X-2352191Y51043810D01*
X-2590286Y50567619D02*
X-2590286Y51567619D01*
X-2209333Y51567619D01*
X-2114095Y51520000D01*
X-2066476Y51472381D01*
X-2018857Y51377143D01*
X-2018857Y51234286D01*
X-2066476Y51139048D01*
X-2114095Y51091429D01*
X-2209333Y51043810D01*
X-2590286Y51043810D01*
X-1685524Y51567619D02*
X-1018857Y50567619D01*
X-1018857Y51567619D02*
X-1685524Y50567619D01*
X-637905Y50567619D02*
X-637905Y51567619D01*
X-399810Y51567619D01*
X-256952Y51520000D01*
X-161714Y51424762D01*
X-114095Y51329524D01*
X-66476Y51139048D01*
X-66476Y50996190D01*
X-114095Y50805714D01*
X-161714Y50710476D01*
X-256952Y50615238D01*
X-399810Y50567619D01*
X-637905Y50567619D01*
X552571Y51567619D02*
X647810Y51567619D01*
X743048Y51520000D01*
X790667Y51472381D01*
X838286Y51377143D01*
X885905Y51186667D01*
X885905Y50948571D01*
X838286Y50758095D01*
X790667Y50662857D01*
X743048Y50615238D01*
X647810Y50567619D01*
X552571Y50567619D01*
X457333Y50615238D01*
X409714Y50662857D01*
X362095Y50758095D01*
X314476Y50948571D01*
X314476Y51186667D01*
X362095Y51377143D01*
X409714Y51472381D01*
X457333Y51520000D01*
X552571Y51567619D01*
X-1129904Y56600000D02*
X-1225142Y56647619D01*
X-1367999Y56647619D01*
X-1510857Y56600000D01*
X-1606095Y56504762D01*
X-1653714Y56409524D01*
X-1701333Y56219048D01*
X-1701333Y56076190D01*
X-1653714Y55885714D01*
X-1606095Y55790476D01*
X-1510857Y55695238D01*
X-1367999Y55647619D01*
X-1272761Y55647619D01*
X-1129904Y55695238D01*
X-1082285Y55742857D01*
X-1082285Y56076190D01*
X-1272761Y56076190D01*
X-653714Y55647619D02*
X-653714Y56647619D01*
X-82285Y55647619D01*
X-82285Y56647619D01*
X393905Y55647619D02*
X393905Y56647619D01*
X632000Y56647619D01*
X774858Y56600000D01*
X870096Y56504762D01*
X917715Y56409524D01*
X965334Y56219048D01*
X965334Y56076190D01*
X917715Y55885714D01*
X870096Y55790476D01*
X774858Y55695238D01*
X632000Y55647619D01*
X393905Y55647619D01*
X-1129904Y59140000D02*
X-1225142Y59187619D01*
X-1367999Y59187619D01*
X-1510857Y59140000D01*
X-1606095Y59044762D01*
X-1653714Y58949524D01*
X-1701333Y58759048D01*
X-1701333Y58616190D01*
X-1653714Y58425714D01*
X-1606095Y58330476D01*
X-1510857Y58235238D01*
X-1367999Y58187619D01*
X-1272761Y58187619D01*
X-1129904Y58235238D01*
X-1082285Y58282857D01*
X-1082285Y58616190D01*
X-1272761Y58616190D01*
X-653714Y58187619D02*
X-653714Y59187619D01*
X-82285Y58187619D01*
X-82285Y59187619D01*
X393905Y58187619D02*
X393905Y59187619D01*
X632000Y59187619D01*
X774858Y59140000D01*
X870096Y59044762D01*
X917715Y58949524D01*
X965334Y58759048D01*
X965334Y58616190D01*
X917715Y58425714D01*
X870096Y58330476D01*
X774858Y58235238D01*
X632000Y58187619D01*
X393905Y58187619D01*
X-3130000Y61108571D02*
X-2368095Y61108571D01*
X-2749047Y60727619D02*
X-2749047Y61489524D01*
X-1987143Y61727619D02*
X-1368095Y61727619D01*
X-1701429Y61346667D01*
X-1558571Y61346667D01*
X-1463333Y61299048D01*
X-1415714Y61251429D01*
X-1368095Y61156190D01*
X-1368095Y60918095D01*
X-1415714Y60822857D01*
X-1463333Y60775238D01*
X-1558571Y60727619D01*
X-1844286Y60727619D01*
X-1939524Y60775238D01*
X-1987143Y60822857D01*
X-939524Y60822857D02*
X-891905Y60775238D01*
X-939524Y60727619D01*
X-987143Y60775238D01*
X-939524Y60822857D01*
X-939524Y60727619D01*
X-558572Y61727619D02*
X60476Y61727619D01*
X-272858Y61346667D01*
X-130000Y61346667D01*
X-34762Y61299048D01*
X12857Y61251429D01*
X60476Y61156190D01*
X60476Y60918095D01*
X12857Y60822857D01*
X-34762Y60775238D01*
X-130000Y60727619D01*
X-415715Y60727619D01*
X-510953Y60775238D01*
X-558572Y60822857D01*
X346190Y61727619D02*
X679523Y60727619D01*
X1012857Y61727619D01*
D16*
X2045239Y62926286D02*
X2007144Y62888190D01*
X1892858Y62850095D01*
X1816668Y62850095D01*
X1702382Y62888190D01*
X1626191Y62964381D01*
X1588096Y63040571D01*
X1550001Y63192952D01*
X1550001Y63307238D01*
X1588096Y63459619D01*
X1626191Y63535810D01*
X1702382Y63612000D01*
X1816668Y63650095D01*
X1892858Y63650095D01*
X2007144Y63612000D01*
X2045239Y63573905D01*
X2388096Y62850095D02*
X2388096Y63650095D01*
X2730953Y63078667D02*
X3111905Y63078667D01*
X2654762Y62850095D02*
X2921429Y63650095D01*
X3188096Y62850095D01*
X3416667Y63078667D02*
X3797619Y63078667D01*
X3340476Y62850095D02*
X3607143Y63650095D01*
X3873810Y62850095D01*
X4140476Y63154857D02*
X4750000Y63154857D01*
X5130952Y62850095D02*
X5130952Y63650095D01*
X5435714Y63650095D01*
X5511905Y63612000D01*
X5550000Y63573905D01*
X5588095Y63497714D01*
X5588095Y63383429D01*
X5550000Y63307238D01*
X5511905Y63269143D01*
X5435714Y63231048D01*
X5130952Y63231048D01*
X5892857Y63573905D02*
X5930952Y63612000D01*
X6007143Y63650095D01*
X6197619Y63650095D01*
X6273809Y63612000D01*
X6311905Y63573905D01*
X6350000Y63497714D01*
X6350000Y63421524D01*
X6311905Y63307238D01*
X5854762Y62850095D01*
X6350000Y62850095D01*
D11*
X49622381Y13266667D02*
X50336667Y13266667D01*
X50479524Y13219047D01*
X50574762Y13123809D01*
X50622381Y12980952D01*
X50622381Y12885714D01*
X50622381Y13742857D02*
X49622381Y13742857D01*
X49622381Y14123810D01*
X49670000Y14219048D01*
X49717619Y14266667D01*
X49812857Y14314286D01*
X49955714Y14314286D01*
X50050952Y14266667D01*
X50098571Y14219048D01*
X50146190Y14123810D01*
X50146190Y13742857D01*
X49955714Y15171429D02*
X50622381Y15171429D01*
X49574762Y14933333D02*
X50289048Y14695238D01*
X50289048Y15314286D01*
X38841905Y11727619D02*
X38841905Y10918095D01*
X38889524Y10822857D01*
X38937143Y10775238D01*
X39032381Y10727619D01*
X39222858Y10727619D01*
X39318096Y10775238D01*
X39365715Y10822857D01*
X39413334Y10918095D01*
X39413334Y11727619D01*
X40413334Y10727619D02*
X39841905Y10727619D01*
X40127619Y10727619D02*
X40127619Y11727619D01*
X40032381Y11584762D01*
X39937143Y11489524D01*
X39841905Y11441905D01*
X41270477Y11394286D02*
X41270477Y10727619D01*
X41032381Y11775238D02*
X40794286Y11060952D01*
X41413334Y11060952D01*
X22051905Y17607619D02*
X22051905Y16798095D01*
X22099524Y16702857D01*
X22147143Y16655238D01*
X22242381Y16607619D01*
X22432858Y16607619D01*
X22528096Y16655238D01*
X22575715Y16702857D01*
X22623334Y16798095D01*
X22623334Y17607619D01*
X23623334Y16607619D02*
X23051905Y16607619D01*
X23337619Y16607619D02*
X23337619Y17607619D01*
X23242381Y17464762D01*
X23147143Y17369524D01*
X23051905Y17321905D01*
X24004286Y17512381D02*
X24051905Y17560000D01*
X24147143Y17607619D01*
X24385239Y17607619D01*
X24480477Y17560000D01*
X24528096Y17512381D01*
X24575715Y17417143D01*
X24575715Y17321905D01*
X24528096Y17179048D01*
X23956667Y16607619D01*
X24575715Y16607619D01*
X36913334Y61827619D02*
X36437143Y61827619D01*
X36437143Y62827619D01*
X37770477Y61827619D02*
X37199048Y61827619D01*
X37484762Y61827619D02*
X37484762Y62827619D01*
X37389524Y62684762D01*
X37294286Y62589524D01*
X37199048Y62541905D01*
X22111905Y58987619D02*
X22111905Y58178095D01*
X22159524Y58082857D01*
X22207143Y58035238D01*
X22302381Y57987619D01*
X22492858Y57987619D01*
X22588096Y58035238D01*
X22635715Y58082857D01*
X22683334Y58178095D01*
X22683334Y58987619D01*
X23683334Y57987619D02*
X23111905Y57987619D01*
X23397619Y57987619D02*
X23397619Y58987619D01*
X23302381Y58844762D01*
X23207143Y58749524D01*
X23111905Y58701905D01*
X24635715Y57987619D02*
X24064286Y57987619D01*
X24350000Y57987619D02*
X24350000Y58987619D01*
X24254762Y58844762D01*
X24159524Y58749524D01*
X24064286Y58701905D01*
X29512381Y35581905D02*
X30321905Y35581905D01*
X30417143Y35629524D01*
X30464762Y35677143D01*
X30512381Y35772381D01*
X30512381Y35962858D01*
X30464762Y36058096D01*
X30417143Y36105715D01*
X30321905Y36153334D01*
X29512381Y36153334D01*
X30512381Y37153334D02*
X30512381Y36581905D01*
X30512381Y36867619D02*
X29512381Y36867619D01*
X29655238Y36772381D01*
X29750476Y36677143D01*
X29798095Y36581905D01*
X29512381Y37772381D02*
X29512381Y37867620D01*
X29560000Y37962858D01*
X29607619Y38010477D01*
X29702857Y38058096D01*
X29893333Y38105715D01*
X30131429Y38105715D01*
X30321905Y38058096D01*
X30417143Y38010477D01*
X30464762Y37962858D01*
X30512381Y37867620D01*
X30512381Y37772381D01*
X30464762Y37677143D01*
X30417143Y37629524D01*
X30321905Y37581905D01*
X30131429Y37534286D01*
X29893333Y37534286D01*
X29702857Y37581905D01*
X29607619Y37629524D01*
X29560000Y37677143D01*
X29512381Y37772381D01*
X62437143Y67413334D02*
X62484762Y67365715D01*
X62532381Y67222858D01*
X62532381Y67127620D01*
X62484762Y66984762D01*
X62389524Y66889524D01*
X62294286Y66841905D01*
X62103810Y66794286D01*
X61960952Y66794286D01*
X61770476Y66841905D01*
X61675238Y66889524D01*
X61580000Y66984762D01*
X61532381Y67127620D01*
X61532381Y67222858D01*
X61580000Y67365715D01*
X61627619Y67413334D01*
X62532381Y68365715D02*
X62532381Y67794286D01*
X62532381Y68080000D02*
X61532381Y68080000D01*
X61675238Y67984762D01*
X61770476Y67889524D01*
X61818095Y67794286D01*
X68237143Y67413334D02*
X68284762Y67365715D01*
X68332381Y67222858D01*
X68332381Y67127620D01*
X68284762Y66984762D01*
X68189524Y66889524D01*
X68094286Y66841905D01*
X67903810Y66794286D01*
X67760952Y66794286D01*
X67570476Y66841905D01*
X67475238Y66889524D01*
X67380000Y66984762D01*
X67332381Y67127620D01*
X67332381Y67222858D01*
X67380000Y67365715D01*
X67427619Y67413334D01*
X67427619Y67794286D02*
X67380000Y67841905D01*
X67332381Y67937143D01*
X67332381Y68175239D01*
X67380000Y68270477D01*
X67427619Y68318096D01*
X67522857Y68365715D01*
X67618095Y68365715D01*
X67760952Y68318096D01*
X68332381Y67746667D01*
X68332381Y68365715D01*
X62537143Y61013334D02*
X62584762Y60965715D01*
X62632381Y60822858D01*
X62632381Y60727620D01*
X62584762Y60584762D01*
X62489524Y60489524D01*
X62394286Y60441905D01*
X62203810Y60394286D01*
X62060952Y60394286D01*
X61870476Y60441905D01*
X61775238Y60489524D01*
X61680000Y60584762D01*
X61632381Y60727620D01*
X61632381Y60822858D01*
X61680000Y60965715D01*
X61727619Y61013334D01*
X61632381Y61346667D02*
X61632381Y61965715D01*
X62013333Y61632381D01*
X62013333Y61775239D01*
X62060952Y61870477D01*
X62108571Y61918096D01*
X62203810Y61965715D01*
X62441905Y61965715D01*
X62537143Y61918096D01*
X62584762Y61870477D01*
X62632381Y61775239D01*
X62632381Y61489524D01*
X62584762Y61394286D01*
X62537143Y61346667D01*
X68237143Y61013334D02*
X68284762Y60965715D01*
X68332381Y60822858D01*
X68332381Y60727620D01*
X68284762Y60584762D01*
X68189524Y60489524D01*
X68094286Y60441905D01*
X67903810Y60394286D01*
X67760952Y60394286D01*
X67570476Y60441905D01*
X67475238Y60489524D01*
X67380000Y60584762D01*
X67332381Y60727620D01*
X67332381Y60822858D01*
X67380000Y60965715D01*
X67427619Y61013334D01*
X67665714Y61870477D02*
X68332381Y61870477D01*
X67284762Y61632381D02*
X67999048Y61394286D01*
X67999048Y62013334D01*
X62537143Y54713334D02*
X62584762Y54665715D01*
X62632381Y54522858D01*
X62632381Y54427620D01*
X62584762Y54284762D01*
X62489524Y54189524D01*
X62394286Y54141905D01*
X62203810Y54094286D01*
X62060952Y54094286D01*
X61870476Y54141905D01*
X61775238Y54189524D01*
X61680000Y54284762D01*
X61632381Y54427620D01*
X61632381Y54522858D01*
X61680000Y54665715D01*
X61727619Y54713334D01*
X61632381Y55618096D02*
X61632381Y55141905D01*
X62108571Y55094286D01*
X62060952Y55141905D01*
X62013333Y55237143D01*
X62013333Y55475239D01*
X62060952Y55570477D01*
X62108571Y55618096D01*
X62203810Y55665715D01*
X62441905Y55665715D01*
X62537143Y55618096D01*
X62584762Y55570477D01*
X62632381Y55475239D01*
X62632381Y55237143D01*
X62584762Y55141905D01*
X62537143Y55094286D01*
X68137143Y54913334D02*
X68184762Y54865715D01*
X68232381Y54722858D01*
X68232381Y54627620D01*
X68184762Y54484762D01*
X68089524Y54389524D01*
X67994286Y54341905D01*
X67803810Y54294286D01*
X67660952Y54294286D01*
X67470476Y54341905D01*
X67375238Y54389524D01*
X67280000Y54484762D01*
X67232381Y54627620D01*
X67232381Y54722858D01*
X67280000Y54865715D01*
X67327619Y54913334D01*
X67232381Y55770477D02*
X67232381Y55580000D01*
X67280000Y55484762D01*
X67327619Y55437143D01*
X67470476Y55341905D01*
X67660952Y55294286D01*
X68041905Y55294286D01*
X68137143Y55341905D01*
X68184762Y55389524D01*
X68232381Y55484762D01*
X68232381Y55675239D01*
X68184762Y55770477D01*
X68137143Y55818096D01*
X68041905Y55865715D01*
X67803810Y55865715D01*
X67708571Y55818096D01*
X67660952Y55770477D01*
X67613333Y55675239D01*
X67613333Y55484762D01*
X67660952Y55389524D01*
X67708571Y55341905D01*
X67803810Y55294286D01*
X62337143Y48613334D02*
X62384762Y48565715D01*
X62432381Y48422858D01*
X62432381Y48327620D01*
X62384762Y48184762D01*
X62289524Y48089524D01*
X62194286Y48041905D01*
X62003810Y47994286D01*
X61860952Y47994286D01*
X61670476Y48041905D01*
X61575238Y48089524D01*
X61480000Y48184762D01*
X61432381Y48327620D01*
X61432381Y48422858D01*
X61480000Y48565715D01*
X61527619Y48613334D01*
X61432381Y48946667D02*
X61432381Y49613334D01*
X62432381Y49184762D01*
X68237143Y48713334D02*
X68284762Y48665715D01*
X68332381Y48522858D01*
X68332381Y48427620D01*
X68284762Y48284762D01*
X68189524Y48189524D01*
X68094286Y48141905D01*
X67903810Y48094286D01*
X67760952Y48094286D01*
X67570476Y48141905D01*
X67475238Y48189524D01*
X67380000Y48284762D01*
X67332381Y48427620D01*
X67332381Y48522858D01*
X67380000Y48665715D01*
X67427619Y48713334D01*
X67760952Y49284762D02*
X67713333Y49189524D01*
X67665714Y49141905D01*
X67570476Y49094286D01*
X67522857Y49094286D01*
X67427619Y49141905D01*
X67380000Y49189524D01*
X67332381Y49284762D01*
X67332381Y49475239D01*
X67380000Y49570477D01*
X67427619Y49618096D01*
X67522857Y49665715D01*
X67570476Y49665715D01*
X67665714Y49618096D01*
X67713333Y49570477D01*
X67760952Y49475239D01*
X67760952Y49284762D01*
X67808571Y49189524D01*
X67856190Y49141905D01*
X67951429Y49094286D01*
X68141905Y49094286D01*
X68237143Y49141905D01*
X68284762Y49189524D01*
X68332381Y49284762D01*
X68332381Y49475239D01*
X68284762Y49570477D01*
X68237143Y49618096D01*
X68141905Y49665715D01*
X67951429Y49665715D01*
X67856190Y49618096D01*
X67808571Y49570477D01*
X67760952Y49475239D01*
X62437143Y42113334D02*
X62484762Y42065715D01*
X62532381Y41922858D01*
X62532381Y41827620D01*
X62484762Y41684762D01*
X62389524Y41589524D01*
X62294286Y41541905D01*
X62103810Y41494286D01*
X61960952Y41494286D01*
X61770476Y41541905D01*
X61675238Y41589524D01*
X61580000Y41684762D01*
X61532381Y41827620D01*
X61532381Y41922858D01*
X61580000Y42065715D01*
X61627619Y42113334D01*
X62532381Y42589524D02*
X62532381Y42780000D01*
X62484762Y42875239D01*
X62437143Y42922858D01*
X62294286Y43018096D01*
X62103810Y43065715D01*
X61722857Y43065715D01*
X61627619Y43018096D01*
X61580000Y42970477D01*
X61532381Y42875239D01*
X61532381Y42684762D01*
X61580000Y42589524D01*
X61627619Y42541905D01*
X61722857Y42494286D01*
X61960952Y42494286D01*
X62056190Y42541905D01*
X62103810Y42589524D01*
X62151429Y42684762D01*
X62151429Y42875239D01*
X62103810Y42970477D01*
X62056190Y43018096D01*
X61960952Y43065715D01*
X68337143Y41837143D02*
X68384762Y41789524D01*
X68432381Y41646667D01*
X68432381Y41551429D01*
X68384762Y41408571D01*
X68289524Y41313333D01*
X68194286Y41265714D01*
X68003810Y41218095D01*
X67860952Y41218095D01*
X67670476Y41265714D01*
X67575238Y41313333D01*
X67480000Y41408571D01*
X67432381Y41551429D01*
X67432381Y41646667D01*
X67480000Y41789524D01*
X67527619Y41837143D01*
X68432381Y42789524D02*
X68432381Y42218095D01*
X68432381Y42503809D02*
X67432381Y42503809D01*
X67575238Y42408571D01*
X67670476Y42313333D01*
X67718095Y42218095D01*
X67432381Y43408571D02*
X67432381Y43503810D01*
X67480000Y43599048D01*
X67527619Y43646667D01*
X67622857Y43694286D01*
X67813333Y43741905D01*
X68051429Y43741905D01*
X68241905Y43694286D01*
X68337143Y43646667D01*
X68384762Y43599048D01*
X68432381Y43503810D01*
X68432381Y43408571D01*
X68384762Y43313333D01*
X68337143Y43265714D01*
X68241905Y43218095D01*
X68051429Y43170476D01*
X67813333Y43170476D01*
X67622857Y43218095D01*
X67527619Y43265714D01*
X67480000Y43313333D01*
X67432381Y43408571D01*
X62437143Y34937143D02*
X62484762Y34889524D01*
X62532381Y34746667D01*
X62532381Y34651429D01*
X62484762Y34508571D01*
X62389524Y34413333D01*
X62294286Y34365714D01*
X62103810Y34318095D01*
X61960952Y34318095D01*
X61770476Y34365714D01*
X61675238Y34413333D01*
X61580000Y34508571D01*
X61532381Y34651429D01*
X61532381Y34746667D01*
X61580000Y34889524D01*
X61627619Y34937143D01*
X62532381Y35889524D02*
X62532381Y35318095D01*
X62532381Y35603809D02*
X61532381Y35603809D01*
X61675238Y35508571D01*
X61770476Y35413333D01*
X61818095Y35318095D01*
X62532381Y36841905D02*
X62532381Y36270476D01*
X62532381Y36556190D02*
X61532381Y36556190D01*
X61675238Y36460952D01*
X61770476Y36365714D01*
X61818095Y36270476D01*
X68437143Y34737143D02*
X68484762Y34689524D01*
X68532381Y34546667D01*
X68532381Y34451429D01*
X68484762Y34308571D01*
X68389524Y34213333D01*
X68294286Y34165714D01*
X68103810Y34118095D01*
X67960952Y34118095D01*
X67770476Y34165714D01*
X67675238Y34213333D01*
X67580000Y34308571D01*
X67532381Y34451429D01*
X67532381Y34546667D01*
X67580000Y34689524D01*
X67627619Y34737143D01*
X68532381Y35689524D02*
X68532381Y35118095D01*
X68532381Y35403809D02*
X67532381Y35403809D01*
X67675238Y35308571D01*
X67770476Y35213333D01*
X67818095Y35118095D01*
X67627619Y36070476D02*
X67580000Y36118095D01*
X67532381Y36213333D01*
X67532381Y36451429D01*
X67580000Y36546667D01*
X67627619Y36594286D01*
X67722857Y36641905D01*
X67818095Y36641905D01*
X67960952Y36594286D01*
X68532381Y36022857D01*
X68532381Y36641905D01*
X62437143Y27937143D02*
X62484762Y27889524D01*
X62532381Y27746667D01*
X62532381Y27651429D01*
X62484762Y27508571D01*
X62389524Y27413333D01*
X62294286Y27365714D01*
X62103810Y27318095D01*
X61960952Y27318095D01*
X61770476Y27365714D01*
X61675238Y27413333D01*
X61580000Y27508571D01*
X61532381Y27651429D01*
X61532381Y27746667D01*
X61580000Y27889524D01*
X61627619Y27937143D01*
X62532381Y28889524D02*
X62532381Y28318095D01*
X62532381Y28603809D02*
X61532381Y28603809D01*
X61675238Y28508571D01*
X61770476Y28413333D01*
X61818095Y28318095D01*
X61532381Y29222857D02*
X61532381Y29841905D01*
X61913333Y29508571D01*
X61913333Y29651429D01*
X61960952Y29746667D01*
X62008571Y29794286D01*
X62103810Y29841905D01*
X62341905Y29841905D01*
X62437143Y29794286D01*
X62484762Y29746667D01*
X62532381Y29651429D01*
X62532381Y29365714D01*
X62484762Y29270476D01*
X62437143Y29222857D01*
X68337143Y27737143D02*
X68384762Y27689524D01*
X68432381Y27546667D01*
X68432381Y27451429D01*
X68384762Y27308571D01*
X68289524Y27213333D01*
X68194286Y27165714D01*
X68003810Y27118095D01*
X67860952Y27118095D01*
X67670476Y27165714D01*
X67575238Y27213333D01*
X67480000Y27308571D01*
X67432381Y27451429D01*
X67432381Y27546667D01*
X67480000Y27689524D01*
X67527619Y27737143D01*
X68432381Y28689524D02*
X68432381Y28118095D01*
X68432381Y28403809D02*
X67432381Y28403809D01*
X67575238Y28308571D01*
X67670476Y28213333D01*
X67718095Y28118095D01*
X67765714Y29546667D02*
X68432381Y29546667D01*
X67384762Y29308571D02*
X68099048Y29070476D01*
X68099048Y29689524D01*
X62337143Y20737143D02*
X62384762Y20689524D01*
X62432381Y20546667D01*
X62432381Y20451429D01*
X62384762Y20308571D01*
X62289524Y20213333D01*
X62194286Y20165714D01*
X62003810Y20118095D01*
X61860952Y20118095D01*
X61670476Y20165714D01*
X61575238Y20213333D01*
X61480000Y20308571D01*
X61432381Y20451429D01*
X61432381Y20546667D01*
X61480000Y20689524D01*
X61527619Y20737143D01*
X62432381Y21689524D02*
X62432381Y21118095D01*
X62432381Y21403809D02*
X61432381Y21403809D01*
X61575238Y21308571D01*
X61670476Y21213333D01*
X61718095Y21118095D01*
X61432381Y22594286D02*
X61432381Y22118095D01*
X61908571Y22070476D01*
X61860952Y22118095D01*
X61813333Y22213333D01*
X61813333Y22451429D01*
X61860952Y22546667D01*
X61908571Y22594286D01*
X62003810Y22641905D01*
X62241905Y22641905D01*
X62337143Y22594286D01*
X62384762Y22546667D01*
X62432381Y22451429D01*
X62432381Y22213333D01*
X62384762Y22118095D01*
X62337143Y22070476D01*
X68437143Y20537143D02*
X68484762Y20489524D01*
X68532381Y20346667D01*
X68532381Y20251429D01*
X68484762Y20108571D01*
X68389524Y20013333D01*
X68294286Y19965714D01*
X68103810Y19918095D01*
X67960952Y19918095D01*
X67770476Y19965714D01*
X67675238Y20013333D01*
X67580000Y20108571D01*
X67532381Y20251429D01*
X67532381Y20346667D01*
X67580000Y20489524D01*
X67627619Y20537143D01*
X68532381Y21489524D02*
X68532381Y20918095D01*
X68532381Y21203809D02*
X67532381Y21203809D01*
X67675238Y21108571D01*
X67770476Y21013333D01*
X67818095Y20918095D01*
X67532381Y22346667D02*
X67532381Y22156190D01*
X67580000Y22060952D01*
X67627619Y22013333D01*
X67770476Y21918095D01*
X67960952Y21870476D01*
X68341905Y21870476D01*
X68437143Y21918095D01*
X68484762Y21965714D01*
X68532381Y22060952D01*
X68532381Y22251429D01*
X68484762Y22346667D01*
X68437143Y22394286D01*
X68341905Y22441905D01*
X68103810Y22441905D01*
X68008571Y22394286D01*
X67960952Y22346667D01*
X67913333Y22251429D01*
X67913333Y22060952D01*
X67960952Y21965714D01*
X68008571Y21918095D01*
X68103810Y21870476D01*
X62437143Y13837143D02*
X62484762Y13789524D01*
X62532381Y13646667D01*
X62532381Y13551429D01*
X62484762Y13408571D01*
X62389524Y13313333D01*
X62294286Y13265714D01*
X62103810Y13218095D01*
X61960952Y13218095D01*
X61770476Y13265714D01*
X61675238Y13313333D01*
X61580000Y13408571D01*
X61532381Y13551429D01*
X61532381Y13646667D01*
X61580000Y13789524D01*
X61627619Y13837143D01*
X62532381Y14789524D02*
X62532381Y14218095D01*
X62532381Y14503809D02*
X61532381Y14503809D01*
X61675238Y14408571D01*
X61770476Y14313333D01*
X61818095Y14218095D01*
X61532381Y15122857D02*
X61532381Y15789524D01*
X62532381Y15360952D01*
X68337143Y13837143D02*
X68384762Y13789524D01*
X68432381Y13646667D01*
X68432381Y13551429D01*
X68384762Y13408571D01*
X68289524Y13313333D01*
X68194286Y13265714D01*
X68003810Y13218095D01*
X67860952Y13218095D01*
X67670476Y13265714D01*
X67575238Y13313333D01*
X67480000Y13408571D01*
X67432381Y13551429D01*
X67432381Y13646667D01*
X67480000Y13789524D01*
X67527619Y13837143D01*
X68432381Y14789524D02*
X68432381Y14218095D01*
X68432381Y14503809D02*
X67432381Y14503809D01*
X67575238Y14408571D01*
X67670476Y14313333D01*
X67718095Y14218095D01*
X67860952Y15360952D02*
X67813333Y15265714D01*
X67765714Y15218095D01*
X67670476Y15170476D01*
X67622857Y15170476D01*
X67527619Y15218095D01*
X67480000Y15265714D01*
X67432381Y15360952D01*
X67432381Y15551429D01*
X67480000Y15646667D01*
X67527619Y15694286D01*
X67622857Y15741905D01*
X67670476Y15741905D01*
X67765714Y15694286D01*
X67813333Y15646667D01*
X67860952Y15551429D01*
X67860952Y15360952D01*
X67908571Y15265714D01*
X67956190Y15218095D01*
X68051429Y15170476D01*
X68241905Y15170476D01*
X68337143Y15218095D01*
X68384762Y15265714D01*
X68432381Y15360952D01*
X68432381Y15551429D01*
X68384762Y15646667D01*
X68337143Y15694286D01*
X68241905Y15741905D01*
X68051429Y15741905D01*
X67956190Y15694286D01*
X67908571Y15646667D01*
X67860952Y15551429D01*
X42137143Y51702857D02*
X42089524Y51655238D01*
X41946667Y51607619D01*
X41851429Y51607619D01*
X41708571Y51655238D01*
X41613333Y51750476D01*
X41565714Y51845714D01*
X41518095Y52036190D01*
X41518095Y52179048D01*
X41565714Y52369524D01*
X41613333Y52464762D01*
X41708571Y52560000D01*
X41851429Y52607619D01*
X41946667Y52607619D01*
X42089524Y52560000D01*
X42137143Y52512381D01*
X43089524Y51607619D02*
X42518095Y51607619D01*
X42803809Y51607619D02*
X42803809Y52607619D01*
X42708571Y52464762D01*
X42613333Y52369524D01*
X42518095Y52321905D01*
X43565714Y51607619D02*
X43756190Y51607619D01*
X43851429Y51655238D01*
X43899048Y51702857D01*
X43994286Y51845714D01*
X44041905Y52036190D01*
X44041905Y52417143D01*
X43994286Y52512381D01*
X43946667Y52560000D01*
X43851429Y52607619D01*
X43660952Y52607619D01*
X43565714Y52560000D01*
X43518095Y52512381D01*
X43470476Y52417143D01*
X43470476Y52179048D01*
X43518095Y52083810D01*
X43565714Y52036190D01*
X43660952Y51988571D01*
X43851429Y51988571D01*
X43946667Y52036190D01*
X43994286Y52083810D01*
X44041905Y52179048D01*
X37937143Y47022857D02*
X37889524Y46975238D01*
X37746667Y46927619D01*
X37651429Y46927619D01*
X37508571Y46975238D01*
X37413333Y47070476D01*
X37365714Y47165714D01*
X37318095Y47356190D01*
X37318095Y47499048D01*
X37365714Y47689524D01*
X37413333Y47784762D01*
X37508571Y47880000D01*
X37651429Y47927619D01*
X37746667Y47927619D01*
X37889524Y47880000D01*
X37937143Y47832381D01*
X38318095Y47832381D02*
X38365714Y47880000D01*
X38460952Y47927619D01*
X38699048Y47927619D01*
X38794286Y47880000D01*
X38841905Y47832381D01*
X38889524Y47737143D01*
X38889524Y47641905D01*
X38841905Y47499048D01*
X38270476Y46927619D01*
X38889524Y46927619D01*
X39508571Y47927619D02*
X39603810Y47927619D01*
X39699048Y47880000D01*
X39746667Y47832381D01*
X39794286Y47737143D01*
X39841905Y47546667D01*
X39841905Y47308571D01*
X39794286Y47118095D01*
X39746667Y47022857D01*
X39699048Y46975238D01*
X39603810Y46927619D01*
X39508571Y46927619D01*
X39413333Y46975238D01*
X39365714Y47022857D01*
X39318095Y47118095D01*
X39270476Y47308571D01*
X39270476Y47546667D01*
X39318095Y47737143D01*
X39365714Y47832381D01*
X39413333Y47880000D01*
X39508571Y47927619D01*
X30137143Y51822857D02*
X30089524Y51775238D01*
X29946667Y51727619D01*
X29851429Y51727619D01*
X29708571Y51775238D01*
X29613333Y51870476D01*
X29565714Y51965714D01*
X29518095Y52156190D01*
X29518095Y52299048D01*
X29565714Y52489524D01*
X29613333Y52584762D01*
X29708571Y52680000D01*
X29851429Y52727619D01*
X29946667Y52727619D01*
X30089524Y52680000D01*
X30137143Y52632381D01*
X30518095Y52632381D02*
X30565714Y52680000D01*
X30660952Y52727619D01*
X30899048Y52727619D01*
X30994286Y52680000D01*
X31041905Y52632381D01*
X31089524Y52537143D01*
X31089524Y52441905D01*
X31041905Y52299048D01*
X30470476Y51727619D01*
X31089524Y51727619D01*
X32041905Y51727619D02*
X31470476Y51727619D01*
X31756190Y51727619D02*
X31756190Y52727619D01*
X31660952Y52584762D01*
X31565714Y52489524D01*
X31470476Y52441905D01*
X33137143Y47022857D02*
X33089524Y46975238D01*
X32946667Y46927619D01*
X32851429Y46927619D01*
X32708571Y46975238D01*
X32613333Y47070476D01*
X32565714Y47165714D01*
X32518095Y47356190D01*
X32518095Y47499048D01*
X32565714Y47689524D01*
X32613333Y47784762D01*
X32708571Y47880000D01*
X32851429Y47927619D01*
X32946667Y47927619D01*
X33089524Y47880000D01*
X33137143Y47832381D01*
X33518095Y47832381D02*
X33565714Y47880000D01*
X33660952Y47927619D01*
X33899048Y47927619D01*
X33994286Y47880000D01*
X34041905Y47832381D01*
X34089524Y47737143D01*
X34089524Y47641905D01*
X34041905Y47499048D01*
X33470476Y46927619D01*
X34089524Y46927619D01*
X34422857Y47927619D02*
X35041905Y47927619D01*
X34708571Y47546667D01*
X34851429Y47546667D01*
X34946667Y47499048D01*
X34994286Y47451429D01*
X35041905Y47356190D01*
X35041905Y47118095D01*
X34994286Y47022857D01*
X34946667Y46975238D01*
X34851429Y46927619D01*
X34565714Y46927619D01*
X34470476Y46975238D01*
X34422857Y47022857D01*
X31817143Y26037143D02*
X31864762Y25989524D01*
X31912381Y25846667D01*
X31912381Y25751429D01*
X31864762Y25608571D01*
X31769524Y25513333D01*
X31674286Y25465714D01*
X31483810Y25418095D01*
X31340952Y25418095D01*
X31150476Y25465714D01*
X31055238Y25513333D01*
X30960000Y25608571D01*
X30912381Y25751429D01*
X30912381Y25846667D01*
X30960000Y25989524D01*
X31007619Y26037143D01*
X31007619Y26418095D02*
X30960000Y26465714D01*
X30912381Y26560952D01*
X30912381Y26799048D01*
X30960000Y26894286D01*
X31007619Y26941905D01*
X31102857Y26989524D01*
X31198095Y26989524D01*
X31340952Y26941905D01*
X31912381Y26370476D01*
X31912381Y26989524D01*
X31245714Y27846667D02*
X31912381Y27846667D01*
X30864762Y27608571D02*
X31579048Y27370476D01*
X31579048Y27989524D01*
X35607143Y29012857D02*
X35559524Y28965238D01*
X35416667Y28917619D01*
X35321429Y28917619D01*
X35178571Y28965238D01*
X35083333Y29060476D01*
X35035714Y29155714D01*
X34988095Y29346190D01*
X34988095Y29489048D01*
X35035714Y29679524D01*
X35083333Y29774762D01*
X35178571Y29870000D01*
X35321429Y29917619D01*
X35416667Y29917619D01*
X35559524Y29870000D01*
X35607143Y29822381D01*
X35988095Y29822381D02*
X36035714Y29870000D01*
X36130952Y29917619D01*
X36369048Y29917619D01*
X36464286Y29870000D01*
X36511905Y29822381D01*
X36559524Y29727143D01*
X36559524Y29631905D01*
X36511905Y29489048D01*
X35940476Y28917619D01*
X36559524Y28917619D01*
X37464286Y29917619D02*
X36988095Y29917619D01*
X36940476Y29441429D01*
X36988095Y29489048D01*
X37083333Y29536667D01*
X37321429Y29536667D01*
X37416667Y29489048D01*
X37464286Y29441429D01*
X37511905Y29346190D01*
X37511905Y29108095D01*
X37464286Y29012857D01*
X37416667Y28965238D01*
X37321429Y28917619D01*
X37083333Y28917619D01*
X36988095Y28965238D01*
X36940476Y29012857D01*
X27737143Y66937143D02*
X27784762Y66889524D01*
X27832381Y66746667D01*
X27832381Y66651429D01*
X27784762Y66508571D01*
X27689524Y66413333D01*
X27594286Y66365714D01*
X27403810Y66318095D01*
X27260952Y66318095D01*
X27070476Y66365714D01*
X26975238Y66413333D01*
X26880000Y66508571D01*
X26832381Y66651429D01*
X26832381Y66746667D01*
X26880000Y66889524D01*
X26927619Y66937143D01*
X26927619Y67318095D02*
X26880000Y67365714D01*
X26832381Y67460952D01*
X26832381Y67699048D01*
X26880000Y67794286D01*
X26927619Y67841905D01*
X27022857Y67889524D01*
X27118095Y67889524D01*
X27260952Y67841905D01*
X27832381Y67270476D01*
X27832381Y67889524D01*
X26832381Y68746667D02*
X26832381Y68556190D01*
X26880000Y68460952D01*
X26927619Y68413333D01*
X27070476Y68318095D01*
X27260952Y68270476D01*
X27641905Y68270476D01*
X27737143Y68318095D01*
X27784762Y68365714D01*
X27832381Y68460952D01*
X27832381Y68651429D01*
X27784762Y68746667D01*
X27737143Y68794286D01*
X27641905Y68841905D01*
X27403810Y68841905D01*
X27308571Y68794286D01*
X27260952Y68746667D01*
X27213333Y68651429D01*
X27213333Y68460952D01*
X27260952Y68365714D01*
X27308571Y68318095D01*
X27403810Y68270476D01*
X32237143Y66937143D02*
X32284762Y66889524D01*
X32332381Y66746667D01*
X32332381Y66651429D01*
X32284762Y66508571D01*
X32189524Y66413333D01*
X32094286Y66365714D01*
X31903810Y66318095D01*
X31760952Y66318095D01*
X31570476Y66365714D01*
X31475238Y66413333D01*
X31380000Y66508571D01*
X31332381Y66651429D01*
X31332381Y66746667D01*
X31380000Y66889524D01*
X31427619Y66937143D01*
X31427619Y67318095D02*
X31380000Y67365714D01*
X31332381Y67460952D01*
X31332381Y67699048D01*
X31380000Y67794286D01*
X31427619Y67841905D01*
X31522857Y67889524D01*
X31618095Y67889524D01*
X31760952Y67841905D01*
X32332381Y67270476D01*
X32332381Y67889524D01*
X31332381Y68222857D02*
X31332381Y68889524D01*
X32332381Y68460952D01*
X43507143Y55947143D02*
X43554762Y55899524D01*
X43602381Y55756667D01*
X43602381Y55661429D01*
X43554762Y55518571D01*
X43459524Y55423333D01*
X43364286Y55375714D01*
X43173810Y55328095D01*
X43030952Y55328095D01*
X42840476Y55375714D01*
X42745238Y55423333D01*
X42650000Y55518571D01*
X42602381Y55661429D01*
X42602381Y55756667D01*
X42650000Y55899524D01*
X42697619Y55947143D01*
X42697619Y56328095D02*
X42650000Y56375714D01*
X42602381Y56470952D01*
X42602381Y56709048D01*
X42650000Y56804286D01*
X42697619Y56851905D01*
X42792857Y56899524D01*
X42888095Y56899524D01*
X43030952Y56851905D01*
X43602381Y56280476D01*
X43602381Y56899524D01*
X43030952Y57470952D02*
X42983333Y57375714D01*
X42935714Y57328095D01*
X42840476Y57280476D01*
X42792857Y57280476D01*
X42697619Y57328095D01*
X42650000Y57375714D01*
X42602381Y57470952D01*
X42602381Y57661429D01*
X42650000Y57756667D01*
X42697619Y57804286D01*
X42792857Y57851905D01*
X42840476Y57851905D01*
X42935714Y57804286D01*
X42983333Y57756667D01*
X43030952Y57661429D01*
X43030952Y57470952D01*
X43078571Y57375714D01*
X43126190Y57328095D01*
X43221429Y57280476D01*
X43411905Y57280476D01*
X43507143Y57328095D01*
X43554762Y57375714D01*
X43602381Y57470952D01*
X43602381Y57661429D01*
X43554762Y57756667D01*
X43507143Y57804286D01*
X43411905Y57851905D01*
X43221429Y57851905D01*
X43126190Y57804286D01*
X43078571Y57756667D01*
X43030952Y57661429D01*
X48007143Y56047143D02*
X48054762Y55999524D01*
X48102381Y55856667D01*
X48102381Y55761429D01*
X48054762Y55618571D01*
X47959524Y55523333D01*
X47864286Y55475714D01*
X47673810Y55428095D01*
X47530952Y55428095D01*
X47340476Y55475714D01*
X47245238Y55523333D01*
X47150000Y55618571D01*
X47102381Y55761429D01*
X47102381Y55856667D01*
X47150000Y55999524D01*
X47197619Y56047143D01*
X47197619Y56428095D02*
X47150000Y56475714D01*
X47102381Y56570952D01*
X47102381Y56809048D01*
X47150000Y56904286D01*
X47197619Y56951905D01*
X47292857Y56999524D01*
X47388095Y56999524D01*
X47530952Y56951905D01*
X48102381Y56380476D01*
X48102381Y56999524D01*
X48102381Y57475714D02*
X48102381Y57666190D01*
X48054762Y57761429D01*
X48007143Y57809048D01*
X47864286Y57904286D01*
X47673810Y57951905D01*
X47292857Y57951905D01*
X47197619Y57904286D01*
X47150000Y57856667D01*
X47102381Y57761429D01*
X47102381Y57570952D01*
X47150000Y57475714D01*
X47197619Y57428095D01*
X47292857Y57380476D01*
X47530952Y57380476D01*
X47626190Y57428095D01*
X47673810Y57475714D01*
X47721429Y57570952D01*
X47721429Y57761429D01*
X47673810Y57856667D01*
X47626190Y57904286D01*
X47530952Y57951905D01*
X30607143Y56147143D02*
X30654762Y56099524D01*
X30702381Y55956667D01*
X30702381Y55861429D01*
X30654762Y55718571D01*
X30559524Y55623333D01*
X30464286Y55575714D01*
X30273810Y55528095D01*
X30130952Y55528095D01*
X29940476Y55575714D01*
X29845238Y55623333D01*
X29750000Y55718571D01*
X29702381Y55861429D01*
X29702381Y55956667D01*
X29750000Y56099524D01*
X29797619Y56147143D01*
X29702381Y56480476D02*
X29702381Y57099524D01*
X30083333Y56766190D01*
X30083333Y56909048D01*
X30130952Y57004286D01*
X30178571Y57051905D01*
X30273810Y57099524D01*
X30511905Y57099524D01*
X30607143Y57051905D01*
X30654762Y57004286D01*
X30702381Y56909048D01*
X30702381Y56623333D01*
X30654762Y56528095D01*
X30607143Y56480476D01*
X30702381Y58051905D02*
X30702381Y57480476D01*
X30702381Y57766190D02*
X29702381Y57766190D01*
X29845238Y57670952D01*
X29940476Y57575714D01*
X29988095Y57480476D01*
X34907143Y56147143D02*
X34954762Y56099524D01*
X35002381Y55956667D01*
X35002381Y55861429D01*
X34954762Y55718571D01*
X34859524Y55623333D01*
X34764286Y55575714D01*
X34573810Y55528095D01*
X34430952Y55528095D01*
X34240476Y55575714D01*
X34145238Y55623333D01*
X34050000Y55718571D01*
X34002381Y55861429D01*
X34002381Y55956667D01*
X34050000Y56099524D01*
X34097619Y56147143D01*
X34002381Y56480476D02*
X34002381Y57099524D01*
X34383333Y56766190D01*
X34383333Y56909048D01*
X34430952Y57004286D01*
X34478571Y57051905D01*
X34573810Y57099524D01*
X34811905Y57099524D01*
X34907143Y57051905D01*
X34954762Y57004286D01*
X35002381Y56909048D01*
X35002381Y56623333D01*
X34954762Y56528095D01*
X34907143Y56480476D01*
X34097619Y57480476D02*
X34050000Y57528095D01*
X34002381Y57623333D01*
X34002381Y57861429D01*
X34050000Y57956667D01*
X34097619Y58004286D01*
X34192857Y58051905D01*
X34288095Y58051905D01*
X34430952Y58004286D01*
X35002381Y57432857D01*
X35002381Y58051905D01*
X39407143Y55947143D02*
X39454762Y55899524D01*
X39502381Y55756667D01*
X39502381Y55661429D01*
X39454762Y55518571D01*
X39359524Y55423333D01*
X39264286Y55375714D01*
X39073810Y55328095D01*
X38930952Y55328095D01*
X38740476Y55375714D01*
X38645238Y55423333D01*
X38550000Y55518571D01*
X38502381Y55661429D01*
X38502381Y55756667D01*
X38550000Y55899524D01*
X38597619Y55947143D01*
X38502381Y56280476D02*
X38502381Y56899524D01*
X38883333Y56566190D01*
X38883333Y56709048D01*
X38930952Y56804286D01*
X38978571Y56851905D01*
X39073810Y56899524D01*
X39311905Y56899524D01*
X39407143Y56851905D01*
X39454762Y56804286D01*
X39502381Y56709048D01*
X39502381Y56423333D01*
X39454762Y56328095D01*
X39407143Y56280476D01*
X38502381Y57232857D02*
X38502381Y57851905D01*
X38883333Y57518571D01*
X38883333Y57661429D01*
X38930952Y57756667D01*
X38978571Y57804286D01*
X39073810Y57851905D01*
X39311905Y57851905D01*
X39407143Y57804286D01*
X39454762Y57756667D01*
X39502381Y57661429D01*
X39502381Y57375714D01*
X39454762Y57280476D01*
X39407143Y57232857D01*
X39437143Y66137143D02*
X39484762Y66089524D01*
X39532381Y65946667D01*
X39532381Y65851429D01*
X39484762Y65708571D01*
X39389524Y65613333D01*
X39294286Y65565714D01*
X39103810Y65518095D01*
X38960952Y65518095D01*
X38770476Y65565714D01*
X38675238Y65613333D01*
X38580000Y65708571D01*
X38532381Y65851429D01*
X38532381Y65946667D01*
X38580000Y66089524D01*
X38627619Y66137143D01*
X38532381Y66470476D02*
X38532381Y67089524D01*
X38913333Y66756190D01*
X38913333Y66899048D01*
X38960952Y66994286D01*
X39008571Y67041905D01*
X39103810Y67089524D01*
X39341905Y67089524D01*
X39437143Y67041905D01*
X39484762Y66994286D01*
X39532381Y66899048D01*
X39532381Y66613333D01*
X39484762Y66518095D01*
X39437143Y66470476D01*
X38865714Y67946667D02*
X39532381Y67946667D01*
X38484762Y67708571D02*
X39199048Y67470476D01*
X39199048Y68089524D01*
X59632381Y67313334D02*
X59156190Y66980000D01*
X59632381Y66741905D02*
X58632381Y66741905D01*
X58632381Y67122858D01*
X58680000Y67218096D01*
X58727619Y67265715D01*
X58822857Y67313334D01*
X58965714Y67313334D01*
X59060952Y67265715D01*
X59108571Y67218096D01*
X59156190Y67122858D01*
X59156190Y66741905D01*
X59632381Y68265715D02*
X59632381Y67694286D01*
X59632381Y67980000D02*
X58632381Y67980000D01*
X58775238Y67884762D01*
X58870476Y67789524D01*
X58918095Y67694286D01*
X65432381Y67213334D02*
X64956190Y66880000D01*
X65432381Y66641905D02*
X64432381Y66641905D01*
X64432381Y67022858D01*
X64480000Y67118096D01*
X64527619Y67165715D01*
X64622857Y67213334D01*
X64765714Y67213334D01*
X64860952Y67165715D01*
X64908571Y67118096D01*
X64956190Y67022858D01*
X64956190Y66641905D01*
X64527619Y67594286D02*
X64480000Y67641905D01*
X64432381Y67737143D01*
X64432381Y67975239D01*
X64480000Y68070477D01*
X64527619Y68118096D01*
X64622857Y68165715D01*
X64718095Y68165715D01*
X64860952Y68118096D01*
X65432381Y67546667D01*
X65432381Y68165715D01*
X59532381Y60913334D02*
X59056190Y60580000D01*
X59532381Y60341905D02*
X58532381Y60341905D01*
X58532381Y60722858D01*
X58580000Y60818096D01*
X58627619Y60865715D01*
X58722857Y60913334D01*
X58865714Y60913334D01*
X58960952Y60865715D01*
X59008571Y60818096D01*
X59056190Y60722858D01*
X59056190Y60341905D01*
X58532381Y61246667D02*
X58532381Y61865715D01*
X58913333Y61532381D01*
X58913333Y61675239D01*
X58960952Y61770477D01*
X59008571Y61818096D01*
X59103810Y61865715D01*
X59341905Y61865715D01*
X59437143Y61818096D01*
X59484762Y61770477D01*
X59532381Y61675239D01*
X59532381Y61389524D01*
X59484762Y61294286D01*
X59437143Y61246667D01*
X65332381Y60913334D02*
X64856190Y60580000D01*
X65332381Y60341905D02*
X64332381Y60341905D01*
X64332381Y60722858D01*
X64380000Y60818096D01*
X64427619Y60865715D01*
X64522857Y60913334D01*
X64665714Y60913334D01*
X64760952Y60865715D01*
X64808571Y60818096D01*
X64856190Y60722858D01*
X64856190Y60341905D01*
X64665714Y61770477D02*
X65332381Y61770477D01*
X64284762Y61532381D02*
X64999048Y61294286D01*
X64999048Y61913334D01*
X59532381Y54713334D02*
X59056190Y54380000D01*
X59532381Y54141905D02*
X58532381Y54141905D01*
X58532381Y54522858D01*
X58580000Y54618096D01*
X58627619Y54665715D01*
X58722857Y54713334D01*
X58865714Y54713334D01*
X58960952Y54665715D01*
X59008571Y54618096D01*
X59056190Y54522858D01*
X59056190Y54141905D01*
X58532381Y55618096D02*
X58532381Y55141905D01*
X59008571Y55094286D01*
X58960952Y55141905D01*
X58913333Y55237143D01*
X58913333Y55475239D01*
X58960952Y55570477D01*
X59008571Y55618096D01*
X59103810Y55665715D01*
X59341905Y55665715D01*
X59437143Y55618096D01*
X59484762Y55570477D01*
X59532381Y55475239D01*
X59532381Y55237143D01*
X59484762Y55141905D01*
X59437143Y55094286D01*
X65332381Y54713334D02*
X64856190Y54380000D01*
X65332381Y54141905D02*
X64332381Y54141905D01*
X64332381Y54522858D01*
X64380000Y54618096D01*
X64427619Y54665715D01*
X64522857Y54713334D01*
X64665714Y54713334D01*
X64760952Y54665715D01*
X64808571Y54618096D01*
X64856190Y54522858D01*
X64856190Y54141905D01*
X64332381Y55570477D02*
X64332381Y55380000D01*
X64380000Y55284762D01*
X64427619Y55237143D01*
X64570476Y55141905D01*
X64760952Y55094286D01*
X65141905Y55094286D01*
X65237143Y55141905D01*
X65284762Y55189524D01*
X65332381Y55284762D01*
X65332381Y55475239D01*
X65284762Y55570477D01*
X65237143Y55618096D01*
X65141905Y55665715D01*
X64903810Y55665715D01*
X64808571Y55618096D01*
X64760952Y55570477D01*
X64713333Y55475239D01*
X64713333Y55284762D01*
X64760952Y55189524D01*
X64808571Y55141905D01*
X64903810Y55094286D01*
X59532381Y48513334D02*
X59056190Y48180000D01*
X59532381Y47941905D02*
X58532381Y47941905D01*
X58532381Y48322858D01*
X58580000Y48418096D01*
X58627619Y48465715D01*
X58722857Y48513334D01*
X58865714Y48513334D01*
X58960952Y48465715D01*
X59008571Y48418096D01*
X59056190Y48322858D01*
X59056190Y47941905D01*
X58532381Y48846667D02*
X58532381Y49513334D01*
X59532381Y49084762D01*
X65332381Y48613334D02*
X64856190Y48280000D01*
X65332381Y48041905D02*
X64332381Y48041905D01*
X64332381Y48422858D01*
X64380000Y48518096D01*
X64427619Y48565715D01*
X64522857Y48613334D01*
X64665714Y48613334D01*
X64760952Y48565715D01*
X64808571Y48518096D01*
X64856190Y48422858D01*
X64856190Y48041905D01*
X64760952Y49184762D02*
X64713333Y49089524D01*
X64665714Y49041905D01*
X64570476Y48994286D01*
X64522857Y48994286D01*
X64427619Y49041905D01*
X64380000Y49089524D01*
X64332381Y49184762D01*
X64332381Y49375239D01*
X64380000Y49470477D01*
X64427619Y49518096D01*
X64522857Y49565715D01*
X64570476Y49565715D01*
X64665714Y49518096D01*
X64713333Y49470477D01*
X64760952Y49375239D01*
X64760952Y49184762D01*
X64808571Y49089524D01*
X64856190Y49041905D01*
X64951429Y48994286D01*
X65141905Y48994286D01*
X65237143Y49041905D01*
X65284762Y49089524D01*
X65332381Y49184762D01*
X65332381Y49375239D01*
X65284762Y49470477D01*
X65237143Y49518096D01*
X65141905Y49565715D01*
X64951429Y49565715D01*
X64856190Y49518096D01*
X64808571Y49470477D01*
X64760952Y49375239D01*
X59532381Y42113334D02*
X59056190Y41780000D01*
X59532381Y41541905D02*
X58532381Y41541905D01*
X58532381Y41922858D01*
X58580000Y42018096D01*
X58627619Y42065715D01*
X58722857Y42113334D01*
X58865714Y42113334D01*
X58960952Y42065715D01*
X59008571Y42018096D01*
X59056190Y41922858D01*
X59056190Y41541905D01*
X59532381Y42589524D02*
X59532381Y42780000D01*
X59484762Y42875239D01*
X59437143Y42922858D01*
X59294286Y43018096D01*
X59103810Y43065715D01*
X58722857Y43065715D01*
X58627619Y43018096D01*
X58580000Y42970477D01*
X58532381Y42875239D01*
X58532381Y42684762D01*
X58580000Y42589524D01*
X58627619Y42541905D01*
X58722857Y42494286D01*
X58960952Y42494286D01*
X59056190Y42541905D01*
X59103810Y42589524D01*
X59151429Y42684762D01*
X59151429Y42875239D01*
X59103810Y42970477D01*
X59056190Y43018096D01*
X58960952Y43065715D01*
X65432381Y41737143D02*
X64956190Y41403809D01*
X65432381Y41165714D02*
X64432381Y41165714D01*
X64432381Y41546667D01*
X64480000Y41641905D01*
X64527619Y41689524D01*
X64622857Y41737143D01*
X64765714Y41737143D01*
X64860952Y41689524D01*
X64908571Y41641905D01*
X64956190Y41546667D01*
X64956190Y41165714D01*
X65432381Y42689524D02*
X65432381Y42118095D01*
X65432381Y42403809D02*
X64432381Y42403809D01*
X64575238Y42308571D01*
X64670476Y42213333D01*
X64718095Y42118095D01*
X64432381Y43308571D02*
X64432381Y43403810D01*
X64480000Y43499048D01*
X64527619Y43546667D01*
X64622857Y43594286D01*
X64813333Y43641905D01*
X65051429Y43641905D01*
X65241905Y43594286D01*
X65337143Y43546667D01*
X65384762Y43499048D01*
X65432381Y43403810D01*
X65432381Y43308571D01*
X65384762Y43213333D01*
X65337143Y43165714D01*
X65241905Y43118095D01*
X65051429Y43070476D01*
X64813333Y43070476D01*
X64622857Y43118095D01*
X64527619Y43165714D01*
X64480000Y43213333D01*
X64432381Y43308571D01*
X59532381Y35137143D02*
X59056190Y34803809D01*
X59532381Y34565714D02*
X58532381Y34565714D01*
X58532381Y34946667D01*
X58580000Y35041905D01*
X58627619Y35089524D01*
X58722857Y35137143D01*
X58865714Y35137143D01*
X58960952Y35089524D01*
X59008571Y35041905D01*
X59056190Y34946667D01*
X59056190Y34565714D01*
X59532381Y36089524D02*
X59532381Y35518095D01*
X59532381Y35803809D02*
X58532381Y35803809D01*
X58675238Y35708571D01*
X58770476Y35613333D01*
X58818095Y35518095D01*
X59532381Y37041905D02*
X59532381Y36470476D01*
X59532381Y36756190D02*
X58532381Y36756190D01*
X58675238Y36660952D01*
X58770476Y36565714D01*
X58818095Y36470476D01*
X65532381Y34637143D02*
X65056190Y34303809D01*
X65532381Y34065714D02*
X64532381Y34065714D01*
X64532381Y34446667D01*
X64580000Y34541905D01*
X64627619Y34589524D01*
X64722857Y34637143D01*
X64865714Y34637143D01*
X64960952Y34589524D01*
X65008571Y34541905D01*
X65056190Y34446667D01*
X65056190Y34065714D01*
X65532381Y35589524D02*
X65532381Y35018095D01*
X65532381Y35303809D02*
X64532381Y35303809D01*
X64675238Y35208571D01*
X64770476Y35113333D01*
X64818095Y35018095D01*
X64627619Y35970476D02*
X64580000Y36018095D01*
X64532381Y36113333D01*
X64532381Y36351429D01*
X64580000Y36446667D01*
X64627619Y36494286D01*
X64722857Y36541905D01*
X64818095Y36541905D01*
X64960952Y36494286D01*
X65532381Y35922857D01*
X65532381Y36541905D01*
X59532381Y27937143D02*
X59056190Y27603809D01*
X59532381Y27365714D02*
X58532381Y27365714D01*
X58532381Y27746667D01*
X58580000Y27841905D01*
X58627619Y27889524D01*
X58722857Y27937143D01*
X58865714Y27937143D01*
X58960952Y27889524D01*
X59008571Y27841905D01*
X59056190Y27746667D01*
X59056190Y27365714D01*
X59532381Y28889524D02*
X59532381Y28318095D01*
X59532381Y28603809D02*
X58532381Y28603809D01*
X58675238Y28508571D01*
X58770476Y28413333D01*
X58818095Y28318095D01*
X58532381Y29222857D02*
X58532381Y29841905D01*
X58913333Y29508571D01*
X58913333Y29651429D01*
X58960952Y29746667D01*
X59008571Y29794286D01*
X59103810Y29841905D01*
X59341905Y29841905D01*
X59437143Y29794286D01*
X59484762Y29746667D01*
X59532381Y29651429D01*
X59532381Y29365714D01*
X59484762Y29270476D01*
X59437143Y29222857D01*
X65532381Y27737143D02*
X65056190Y27403809D01*
X65532381Y27165714D02*
X64532381Y27165714D01*
X64532381Y27546667D01*
X64580000Y27641905D01*
X64627619Y27689524D01*
X64722857Y27737143D01*
X64865714Y27737143D01*
X64960952Y27689524D01*
X65008571Y27641905D01*
X65056190Y27546667D01*
X65056190Y27165714D01*
X65532381Y28689524D02*
X65532381Y28118095D01*
X65532381Y28403809D02*
X64532381Y28403809D01*
X64675238Y28308571D01*
X64770476Y28213333D01*
X64818095Y28118095D01*
X64865714Y29546667D02*
X65532381Y29546667D01*
X64484762Y29308571D02*
X65199048Y29070476D01*
X65199048Y29689524D01*
X59532381Y20637143D02*
X59056190Y20303809D01*
X59532381Y20065714D02*
X58532381Y20065714D01*
X58532381Y20446667D01*
X58580000Y20541905D01*
X58627619Y20589524D01*
X58722857Y20637143D01*
X58865714Y20637143D01*
X58960952Y20589524D01*
X59008571Y20541905D01*
X59056190Y20446667D01*
X59056190Y20065714D01*
X59532381Y21589524D02*
X59532381Y21018095D01*
X59532381Y21303809D02*
X58532381Y21303809D01*
X58675238Y21208571D01*
X58770476Y21113333D01*
X58818095Y21018095D01*
X58532381Y22494286D02*
X58532381Y22018095D01*
X59008571Y21970476D01*
X58960952Y22018095D01*
X58913333Y22113333D01*
X58913333Y22351429D01*
X58960952Y22446667D01*
X59008571Y22494286D01*
X59103810Y22541905D01*
X59341905Y22541905D01*
X59437143Y22494286D01*
X59484762Y22446667D01*
X59532381Y22351429D01*
X59532381Y22113333D01*
X59484762Y22018095D01*
X59437143Y21970476D01*
X65532381Y20637143D02*
X65056190Y20303809D01*
X65532381Y20065714D02*
X64532381Y20065714D01*
X64532381Y20446667D01*
X64580000Y20541905D01*
X64627619Y20589524D01*
X64722857Y20637143D01*
X64865714Y20637143D01*
X64960952Y20589524D01*
X65008571Y20541905D01*
X65056190Y20446667D01*
X65056190Y20065714D01*
X65532381Y21589524D02*
X65532381Y21018095D01*
X65532381Y21303809D02*
X64532381Y21303809D01*
X64675238Y21208571D01*
X64770476Y21113333D01*
X64818095Y21018095D01*
X64532381Y22446667D02*
X64532381Y22256190D01*
X64580000Y22160952D01*
X64627619Y22113333D01*
X64770476Y22018095D01*
X64960952Y21970476D01*
X65341905Y21970476D01*
X65437143Y22018095D01*
X65484762Y22065714D01*
X65532381Y22160952D01*
X65532381Y22351429D01*
X65484762Y22446667D01*
X65437143Y22494286D01*
X65341905Y22541905D01*
X65103810Y22541905D01*
X65008571Y22494286D01*
X64960952Y22446667D01*
X64913333Y22351429D01*
X64913333Y22160952D01*
X64960952Y22065714D01*
X65008571Y22018095D01*
X65103810Y21970476D01*
X59532381Y13837143D02*
X59056190Y13503809D01*
X59532381Y13265714D02*
X58532381Y13265714D01*
X58532381Y13646667D01*
X58580000Y13741905D01*
X58627619Y13789524D01*
X58722857Y13837143D01*
X58865714Y13837143D01*
X58960952Y13789524D01*
X59008571Y13741905D01*
X59056190Y13646667D01*
X59056190Y13265714D01*
X59532381Y14789524D02*
X59532381Y14218095D01*
X59532381Y14503809D02*
X58532381Y14503809D01*
X58675238Y14408571D01*
X58770476Y14313333D01*
X58818095Y14218095D01*
X58532381Y15122857D02*
X58532381Y15789524D01*
X59532381Y15360952D01*
X65532381Y13537143D02*
X65056190Y13203809D01*
X65532381Y12965714D02*
X64532381Y12965714D01*
X64532381Y13346667D01*
X64580000Y13441905D01*
X64627619Y13489524D01*
X64722857Y13537143D01*
X64865714Y13537143D01*
X64960952Y13489524D01*
X65008571Y13441905D01*
X65056190Y13346667D01*
X65056190Y12965714D01*
X65532381Y14489524D02*
X65532381Y13918095D01*
X65532381Y14203809D02*
X64532381Y14203809D01*
X64675238Y14108571D01*
X64770476Y14013333D01*
X64818095Y13918095D01*
X64960952Y15060952D02*
X64913333Y14965714D01*
X64865714Y14918095D01*
X64770476Y14870476D01*
X64722857Y14870476D01*
X64627619Y14918095D01*
X64580000Y14965714D01*
X64532381Y15060952D01*
X64532381Y15251429D01*
X64580000Y15346667D01*
X64627619Y15394286D01*
X64722857Y15441905D01*
X64770476Y15441905D01*
X64865714Y15394286D01*
X64913333Y15346667D01*
X64960952Y15251429D01*
X64960952Y15060952D01*
X65008571Y14965714D01*
X65056190Y14918095D01*
X65151429Y14870476D01*
X65341905Y14870476D01*
X65437143Y14918095D01*
X65484762Y14965714D01*
X65532381Y15060952D01*
X65532381Y15251429D01*
X65484762Y15346667D01*
X65437143Y15394286D01*
X65341905Y15441905D01*
X65151429Y15441905D01*
X65056190Y15394286D01*
X65008571Y15346667D01*
X64960952Y15251429D01*
X71118095Y62427619D02*
X71118095Y61618095D01*
X71165714Y61522857D01*
X71213333Y61475238D01*
X71308571Y61427619D01*
X71499048Y61427619D01*
X71594286Y61475238D01*
X71641905Y61522857D01*
X71689524Y61618095D01*
X71689524Y62427619D01*
X72689524Y61427619D02*
X72118095Y61427619D01*
X72403809Y61427619D02*
X72403809Y62427619D01*
X72308571Y62284762D01*
X72213333Y62189524D01*
X72118095Y62141905D01*
X71118095Y56227619D02*
X71118095Y55418095D01*
X71165714Y55322857D01*
X71213333Y55275238D01*
X71308571Y55227619D01*
X71499048Y55227619D01*
X71594286Y55275238D01*
X71641905Y55322857D01*
X71689524Y55418095D01*
X71689524Y56227619D01*
X72118095Y56132381D02*
X72165714Y56180000D01*
X72260952Y56227619D01*
X72499048Y56227619D01*
X72594286Y56180000D01*
X72641905Y56132381D01*
X72689524Y56037143D01*
X72689524Y55941905D01*
X72641905Y55799048D01*
X72070476Y55227619D01*
X72689524Y55227619D01*
X71118095Y50027619D02*
X71118095Y49218095D01*
X71165714Y49122857D01*
X71213333Y49075238D01*
X71308571Y49027619D01*
X71499048Y49027619D01*
X71594286Y49075238D01*
X71641905Y49122857D01*
X71689524Y49218095D01*
X71689524Y50027619D01*
X72070476Y50027619D02*
X72689524Y50027619D01*
X72356190Y49646667D01*
X72499048Y49646667D01*
X72594286Y49599048D01*
X72641905Y49551429D01*
X72689524Y49456190D01*
X72689524Y49218095D01*
X72641905Y49122857D01*
X72594286Y49075238D01*
X72499048Y49027619D01*
X72213333Y49027619D01*
X72118095Y49075238D01*
X72070476Y49122857D01*
X71118095Y43927619D02*
X71118095Y43118095D01*
X71165714Y43022857D01*
X71213333Y42975238D01*
X71308571Y42927619D01*
X71499048Y42927619D01*
X71594286Y42975238D01*
X71641905Y43022857D01*
X71689524Y43118095D01*
X71689524Y43927619D01*
X72594286Y43594286D02*
X72594286Y42927619D01*
X72356190Y43975238D02*
X72118095Y43260952D01*
X72737143Y43260952D01*
X71128095Y42137619D02*
X71128095Y41328095D01*
X71175714Y41232857D01*
X71223333Y41185238D01*
X71318571Y41137619D01*
X71509048Y41137619D01*
X71604286Y41185238D01*
X71651905Y41232857D01*
X71699524Y41328095D01*
X71699524Y42137619D01*
X72651905Y42137619D02*
X72175714Y42137619D01*
X72128095Y41661429D01*
X72175714Y41709048D01*
X72270952Y41756667D01*
X72509048Y41756667D01*
X72604286Y41709048D01*
X72651905Y41661429D01*
X72699524Y41566190D01*
X72699524Y41328095D01*
X72651905Y41232857D01*
X72604286Y41185238D01*
X72509048Y41137619D01*
X72270952Y41137619D01*
X72175714Y41185238D01*
X72128095Y41232857D01*
X71068095Y30077619D02*
X71068095Y29268095D01*
X71115714Y29172857D01*
X71163333Y29125238D01*
X71258571Y29077619D01*
X71449048Y29077619D01*
X71544286Y29125238D01*
X71591905Y29172857D01*
X71639524Y29268095D01*
X71639524Y30077619D01*
X72544286Y30077619D02*
X72353809Y30077619D01*
X72258571Y30030000D01*
X72210952Y29982381D01*
X72115714Y29839524D01*
X72068095Y29649048D01*
X72068095Y29268095D01*
X72115714Y29172857D01*
X72163333Y29125238D01*
X72258571Y29077619D01*
X72449048Y29077619D01*
X72544286Y29125238D01*
X72591905Y29172857D01*
X72639524Y29268095D01*
X72639524Y29506190D01*
X72591905Y29601429D01*
X72544286Y29649048D01*
X72449048Y29696667D01*
X72258571Y29696667D01*
X72163333Y29649048D01*
X72115714Y29601429D01*
X72068095Y29506190D01*
X71068095Y22877619D02*
X71068095Y22068095D01*
X71115714Y21972857D01*
X71163333Y21925238D01*
X71258571Y21877619D01*
X71449048Y21877619D01*
X71544286Y21925238D01*
X71591905Y21972857D01*
X71639524Y22068095D01*
X71639524Y22877619D01*
X72020476Y22877619D02*
X72687143Y22877619D01*
X72258571Y21877619D01*
X71068095Y15977619D02*
X71068095Y15168095D01*
X71115714Y15072857D01*
X71163333Y15025238D01*
X71258571Y14977619D01*
X71449048Y14977619D01*
X71544286Y15025238D01*
X71591905Y15072857D01*
X71639524Y15168095D01*
X71639524Y15977619D01*
X72258571Y15549048D02*
X72163333Y15596667D01*
X72115714Y15644286D01*
X72068095Y15739524D01*
X72068095Y15787143D01*
X72115714Y15882381D01*
X72163333Y15930000D01*
X72258571Y15977619D01*
X72449048Y15977619D01*
X72544286Y15930000D01*
X72591905Y15882381D01*
X72639524Y15787143D01*
X72639524Y15739524D01*
X72591905Y15644286D01*
X72544286Y15596667D01*
X72449048Y15549048D01*
X72258571Y15549048D01*
X72163333Y15501429D01*
X72115714Y15453810D01*
X72068095Y15358571D01*
X72068095Y15168095D01*
X72115714Y15072857D01*
X72163333Y15025238D01*
X72258571Y14977619D01*
X72449048Y14977619D01*
X72544286Y15025238D01*
X72591905Y15072857D01*
X72639524Y15168095D01*
X72639524Y15358571D01*
X72591905Y15453810D01*
X72544286Y15501429D01*
X72449048Y15549048D01*
X71068095Y9177619D02*
X71068095Y8368095D01*
X71115714Y8272857D01*
X71163333Y8225238D01*
X71258571Y8177619D01*
X71449048Y8177619D01*
X71544286Y8225238D01*
X71591905Y8272857D01*
X71639524Y8368095D01*
X71639524Y9177619D01*
X72163333Y8177619D02*
X72353809Y8177619D01*
X72449048Y8225238D01*
X72496667Y8272857D01*
X72591905Y8415714D01*
X72639524Y8606190D01*
X72639524Y8987143D01*
X72591905Y9082381D01*
X72544286Y9130000D01*
X72449048Y9177619D01*
X72258571Y9177619D01*
X72163333Y9130000D01*
X72115714Y9082381D01*
X72068095Y8987143D01*
X72068095Y8749048D01*
X72115714Y8653810D01*
X72163333Y8606190D01*
X72258571Y8558571D01*
X72449048Y8558571D01*
X72544286Y8606190D01*
X72591905Y8653810D01*
X72639524Y8749048D01*
X48431905Y69357619D02*
X48431905Y68548095D01*
X48479524Y68452857D01*
X48527143Y68405238D01*
X48622381Y68357619D01*
X48812858Y68357619D01*
X48908096Y68405238D01*
X48955715Y68452857D01*
X49003334Y68548095D01*
X49003334Y69357619D01*
X50003334Y68357619D02*
X49431905Y68357619D01*
X49717619Y68357619D02*
X49717619Y69357619D01*
X49622381Y69214762D01*
X49527143Y69119524D01*
X49431905Y69071905D01*
X50336667Y69357619D02*
X50955715Y69357619D01*
X50622381Y68976667D01*
X50765239Y68976667D01*
X50860477Y68929048D01*
X50908096Y68881429D01*
X50955715Y68786190D01*
X50955715Y68548095D01*
X50908096Y68452857D01*
X50860477Y68405238D01*
X50765239Y68357619D01*
X50479524Y68357619D01*
X50384286Y68405238D01*
X50336667Y68452857D01*
X35737143Y52022857D02*
X35689524Y51975238D01*
X35546667Y51927619D01*
X35451429Y51927619D01*
X35308571Y51975238D01*
X35213333Y52070476D01*
X35165714Y52165714D01*
X35118095Y52356190D01*
X35118095Y52499048D01*
X35165714Y52689524D01*
X35213333Y52784762D01*
X35308571Y52880000D01*
X35451429Y52927619D01*
X35546667Y52927619D01*
X35689524Y52880000D01*
X35737143Y52832381D01*
X36118095Y52832381D02*
X36165714Y52880000D01*
X36260952Y52927619D01*
X36499048Y52927619D01*
X36594286Y52880000D01*
X36641905Y52832381D01*
X36689524Y52737143D01*
X36689524Y52641905D01*
X36641905Y52499048D01*
X36070476Y51927619D01*
X36689524Y51927619D01*
X37070476Y52832381D02*
X37118095Y52880000D01*
X37213333Y52927619D01*
X37451429Y52927619D01*
X37546667Y52880000D01*
X37594286Y52832381D01*
X37641905Y52737143D01*
X37641905Y52641905D01*
X37594286Y52499048D01*
X37022857Y51927619D01*
X37641905Y51927619D01*
X36337143Y23822857D02*
X36289524Y23775238D01*
X36146667Y23727619D01*
X36051429Y23727619D01*
X35908571Y23775238D01*
X35813333Y23870476D01*
X35765714Y23965714D01*
X35718095Y24156190D01*
X35718095Y24299048D01*
X35765714Y24489524D01*
X35813333Y24584762D01*
X35908571Y24680000D01*
X36051429Y24727619D01*
X36146667Y24727619D01*
X36289524Y24680000D01*
X36337143Y24632381D01*
X36670476Y24727619D02*
X37289524Y24727619D01*
X36956190Y24346667D01*
X37099048Y24346667D01*
X37194286Y24299048D01*
X37241905Y24251429D01*
X37289524Y24156190D01*
X37289524Y23918095D01*
X37241905Y23822857D01*
X37194286Y23775238D01*
X37099048Y23727619D01*
X36813333Y23727619D01*
X36718095Y23775238D01*
X36670476Y23822857D01*
X38194286Y24727619D02*
X37718095Y24727619D01*
X37670476Y24251429D01*
X37718095Y24299048D01*
X37813333Y24346667D01*
X38051429Y24346667D01*
X38146667Y24299048D01*
X38194286Y24251429D01*
X38241905Y24156190D01*
X38241905Y23918095D01*
X38194286Y23822857D01*
X38146667Y23775238D01*
X38051429Y23727619D01*
X37813333Y23727619D01*
X37718095Y23775238D01*
X37670476Y23822857D01*
X33237143Y16937143D02*
X33284762Y16889524D01*
X33332381Y16746667D01*
X33332381Y16651429D01*
X33284762Y16508571D01*
X33189524Y16413333D01*
X33094286Y16365714D01*
X32903810Y16318095D01*
X32760952Y16318095D01*
X32570476Y16365714D01*
X32475238Y16413333D01*
X32380000Y16508571D01*
X32332381Y16651429D01*
X32332381Y16746667D01*
X32380000Y16889524D01*
X32427619Y16937143D01*
X32332381Y17270476D02*
X32332381Y17889524D01*
X32713333Y17556190D01*
X32713333Y17699048D01*
X32760952Y17794286D01*
X32808571Y17841905D01*
X32903810Y17889524D01*
X33141905Y17889524D01*
X33237143Y17841905D01*
X33284762Y17794286D01*
X33332381Y17699048D01*
X33332381Y17413333D01*
X33284762Y17318095D01*
X33237143Y17270476D01*
X32332381Y18746667D02*
X32332381Y18556190D01*
X32380000Y18460952D01*
X32427619Y18413333D01*
X32570476Y18318095D01*
X32760952Y18270476D01*
X33141905Y18270476D01*
X33237143Y18318095D01*
X33284762Y18365714D01*
X33332381Y18460952D01*
X33332381Y18651429D01*
X33284762Y18746667D01*
X33237143Y18794286D01*
X33141905Y18841905D01*
X32903810Y18841905D01*
X32808571Y18794286D01*
X32760952Y18746667D01*
X32713333Y18651429D01*
X32713333Y18460952D01*
X32760952Y18365714D01*
X32808571Y18318095D01*
X32903810Y18270476D01*
X29457143Y13257143D02*
X29504762Y13209524D01*
X29552381Y13066667D01*
X29552381Y12971429D01*
X29504762Y12828571D01*
X29409524Y12733333D01*
X29314286Y12685714D01*
X29123810Y12638095D01*
X28980952Y12638095D01*
X28790476Y12685714D01*
X28695238Y12733333D01*
X28600000Y12828571D01*
X28552381Y12971429D01*
X28552381Y13066667D01*
X28600000Y13209524D01*
X28647619Y13257143D01*
X28552381Y13590476D02*
X28552381Y14209524D01*
X28933333Y13876190D01*
X28933333Y14019048D01*
X28980952Y14114286D01*
X29028571Y14161905D01*
X29123810Y14209524D01*
X29361905Y14209524D01*
X29457143Y14161905D01*
X29504762Y14114286D01*
X29552381Y14019048D01*
X29552381Y13733333D01*
X29504762Y13638095D01*
X29457143Y13590476D01*
X28552381Y14542857D02*
X28552381Y15209524D01*
X29552381Y14780952D01*
X42237143Y47022857D02*
X42189524Y46975238D01*
X42046667Y46927619D01*
X41951429Y46927619D01*
X41808571Y46975238D01*
X41713333Y47070476D01*
X41665714Y47165714D01*
X41618095Y47356190D01*
X41618095Y47499048D01*
X41665714Y47689524D01*
X41713333Y47784762D01*
X41808571Y47880000D01*
X41951429Y47927619D01*
X42046667Y47927619D01*
X42189524Y47880000D01*
X42237143Y47832381D01*
X42570476Y47927619D02*
X43189524Y47927619D01*
X42856190Y47546667D01*
X42999048Y47546667D01*
X43094286Y47499048D01*
X43141905Y47451429D01*
X43189524Y47356190D01*
X43189524Y47118095D01*
X43141905Y47022857D01*
X43094286Y46975238D01*
X42999048Y46927619D01*
X42713333Y46927619D01*
X42618095Y46975238D01*
X42570476Y47022857D01*
X43760952Y47499048D02*
X43665714Y47546667D01*
X43618095Y47594286D01*
X43570476Y47689524D01*
X43570476Y47737143D01*
X43618095Y47832381D01*
X43665714Y47880000D01*
X43760952Y47927619D01*
X43951429Y47927619D01*
X44046667Y47880000D01*
X44094286Y47832381D01*
X44141905Y47737143D01*
X44141905Y47689524D01*
X44094286Y47594286D01*
X44046667Y47546667D01*
X43951429Y47499048D01*
X43760952Y47499048D01*
X43665714Y47451429D01*
X43618095Y47403810D01*
X43570476Y47308571D01*
X43570476Y47118095D01*
X43618095Y47022857D01*
X43665714Y46975238D01*
X43760952Y46927619D01*
X43951429Y46927619D01*
X44046667Y46975238D01*
X44094286Y47022857D01*
X44141905Y47118095D01*
X44141905Y47308571D01*
X44094286Y47403810D01*
X44046667Y47451429D01*
X43951429Y47499048D01*
X30737143Y19437143D02*
X30784762Y19389524D01*
X30832381Y19246667D01*
X30832381Y19151429D01*
X30784762Y19008571D01*
X30689524Y18913333D01*
X30594286Y18865714D01*
X30403810Y18818095D01*
X30260952Y18818095D01*
X30070476Y18865714D01*
X29975238Y18913333D01*
X29880000Y19008571D01*
X29832381Y19151429D01*
X29832381Y19246667D01*
X29880000Y19389524D01*
X29927619Y19437143D01*
X29832381Y19770476D02*
X29832381Y20389524D01*
X30213333Y20056190D01*
X30213333Y20199048D01*
X30260952Y20294286D01*
X30308571Y20341905D01*
X30403810Y20389524D01*
X30641905Y20389524D01*
X30737143Y20341905D01*
X30784762Y20294286D01*
X30832381Y20199048D01*
X30832381Y19913333D01*
X30784762Y19818095D01*
X30737143Y19770476D01*
X30832381Y20865714D02*
X30832381Y21056190D01*
X30784762Y21151429D01*
X30737143Y21199048D01*
X30594286Y21294286D01*
X30403810Y21341905D01*
X30022857Y21341905D01*
X29927619Y21294286D01*
X29880000Y21246667D01*
X29832381Y21151429D01*
X29832381Y20960952D01*
X29880000Y20865714D01*
X29927619Y20818095D01*
X30022857Y20770476D01*
X30260952Y20770476D01*
X30356190Y20818095D01*
X30403810Y20865714D01*
X30451429Y20960952D01*
X30451429Y21151429D01*
X30403810Y21246667D01*
X30356190Y21294286D01*
X30260952Y21341905D01*
X33257143Y13257143D02*
X33304762Y13209524D01*
X33352381Y13066667D01*
X33352381Y12971429D01*
X33304762Y12828571D01*
X33209524Y12733333D01*
X33114286Y12685714D01*
X32923810Y12638095D01*
X32780952Y12638095D01*
X32590476Y12685714D01*
X32495238Y12733333D01*
X32400000Y12828571D01*
X32352381Y12971429D01*
X32352381Y13066667D01*
X32400000Y13209524D01*
X32447619Y13257143D01*
X32685714Y14114286D02*
X33352381Y14114286D01*
X32304762Y13876190D02*
X33019048Y13638095D01*
X33019048Y14257143D01*
X32352381Y14828571D02*
X32352381Y14923810D01*
X32400000Y15019048D01*
X32447619Y15066667D01*
X32542857Y15114286D01*
X32733333Y15161905D01*
X32971429Y15161905D01*
X33161905Y15114286D01*
X33257143Y15066667D01*
X33304762Y15019048D01*
X33352381Y14923810D01*
X33352381Y14828571D01*
X33304762Y14733333D01*
X33257143Y14685714D01*
X33161905Y14638095D01*
X32971429Y14590476D01*
X32733333Y14590476D01*
X32542857Y14638095D01*
X32447619Y14685714D01*
X32400000Y14733333D01*
X32352381Y14828571D01*
X55256667Y1207619D02*
X55256667Y493333D01*
X55209047Y350476D01*
X55113809Y255238D01*
X54970952Y207619D01*
X54875714Y207619D01*
X55732857Y207619D02*
X55732857Y1207619D01*
X56113810Y1207619D01*
X56209048Y1160000D01*
X56256667Y1112381D01*
X56304286Y1017143D01*
X56304286Y874286D01*
X56256667Y779048D01*
X56209048Y731429D01*
X56113810Y683810D01*
X55732857Y683810D01*
X57256667Y207619D02*
X56685238Y207619D01*
X56970952Y207619D02*
X56970952Y1207619D01*
X56875714Y1064762D01*
X56780476Y969524D01*
X56685238Y921905D01*
X42466667Y1117619D02*
X42466667Y403333D01*
X42419047Y260476D01*
X42323809Y165238D01*
X42180952Y117619D01*
X42085714Y117619D01*
X42942857Y117619D02*
X42942857Y1117619D01*
X43323810Y1117619D01*
X43419048Y1070000D01*
X43466667Y1022381D01*
X43514286Y927143D01*
X43514286Y784286D01*
X43466667Y689048D01*
X43419048Y641429D01*
X43323810Y593810D01*
X42942857Y593810D01*
X43895238Y1022381D02*
X43942857Y1070000D01*
X44038095Y1117619D01*
X44276191Y1117619D01*
X44371429Y1070000D01*
X44419048Y1022381D01*
X44466667Y927143D01*
X44466667Y831905D01*
X44419048Y689048D01*
X43847619Y117619D01*
X44466667Y117619D01*
X43532381Y13246667D02*
X44246667Y13246667D01*
X44389524Y13199047D01*
X44484762Y13103809D01*
X44532381Y12960952D01*
X44532381Y12865714D01*
X44532381Y13722857D02*
X43532381Y13722857D01*
X43532381Y14103810D01*
X43580000Y14199048D01*
X43627619Y14246667D01*
X43722857Y14294286D01*
X43865714Y14294286D01*
X43960952Y14246667D01*
X44008571Y14199048D01*
X44056190Y14103810D01*
X44056190Y13722857D01*
X43532381Y14627619D02*
X43532381Y15246667D01*
X43913333Y14913333D01*
X43913333Y15056191D01*
X43960952Y15151429D01*
X44008571Y15199048D01*
X44103810Y15246667D01*
X44341905Y15246667D01*
X44437143Y15199048D01*
X44484762Y15151429D01*
X44532381Y15056191D01*
X44532381Y14770476D01*
X44484762Y14675238D01*
X44437143Y14627619D01*
X44132381Y27137143D02*
X43656190Y26803809D01*
X44132381Y26565714D02*
X43132381Y26565714D01*
X43132381Y26946667D01*
X43180000Y27041905D01*
X43227619Y27089524D01*
X43322857Y27137143D01*
X43465714Y27137143D01*
X43560952Y27089524D01*
X43608571Y27041905D01*
X43656190Y26946667D01*
X43656190Y26565714D01*
X44132381Y28089524D02*
X44132381Y27518095D01*
X44132381Y27803809D02*
X43132381Y27803809D01*
X43275238Y27708571D01*
X43370476Y27613333D01*
X43418095Y27518095D01*
X44132381Y28565714D02*
X44132381Y28756190D01*
X44084762Y28851429D01*
X44037143Y28899048D01*
X43894286Y28994286D01*
X43703810Y29041905D01*
X43322857Y29041905D01*
X43227619Y28994286D01*
X43180000Y28946667D01*
X43132381Y28851429D01*
X43132381Y28660952D01*
X43180000Y28565714D01*
X43227619Y28518095D01*
X43322857Y28470476D01*
X43560952Y28470476D01*
X43656190Y28518095D01*
X43703810Y28565714D01*
X43751429Y28660952D01*
X43751429Y28851429D01*
X43703810Y28946667D01*
X43656190Y28994286D01*
X43560952Y29041905D01*
X39737143Y18827619D02*
X39403809Y19303810D01*
X39165714Y18827619D02*
X39165714Y19827619D01*
X39546667Y19827619D01*
X39641905Y19780000D01*
X39689524Y19732381D01*
X39737143Y19637143D01*
X39737143Y19494286D01*
X39689524Y19399048D01*
X39641905Y19351429D01*
X39546667Y19303810D01*
X39165714Y19303810D01*
X40118095Y19732381D02*
X40165714Y19780000D01*
X40260952Y19827619D01*
X40499048Y19827619D01*
X40594286Y19780000D01*
X40641905Y19732381D01*
X40689524Y19637143D01*
X40689524Y19541905D01*
X40641905Y19399048D01*
X40070476Y18827619D01*
X40689524Y18827619D01*
X41308571Y19827619D02*
X41403810Y19827619D01*
X41499048Y19780000D01*
X41546667Y19732381D01*
X41594286Y19637143D01*
X41641905Y19446667D01*
X41641905Y19208571D01*
X41594286Y19018095D01*
X41546667Y18922857D01*
X41499048Y18875238D01*
X41403810Y18827619D01*
X41308571Y18827619D01*
X41213333Y18875238D01*
X41165714Y18922857D01*
X41118095Y19018095D01*
X41070476Y19208571D01*
X41070476Y19446667D01*
X41118095Y19637143D01*
X41165714Y19732381D01*
X41213333Y19780000D01*
X41308571Y19827619D01*
X37332381Y7437143D02*
X36856190Y7103809D01*
X37332381Y6865714D02*
X36332381Y6865714D01*
X36332381Y7246667D01*
X36380000Y7341905D01*
X36427619Y7389524D01*
X36522857Y7437143D01*
X36665714Y7437143D01*
X36760952Y7389524D01*
X36808571Y7341905D01*
X36856190Y7246667D01*
X36856190Y6865714D01*
X36427619Y7818095D02*
X36380000Y7865714D01*
X36332381Y7960952D01*
X36332381Y8199048D01*
X36380000Y8294286D01*
X36427619Y8341905D01*
X36522857Y8389524D01*
X36618095Y8389524D01*
X36760952Y8341905D01*
X37332381Y7770476D01*
X37332381Y8389524D01*
X37332381Y9341905D02*
X37332381Y8770476D01*
X37332381Y9056190D02*
X36332381Y9056190D01*
X36475238Y8960952D01*
X36570476Y8865714D01*
X36618095Y8770476D01*
X49832381Y27937143D02*
X49356190Y27603809D01*
X49832381Y27365714D02*
X48832381Y27365714D01*
X48832381Y27746667D01*
X48880000Y27841905D01*
X48927619Y27889524D01*
X49022857Y27937143D01*
X49165714Y27937143D01*
X49260952Y27889524D01*
X49308571Y27841905D01*
X49356190Y27746667D01*
X49356190Y27365714D01*
X48927619Y28318095D02*
X48880000Y28365714D01*
X48832381Y28460952D01*
X48832381Y28699048D01*
X48880000Y28794286D01*
X48927619Y28841905D01*
X49022857Y28889524D01*
X49118095Y28889524D01*
X49260952Y28841905D01*
X49832381Y28270476D01*
X49832381Y28889524D01*
X48927619Y29270476D02*
X48880000Y29318095D01*
X48832381Y29413333D01*
X48832381Y29651429D01*
X48880000Y29746667D01*
X48927619Y29794286D01*
X49022857Y29841905D01*
X49118095Y29841905D01*
X49260952Y29794286D01*
X49832381Y29222857D01*
X49832381Y29841905D01*
X47237143Y19627619D02*
X46903809Y20103810D01*
X46665714Y19627619D02*
X46665714Y20627619D01*
X47046667Y20627619D01*
X47141905Y20580000D01*
X47189524Y20532381D01*
X47237143Y20437143D01*
X47237143Y20294286D01*
X47189524Y20199048D01*
X47141905Y20151429D01*
X47046667Y20103810D01*
X46665714Y20103810D01*
X47618095Y20532381D02*
X47665714Y20580000D01*
X47760952Y20627619D01*
X47999048Y20627619D01*
X48094286Y20580000D01*
X48141905Y20532381D01*
X48189524Y20437143D01*
X48189524Y20341905D01*
X48141905Y20199048D01*
X47570476Y19627619D01*
X48189524Y19627619D01*
X48522857Y20627619D02*
X49141905Y20627619D01*
X48808571Y20246667D01*
X48951429Y20246667D01*
X49046667Y20199048D01*
X49094286Y20151429D01*
X49141905Y20056190D01*
X49141905Y19818095D01*
X49094286Y19722857D01*
X49046667Y19675238D01*
X48951429Y19627619D01*
X48665714Y19627619D01*
X48570476Y19675238D01*
X48522857Y19722857D01*
X54947143Y4867619D02*
X54613809Y5343810D01*
X54375714Y4867619D02*
X54375714Y5867619D01*
X54756667Y5867619D01*
X54851905Y5820000D01*
X54899524Y5772381D01*
X54947143Y5677143D01*
X54947143Y5534286D01*
X54899524Y5439048D01*
X54851905Y5391429D01*
X54756667Y5343810D01*
X54375714Y5343810D01*
X55328095Y5772381D02*
X55375714Y5820000D01*
X55470952Y5867619D01*
X55709048Y5867619D01*
X55804286Y5820000D01*
X55851905Y5772381D01*
X55899524Y5677143D01*
X55899524Y5581905D01*
X55851905Y5439048D01*
X55280476Y4867619D01*
X55899524Y4867619D01*
X56756667Y5534286D02*
X56756667Y4867619D01*
X56518571Y5915238D02*
X56280476Y5200952D01*
X56899524Y5200952D01*
X68437143Y6937143D02*
X68484762Y6889524D01*
X68532381Y6746667D01*
X68532381Y6651429D01*
X68484762Y6508571D01*
X68389524Y6413333D01*
X68294286Y6365714D01*
X68103810Y6318095D01*
X67960952Y6318095D01*
X67770476Y6365714D01*
X67675238Y6413333D01*
X67580000Y6508571D01*
X67532381Y6651429D01*
X67532381Y6746667D01*
X67580000Y6889524D01*
X67627619Y6937143D01*
X67865714Y7794286D02*
X68532381Y7794286D01*
X67484762Y7556190D02*
X68199048Y7318095D01*
X68199048Y7937143D01*
X68532381Y8841905D02*
X68532381Y8270476D01*
X68532381Y8556190D02*
X67532381Y8556190D01*
X67675238Y8460952D01*
X67770476Y8365714D01*
X67818095Y8270476D01*
X62437143Y6837143D02*
X62484762Y6789524D01*
X62532381Y6646667D01*
X62532381Y6551429D01*
X62484762Y6408571D01*
X62389524Y6313333D01*
X62294286Y6265714D01*
X62103810Y6218095D01*
X61960952Y6218095D01*
X61770476Y6265714D01*
X61675238Y6313333D01*
X61580000Y6408571D01*
X61532381Y6551429D01*
X61532381Y6646667D01*
X61580000Y6789524D01*
X61627619Y6837143D01*
X61865714Y7694286D02*
X62532381Y7694286D01*
X61484762Y7456190D02*
X62199048Y7218095D01*
X62199048Y7837143D01*
X61627619Y8170476D02*
X61580000Y8218095D01*
X61532381Y8313333D01*
X61532381Y8551429D01*
X61580000Y8646667D01*
X61627619Y8694286D01*
X61722857Y8741905D01*
X61818095Y8741905D01*
X61960952Y8694286D01*
X62532381Y8122857D01*
X62532381Y8741905D01*
X65532381Y6637143D02*
X65056190Y6303809D01*
X65532381Y6065714D02*
X64532381Y6065714D01*
X64532381Y6446667D01*
X64580000Y6541905D01*
X64627619Y6589524D01*
X64722857Y6637143D01*
X64865714Y6637143D01*
X64960952Y6589524D01*
X65008571Y6541905D01*
X65056190Y6446667D01*
X65056190Y6065714D01*
X64627619Y7018095D02*
X64580000Y7065714D01*
X64532381Y7160952D01*
X64532381Y7399048D01*
X64580000Y7494286D01*
X64627619Y7541905D01*
X64722857Y7589524D01*
X64818095Y7589524D01*
X64960952Y7541905D01*
X65532381Y6970476D01*
X65532381Y7589524D01*
X64532381Y8494286D02*
X64532381Y8018095D01*
X65008571Y7970476D01*
X64960952Y8018095D01*
X64913333Y8113333D01*
X64913333Y8351429D01*
X64960952Y8446667D01*
X65008571Y8494286D01*
X65103810Y8541905D01*
X65341905Y8541905D01*
X65437143Y8494286D01*
X65484762Y8446667D01*
X65532381Y8351429D01*
X65532381Y8113333D01*
X65484762Y8018095D01*
X65437143Y7970476D01*
X59432381Y6737143D02*
X58956190Y6403809D01*
X59432381Y6165714D02*
X58432381Y6165714D01*
X58432381Y6546667D01*
X58480000Y6641905D01*
X58527619Y6689524D01*
X58622857Y6737143D01*
X58765714Y6737143D01*
X58860952Y6689524D01*
X58908571Y6641905D01*
X58956190Y6546667D01*
X58956190Y6165714D01*
X58527619Y7118095D02*
X58480000Y7165714D01*
X58432381Y7260952D01*
X58432381Y7499048D01*
X58480000Y7594286D01*
X58527619Y7641905D01*
X58622857Y7689524D01*
X58718095Y7689524D01*
X58860952Y7641905D01*
X59432381Y7070476D01*
X59432381Y7689524D01*
X58432381Y8546667D02*
X58432381Y8356190D01*
X58480000Y8260952D01*
X58527619Y8213333D01*
X58670476Y8118095D01*
X58860952Y8070476D01*
X59241905Y8070476D01*
X59337143Y8118095D01*
X59384762Y8165714D01*
X59432381Y8260952D01*
X59432381Y8451429D01*
X59384762Y8546667D01*
X59337143Y8594286D01*
X59241905Y8641905D01*
X59003810Y8641905D01*
X58908571Y8594286D01*
X58860952Y8546667D01*
X58813333Y8451429D01*
X58813333Y8260952D01*
X58860952Y8165714D01*
X58908571Y8118095D01*
X59003810Y8070476D01*
X78666667Y63047619D02*
X78666667Y62333333D01*
X78619047Y62190476D01*
X78523809Y62095238D01*
X78380952Y62047619D01*
X78285714Y62047619D01*
X79666667Y62047619D02*
X79095238Y62047619D01*
X79380952Y62047619D02*
X79380952Y63047619D01*
X79285714Y62904762D01*
X79190476Y62809524D01*
X79095238Y62761905D01*
X70591905Y2177619D02*
X70591905Y1368095D01*
X70639524Y1272857D01*
X70687143Y1225238D01*
X70782381Y1177619D01*
X70972858Y1177619D01*
X71068096Y1225238D01*
X71115715Y1272857D01*
X71163334Y1368095D01*
X71163334Y2177619D01*
X72163334Y1177619D02*
X71591905Y1177619D01*
X71877619Y1177619D02*
X71877619Y2177619D01*
X71782381Y2034762D01*
X71687143Y1939524D01*
X71591905Y1891905D01*
X73068096Y2177619D02*
X72591905Y2177619D01*
X72544286Y1701429D01*
X72591905Y1749048D01*
X72687143Y1796667D01*
X72925239Y1796667D01*
X73020477Y1749048D01*
X73068096Y1701429D01*
X73115715Y1606190D01*
X73115715Y1368095D01*
X73068096Y1272857D01*
X73020477Y1225238D01*
X72925239Y1177619D01*
X72687143Y1177619D01*
X72591905Y1225238D01*
X72544286Y1272857D01*
X52833334Y65047619D02*
X52357143Y65047619D01*
X52357143Y66047619D01*
X53119048Y65952381D02*
X53166667Y66000000D01*
X53261905Y66047619D01*
X53500001Y66047619D01*
X53595239Y66000000D01*
X53642858Y65952381D01*
X53690477Y65857143D01*
X53690477Y65761905D01*
X53642858Y65619048D01*
X53071429Y65047619D01*
X53690477Y65047619D01*
X12457143Y58157143D02*
X12504762Y58109524D01*
X12552381Y57966667D01*
X12552381Y57871429D01*
X12504762Y57728571D01*
X12409524Y57633333D01*
X12314286Y57585714D01*
X12123810Y57538095D01*
X11980952Y57538095D01*
X11790476Y57585714D01*
X11695238Y57633333D01*
X11600000Y57728571D01*
X11552381Y57871429D01*
X11552381Y57966667D01*
X11600000Y58109524D01*
X11647619Y58157143D01*
X11885714Y59014286D02*
X12552381Y59014286D01*
X11504762Y58776190D02*
X12219048Y58538095D01*
X12219048Y59157143D01*
X11552381Y59442857D02*
X11552381Y60061905D01*
X11933333Y59728571D01*
X11933333Y59871429D01*
X11980952Y59966667D01*
X12028571Y60014286D01*
X12123810Y60061905D01*
X12361905Y60061905D01*
X12457143Y60014286D01*
X12504762Y59966667D01*
X12552381Y59871429D01*
X12552381Y59585714D01*
X12504762Y59490476D01*
X12457143Y59442857D01*
X8257143Y54657143D02*
X8304762Y54609524D01*
X8352381Y54466667D01*
X8352381Y54371429D01*
X8304762Y54228571D01*
X8209524Y54133333D01*
X8114286Y54085714D01*
X7923810Y54038095D01*
X7780952Y54038095D01*
X7590476Y54085714D01*
X7495238Y54133333D01*
X7400000Y54228571D01*
X7352381Y54371429D01*
X7352381Y54466667D01*
X7400000Y54609524D01*
X7447619Y54657143D01*
X7685714Y55514286D02*
X8352381Y55514286D01*
X7304762Y55276190D02*
X8019048Y55038095D01*
X8019048Y55657143D01*
X7685714Y56466667D02*
X8352381Y56466667D01*
X7304762Y56228571D02*
X8019048Y55990476D01*
X8019048Y56609524D01*
X12657143Y30257143D02*
X12704762Y30209524D01*
X12752381Y30066667D01*
X12752381Y29971429D01*
X12704762Y29828571D01*
X12609524Y29733333D01*
X12514286Y29685714D01*
X12323810Y29638095D01*
X12180952Y29638095D01*
X11990476Y29685714D01*
X11895238Y29733333D01*
X11800000Y29828571D01*
X11752381Y29971429D01*
X11752381Y30066667D01*
X11800000Y30209524D01*
X11847619Y30257143D01*
X12085714Y31114286D02*
X12752381Y31114286D01*
X11704762Y30876190D02*
X12419048Y30638095D01*
X12419048Y31257143D01*
X11752381Y32114286D02*
X11752381Y31638095D01*
X12228571Y31590476D01*
X12180952Y31638095D01*
X12133333Y31733333D01*
X12133333Y31971429D01*
X12180952Y32066667D01*
X12228571Y32114286D01*
X12323810Y32161905D01*
X12561905Y32161905D01*
X12657143Y32114286D01*
X12704762Y32066667D01*
X12752381Y31971429D01*
X12752381Y31733333D01*
X12704762Y31638095D01*
X12657143Y31590476D01*
X8166667Y70571429D02*
X7833333Y70571429D01*
X7833333Y70047619D02*
X7833333Y71047619D01*
X8309524Y71047619D01*
X8690476Y70047619D02*
X8690476Y71047619D01*
X8928571Y71047619D01*
X9071429Y71000000D01*
X9166667Y70904762D01*
X9214286Y70809524D01*
X9261905Y70619048D01*
X9261905Y70476190D01*
X9214286Y70285714D01*
X9166667Y70190476D01*
X9071429Y70095238D01*
X8928571Y70047619D01*
X8690476Y70047619D01*
X10214286Y70047619D02*
X9642857Y70047619D01*
X9928571Y70047619D02*
X9928571Y71047619D01*
X9833333Y70904762D01*
X9738095Y70809524D01*
X9642857Y70761905D01*
X69166667Y70071429D02*
X68833333Y70071429D01*
X68833333Y69547619D02*
X68833333Y70547619D01*
X69309524Y70547619D01*
X69690476Y69547619D02*
X69690476Y70547619D01*
X69928571Y70547619D01*
X70071429Y70500000D01*
X70166667Y70404762D01*
X70214286Y70309524D01*
X70261905Y70119048D01*
X70261905Y69976190D01*
X70214286Y69785714D01*
X70166667Y69690476D01*
X70071429Y69595238D01*
X69928571Y69547619D01*
X69690476Y69547619D01*
X70642857Y70452381D02*
X70690476Y70500000D01*
X70785714Y70547619D01*
X71023810Y70547619D01*
X71119048Y70500000D01*
X71166667Y70452381D01*
X71214286Y70357143D01*
X71214286Y70261905D01*
X71166667Y70119048D01*
X70595238Y69547619D01*
X71214286Y69547619D01*
X5166667Y71429D02*
X4833333Y71429D01*
X4833333Y-452381D02*
X4833333Y547619D01*
X5309524Y547619D01*
X5690476Y-452381D02*
X5690476Y547619D01*
X5928571Y547619D01*
X6071429Y500000D01*
X6166667Y404762D01*
X6214286Y309524D01*
X6261905Y119048D01*
X6261905Y-23810D01*
X6214286Y-214286D01*
X6166667Y-309524D01*
X6071429Y-404762D01*
X5928571Y-452381D01*
X5690476Y-452381D01*
X6595238Y547619D02*
X7214286Y547619D01*
X6880952Y166667D01*
X7023810Y166667D01*
X7119048Y119048D01*
X7166667Y71429D01*
X7214286Y-23810D01*
X7214286Y-261905D01*
X7166667Y-357143D01*
X7119048Y-404762D01*
X7023810Y-452381D01*
X6738095Y-452381D01*
X6642857Y-404762D01*
X6595238Y-357143D01*
X67166667Y-1928571D02*
X66833333Y-1928571D01*
X66833333Y-2452381D02*
X66833333Y-1452381D01*
X67309524Y-1452381D01*
X67690476Y-2452381D02*
X67690476Y-1452381D01*
X67928571Y-1452381D01*
X68071429Y-1500000D01*
X68166667Y-1595238D01*
X68214286Y-1690476D01*
X68261905Y-1880952D01*
X68261905Y-2023810D01*
X68214286Y-2214286D01*
X68166667Y-2309524D01*
X68071429Y-2404762D01*
X67928571Y-2452381D01*
X67690476Y-2452381D01*
X69119048Y-1785714D02*
X69119048Y-2452381D01*
X68880952Y-1404762D02*
X68642857Y-2119048D01*
X69261905Y-2119048D01*
X72866667Y73997619D02*
X72866667Y74997619D01*
X73200001Y74283333D01*
X73533334Y74997619D01*
X73533334Y73997619D01*
X74009524Y73997619D02*
X74009524Y74997619D01*
X74009524Y74521429D02*
X74580953Y74521429D01*
X74580953Y73997619D02*
X74580953Y74997619D01*
X75580953Y73997619D02*
X75009524Y73997619D01*
X75295238Y73997619D02*
X75295238Y74997619D01*
X75200000Y74854762D01*
X75104762Y74759524D01*
X75009524Y74711905D01*
X76666667Y2547619D02*
X76666667Y3547619D01*
X77000001Y2833333D01*
X77333334Y3547619D01*
X77333334Y2547619D01*
X77809524Y2547619D02*
X77809524Y3547619D01*
X77809524Y3071429D02*
X78380953Y3071429D01*
X78380953Y2547619D02*
X78380953Y3547619D01*
X78809524Y3452381D02*
X78857143Y3500000D01*
X78952381Y3547619D01*
X79190477Y3547619D01*
X79285715Y3500000D01*
X79333334Y3452381D01*
X79380953Y3357143D01*
X79380953Y3261905D01*
X79333334Y3119048D01*
X78761905Y2547619D01*
X79380953Y2547619D01*
X-1333333Y68797619D02*
X-1333333Y69797619D01*
X-999999Y69083333D01*
X-666666Y69797619D01*
X-666666Y68797619D01*
X-190476Y68797619D02*
X-190476Y69797619D01*
X-190476Y69321429D02*
X380953Y69321429D01*
X380953Y68797619D02*
X380953Y69797619D01*
X761905Y69797619D02*
X1380953Y69797619D01*
X1047619Y69416667D01*
X1190477Y69416667D01*
X1285715Y69369048D01*
X1333334Y69321429D01*
X1380953Y69226190D01*
X1380953Y68988095D01*
X1333334Y68892857D01*
X1285715Y68845238D01*
X1190477Y68797619D01*
X904762Y68797619D01*
X809524Y68845238D01*
X761905Y68892857D01*
X2166667Y-2452381D02*
X2166667Y-1452381D01*
X2500001Y-2166667D01*
X2833334Y-1452381D01*
X2833334Y-2452381D01*
X3309524Y-2452381D02*
X3309524Y-1452381D01*
X3309524Y-1928571D02*
X3880953Y-1928571D01*
X3880953Y-2452381D02*
X3880953Y-1452381D01*
X4785715Y-1785714D02*
X4785715Y-2452381D01*
X4547619Y-1404762D02*
X4309524Y-2119048D01*
X4928572Y-2119048D01*
X45666667Y40471429D02*
X45333333Y40471429D01*
X45333333Y39947619D02*
X45333333Y40947619D01*
X45809524Y40947619D01*
X46190476Y39947619D02*
X46190476Y40947619D01*
X46428571Y40947619D01*
X46571429Y40900000D01*
X46666667Y40804762D01*
X46714286Y40709524D01*
X46761905Y40519048D01*
X46761905Y40376190D01*
X46714286Y40185714D01*
X46666667Y40090476D01*
X46571429Y39995238D01*
X46428571Y39947619D01*
X46190476Y39947619D01*
X47238095Y39947619D02*
X47428571Y39947619D01*
X47523810Y39995238D01*
X47571429Y40042857D01*
X47666667Y40185714D01*
X47714286Y40376190D01*
X47714286Y40757143D01*
X47666667Y40852381D01*
X47619048Y40900000D01*
X47523810Y40947619D01*
X47333333Y40947619D01*
X47238095Y40900000D01*
X47190476Y40852381D01*
X47142857Y40757143D01*
X47142857Y40519048D01*
X47190476Y40423810D01*
X47238095Y40376190D01*
X47333333Y40328571D01*
X47523810Y40328571D01*
X47619048Y40376190D01*
X47666667Y40423810D01*
X47714286Y40519048D01*
X28892381Y41846667D02*
X29606667Y41846667D01*
X29749524Y41799047D01*
X29844762Y41703809D01*
X29892381Y41560952D01*
X29892381Y41465714D01*
X28987619Y42275238D02*
X28940000Y42322857D01*
X28892381Y42418095D01*
X28892381Y42656191D01*
X28940000Y42751429D01*
X28987619Y42799048D01*
X29082857Y42846667D01*
X29178095Y42846667D01*
X29320952Y42799048D01*
X29892381Y42227619D01*
X29892381Y42846667D01*
M02*
