G04 #@! TF.FileFunction,Paste,Top*
%FSLAX46Y46*%
G04 Gerber Fmt 4.6, Leading zero omitted, Abs format (unit mm)*
G04 Created by KiCad (PCBNEW 4.0.2-stable) date 30/10/2016 11:04:25*
%MOMM*%
G01*
G04 APERTURE LIST*
%ADD10C,0.100000*%
%ADD11C,0.150000*%
%ADD12R,1.143000X0.508000*%
%ADD13R,0.700000X1.300000*%
%ADD14R,1.500000X0.300000*%
%ADD15R,0.300000X1.500000*%
%ADD16R,1.250000X1.000000*%
%ADD17R,1.000000X1.250000*%
%ADD18R,1.300000X0.700000*%
%ADD19R,1.060000X0.650000*%
%ADD20R,3.657600X2.032000*%
%ADD21R,1.016000X2.032000*%
%ADD22R,1.000000X1.600000*%
G04 APERTURE END LIST*
D10*
D11*
X1666666Y0D02*
G75*
G03X1666666Y0I-1666666J0D01*
G01*
X-2500000Y0D02*
X2500000Y0D01*
X0Y2500000D02*
X0Y-2500000D01*
X-3985000Y76580000D02*
X81880000Y76580000D01*
X-3985000Y76580000D02*
X-3985000Y-3920000D01*
X81875000Y-3920000D02*
X81875000Y76580000D01*
X-3990000Y-3920000D02*
X81875000Y-3920000D01*
D12*
X41155000Y16685000D03*
X41155000Y15415000D03*
X41155000Y14145000D03*
X41155000Y12875000D03*
X34805000Y12875000D03*
X34805000Y14145000D03*
X34805000Y15415000D03*
X34805000Y16685000D03*
X14500000Y28125000D03*
X14500000Y26855000D03*
X14500000Y25585000D03*
X14500000Y24315000D03*
X14500000Y23045000D03*
X14500000Y21775000D03*
X14500000Y20505000D03*
X14500000Y19235000D03*
X24660000Y19235000D03*
X24660000Y20505000D03*
X24660000Y21775000D03*
X24660000Y23045000D03*
X24660000Y24315000D03*
X24660000Y25585000D03*
X24660000Y26855000D03*
X24660000Y28125000D03*
D13*
X36130000Y60480000D03*
X38030000Y60480000D03*
D12*
X14200000Y56425000D03*
X14200000Y55155000D03*
X14200000Y53885000D03*
X14200000Y52615000D03*
X14200000Y51345000D03*
X14200000Y50075000D03*
X14200000Y48805000D03*
X14200000Y47535000D03*
X24360000Y47535000D03*
X24360000Y48805000D03*
X24360000Y50075000D03*
X24360000Y51345000D03*
X24360000Y52615000D03*
X24360000Y53885000D03*
X24360000Y55155000D03*
X24360000Y56425000D03*
D14*
X43280000Y33230000D03*
X43280000Y33730000D03*
X43280000Y34230000D03*
X43280000Y34730000D03*
X43280000Y35230000D03*
X43280000Y35730000D03*
X43280000Y36230000D03*
X43280000Y36730000D03*
X43280000Y37230000D03*
X43280000Y37730000D03*
X43280000Y38230000D03*
X43280000Y38730000D03*
X43280000Y39230000D03*
X43280000Y39730000D03*
X43280000Y40230000D03*
X43280000Y40730000D03*
D15*
X41330000Y42680000D03*
X40830000Y42680000D03*
X40330000Y42680000D03*
X39830000Y42680000D03*
X39330000Y42680000D03*
X38830000Y42680000D03*
X38330000Y42680000D03*
X37830000Y42680000D03*
X37330000Y42680000D03*
X36830000Y42680000D03*
X36330000Y42680000D03*
X35830000Y42680000D03*
X35330000Y42680000D03*
X34830000Y42680000D03*
X34330000Y42680000D03*
X33830000Y42680000D03*
D14*
X31880000Y40730000D03*
X31880000Y40230000D03*
X31880000Y39730000D03*
X31880000Y39230000D03*
X31880000Y38730000D03*
X31880000Y38230000D03*
X31880000Y37730000D03*
X31880000Y37230000D03*
X31880000Y36730000D03*
X31880000Y36230000D03*
X31880000Y35730000D03*
X31880000Y35230000D03*
X31880000Y34730000D03*
X31880000Y34230000D03*
X31880000Y33730000D03*
X31880000Y33230000D03*
D15*
X33830000Y31280000D03*
X34330000Y31280000D03*
X34830000Y31280000D03*
X35330000Y31280000D03*
X35830000Y31280000D03*
X36330000Y31280000D03*
X36830000Y31280000D03*
X37330000Y31280000D03*
X37830000Y31280000D03*
X38330000Y31280000D03*
X38830000Y31280000D03*
X39330000Y31280000D03*
X39830000Y31280000D03*
X40330000Y31280000D03*
X40830000Y31280000D03*
X41330000Y31280000D03*
D16*
X62080000Y63680000D03*
X62080000Y65680000D03*
X67880000Y63680000D03*
X67880000Y65680000D03*
X62080000Y57380000D03*
X62080000Y59380000D03*
X67880000Y57180000D03*
X67880000Y59180000D03*
X62080000Y50980000D03*
X62080000Y52980000D03*
X67880000Y51080000D03*
X67880000Y53080000D03*
X62080000Y44780000D03*
X62080000Y46780000D03*
X67880000Y44880000D03*
X67880000Y46880000D03*
X62080000Y38280000D03*
X62080000Y40280000D03*
X67880000Y38080000D03*
X67880000Y40080000D03*
X62080000Y31280000D03*
X62080000Y33280000D03*
X67980000Y31080000D03*
X67980000Y33080000D03*
X62080000Y24280000D03*
X62080000Y26280000D03*
X67980000Y24080000D03*
X67980000Y26080000D03*
X62080000Y17080000D03*
X62080000Y19080000D03*
X67980000Y16880000D03*
X67980000Y18880000D03*
X62080000Y10180000D03*
X62080000Y12180000D03*
X67980000Y10180000D03*
X67980000Y12180000D03*
D17*
X41780000Y50380000D03*
X43780000Y50380000D03*
X37580000Y45580000D03*
X39580000Y45580000D03*
X29780000Y50380000D03*
X31780000Y50380000D03*
X34780000Y45580000D03*
X32780000Y45580000D03*
D16*
X33140000Y25680000D03*
X33140000Y27680000D03*
D17*
X37250000Y27680000D03*
X35250000Y27680000D03*
D16*
X27380000Y64880000D03*
X27380000Y62880000D03*
X31780000Y64880000D03*
X31780000Y62880000D03*
X41380000Y56780000D03*
X41380000Y54780000D03*
X45880000Y56780000D03*
X45880000Y54780000D03*
X28280000Y56780000D03*
X28280000Y54780000D03*
X32680000Y56780000D03*
X32680000Y54780000D03*
X37080000Y56780000D03*
X37080000Y54780000D03*
X36980000Y65780000D03*
X36980000Y67780000D03*
D18*
X59080000Y65630000D03*
X59080000Y63730000D03*
X64980000Y63730000D03*
X64980000Y65630000D03*
X59080000Y57430000D03*
X59080000Y59330000D03*
X64880000Y57330000D03*
X64880000Y59230000D03*
X59080000Y52930000D03*
X59080000Y51030000D03*
X64880000Y51030000D03*
X64880000Y52930000D03*
X59080000Y44930000D03*
X59080000Y46830000D03*
X64880000Y44930000D03*
X64880000Y46830000D03*
X59080000Y40330000D03*
X59080000Y38430000D03*
X64980000Y38330000D03*
X64980000Y40230000D03*
X59080000Y31530000D03*
X59080000Y33430000D03*
X65080000Y31230000D03*
X65080000Y33130000D03*
X59180000Y26230000D03*
X59180000Y24330000D03*
X65080000Y24230000D03*
X65080000Y26130000D03*
X59080000Y17230000D03*
X59080000Y19130000D03*
X65080000Y17030000D03*
X65080000Y18930000D03*
X59080000Y12230000D03*
X59080000Y10330000D03*
X65080000Y10130000D03*
X65080000Y12030000D03*
D19*
X72930000Y63480000D03*
X72930000Y64430000D03*
X72930000Y65380000D03*
X70730000Y65380000D03*
X70730000Y63480000D03*
X72930000Y57280000D03*
X72930000Y58230000D03*
X72930000Y59180000D03*
X70730000Y59180000D03*
X70730000Y57280000D03*
X72930000Y51080000D03*
X72930000Y52030000D03*
X72930000Y52980000D03*
X70730000Y52980000D03*
X70730000Y51080000D03*
X72930000Y44980000D03*
X72930000Y45930000D03*
X72930000Y46880000D03*
X70730000Y46880000D03*
X70730000Y44980000D03*
X72980000Y38330000D03*
X72980000Y39280000D03*
X72980000Y40230000D03*
X70780000Y40230000D03*
X70780000Y38330000D03*
X72880000Y31130000D03*
X72880000Y32080000D03*
X72880000Y33030000D03*
X70680000Y33030000D03*
X70680000Y31130000D03*
X72880000Y23930000D03*
X72880000Y24880000D03*
X72880000Y25830000D03*
X70680000Y25830000D03*
X70680000Y23930000D03*
X72880000Y17030000D03*
X72880000Y17980000D03*
X72880000Y18930000D03*
X70680000Y18930000D03*
X70680000Y17030000D03*
X72880000Y10230000D03*
X72880000Y11180000D03*
X72880000Y12130000D03*
X70680000Y12130000D03*
X70680000Y10230000D03*
D20*
X45280000Y68082000D03*
D21*
X45280000Y61478000D03*
X47566000Y61478000D03*
X42994000Y61478000D03*
D22*
X37880000Y50380000D03*
X34880000Y50380000D03*
D17*
X41280000Y24280000D03*
X39280000Y24280000D03*
D16*
X33080000Y21780000D03*
X33080000Y19780000D03*
X27180000Y12880000D03*
X27180000Y14880000D03*
D17*
X43880000Y45580000D03*
X41880000Y45580000D03*
D16*
X28480000Y21080000D03*
X28480000Y19080000D03*
X31000000Y12900000D03*
X31000000Y14900000D03*
D18*
X41880000Y26830000D03*
X41880000Y28730000D03*
D13*
X41330000Y21180000D03*
X39430000Y21180000D03*
D18*
X34780000Y9030000D03*
X34780000Y7130000D03*
X47480000Y27630000D03*
X47480000Y29530000D03*
D13*
X46530000Y18180000D03*
X48430000Y18180000D03*
X53470000Y5320000D03*
X51570000Y5320000D03*
D16*
X68080000Y3180000D03*
X68080000Y5180000D03*
X62080000Y3080000D03*
X62080000Y5080000D03*
D18*
X65080000Y5130000D03*
X65080000Y3230000D03*
X59080000Y5030000D03*
X59080000Y3130000D03*
D19*
X72880000Y3230000D03*
X72880000Y4180000D03*
X72880000Y5130000D03*
X70680000Y5130000D03*
X70680000Y3230000D03*
D13*
X54730000Y67380000D03*
X52830000Y67380000D03*
D16*
X12000000Y56500000D03*
X12000000Y54500000D03*
X9500000Y56500000D03*
X9500000Y54500000D03*
X12200000Y28600000D03*
X12200000Y26600000D03*
M02*
