G04 #@! TF.FileFunction,Other,User*
%FSLAX46Y46*%
G04 Gerber Fmt 4.6, Leading zero omitted, Abs format (unit mm)*
G04 Created by KiCad (PCBNEW 4.0.2-stable) date 30/10/2016 11:04:25*
%MOMM*%
G01*
G04 APERTURE LIST*
%ADD10C,0.100000*%
%ADD11C,0.150000*%
%ADD12C,0.050000*%
G04 APERTURE END LIST*
D10*
D11*
X1666666Y0D02*
G75*
G03X1666666Y0I-1666666J0D01*
G01*
X-2500000Y0D02*
X2500000Y0D01*
X0Y2500000D02*
X0Y-2500000D01*
X-3985000Y76580000D02*
X81880000Y76580000D01*
X-3985000Y76580000D02*
X-3985000Y-3920000D01*
X81875000Y-3920000D02*
X81875000Y76580000D01*
X-3990000Y-3920000D02*
X81875000Y-3920000D01*
D12*
X21130000Y23680000D02*
G75*
G03X21130000Y23680000I-1550000J0D01*
G01*
X20830000Y51980000D02*
G75*
G03X20830000Y51980000I-1550000J0D01*
G01*
X51020000Y15850000D02*
X51020000Y7250000D01*
X54520000Y15850000D02*
X54520000Y7250000D01*
X51020000Y15850000D02*
X54520000Y15850000D01*
X51020000Y7250000D02*
X54520000Y7250000D01*
X35480000Y61480000D02*
X38680000Y61480000D01*
X35480000Y59480000D02*
X38680000Y59480000D01*
X35480000Y61480000D02*
X35480000Y59480000D01*
X38680000Y61480000D02*
X38680000Y59480000D01*
X44280000Y30280000D02*
X44280000Y43680000D01*
X30880000Y30280000D02*
X30880000Y43680000D01*
X44280000Y30280000D02*
X30880000Y30280000D01*
X44280000Y43680000D02*
X30880000Y43680000D01*
X61080000Y62880000D02*
X61080000Y66480000D01*
X63080000Y62880000D02*
X63080000Y66480000D01*
X61080000Y62880000D02*
X63080000Y62880000D01*
X61080000Y66480000D02*
X63080000Y66480000D01*
X66880000Y62880000D02*
X66880000Y66480000D01*
X68880000Y62880000D02*
X68880000Y66480000D01*
X66880000Y62880000D02*
X68880000Y62880000D01*
X66880000Y66480000D02*
X68880000Y66480000D01*
X61080000Y56580000D02*
X61080000Y60180000D01*
X63080000Y56580000D02*
X63080000Y60180000D01*
X61080000Y56580000D02*
X63080000Y56580000D01*
X61080000Y60180000D02*
X63080000Y60180000D01*
X66880000Y56380000D02*
X66880000Y59980000D01*
X68880000Y56380000D02*
X68880000Y59980000D01*
X66880000Y56380000D02*
X68880000Y56380000D01*
X66880000Y59980000D02*
X68880000Y59980000D01*
X61080000Y50180000D02*
X61080000Y53780000D01*
X63080000Y50180000D02*
X63080000Y53780000D01*
X61080000Y50180000D02*
X63080000Y50180000D01*
X61080000Y53780000D02*
X63080000Y53780000D01*
X66880000Y50280000D02*
X66880000Y53880000D01*
X68880000Y50280000D02*
X68880000Y53880000D01*
X66880000Y50280000D02*
X68880000Y50280000D01*
X66880000Y53880000D02*
X68880000Y53880000D01*
X61080000Y43980000D02*
X61080000Y47580000D01*
X63080000Y43980000D02*
X63080000Y47580000D01*
X61080000Y43980000D02*
X63080000Y43980000D01*
X61080000Y47580000D02*
X63080000Y47580000D01*
X66880000Y44080000D02*
X66880000Y47680000D01*
X68880000Y44080000D02*
X68880000Y47680000D01*
X66880000Y44080000D02*
X68880000Y44080000D01*
X66880000Y47680000D02*
X68880000Y47680000D01*
X61080000Y37480000D02*
X61080000Y41080000D01*
X63080000Y37480000D02*
X63080000Y41080000D01*
X61080000Y37480000D02*
X63080000Y37480000D01*
X61080000Y41080000D02*
X63080000Y41080000D01*
X66880000Y37280000D02*
X66880000Y40880000D01*
X68880000Y37280000D02*
X68880000Y40880000D01*
X66880000Y37280000D02*
X68880000Y37280000D01*
X66880000Y40880000D02*
X68880000Y40880000D01*
X61080000Y30480000D02*
X61080000Y34080000D01*
X63080000Y30480000D02*
X63080000Y34080000D01*
X61080000Y30480000D02*
X63080000Y30480000D01*
X61080000Y34080000D02*
X63080000Y34080000D01*
X66980000Y30280000D02*
X66980000Y33880000D01*
X68980000Y30280000D02*
X68980000Y33880000D01*
X66980000Y30280000D02*
X68980000Y30280000D01*
X66980000Y33880000D02*
X68980000Y33880000D01*
X61080000Y23480000D02*
X61080000Y27080000D01*
X63080000Y23480000D02*
X63080000Y27080000D01*
X61080000Y23480000D02*
X63080000Y23480000D01*
X61080000Y27080000D02*
X63080000Y27080000D01*
X66980000Y23280000D02*
X66980000Y26880000D01*
X68980000Y23280000D02*
X68980000Y26880000D01*
X66980000Y23280000D02*
X68980000Y23280000D01*
X66980000Y26880000D02*
X68980000Y26880000D01*
X61080000Y16280000D02*
X61080000Y19880000D01*
X63080000Y16280000D02*
X63080000Y19880000D01*
X61080000Y16280000D02*
X63080000Y16280000D01*
X61080000Y19880000D02*
X63080000Y19880000D01*
X66980000Y16080000D02*
X66980000Y19680000D01*
X68980000Y16080000D02*
X68980000Y19680000D01*
X66980000Y16080000D02*
X68980000Y16080000D01*
X66980000Y19680000D02*
X68980000Y19680000D01*
X61080000Y9380000D02*
X61080000Y12980000D01*
X63080000Y9380000D02*
X63080000Y12980000D01*
X61080000Y9380000D02*
X63080000Y9380000D01*
X61080000Y12980000D02*
X63080000Y12980000D01*
X66980000Y9380000D02*
X66980000Y12980000D01*
X68980000Y9380000D02*
X68980000Y12980000D01*
X66980000Y9380000D02*
X68980000Y9380000D01*
X66980000Y12980000D02*
X68980000Y12980000D01*
X40980000Y51380000D02*
X44580000Y51380000D01*
X40980000Y49380000D02*
X44580000Y49380000D01*
X40980000Y51380000D02*
X40980000Y49380000D01*
X44580000Y51380000D02*
X44580000Y49380000D01*
X36780000Y46580000D02*
X40380000Y46580000D01*
X36780000Y44580000D02*
X40380000Y44580000D01*
X36780000Y46580000D02*
X36780000Y44580000D01*
X40380000Y46580000D02*
X40380000Y44580000D01*
X28980000Y51380000D02*
X32580000Y51380000D01*
X28980000Y49380000D02*
X32580000Y49380000D01*
X28980000Y51380000D02*
X28980000Y49380000D01*
X32580000Y51380000D02*
X32580000Y49380000D01*
X35580000Y44580000D02*
X31980000Y44580000D01*
X35580000Y46580000D02*
X31980000Y46580000D01*
X35580000Y44580000D02*
X35580000Y46580000D01*
X31980000Y44580000D02*
X31980000Y46580000D01*
X32140000Y24880000D02*
X32140000Y28480000D01*
X34140000Y24880000D02*
X34140000Y28480000D01*
X32140000Y24880000D02*
X34140000Y24880000D01*
X32140000Y28480000D02*
X34140000Y28480000D01*
X38050000Y26680000D02*
X34450000Y26680000D01*
X38050000Y28680000D02*
X34450000Y28680000D01*
X38050000Y26680000D02*
X38050000Y28680000D01*
X34450000Y26680000D02*
X34450000Y28680000D01*
X28380000Y65680000D02*
X28380000Y62080000D01*
X26380000Y65680000D02*
X26380000Y62080000D01*
X28380000Y65680000D02*
X26380000Y65680000D01*
X28380000Y62080000D02*
X26380000Y62080000D01*
X32780000Y65680000D02*
X32780000Y62080000D01*
X30780000Y65680000D02*
X30780000Y62080000D01*
X32780000Y65680000D02*
X30780000Y65680000D01*
X32780000Y62080000D02*
X30780000Y62080000D01*
X42380000Y57580000D02*
X42380000Y53980000D01*
X40380000Y57580000D02*
X40380000Y53980000D01*
X42380000Y57580000D02*
X40380000Y57580000D01*
X42380000Y53980000D02*
X40380000Y53980000D01*
X46880000Y57580000D02*
X46880000Y53980000D01*
X44880000Y57580000D02*
X44880000Y53980000D01*
X46880000Y57580000D02*
X44880000Y57580000D01*
X46880000Y53980000D02*
X44880000Y53980000D01*
X29280000Y57580000D02*
X29280000Y53980000D01*
X27280000Y57580000D02*
X27280000Y53980000D01*
X29280000Y57580000D02*
X27280000Y57580000D01*
X29280000Y53980000D02*
X27280000Y53980000D01*
X33680000Y57580000D02*
X33680000Y53980000D01*
X31680000Y57580000D02*
X31680000Y53980000D01*
X33680000Y57580000D02*
X31680000Y57580000D01*
X33680000Y53980000D02*
X31680000Y53980000D01*
X38080000Y57580000D02*
X38080000Y53980000D01*
X36080000Y57580000D02*
X36080000Y53980000D01*
X38080000Y57580000D02*
X36080000Y57580000D01*
X38080000Y53980000D02*
X36080000Y53980000D01*
X35980000Y64980000D02*
X35980000Y68580000D01*
X37980000Y64980000D02*
X37980000Y68580000D01*
X35980000Y64980000D02*
X37980000Y64980000D01*
X35980000Y68580000D02*
X37980000Y68580000D01*
X60080000Y66280000D02*
X60080000Y63080000D01*
X58080000Y66280000D02*
X58080000Y63080000D01*
X60080000Y66280000D02*
X58080000Y66280000D01*
X60080000Y63080000D02*
X58080000Y63080000D01*
X63980000Y63080000D02*
X63980000Y66280000D01*
X65980000Y63080000D02*
X65980000Y66280000D01*
X63980000Y63080000D02*
X65980000Y63080000D01*
X63980000Y66280000D02*
X65980000Y66280000D01*
X58080000Y56780000D02*
X58080000Y59980000D01*
X60080000Y56780000D02*
X60080000Y59980000D01*
X58080000Y56780000D02*
X60080000Y56780000D01*
X58080000Y59980000D02*
X60080000Y59980000D01*
X63880000Y56680000D02*
X63880000Y59880000D01*
X65880000Y56680000D02*
X65880000Y59880000D01*
X63880000Y56680000D02*
X65880000Y56680000D01*
X63880000Y59880000D02*
X65880000Y59880000D01*
X60080000Y53580000D02*
X60080000Y50380000D01*
X58080000Y53580000D02*
X58080000Y50380000D01*
X60080000Y53580000D02*
X58080000Y53580000D01*
X60080000Y50380000D02*
X58080000Y50380000D01*
X63880000Y50380000D02*
X63880000Y53580000D01*
X65880000Y50380000D02*
X65880000Y53580000D01*
X63880000Y50380000D02*
X65880000Y50380000D01*
X63880000Y53580000D02*
X65880000Y53580000D01*
X58080000Y44280000D02*
X58080000Y47480000D01*
X60080000Y44280000D02*
X60080000Y47480000D01*
X58080000Y44280000D02*
X60080000Y44280000D01*
X58080000Y47480000D02*
X60080000Y47480000D01*
X63880000Y44280000D02*
X63880000Y47480000D01*
X65880000Y44280000D02*
X65880000Y47480000D01*
X63880000Y44280000D02*
X65880000Y44280000D01*
X63880000Y47480000D02*
X65880000Y47480000D01*
X60080000Y40980000D02*
X60080000Y37780000D01*
X58080000Y40980000D02*
X58080000Y37780000D01*
X60080000Y40980000D02*
X58080000Y40980000D01*
X60080000Y37780000D02*
X58080000Y37780000D01*
X63980000Y37680000D02*
X63980000Y40880000D01*
X65980000Y37680000D02*
X65980000Y40880000D01*
X63980000Y37680000D02*
X65980000Y37680000D01*
X63980000Y40880000D02*
X65980000Y40880000D01*
X58080000Y30880000D02*
X58080000Y34080000D01*
X60080000Y30880000D02*
X60080000Y34080000D01*
X58080000Y30880000D02*
X60080000Y30880000D01*
X58080000Y34080000D02*
X60080000Y34080000D01*
X64080000Y30580000D02*
X64080000Y33780000D01*
X66080000Y30580000D02*
X66080000Y33780000D01*
X64080000Y30580000D02*
X66080000Y30580000D01*
X64080000Y33780000D02*
X66080000Y33780000D01*
X60180000Y26880000D02*
X60180000Y23680000D01*
X58180000Y26880000D02*
X58180000Y23680000D01*
X60180000Y26880000D02*
X58180000Y26880000D01*
X60180000Y23680000D02*
X58180000Y23680000D01*
X64080000Y23580000D02*
X64080000Y26780000D01*
X66080000Y23580000D02*
X66080000Y26780000D01*
X64080000Y23580000D02*
X66080000Y23580000D01*
X64080000Y26780000D02*
X66080000Y26780000D01*
X58080000Y16580000D02*
X58080000Y19780000D01*
X60080000Y16580000D02*
X60080000Y19780000D01*
X58080000Y16580000D02*
X60080000Y16580000D01*
X58080000Y19780000D02*
X60080000Y19780000D01*
X64080000Y16380000D02*
X64080000Y19580000D01*
X66080000Y16380000D02*
X66080000Y19580000D01*
X64080000Y16380000D02*
X66080000Y16380000D01*
X64080000Y19580000D02*
X66080000Y19580000D01*
X60080000Y12880000D02*
X60080000Y9680000D01*
X58080000Y12880000D02*
X58080000Y9680000D01*
X60080000Y12880000D02*
X58080000Y12880000D01*
X60080000Y9680000D02*
X58080000Y9680000D01*
X64080000Y9480000D02*
X64080000Y12680000D01*
X66080000Y9480000D02*
X66080000Y12680000D01*
X64080000Y9480000D02*
X66080000Y9480000D01*
X64080000Y12680000D02*
X66080000Y12680000D01*
X73630000Y62830000D02*
X70030000Y62830000D01*
X70030000Y62830000D02*
X70030000Y66030000D01*
X70030000Y66030000D02*
X73630000Y66030000D01*
X73630000Y66030000D02*
X73630000Y62830000D01*
X73630000Y56630000D02*
X70030000Y56630000D01*
X70030000Y56630000D02*
X70030000Y59830000D01*
X70030000Y59830000D02*
X73630000Y59830000D01*
X73630000Y59830000D02*
X73630000Y56630000D01*
X73630000Y50430000D02*
X70030000Y50430000D01*
X70030000Y50430000D02*
X70030000Y53630000D01*
X70030000Y53630000D02*
X73630000Y53630000D01*
X73630000Y53630000D02*
X73630000Y50430000D01*
X73630000Y44330000D02*
X70030000Y44330000D01*
X70030000Y44330000D02*
X70030000Y47530000D01*
X70030000Y47530000D02*
X73630000Y47530000D01*
X73630000Y47530000D02*
X73630000Y44330000D01*
X73680000Y37680000D02*
X70080000Y37680000D01*
X70080000Y37680000D02*
X70080000Y40880000D01*
X70080000Y40880000D02*
X73680000Y40880000D01*
X73680000Y40880000D02*
X73680000Y37680000D01*
X73580000Y30480000D02*
X69980000Y30480000D01*
X69980000Y30480000D02*
X69980000Y33680000D01*
X69980000Y33680000D02*
X73580000Y33680000D01*
X73580000Y33680000D02*
X73580000Y30480000D01*
X73580000Y23280000D02*
X69980000Y23280000D01*
X69980000Y23280000D02*
X69980000Y26480000D01*
X69980000Y26480000D02*
X73580000Y26480000D01*
X73580000Y26480000D02*
X73580000Y23280000D01*
X73580000Y16380000D02*
X69980000Y16380000D01*
X69980000Y16380000D02*
X69980000Y19580000D01*
X69980000Y19580000D02*
X73580000Y19580000D01*
X73580000Y19580000D02*
X73580000Y16380000D01*
X73580000Y9580000D02*
X69980000Y9580000D01*
X69980000Y9580000D02*
X69980000Y12780000D01*
X69980000Y12780000D02*
X73580000Y12780000D01*
X73580000Y12780000D02*
X73580000Y9580000D01*
X38680000Y49230000D02*
X34080000Y49230000D01*
X38680000Y51530000D02*
X34080000Y51530000D01*
X38680000Y49230000D02*
X38680000Y51530000D01*
X34080000Y49230000D02*
X34080000Y51530000D01*
X42080000Y23280000D02*
X38480000Y23280000D01*
X42080000Y25280000D02*
X38480000Y25280000D01*
X42080000Y23280000D02*
X42080000Y25280000D01*
X38480000Y23280000D02*
X38480000Y25280000D01*
X34080000Y22580000D02*
X34080000Y18980000D01*
X32080000Y22580000D02*
X32080000Y18980000D01*
X34080000Y22580000D02*
X32080000Y22580000D01*
X34080000Y18980000D02*
X32080000Y18980000D01*
X26180000Y12080000D02*
X26180000Y15680000D01*
X28180000Y12080000D02*
X28180000Y15680000D01*
X26180000Y12080000D02*
X28180000Y12080000D01*
X26180000Y15680000D02*
X28180000Y15680000D01*
X44680000Y44580000D02*
X41080000Y44580000D01*
X44680000Y46580000D02*
X41080000Y46580000D01*
X44680000Y44580000D02*
X44680000Y46580000D01*
X41080000Y44580000D02*
X41080000Y46580000D01*
X29480000Y21880000D02*
X29480000Y18280000D01*
X27480000Y21880000D02*
X27480000Y18280000D01*
X29480000Y21880000D02*
X27480000Y21880000D01*
X29480000Y18280000D02*
X27480000Y18280000D01*
X30000000Y12100000D02*
X30000000Y15700000D01*
X32000000Y12100000D02*
X32000000Y15700000D01*
X30000000Y12100000D02*
X32000000Y12100000D01*
X30000000Y15700000D02*
X32000000Y15700000D01*
X54530000Y3530000D02*
X45930000Y3530000D01*
X54530000Y30000D02*
X45930000Y30000D01*
X54530000Y3530000D02*
X54530000Y30000D01*
X45930000Y3530000D02*
X45930000Y30000D01*
X35760000Y0D02*
X41810000Y0D01*
X35760000Y3500000D02*
X41810000Y3500000D01*
X35760000Y0D02*
X35760000Y3500000D01*
X41810000Y0D02*
X41810000Y3500000D01*
X45030000Y15830000D02*
X45030000Y7230000D01*
X48530000Y15830000D02*
X48530000Y7230000D01*
X45030000Y15830000D02*
X48530000Y15830000D01*
X45030000Y7230000D02*
X48530000Y7230000D01*
X40880000Y26180000D02*
X40880000Y29380000D01*
X42880000Y26180000D02*
X42880000Y29380000D01*
X40880000Y26180000D02*
X42880000Y26180000D01*
X40880000Y29380000D02*
X42880000Y29380000D01*
X41980000Y20180000D02*
X38780000Y20180000D01*
X41980000Y22180000D02*
X38780000Y22180000D01*
X41980000Y20180000D02*
X41980000Y22180000D01*
X38780000Y20180000D02*
X38780000Y22180000D01*
X35780000Y9680000D02*
X35780000Y6480000D01*
X33780000Y9680000D02*
X33780000Y6480000D01*
X35780000Y9680000D02*
X33780000Y9680000D01*
X35780000Y6480000D02*
X33780000Y6480000D01*
X46480000Y26980000D02*
X46480000Y30180000D01*
X48480000Y26980000D02*
X48480000Y30180000D01*
X46480000Y26980000D02*
X48480000Y26980000D01*
X46480000Y30180000D02*
X48480000Y30180000D01*
X45880000Y19180000D02*
X49080000Y19180000D01*
X45880000Y17180000D02*
X49080000Y17180000D01*
X45880000Y19180000D02*
X45880000Y17180000D01*
X49080000Y19180000D02*
X49080000Y17180000D01*
X54120000Y4320000D02*
X50920000Y4320000D01*
X54120000Y6320000D02*
X50920000Y6320000D01*
X54120000Y4320000D02*
X54120000Y6320000D01*
X50920000Y4320000D02*
X50920000Y6320000D01*
X67080000Y2380000D02*
X67080000Y5980000D01*
X69080000Y2380000D02*
X69080000Y5980000D01*
X67080000Y2380000D02*
X69080000Y2380000D01*
X67080000Y5980000D02*
X69080000Y5980000D01*
X61080000Y2280000D02*
X61080000Y5880000D01*
X63080000Y2280000D02*
X63080000Y5880000D01*
X61080000Y2280000D02*
X63080000Y2280000D01*
X61080000Y5880000D02*
X63080000Y5880000D01*
X66080000Y5780000D02*
X66080000Y2580000D01*
X64080000Y5780000D02*
X64080000Y2580000D01*
X66080000Y5780000D02*
X64080000Y5780000D01*
X66080000Y2580000D02*
X64080000Y2580000D01*
X60080000Y5680000D02*
X60080000Y2480000D01*
X58080000Y5680000D02*
X58080000Y2480000D01*
X60080000Y5680000D02*
X58080000Y5680000D01*
X60080000Y2480000D02*
X58080000Y2480000D01*
X76930000Y61630000D02*
X76930000Y9830000D01*
X80430000Y61630000D02*
X80430000Y9830000D01*
X76930000Y61630000D02*
X80430000Y61630000D01*
X76930000Y9830000D02*
X80430000Y9830000D01*
X73580000Y2580000D02*
X69980000Y2580000D01*
X69980000Y2580000D02*
X69980000Y5780000D01*
X69980000Y5780000D02*
X73580000Y5780000D01*
X73580000Y5780000D02*
X73580000Y2580000D01*
X55380000Y66380000D02*
X52180000Y66380000D01*
X55380000Y68380000D02*
X52180000Y68380000D01*
X55380000Y66380000D02*
X55380000Y68380000D01*
X52180000Y66380000D02*
X52180000Y68380000D01*
X13000000Y57300000D02*
X13000000Y53700000D01*
X11000000Y57300000D02*
X11000000Y53700000D01*
X13000000Y57300000D02*
X11000000Y57300000D01*
X13000000Y53700000D02*
X11000000Y53700000D01*
X10500000Y57300000D02*
X10500000Y53700000D01*
X8500000Y57300000D02*
X8500000Y53700000D01*
X10500000Y57300000D02*
X8500000Y57300000D01*
X10500000Y53700000D02*
X8500000Y53700000D01*
X13200000Y29400000D02*
X13200000Y25800000D01*
X11200000Y29400000D02*
X11200000Y25800000D01*
X13200000Y29400000D02*
X11200000Y29400000D01*
X13200000Y25800000D02*
X11200000Y25800000D01*
X6550000Y70500000D02*
G75*
G03X6550000Y70500000I-1550000J0D01*
G01*
X68550000Y71500000D02*
G75*
G03X68550000Y71500000I-1550000J0D01*
G01*
X5550000Y1500000D02*
G75*
G03X5550000Y1500000I-1550000J0D01*
G01*
X69550000Y500000D02*
G75*
G03X69550000Y500000I-1550000J0D01*
G01*
X48050000Y43000000D02*
G75*
G03X48050000Y43000000I-1550000J0D01*
G01*
X28570000Y29480000D02*
X28570000Y43180000D01*
X25070000Y29480000D02*
X25070000Y43180000D01*
X28570000Y29480000D02*
X25070000Y29480000D01*
X28570000Y43180000D02*
X25070000Y43180000D01*
M02*
