M48
;DRILL file {KiCad 4.0.2-stable} date 30/10/2016 11:04:41
;FORMAT={-:-/ absolute / metric / decimal}
FMAT,2
METRIC,TZ
T1C0.300
T2C0.500
T3C1.016
T4C3.048
%
G90
G05
M71
T1
X7.2Y51.5
X7.3Y47.3
X7.48Y22.98
X8.38Y21.78
X8.5Y51.72
X9.61Y51.61
X9.68Y24.58
X10.88Y24.38
X26.88Y51.98
X26.88Y44.28
X27.76Y53.02
X27.77Y43.81
X28.68Y31.55
X28.68Y23.28
X32.68Y31.08
X33.34Y34.76
X34.8Y38.5
X35.32Y33.51
X37.16Y32.68
X39.05Y44.15
X40.04Y35.21
T2
X-1.Y66.5
X0.Y7.5
X0.Y3.5
X1.Y68.5
X2.Y9.5
X2.Y5.5
X3.Y74.5
X3.Y70.5
X3.Y66.5
X4.Y7.5
X4.Y3.5
X4.Y-0.5
X5.Y72.5
X5.Y68.5
X6.Y9.5
X6.Y5.5
X6.Y1.5
X7.Y74.5
X7.Y70.5
X7.Y66.5
X8.Y7.5
X8.Y3.5
X8.Y-0.5
X9.Y72.5
X9.Y68.5
X10.Y9.5
X10.Y5.5
X10.Y1.5
X10.58Y60.08
X10.58Y47.18
X11.Y74.5
X11.Y70.5
X11.Y66.5
X11.96Y17.04
X11.98Y47.53
X12.Y7.5
X12.Y3.5
X12.Y-0.5
X13.08Y20.48
X13.38Y58.88
X25.88Y48.78
X26.08Y28.08
X26.105Y20.505
X26.145Y56.425
X26.38Y60.58
X26.38Y58.58
X26.45Y19.24
X26.88Y9.08
X26.88Y5.08
X26.88Y1.08
X27.5Y71.5
X27.55Y26.86
X28.38Y60.58
X28.38Y58.58
X28.58Y46.58
X28.88Y7.08
X28.88Y3.08
X28.9Y-0.9
X29.05Y44.79
X29.48Y62.88
X29.89Y32.84
X30.3Y48.48
X30.38Y60.58
X30.38Y58.58
X30.38Y54.78
X30.39Y53.55
X30.5Y71.5
X30.5Y25.
X30.5Y23.5
X30.88Y9.08
X30.88Y5.08
X30.9Y1.1
X31.4Y18.
X31.48Y19.78
X32.Y23.5
X32.08Y43.28
X32.1Y47.21
X32.38Y60.58
X32.38Y58.58
X32.78Y29.88
X32.88Y7.08
X32.88Y3.08
X32.9Y-0.9
X33.33Y50.38
X33.5Y71.5
X33.5Y23.5
X34.08Y64.89
X34.68Y21.78
X34.95Y54.78
X34.99Y25.55
X36.Y-0.9
X36.5Y71.5
X37.88Y19.78
X38.8Y-1.5
X39.5Y71.5
X40.15Y61.49
X42.5Y71.5
X42.88Y19.58
X43.38Y24.08
X44.88Y28.1
X44.88Y25.58
X44.88Y22.58
X45.18Y30.93
X45.5Y71.5
X45.88Y47.58
X45.88Y19.58
X46.38Y24.08
X47.38Y51.08
X47.38Y49.08
X47.38Y46.08
X48.5Y71.5
X48.88Y47.58
X49.Y25.
X49.01Y58.08
X51.Y25.
X51.5Y71.5
X52.38Y58.08
X52.5Y34.
X54.Y59.5
X54.Y35.5
X54.Y32.5
X54.38Y53.58
X54.5Y71.5
X54.73Y65.61
X55.5Y61.
X55.5Y39.5
X55.5Y34.
X55.5Y28.5
X55.88Y55.08
X55.88Y52.08
X55.88Y21.58
X55.88Y20.08
X56.9Y48.3
X56.9Y46.
X56.9Y40.8
X57.Y59.5
X57.Y35.5
X57.Y32.5
X57.38Y53.58
X57.38Y21.58
X57.38Y20.08
X57.38Y18.58
X57.5Y71.5
X57.5Y28.5
X61.Y71.5
X63.Y73.5
X63.4Y-1.5
X63.68Y27.54
X65.Y71.5
X66.1Y-1.5
X66.28Y36.18
X67.Y73.5
X69.48Y67.63
X69.48Y59.18
X69.48Y54.33
X69.48Y46.88
X69.48Y41.59
X69.48Y33.08
X69.48Y27.56
X69.48Y13.84
X69.48Y6.6
X69.49Y20.79
X69.5Y71.5
X69.9Y-1.5
X70.99Y36.18
X71.25Y0.
X71.5Y73.5
X72.7Y-1.5
X73.5Y71.5
X74.25Y0.
X74.38Y63.5
X74.38Y56.68
X74.38Y51.68
X74.38Y45.38
X74.38Y31.68
X74.38Y24.48
X74.38Y17.68
X74.38Y10.88
X74.38Y3.98
X74.39Y38.33
X75.5Y69.5
X75.5Y65.5
X77.5Y67.5
X77.5Y63.5
X79.5Y69.5
X79.5Y65.5
T3
X2.68Y61.18
X2.68Y58.64
X2.68Y56.1
X2.68Y53.56
X2.68Y51.02
X2.68Y48.48
X2.68Y45.94
X2.68Y43.4
X2.68Y40.86
X2.68Y38.32
X2.68Y35.78
X2.68Y33.24
X2.68Y30.7
X2.68Y28.16
X2.68Y25.62
X2.68Y23.08
X2.68Y20.54
X2.68Y18.
X2.68Y15.46
X2.68Y12.92
X5.22Y61.18
X5.22Y58.64
X5.22Y56.1
X5.22Y53.56
X5.22Y51.02
X5.22Y48.48
X5.22Y45.94
X5.22Y43.4
X5.22Y40.86
X5.22Y38.32
X5.22Y35.78
X5.22Y33.24
X5.22Y30.7
X5.22Y28.16
X5.22Y25.62
X5.22Y23.08
X5.22Y20.54
X5.22Y18.
X5.22Y15.46
X5.22Y12.92
X26.82Y41.39
X26.82Y38.85
X26.82Y36.31
X26.82Y33.77
X26.82Y31.23
X37.51Y1.75
X40.05Y1.75
X46.78Y14.08
X46.78Y11.54
X46.78Y9.
X47.7Y1.78
X50.24Y1.78
X52.77Y14.1
X52.77Y11.56
X52.77Y9.02
X52.78Y1.78
X78.68Y59.88
X78.68Y57.34
X78.68Y54.8
X78.68Y52.26
X78.68Y49.72
X78.68Y47.18
X78.68Y44.64
X78.68Y42.1
X78.68Y39.56
X78.68Y37.02
X78.68Y34.48
X78.68Y31.94
X78.68Y29.4
X78.68Y26.86
X78.68Y24.32
X78.68Y21.78
X78.68Y19.24
X78.68Y16.7
X78.68Y14.16
X78.68Y11.62
T4
X0.Y72.5
X0.Y0.
X77.8Y72.5
X78.Y0.
T0
M30
