%FSLAX45Y45*%
G04 Gerber Fmt 4.5, Leading zero omitted, Abs format (unit mm)*
G04 Created by KiCad (PCBNEW 4.0.2-stable) date 30/10/2016 11:04:42*
%MOMM*%
G01*
G04 APERTURE LIST*
%ADD10C,0.127000*%
%ADD11C,0.150000*%
%ADD12C,0.200000*%
%ADD13C,0.300000*%
G04 APERTURE END LIST*
D10*
D11*
X-398500Y7658000D02*
X8188000Y7658000D01*
X-398500Y7658000D02*
X-398500Y-392000D01*
X8187500Y-392000D02*
X8187500Y7658000D01*
X-399000Y-392000D02*
X8187500Y-392000D01*
D12*
X1828000Y5298000D02*
X2028000Y5098000D01*
X2028000Y5298000D02*
X1828000Y5098000D01*
X1838000Y5848000D02*
X1838000Y4548000D01*
X2018000Y5848000D02*
X2018000Y4548000D01*
X1838000Y4548000D02*
G75*
G03X2018000Y4548000I90000J0D01*
G01*
X2018000Y5848000D02*
G75*
G03X1838000Y5848000I-90000J0D01*
G01*
X1858000Y2468000D02*
X2058000Y2268000D01*
X2058000Y2468000D02*
X1858000Y2268000D01*
X1868000Y3018000D02*
X1868000Y1718000D01*
X2048000Y3018000D02*
X2048000Y1718000D01*
X1868000Y1718000D02*
G75*
G03X2048000Y1718000I90000J0D01*
G01*
X2048000Y3018000D02*
G75*
G03X1868000Y3018000I-90000J0D01*
G01*
D13*
X-135072Y-865214D02*
X-135072Y-565214D01*
X-63643Y-565214D01*
X-20786Y-579500D01*
X7786Y-608072D01*
X22071Y-636643D01*
X36357Y-693786D01*
X36357Y-736643D01*
X22071Y-793786D01*
X7786Y-822357D01*
X-20786Y-850929D01*
X-63643Y-865214D01*
X-135072Y-865214D01*
X164929Y-865214D02*
X164929Y-665214D01*
X164929Y-722357D02*
X179214Y-693786D01*
X193500Y-679500D01*
X222071Y-665214D01*
X250643Y-665214D01*
X350643Y-865214D02*
X350643Y-665214D01*
X350643Y-565214D02*
X336357Y-579500D01*
X350643Y-593786D01*
X364928Y-579500D01*
X350643Y-565214D01*
X350643Y-593786D01*
X536357Y-865214D02*
X507786Y-850929D01*
X493500Y-822357D01*
X493500Y-565214D01*
X693500Y-865214D02*
X664929Y-850929D01*
X650643Y-822357D01*
X650643Y-565214D01*
X1036357Y-865214D02*
X1036357Y-565214D01*
X1136357Y-779500D01*
X1236357Y-565214D01*
X1236357Y-865214D01*
X1507786Y-865214D02*
X1507786Y-708071D01*
X1493500Y-679500D01*
X1464928Y-665214D01*
X1407786Y-665214D01*
X1379214Y-679500D01*
X1507786Y-850929D02*
X1479214Y-865214D01*
X1407786Y-865214D01*
X1379214Y-850929D01*
X1364929Y-822357D01*
X1364929Y-793786D01*
X1379214Y-765214D01*
X1407786Y-750929D01*
X1479214Y-750929D01*
X1507786Y-736643D01*
X1650643Y-665214D02*
X1650643Y-965214D01*
X1650643Y-679500D02*
X1679214Y-665214D01*
X1736357Y-665214D01*
X1764928Y-679500D01*
X1779214Y-693786D01*
X1793500Y-722357D01*
X1793500Y-808071D01*
X1779214Y-836643D01*
X1764928Y-850929D01*
X1736357Y-865214D01*
X1679214Y-865214D01*
X1650643Y-850929D01*
X1922071Y-836643D02*
X1936357Y-850929D01*
X1922071Y-865214D01*
X1907786Y-850929D01*
X1922071Y-836643D01*
X1922071Y-865214D01*
X1922071Y-679500D02*
X1936357Y-693786D01*
X1922071Y-708071D01*
X1907786Y-693786D01*
X1922071Y-679500D01*
X1922071Y-708071D01*
X-606500Y-1259500D02*
X-406500Y-1459500D01*
X-406500Y-1259500D02*
X-606500Y-1459500D01*
X-149357Y-1223786D02*
X-135072Y-1209500D01*
X-106500Y-1195214D01*
X-35072Y-1195214D01*
X-6500Y-1209500D01*
X7786Y-1223786D01*
X22071Y-1252357D01*
X22071Y-1280929D01*
X7786Y-1323786D01*
X-163643Y-1495214D01*
X22071Y-1495214D01*
X150643Y-1466643D02*
X164929Y-1480929D01*
X150643Y-1495214D01*
X136357Y-1480929D01*
X150643Y-1466643D01*
X150643Y-1495214D01*
X350643Y-1195214D02*
X379214Y-1195214D01*
X407786Y-1209500D01*
X422071Y-1223786D01*
X436357Y-1252357D01*
X450643Y-1309500D01*
X450643Y-1380929D01*
X436357Y-1438071D01*
X422071Y-1466643D01*
X407786Y-1480929D01*
X379214Y-1495214D01*
X350643Y-1495214D01*
X322071Y-1480929D01*
X307786Y-1466643D01*
X293500Y-1438071D01*
X279214Y-1380929D01*
X279214Y-1309500D01*
X293500Y-1252357D01*
X307786Y-1223786D01*
X322071Y-1209500D01*
X350643Y-1195214D01*
X636357Y-1195214D02*
X664929Y-1195214D01*
X693500Y-1209500D01*
X707786Y-1223786D01*
X722071Y-1252357D01*
X736357Y-1309500D01*
X736357Y-1380929D01*
X722071Y-1438071D01*
X707786Y-1466643D01*
X693500Y-1480929D01*
X664929Y-1495214D01*
X636357Y-1495214D01*
X607786Y-1480929D01*
X593500Y-1466643D01*
X579214Y-1438071D01*
X564929Y-1380929D01*
X564929Y-1309500D01*
X579214Y-1252357D01*
X593500Y-1223786D01*
X607786Y-1209500D01*
X636357Y-1195214D01*
X864928Y-1495214D02*
X864928Y-1295214D01*
X864928Y-1323786D02*
X879214Y-1309500D01*
X907786Y-1295214D01*
X950643Y-1295214D01*
X979214Y-1309500D01*
X993500Y-1338072D01*
X993500Y-1495214D01*
X993500Y-1338072D02*
X1007786Y-1309500D01*
X1036357Y-1295214D01*
X1079214Y-1295214D01*
X1107786Y-1309500D01*
X1122071Y-1338072D01*
X1122071Y-1495214D01*
X1264929Y-1495214D02*
X1264929Y-1295214D01*
X1264929Y-1323786D02*
X1279214Y-1309500D01*
X1307786Y-1295214D01*
X1350643Y-1295214D01*
X1379214Y-1309500D01*
X1393500Y-1338072D01*
X1393500Y-1495214D01*
X1393500Y-1338072D02*
X1407786Y-1309500D01*
X1436357Y-1295214D01*
X1479214Y-1295214D01*
X1507786Y-1309500D01*
X1522071Y-1338072D01*
X1522071Y-1495214D01*
X2107786Y-1180929D02*
X1850643Y-1566643D01*
X2493500Y-1195214D02*
X2522071Y-1195214D01*
X2550643Y-1209500D01*
X2564928Y-1223786D01*
X2579214Y-1252357D01*
X2593500Y-1309500D01*
X2593500Y-1380929D01*
X2579214Y-1438071D01*
X2564928Y-1466643D01*
X2550643Y-1480929D01*
X2522071Y-1495214D01*
X2493500Y-1495214D01*
X2464928Y-1480929D01*
X2450643Y-1466643D01*
X2436357Y-1438071D01*
X2422071Y-1380929D01*
X2422071Y-1309500D01*
X2436357Y-1252357D01*
X2450643Y-1223786D01*
X2464928Y-1209500D01*
X2493500Y-1195214D01*
X2722071Y-1466643D02*
X2736357Y-1480929D01*
X2722071Y-1495214D01*
X2707786Y-1480929D01*
X2722071Y-1466643D01*
X2722071Y-1495214D01*
X2922071Y-1195214D02*
X2950643Y-1195214D01*
X2979214Y-1209500D01*
X2993500Y-1223786D01*
X3007785Y-1252357D01*
X3022071Y-1309500D01*
X3022071Y-1380929D01*
X3007785Y-1438071D01*
X2993500Y-1466643D01*
X2979214Y-1480929D01*
X2950643Y-1495214D01*
X2922071Y-1495214D01*
X2893500Y-1480929D01*
X2879214Y-1466643D01*
X2864928Y-1438071D01*
X2850643Y-1380929D01*
X2850643Y-1309500D01*
X2864928Y-1252357D01*
X2879214Y-1223786D01*
X2893500Y-1209500D01*
X2922071Y-1195214D01*
X3122071Y-1195214D02*
X3322071Y-1195214D01*
X3193500Y-1495214D01*
X3450643Y-1495214D02*
X3507785Y-1495214D01*
X3536357Y-1480929D01*
X3550643Y-1466643D01*
X3579214Y-1423786D01*
X3593500Y-1366643D01*
X3593500Y-1252357D01*
X3579214Y-1223786D01*
X3564928Y-1209500D01*
X3536357Y-1195214D01*
X3479214Y-1195214D01*
X3450643Y-1209500D01*
X3436357Y-1223786D01*
X3422071Y-1252357D01*
X3422071Y-1323786D01*
X3436357Y-1352357D01*
X3450643Y-1366643D01*
X3479214Y-1380929D01*
X3536357Y-1380929D01*
X3564928Y-1366643D01*
X3579214Y-1352357D01*
X3593500Y-1323786D01*
X3707786Y-1195214D02*
X3707786Y-1252357D01*
X3822071Y-1195214D02*
X3822071Y-1252357D01*
X4264928Y-1609500D02*
X4250643Y-1595214D01*
X4222071Y-1552357D01*
X4207786Y-1523786D01*
X4193500Y-1480929D01*
X4179214Y-1409500D01*
X4179214Y-1352357D01*
X4193500Y-1280929D01*
X4207786Y-1238072D01*
X4222071Y-1209500D01*
X4250643Y-1166643D01*
X4264928Y-1152357D01*
X4436357Y-1195214D02*
X4464928Y-1195214D01*
X4493500Y-1209500D01*
X4507786Y-1223786D01*
X4522071Y-1252357D01*
X4536357Y-1309500D01*
X4536357Y-1380929D01*
X4522071Y-1438071D01*
X4507786Y-1466643D01*
X4493500Y-1480929D01*
X4464928Y-1495214D01*
X4436357Y-1495214D01*
X4407786Y-1480929D01*
X4393500Y-1466643D01*
X4379214Y-1438071D01*
X4364928Y-1380929D01*
X4364928Y-1309500D01*
X4379214Y-1252357D01*
X4393500Y-1223786D01*
X4407786Y-1209500D01*
X4436357Y-1195214D01*
X4893500Y-1495214D02*
X4893500Y-1195214D01*
X5022071Y-1495214D02*
X5022071Y-1338072D01*
X5007786Y-1309500D01*
X4979214Y-1295214D01*
X4936357Y-1295214D01*
X4907786Y-1309500D01*
X4893500Y-1323786D01*
X5207786Y-1495214D02*
X5179214Y-1480929D01*
X5164928Y-1466643D01*
X5150643Y-1438071D01*
X5150643Y-1352357D01*
X5164928Y-1323786D01*
X5179214Y-1309500D01*
X5207786Y-1295214D01*
X5250643Y-1295214D01*
X5279214Y-1309500D01*
X5293500Y-1323786D01*
X5307786Y-1352357D01*
X5307786Y-1438071D01*
X5293500Y-1466643D01*
X5279214Y-1480929D01*
X5250643Y-1495214D01*
X5207786Y-1495214D01*
X5479214Y-1495214D02*
X5450643Y-1480929D01*
X5436357Y-1452357D01*
X5436357Y-1195214D01*
X5707786Y-1480929D02*
X5679214Y-1495214D01*
X5622071Y-1495214D01*
X5593500Y-1480929D01*
X5579214Y-1452357D01*
X5579214Y-1338072D01*
X5593500Y-1309500D01*
X5622071Y-1295214D01*
X5679214Y-1295214D01*
X5707786Y-1309500D01*
X5722071Y-1338072D01*
X5722071Y-1366643D01*
X5579214Y-1395214D01*
X5836357Y-1480929D02*
X5864928Y-1495214D01*
X5922071Y-1495214D01*
X5950643Y-1480929D01*
X5964928Y-1452357D01*
X5964928Y-1438071D01*
X5950643Y-1409500D01*
X5922071Y-1395214D01*
X5879214Y-1395214D01*
X5850643Y-1380929D01*
X5836357Y-1352357D01*
X5836357Y-1338072D01*
X5850643Y-1309500D01*
X5879214Y-1295214D01*
X5922071Y-1295214D01*
X5950643Y-1309500D01*
X6322071Y-1380929D02*
X6550643Y-1380929D01*
X6436357Y-1495214D02*
X6436357Y-1266643D01*
X6907786Y-1223786D02*
X6922071Y-1209500D01*
X6950643Y-1195214D01*
X7022071Y-1195214D01*
X7050643Y-1209500D01*
X7064928Y-1223786D01*
X7079214Y-1252357D01*
X7079214Y-1280929D01*
X7064928Y-1323786D01*
X6893500Y-1495214D01*
X7079214Y-1495214D01*
X7422071Y-1480929D02*
X7450643Y-1495214D01*
X7507785Y-1495214D01*
X7536357Y-1480929D01*
X7550643Y-1452357D01*
X7550643Y-1438071D01*
X7536357Y-1409500D01*
X7507785Y-1395214D01*
X7464928Y-1395214D01*
X7436357Y-1380929D01*
X7422071Y-1352357D01*
X7422071Y-1338072D01*
X7436357Y-1309500D01*
X7464928Y-1295214D01*
X7507785Y-1295214D01*
X7536357Y-1309500D01*
X7722071Y-1495214D02*
X7693500Y-1480929D01*
X7679214Y-1452357D01*
X7679214Y-1195214D01*
X7879214Y-1495214D02*
X7850643Y-1480929D01*
X7836357Y-1466643D01*
X7822071Y-1438071D01*
X7822071Y-1352357D01*
X7836357Y-1323786D01*
X7850643Y-1309500D01*
X7879214Y-1295214D01*
X7922071Y-1295214D01*
X7950643Y-1309500D01*
X7964928Y-1323786D01*
X7979214Y-1352357D01*
X7979214Y-1438071D01*
X7964928Y-1466643D01*
X7950643Y-1480929D01*
X7922071Y-1495214D01*
X7879214Y-1495214D01*
X8064928Y-1295214D02*
X8179214Y-1295214D01*
X8107786Y-1195214D02*
X8107786Y-1452357D01*
X8122071Y-1480929D01*
X8150643Y-1495214D01*
X8179214Y-1495214D01*
X8264928Y-1480929D02*
X8293500Y-1495214D01*
X8350643Y-1495214D01*
X8379214Y-1480929D01*
X8393500Y-1452357D01*
X8393500Y-1438071D01*
X8379214Y-1409500D01*
X8350643Y-1395214D01*
X8307786Y-1395214D01*
X8279214Y-1380929D01*
X8264928Y-1352357D01*
X8264928Y-1338072D01*
X8279214Y-1309500D01*
X8307786Y-1295214D01*
X8350643Y-1295214D01*
X8379214Y-1309500D01*
X8493500Y-1609500D02*
X8507786Y-1595214D01*
X8536357Y-1552357D01*
X8550643Y-1523786D01*
X8564928Y-1480929D01*
X8579214Y-1409500D01*
X8579214Y-1352357D01*
X8564928Y-1280929D01*
X8550643Y-1238072D01*
X8536357Y-1209500D01*
X8507786Y-1166643D01*
X8493500Y-1152357D01*
X9036357Y-1609500D02*
X9022071Y-1595214D01*
X8993500Y-1552357D01*
X8979214Y-1523786D01*
X8964928Y-1480929D01*
X8950643Y-1409500D01*
X8950643Y-1352357D01*
X8964928Y-1280929D01*
X8979214Y-1238072D01*
X8993500Y-1209500D01*
X9022071Y-1166643D01*
X9036357Y-1152357D01*
X9150643Y-1295214D02*
X9150643Y-1495214D01*
X9150643Y-1323786D02*
X9164928Y-1309500D01*
X9193500Y-1295214D01*
X9236357Y-1295214D01*
X9264928Y-1309500D01*
X9279214Y-1338072D01*
X9279214Y-1495214D01*
X9464928Y-1495214D02*
X9436357Y-1480929D01*
X9422071Y-1466643D01*
X9407786Y-1438071D01*
X9407786Y-1352357D01*
X9422071Y-1323786D01*
X9436357Y-1309500D01*
X9464928Y-1295214D01*
X9507786Y-1295214D01*
X9536357Y-1309500D01*
X9550643Y-1323786D01*
X9564928Y-1352357D01*
X9564928Y-1438071D01*
X9550643Y-1466643D01*
X9536357Y-1480929D01*
X9507786Y-1495214D01*
X9464928Y-1495214D01*
X9650643Y-1295214D02*
X9764928Y-1295214D01*
X9693500Y-1195214D02*
X9693500Y-1452357D01*
X9707786Y-1480929D01*
X9736357Y-1495214D01*
X9764928Y-1495214D01*
X10093500Y-1295214D02*
X10093500Y-1595214D01*
X10093500Y-1309500D02*
X10122071Y-1295214D01*
X10179214Y-1295214D01*
X10207786Y-1309500D01*
X10222071Y-1323786D01*
X10236357Y-1352357D01*
X10236357Y-1438071D01*
X10222071Y-1466643D01*
X10207786Y-1480929D01*
X10179214Y-1495214D01*
X10122071Y-1495214D01*
X10093500Y-1480929D01*
X10407786Y-1495214D02*
X10379214Y-1480929D01*
X10364929Y-1452357D01*
X10364929Y-1195214D01*
X10650643Y-1495214D02*
X10650643Y-1338072D01*
X10636357Y-1309500D01*
X10607786Y-1295214D01*
X10550643Y-1295214D01*
X10522071Y-1309500D01*
X10650643Y-1480929D02*
X10622071Y-1495214D01*
X10550643Y-1495214D01*
X10522071Y-1480929D01*
X10507786Y-1452357D01*
X10507786Y-1423786D01*
X10522071Y-1395214D01*
X10550643Y-1380929D01*
X10622071Y-1380929D01*
X10650643Y-1366643D01*
X10750643Y-1295214D02*
X10864929Y-1295214D01*
X10793500Y-1195214D02*
X10793500Y-1452357D01*
X10807786Y-1480929D01*
X10836357Y-1495214D01*
X10864929Y-1495214D01*
X11079214Y-1480929D02*
X11050643Y-1495214D01*
X10993500Y-1495214D01*
X10964929Y-1480929D01*
X10950643Y-1452357D01*
X10950643Y-1338072D01*
X10964929Y-1309500D01*
X10993500Y-1295214D01*
X11050643Y-1295214D01*
X11079214Y-1309500D01*
X11093500Y-1338072D01*
X11093500Y-1366643D01*
X10950643Y-1395214D01*
X11350643Y-1495214D02*
X11350643Y-1195214D01*
X11350643Y-1480929D02*
X11322071Y-1495214D01*
X11264929Y-1495214D01*
X11236357Y-1480929D01*
X11222071Y-1466643D01*
X11207786Y-1438071D01*
X11207786Y-1352357D01*
X11222071Y-1323786D01*
X11236357Y-1309500D01*
X11264929Y-1295214D01*
X11322071Y-1295214D01*
X11350643Y-1309500D01*
X11464929Y-1609500D02*
X11479214Y-1595214D01*
X11507786Y-1552357D01*
X11522071Y-1523786D01*
X11536357Y-1480929D01*
X11550643Y-1409500D01*
X11550643Y-1352357D01*
X11536357Y-1280929D01*
X11522071Y-1238072D01*
X11507786Y-1209500D01*
X11479214Y-1166643D01*
X11464929Y-1152357D01*
M02*
