G04 #@! TF.FileFunction,Soldermask,Bot*
%FSLAX46Y46*%
G04 Gerber Fmt 4.6, Leading zero omitted, Abs format (unit mm)*
G04 Created by KiCad (PCBNEW 4.0.2-stable) date 30/10/2016 11:04:25*
%MOMM*%
G01*
G04 APERTURE LIST*
%ADD10C,0.100000*%
%ADD11C,0.150000*%
%ADD12R,3.540000X16.540000*%
%ADD13R,2.400000X1.924000*%
%ADD14O,2.400000X1.924000*%
%ADD15R,2.432000X2.127200*%
%ADD16O,2.432000X2.127200*%
%ADD17R,2.127200X2.432000*%
%ADD18O,2.127200X2.432000*%
%ADD19R,2.432000X2.432000*%
%ADD20O,2.432000X2.432000*%
%ADD21C,2.540000*%
%ADD22C,4.464000*%
G04 APERTURE END LIST*
D10*
D11*
X1666666Y0D02*
G75*
G03X1666666Y0I-1666666J0D01*
G01*
X-2500000Y0D02*
X2500000Y0D01*
X0Y2500000D02*
X0Y-2500000D01*
X-3985000Y76580000D02*
X81880000Y76580000D01*
X-3985000Y76580000D02*
X-3985000Y-3920000D01*
X81875000Y-3920000D02*
X81875000Y76580000D01*
X-3990000Y-3920000D02*
X81875000Y-3920000D01*
D12*
X19580000Y23680000D03*
X19280000Y51980000D03*
D13*
X2680000Y61180000D03*
D14*
X5220000Y61180000D03*
X2680000Y58640000D03*
X5220000Y58640000D03*
X2680000Y56100000D03*
X5220000Y56100000D03*
X2680000Y53560000D03*
X5220000Y53560000D03*
X2680000Y51020000D03*
X5220000Y51020000D03*
X2680000Y48480000D03*
X5220000Y48480000D03*
X2680000Y45940000D03*
X5220000Y45940000D03*
X2680000Y43400000D03*
X5220000Y43400000D03*
X2680000Y40860000D03*
X5220000Y40860000D03*
X2680000Y38320000D03*
X5220000Y38320000D03*
X2680000Y35780000D03*
X5220000Y35780000D03*
X2680000Y33240000D03*
X5220000Y33240000D03*
X2680000Y30700000D03*
X5220000Y30700000D03*
X2680000Y28160000D03*
X5220000Y28160000D03*
X2680000Y25620000D03*
X5220000Y25620000D03*
X2680000Y23080000D03*
X5220000Y23080000D03*
X2680000Y20540000D03*
X5220000Y20540000D03*
X2680000Y18000000D03*
X5220000Y18000000D03*
X2680000Y15460000D03*
X5220000Y15460000D03*
X2680000Y12920000D03*
X5220000Y12920000D03*
D15*
X52770000Y14100000D03*
D16*
X52770000Y11560000D03*
X52770000Y9020000D03*
D17*
X52780000Y1780000D03*
D18*
X50240000Y1780000D03*
X47700000Y1780000D03*
D19*
X37510000Y1750000D03*
D20*
X40050000Y1750000D03*
D15*
X46780000Y14080000D03*
D16*
X46780000Y11540000D03*
X46780000Y9000000D03*
D15*
X78680000Y59880000D03*
D16*
X78680000Y57340000D03*
X78680000Y54800000D03*
X78680000Y52260000D03*
X78680000Y49720000D03*
X78680000Y47180000D03*
X78680000Y44640000D03*
X78680000Y42100000D03*
X78680000Y39560000D03*
X78680000Y37020000D03*
X78680000Y34480000D03*
X78680000Y31940000D03*
X78680000Y29400000D03*
X78680000Y26860000D03*
X78680000Y24320000D03*
X78680000Y21780000D03*
X78680000Y19240000D03*
X78680000Y16700000D03*
X78680000Y14160000D03*
X78680000Y11620000D03*
D21*
X5000000Y70500000D03*
D22*
X77800000Y72500000D03*
X78000000Y0D03*
X0Y72500000D03*
X0Y0D03*
D21*
X67000000Y71500000D03*
X4000000Y1500000D03*
X68000000Y500000D03*
D15*
X26820000Y31230000D03*
D16*
X26820000Y33770000D03*
X26820000Y36310000D03*
X26820000Y38850000D03*
X26820000Y41390000D03*
M02*
