G04 #@! TF.FileFunction,Copper,L2,Bot,Signal*
%FSLAX46Y46*%
G04 Gerber Fmt 4.6, Leading zero omitted, Abs format (unit mm)*
G04 Created by KiCad (PCBNEW 4.0.2-stable) date 30/10/2016 11:04:25*
%MOMM*%
G01*
G04 APERTURE LIST*
%ADD10C,0.100000*%
%ADD11C,0.150000*%
%ADD12C,0.254000*%
%ADD13R,2.000000X15.000000*%
%ADD14R,2.000000X1.524000*%
%ADD15O,2.000000X1.524000*%
%ADD16R,2.032000X1.727200*%
%ADD17O,2.032000X1.727200*%
%ADD18R,1.727200X2.032000*%
%ADD19O,1.727200X2.032000*%
%ADD20R,2.032000X2.032000*%
%ADD21O,2.032000X2.032000*%
%ADD22C,1.000000*%
%ADD23C,4.064000*%
%ADD24C,0.900000*%
%ADD25C,0.700000*%
%ADD26C,0.300000*%
%ADD27C,0.500000*%
%ADD28C,0.700000*%
%ADD29C,0.250000*%
%ADD30C,0.200000*%
G04 APERTURE END LIST*
D10*
D11*
X1666666Y0D02*
G75*
G03X1666666Y0I-1666666J0D01*
G01*
X-2500000Y0D02*
X2500000Y0D01*
X0Y2500000D02*
X0Y-2500000D01*
X-3985000Y76580000D02*
X81880000Y76580000D01*
X-3985000Y76580000D02*
X-3985000Y-3920000D01*
X81875000Y-3920000D02*
X81875000Y76580000D01*
X-3990000Y-3920000D02*
X81875000Y-3920000D01*
D12*
X61490666Y-1173429D02*
X61297142Y-2189429D01*
X61103619Y-1463714D01*
X60910095Y-2189429D01*
X60716571Y-1173429D01*
X60426285Y-1173429D02*
X60232761Y-2189429D01*
X60039238Y-1463714D01*
X59845714Y-2189429D01*
X59652190Y-1173429D01*
X59361904Y-1173429D02*
X59168380Y-2189429D01*
X58974857Y-1463714D01*
X58781333Y-2189429D01*
X58587809Y-1173429D01*
X58200761Y-2044286D02*
X58152380Y-2116857D01*
X58200761Y-2189429D01*
X58249142Y-2116857D01*
X58200761Y-2044286D01*
X58200761Y-2189429D01*
X57716951Y-1173429D02*
X57716951Y-2697429D01*
X57716951Y-1246000D02*
X57620189Y-1173429D01*
X57426666Y-1173429D01*
X57329904Y-1246000D01*
X57281523Y-1318571D01*
X57233142Y-1463714D01*
X57233142Y-1899143D01*
X57281523Y-2044286D01*
X57329904Y-2116857D01*
X57426666Y-2189429D01*
X57620189Y-2189429D01*
X57716951Y-2116857D01*
X56797713Y-2189429D02*
X56797713Y-1173429D01*
X56797713Y-1463714D02*
X56749332Y-1318571D01*
X56700951Y-1246000D01*
X56604189Y-1173429D01*
X56507428Y-1173429D01*
X56023618Y-2189429D02*
X56120380Y-2116857D01*
X56168761Y-2044286D01*
X56217142Y-1899143D01*
X56217142Y-1463714D01*
X56168761Y-1318571D01*
X56120380Y-1246000D01*
X56023618Y-1173429D01*
X55878476Y-1173429D01*
X55781714Y-1246000D01*
X55733333Y-1318571D01*
X55684952Y-1463714D01*
X55684952Y-1899143D01*
X55733333Y-2044286D01*
X55781714Y-2116857D01*
X55878476Y-2189429D01*
X56023618Y-2189429D01*
X55346285Y-1173429D02*
X55104380Y-2189429D01*
X54862476Y-1173429D02*
X55104380Y-2189429D01*
X55201142Y-2552286D01*
X55249523Y-2624857D01*
X55346285Y-2697429D01*
X54088381Y-2116857D02*
X54185143Y-2189429D01*
X54378666Y-2189429D01*
X54475428Y-2116857D01*
X54523809Y-1971714D01*
X54523809Y-1391143D01*
X54475428Y-1246000D01*
X54378666Y-1173429D01*
X54185143Y-1173429D01*
X54088381Y-1246000D01*
X54040000Y-1391143D01*
X54040000Y-1536286D01*
X54523809Y-1681429D01*
X53169143Y-2116857D02*
X53265905Y-2189429D01*
X53459428Y-2189429D01*
X53556190Y-2116857D01*
X53604571Y-2044286D01*
X53652952Y-1899143D01*
X53652952Y-1463714D01*
X53604571Y-1318571D01*
X53556190Y-1246000D01*
X53459428Y-1173429D01*
X53265905Y-1173429D01*
X53169143Y-1246000D01*
X52878857Y-1173429D02*
X52491809Y-1173429D01*
X52733714Y-665429D02*
X52733714Y-1971714D01*
X52685333Y-2116857D01*
X52588571Y-2189429D01*
X52491809Y-2189429D01*
X52008000Y-2189429D02*
X52104762Y-2116857D01*
X52153143Y-2044286D01*
X52201524Y-1899143D01*
X52201524Y-1463714D01*
X52153143Y-1318571D01*
X52104762Y-1246000D01*
X52008000Y-1173429D01*
X51862858Y-1173429D01*
X51766096Y-1246000D01*
X51717715Y-1318571D01*
X51669334Y-1463714D01*
X51669334Y-1899143D01*
X51717715Y-2044286D01*
X51766096Y-2116857D01*
X51862858Y-2189429D01*
X52008000Y-2189429D01*
X51233905Y-1608857D02*
X50459810Y-1608857D01*
X49540572Y-2116857D02*
X49637334Y-2189429D01*
X49830857Y-2189429D01*
X49927619Y-2116857D01*
X49976000Y-2044286D01*
X50024381Y-1899143D01*
X50024381Y-1463714D01*
X49976000Y-1318571D01*
X49927619Y-1246000D01*
X49830857Y-1173429D01*
X49637334Y-1173429D01*
X49540572Y-1246000D01*
X49105143Y-2189429D02*
X49105143Y-1173429D01*
X49105143Y-665429D02*
X49153524Y-738000D01*
X49105143Y-810571D01*
X49056762Y-738000D01*
X49105143Y-665429D01*
X49105143Y-810571D01*
X48185905Y-2189429D02*
X48185905Y-1391143D01*
X48234286Y-1246000D01*
X48331048Y-1173429D01*
X48524571Y-1173429D01*
X48621333Y-1246000D01*
X48185905Y-2116857D02*
X48282667Y-2189429D01*
X48524571Y-2189429D01*
X48621333Y-2116857D01*
X48669714Y-1971714D01*
X48669714Y-1826571D01*
X48621333Y-1681429D01*
X48524571Y-1608857D01*
X48282667Y-1608857D01*
X48185905Y-1536286D01*
X47266667Y-2189429D02*
X47266667Y-1391143D01*
X47315048Y-1246000D01*
X47411810Y-1173429D01*
X47605333Y-1173429D01*
X47702095Y-1246000D01*
X47266667Y-2116857D02*
X47363429Y-2189429D01*
X47605333Y-2189429D01*
X47702095Y-2116857D01*
X47750476Y-1971714D01*
X47750476Y-1826571D01*
X47702095Y-1681429D01*
X47605333Y-1608857D01*
X47363429Y-1608857D01*
X47266667Y-1536286D01*
X46782857Y-2044286D02*
X46734476Y-2116857D01*
X46782857Y-2189429D01*
X46831238Y-2116857D01*
X46782857Y-2044286D01*
X46782857Y-2189429D01*
X45863619Y-2116857D02*
X45960381Y-2189429D01*
X46153904Y-2189429D01*
X46250666Y-2116857D01*
X46299047Y-2044286D01*
X46347428Y-1899143D01*
X46347428Y-1463714D01*
X46299047Y-1318571D01*
X46250666Y-1246000D01*
X46153904Y-1173429D01*
X45960381Y-1173429D01*
X45863619Y-1246000D01*
X45283047Y-2189429D02*
X45379809Y-2116857D01*
X45428190Y-2044286D01*
X45476571Y-1899143D01*
X45476571Y-1463714D01*
X45428190Y-1318571D01*
X45379809Y-1246000D01*
X45283047Y-1173429D01*
X45137905Y-1173429D01*
X45041143Y-1246000D01*
X44992762Y-1318571D01*
X44944381Y-1463714D01*
X44944381Y-1899143D01*
X44992762Y-2044286D01*
X45041143Y-2116857D01*
X45137905Y-2189429D01*
X45283047Y-2189429D01*
X44508952Y-2189429D02*
X44508952Y-1173429D01*
X44508952Y-1318571D02*
X44460571Y-1246000D01*
X44363809Y-1173429D01*
X44218667Y-1173429D01*
X44121905Y-1246000D01*
X44073524Y-1391143D01*
X44073524Y-2189429D01*
X44073524Y-1391143D02*
X44025143Y-1246000D01*
X43928381Y-1173429D01*
X43783238Y-1173429D01*
X43686476Y-1246000D01*
X43638095Y-1391143D01*
X43638095Y-2189429D01*
X43154285Y-2044286D02*
X43105904Y-2116857D01*
X43154285Y-2189429D01*
X43202666Y-2116857D01*
X43154285Y-2044286D01*
X43154285Y-2189429D01*
X42235047Y-2189429D02*
X42235047Y-1391143D01*
X42283428Y-1246000D01*
X42380190Y-1173429D01*
X42573713Y-1173429D01*
X42670475Y-1246000D01*
X42235047Y-2116857D02*
X42331809Y-2189429D01*
X42573713Y-2189429D01*
X42670475Y-2116857D01*
X42718856Y-1971714D01*
X42718856Y-1826571D01*
X42670475Y-1681429D01*
X42573713Y-1608857D01*
X42331809Y-1608857D01*
X42235047Y-1536286D01*
X41751237Y-2189429D02*
X41751237Y-1173429D01*
X41751237Y-1463714D02*
X41702856Y-1318571D01*
X41654475Y-1246000D01*
X41557713Y-1173429D01*
X41460952Y-1173429D01*
D13*
X19580000Y23680000D03*
X19280000Y51980000D03*
D14*
X2680000Y61180000D03*
D15*
X5220000Y61180000D03*
X2680000Y58640000D03*
X5220000Y58640000D03*
X2680000Y56100000D03*
X5220000Y56100000D03*
X2680000Y53560000D03*
X5220000Y53560000D03*
X2680000Y51020000D03*
X5220000Y51020000D03*
X2680000Y48480000D03*
X5220000Y48480000D03*
X2680000Y45940000D03*
X5220000Y45940000D03*
X2680000Y43400000D03*
X5220000Y43400000D03*
X2680000Y40860000D03*
X5220000Y40860000D03*
X2680000Y38320000D03*
X5220000Y38320000D03*
X2680000Y35780000D03*
X5220000Y35780000D03*
X2680000Y33240000D03*
X5220000Y33240000D03*
X2680000Y30700000D03*
X5220000Y30700000D03*
X2680000Y28160000D03*
X5220000Y28160000D03*
X2680000Y25620000D03*
X5220000Y25620000D03*
X2680000Y23080000D03*
X5220000Y23080000D03*
X2680000Y20540000D03*
X5220000Y20540000D03*
X2680000Y18000000D03*
X5220000Y18000000D03*
X2680000Y15460000D03*
X5220000Y15460000D03*
X2680000Y12920000D03*
X5220000Y12920000D03*
D16*
X52770000Y14100000D03*
D17*
X52770000Y11560000D03*
X52770000Y9020000D03*
D18*
X52780000Y1780000D03*
D19*
X50240000Y1780000D03*
X47700000Y1780000D03*
D20*
X37510000Y1750000D03*
D21*
X40050000Y1750000D03*
D16*
X46780000Y14080000D03*
D17*
X46780000Y11540000D03*
X46780000Y9000000D03*
D16*
X78680000Y59880000D03*
D17*
X78680000Y57340000D03*
X78680000Y54800000D03*
X78680000Y52260000D03*
X78680000Y49720000D03*
X78680000Y47180000D03*
X78680000Y44640000D03*
X78680000Y42100000D03*
X78680000Y39560000D03*
X78680000Y37020000D03*
X78680000Y34480000D03*
X78680000Y31940000D03*
X78680000Y29400000D03*
X78680000Y26860000D03*
X78680000Y24320000D03*
X78680000Y21780000D03*
X78680000Y19240000D03*
X78680000Y16700000D03*
X78680000Y14160000D03*
X78680000Y11620000D03*
D22*
X5000000Y70500000D03*
D23*
X77800000Y72500000D03*
X78000000Y0D03*
X0Y72500000D03*
X0Y0D03*
D22*
X67000000Y71500000D03*
X4000000Y1500000D03*
X68000000Y500000D03*
D16*
X26820000Y31230000D03*
D17*
X26820000Y33770000D03*
X26820000Y36310000D03*
X26820000Y38850000D03*
X26820000Y41390000D03*
D24*
X74250000Y0D03*
X69900000Y-1500000D03*
X66100000Y-1500000D03*
X63400000Y-1500000D03*
X38800000Y-1500000D03*
X36000000Y-900000D03*
X30900000Y1100000D03*
X32880000Y3080000D03*
X30880000Y5080000D03*
X26880000Y5080000D03*
X28880000Y7080000D03*
X32880000Y7080000D03*
X30880000Y9080000D03*
X26880000Y9080000D03*
X28880000Y3080000D03*
X26880000Y1080000D03*
X28900000Y-900000D03*
X32900000Y-900000D03*
X72700000Y-1500000D03*
X71250000Y0D03*
X57500000Y71500000D03*
X54730000Y65610000D03*
X65000000Y71500000D03*
X75500000Y69500000D03*
X71500000Y73500000D03*
X67000000Y73500000D03*
X69500000Y71500000D03*
X73500000Y71500000D03*
X77500000Y67500000D03*
X63000000Y73500000D03*
X61000000Y71500000D03*
X54500000Y71500000D03*
X48500000Y71500000D03*
X45500000Y71500000D03*
X39500000Y71500000D03*
X33500000Y71500000D03*
X27500000Y71500000D03*
X30500000Y71500000D03*
X36500000Y71500000D03*
X42500000Y71500000D03*
X51500000Y71500000D03*
X79500000Y69500000D03*
X75500000Y65500000D03*
X79500000Y65500000D03*
X77500000Y63500000D03*
X56900000Y40800000D03*
X54000000Y32500000D03*
X57000000Y32500000D03*
X55500000Y34000000D03*
X52500000Y34000000D03*
X55500000Y39500000D03*
X57000000Y35500000D03*
X54000000Y35500000D03*
X56900000Y48300000D03*
X56900000Y46000000D03*
X48880000Y47580000D03*
X47380000Y46080000D03*
X47380000Y51080000D03*
X47380000Y49080000D03*
X45880000Y47580000D03*
X57000000Y59500000D03*
X52380000Y58080000D03*
X49010000Y58080000D03*
X54000000Y59500000D03*
X55500000Y61000000D03*
X55880000Y55080000D03*
X57380000Y53580000D03*
X54380000Y53580000D03*
X55880000Y52080000D03*
X44880000Y28100000D03*
X55500000Y28500000D03*
X49000000Y25000000D03*
X46380000Y24080000D03*
X51000000Y25000000D03*
X57500000Y28500000D03*
X57380000Y21580000D03*
X63680000Y27540000D03*
X33330000Y50380000D03*
X30390000Y53550000D03*
D25*
X40040000Y35210000D03*
X37160000Y32680000D03*
D24*
X44880000Y25580000D03*
X43380000Y24080000D03*
X44880000Y22580000D03*
X45180000Y30930000D03*
X55880000Y20080000D03*
X55880000Y21580000D03*
X57380000Y20080000D03*
X57380000Y18580000D03*
X42880000Y19580000D03*
X45880000Y19580000D03*
D25*
X39050000Y44150000D03*
D24*
X32080000Y43280000D03*
X37880000Y19780000D03*
X31480000Y19780000D03*
X69480000Y67630000D03*
X69480000Y54330000D03*
X69480000Y27560000D03*
X69490000Y20790000D03*
X69480000Y13840000D03*
X69480000Y6600000D03*
X69480000Y41590000D03*
X69480000Y59180000D03*
X69480000Y33080000D03*
X69480000Y46880000D03*
D25*
X27770000Y43810000D03*
X27760000Y53020000D03*
X26880000Y51980000D03*
X26880000Y44280000D03*
X28680000Y23280000D03*
X28680000Y31550000D03*
D24*
X34680000Y21780000D03*
X34990000Y25550000D03*
X26105000Y20505000D03*
X26080000Y28080000D03*
X26145000Y56425000D03*
X25880000Y48780000D03*
X32780000Y29880000D03*
X29890000Y32840000D03*
X70990000Y36180000D03*
X66280000Y36180000D03*
X34080000Y64890000D03*
X74380000Y63500000D03*
X74390000Y38330000D03*
X74380000Y56680000D03*
X74380000Y51680000D03*
X74380000Y45380000D03*
X74380000Y31680000D03*
X74380000Y24480000D03*
X74380000Y17680000D03*
X74380000Y10880000D03*
X74380000Y3980000D03*
D25*
X32680000Y31080000D03*
X34800000Y38500000D03*
D24*
X13080000Y20480000D03*
X13380000Y58880000D03*
X10580000Y60080000D03*
X10580000Y47180000D03*
X10000000Y9500000D03*
X6000000Y9500000D03*
X2000000Y9500000D03*
X0Y7500000D03*
X4000000Y7500000D03*
X8000000Y7500000D03*
X12000000Y7500000D03*
X2000000Y5500000D03*
X6000000Y5500000D03*
X10000000Y5500000D03*
X0Y3500000D03*
X12000000Y3500000D03*
X8000000Y3500000D03*
X4000000Y3500000D03*
X6000000Y1500000D03*
X10000000Y1500000D03*
X12000000Y-500000D03*
X8000000Y-500000D03*
X4000000Y-500000D03*
X3000000Y74500000D03*
X3000000Y70500000D03*
X11000000Y74500000D03*
X11000000Y66500000D03*
X7000000Y66500000D03*
X3000000Y66500000D03*
X-1000000Y66500000D03*
X1000000Y68500000D03*
X5000000Y68500000D03*
X9000000Y68500000D03*
X11000000Y70500000D03*
X7000000Y70500000D03*
X9000000Y72500000D03*
X7000000Y74500000D03*
X5000000Y72500000D03*
X11980000Y47530000D03*
X11960000Y17040000D03*
D25*
X7200000Y51500000D03*
X8500000Y51720000D03*
X9610000Y51610000D03*
X7300000Y47300000D03*
X9680000Y24580000D03*
X10880000Y24380000D03*
X7480000Y22980000D03*
X8380000Y21780000D03*
D24*
X32000000Y23500000D03*
X30500000Y23500000D03*
X30500000Y25000000D03*
X33500000Y23500000D03*
X31400000Y18000000D03*
X29050000Y44790000D03*
X26450000Y19240000D03*
X27550000Y26860000D03*
X40150000Y61490000D03*
X28580000Y46580000D03*
X30300000Y48480000D03*
X32380000Y60580000D03*
X34950000Y54780000D03*
X28380000Y60580000D03*
X26380000Y58580000D03*
X30380000Y58580000D03*
X30380000Y54780000D03*
X28380000Y58580000D03*
X26380000Y60580000D03*
X30380000Y60580000D03*
X32380000Y58580000D03*
D25*
X33340000Y34760000D03*
X35320000Y33510000D03*
D24*
X29480000Y62880000D03*
X32100000Y47210000D03*
D26*
X46780000Y9000000D02*
X52750000Y9000000D01*
X52750000Y9000000D02*
X52770000Y9020000D01*
D27*
X71250000Y0D02*
X74250000Y0D01*
X72750000Y-1500000D02*
X74250000Y0D01*
X32900000Y-900000D02*
X30900000Y1100000D01*
X26880000Y1080000D02*
X26920000Y1080000D01*
X26880000Y11980000D02*
X28800000Y13900000D01*
X28800000Y13900000D02*
X35900000Y13900000D01*
X35900000Y13900000D02*
X37880000Y15880000D01*
X37880000Y15880000D02*
X37880000Y19780000D01*
X26880000Y1080000D02*
X26880000Y3080000D01*
X28880000Y3080000D02*
X30880000Y3080000D01*
X32880000Y5080000D02*
X30880000Y5080000D01*
X28880000Y5080000D02*
X26880000Y5080000D01*
X26880000Y7080000D02*
X28880000Y7080000D01*
X30880000Y7080000D02*
X32880000Y7080000D01*
X32880000Y9080000D02*
X30880000Y9080000D01*
X28880000Y9080000D02*
X26880000Y9080000D01*
X30880000Y9080000D02*
X28880000Y9080000D01*
X32880000Y7080000D02*
X32880000Y9080000D01*
X28880000Y7080000D02*
X30880000Y7080000D01*
X26880000Y5080000D02*
X26880000Y7080000D01*
X30880000Y5080000D02*
X28880000Y5080000D01*
X32880000Y5080000D02*
X32880000Y3080000D01*
X30880000Y3080000D02*
X32880000Y3080000D01*
X26880000Y3080000D02*
X28880000Y3080000D01*
X26880000Y9080000D02*
X26880000Y11980000D01*
X26920000Y1080000D02*
X28900000Y-900000D01*
X30900000Y1100000D02*
X28900000Y-900000D01*
X72700000Y-1500000D02*
X72750000Y-1500000D01*
D28*
X57500000Y71500000D02*
X61000000Y71500000D01*
D27*
X65000000Y71500000D02*
X65000000Y72860000D01*
X77500000Y67500000D02*
X75500000Y69500000D01*
X73500000Y71500000D02*
X71500000Y73500000D01*
X67000000Y73500000D02*
X67500000Y73500000D01*
X67500000Y73500000D02*
X69500000Y71500000D01*
X71500000Y73500000D02*
X69500000Y71500000D01*
X75500000Y69500000D02*
X73500000Y71500000D01*
X65640000Y73500000D02*
X67000000Y73500000D01*
X65000000Y72860000D02*
X65640000Y73500000D01*
X65000000Y71500000D02*
X63000000Y73500000D01*
X63000000Y73500000D02*
X61000000Y71500000D01*
D28*
X54500000Y71500000D02*
X51500000Y71500000D01*
X57500000Y71500000D02*
X54500000Y71500000D01*
X51500000Y71500000D02*
X48500000Y71500000D01*
X42500000Y71500000D02*
X39500000Y71500000D01*
X36500000Y71500000D02*
X33500000Y71500000D01*
X33500000Y71500000D02*
X30500000Y71500000D01*
X39500000Y71500000D02*
X36500000Y71500000D01*
X45500000Y71500000D02*
X42500000Y71500000D01*
X48500000Y71500000D02*
X45500000Y71500000D01*
D27*
X79500000Y69500000D02*
X77500000Y67500000D01*
X77500000Y63500000D02*
X79500000Y65500000D01*
X79500000Y65500000D02*
X77500000Y67500000D01*
X75500000Y65500000D02*
X77500000Y63500000D01*
X48880000Y47580000D02*
X50120000Y47580000D01*
X55500000Y32500000D02*
X57000000Y32500000D01*
X57000000Y34000000D02*
X55500000Y34000000D01*
X54000000Y34000000D02*
X52500000Y34000000D01*
X54000000Y35500000D02*
X55500000Y35500000D01*
X55500000Y39500000D02*
X55500000Y37000000D01*
X56900000Y39500000D02*
X56900000Y40800000D01*
X55500000Y39500000D02*
X56900000Y39500000D01*
X55500000Y37000000D02*
X57000000Y35500000D01*
X55500000Y35500000D02*
X57000000Y35500000D01*
X52500000Y34000000D02*
X54000000Y35500000D01*
X55500000Y34000000D02*
X54000000Y34000000D01*
X57000000Y32500000D02*
X57000000Y34000000D01*
X54000000Y32500000D02*
X55500000Y32500000D01*
X68690000Y40800000D02*
X69480000Y41590000D01*
X56900000Y40800000D02*
X68690000Y40800000D01*
X56900000Y46000000D02*
X56900000Y40800000D01*
X56900000Y48300000D02*
X56900000Y46000000D01*
X51620000Y46080000D02*
X56900000Y40800000D01*
X50120000Y47580000D02*
X51620000Y46080000D01*
X47380000Y46080000D02*
X48880000Y47580000D01*
X47380000Y47580000D02*
X48880000Y47580000D01*
X45880000Y47580000D02*
X45880000Y49080000D01*
X45880000Y49080000D02*
X47380000Y49080000D01*
X47380000Y47580000D02*
X45880000Y47580000D01*
X47380000Y49080000D02*
X47380000Y51080000D01*
X55500000Y61000000D02*
X57000000Y59500000D01*
X52580000Y58080000D02*
X52380000Y58080000D01*
X52380000Y58080000D02*
X49010000Y58080000D01*
X52580000Y58080000D02*
X54000000Y59500000D01*
X57000000Y59500000D02*
X54000000Y59500000D01*
X55880000Y55080000D02*
X57380000Y53580000D01*
X54380000Y52080000D02*
X55880000Y52080000D01*
X54380000Y53580000D02*
X55880000Y53580000D01*
X55880000Y53580000D02*
X57380000Y53580000D01*
X54380000Y52080000D02*
X54380000Y53580000D01*
X57500000Y28500000D02*
X55500000Y28500000D01*
X52000000Y25000000D02*
X55500000Y28500000D01*
X51000000Y25000000D02*
X49000000Y25000000D01*
X48080000Y24080000D02*
X49000000Y25000000D01*
X48080000Y24080000D02*
X46380000Y24080000D01*
X51000000Y25000000D02*
X52000000Y25000000D01*
X57380000Y55080000D02*
X68730000Y55080000D01*
X68730000Y55080000D02*
X69480000Y54330000D01*
X57380000Y21580000D02*
X57720000Y21580000D01*
X57720000Y21580000D02*
X63680000Y27540000D01*
X30390000Y53550000D02*
X30390000Y53320000D01*
X30390000Y53320000D02*
X33330000Y50380000D01*
D26*
X37160000Y32680000D02*
X37510000Y32680000D01*
X37510000Y32680000D02*
X40040000Y35210000D01*
D27*
X44880000Y27080000D02*
X44880000Y28100000D01*
X44880000Y28100000D02*
X44880000Y30630000D01*
X46380000Y25580000D02*
X46380000Y24080000D01*
X44880000Y24080000D02*
X44880000Y25580000D01*
X43380000Y25580000D02*
X43380000Y24080000D01*
X43380000Y22580000D02*
X44880000Y22580000D01*
X46380000Y22580000D02*
X44880000Y22580000D01*
X43380000Y24080000D02*
X43380000Y22580000D01*
X44880000Y25580000D02*
X43380000Y25580000D01*
X46380000Y24080000D02*
X44880000Y24080000D01*
X44880000Y27080000D02*
X46380000Y25580000D01*
X44880000Y30630000D02*
X45180000Y30930000D01*
X57380000Y18580000D02*
X55880000Y20080000D01*
X57380000Y20080000D02*
X57380000Y21580000D01*
X54880000Y22580000D02*
X46380000Y22580000D01*
X54880000Y22580000D02*
X55880000Y21580000D01*
X57380000Y21580000D02*
X55880000Y21580000D01*
X55880000Y20080000D02*
X57380000Y20080000D01*
X57380000Y55080000D02*
X55880000Y55080000D01*
X52380000Y57080000D02*
X52380000Y58080000D01*
X52380000Y57080000D02*
X54380000Y55080000D01*
X55880000Y55080000D02*
X54380000Y55080000D01*
X45880000Y22080000D02*
X46380000Y22580000D01*
X45880000Y19580000D02*
X44380000Y19580000D01*
X42680000Y19780000D02*
X37880000Y19780000D01*
X42680000Y19780000D02*
X42880000Y19580000D01*
X44380000Y19580000D02*
X42880000Y19580000D01*
X45880000Y19580000D02*
X45880000Y22080000D01*
D29*
X32080000Y43280000D02*
X32090000Y43280000D01*
D26*
X32960000Y44150000D02*
X39050000Y44150000D01*
X32090000Y43280000D02*
X32960000Y44150000D01*
D28*
X37880000Y19780000D02*
X31480000Y19780000D01*
X69480000Y59180000D02*
X69480000Y67630000D01*
D27*
X69480000Y27560000D02*
X69480000Y27480000D01*
X69490000Y20790000D02*
X69480000Y20790000D01*
X69480000Y20790000D02*
X69490000Y20790000D01*
X69490000Y20790000D02*
X69480000Y20790000D01*
D28*
X69480000Y22180000D02*
X69480000Y20790000D01*
X69480000Y22180000D02*
X69480000Y27480000D01*
X69480000Y20790000D02*
X69480000Y13840000D01*
X69480000Y13840000D02*
X69480000Y6600000D01*
X69480000Y27480000D02*
X69480000Y33080000D01*
X69480000Y33080000D02*
X69480000Y40080000D01*
X69480000Y40080000D02*
X69480000Y41590000D01*
X69480000Y41590000D02*
X69480000Y46880000D01*
X69480000Y46880000D02*
X69480000Y52980000D01*
X69480000Y52980000D02*
X69480000Y53980000D01*
X69480000Y53980000D02*
X69480000Y54330000D01*
X69480000Y54330000D02*
X69480000Y59180000D01*
D30*
X27770000Y43810000D02*
X27760000Y43820000D01*
D26*
X27760000Y43820000D02*
X27760000Y53020000D01*
X26880000Y51980000D02*
X26880000Y44280000D01*
X28680000Y28880000D02*
X28680000Y23280000D01*
X28680000Y31550000D02*
X28680000Y28880000D01*
X34990000Y22090000D02*
X34990000Y25550000D01*
X34990000Y22090000D02*
X34680000Y21780000D01*
D28*
X26080000Y20530000D02*
X26080000Y28080000D01*
D30*
X26080000Y20530000D02*
X26105000Y20505000D01*
D28*
X26080000Y28080000D02*
X24380000Y29780000D01*
X24380000Y54660000D02*
X24380000Y29780000D01*
X26145000Y56425000D02*
X26145000Y54745000D01*
X26145000Y54745000D02*
X25880000Y54480000D01*
X24380000Y54660000D02*
X26145000Y56425000D01*
X25880000Y54480000D02*
X25880000Y48780000D01*
D26*
X40050000Y1750000D02*
X40050000Y2870000D01*
X50240000Y2830000D02*
X50240000Y1780000D01*
X49440000Y3630000D02*
X50240000Y2830000D01*
X40810000Y3630000D02*
X49440000Y3630000D01*
X40050000Y2870000D02*
X40810000Y3630000D01*
D28*
X72230000Y68730000D02*
X35690000Y68730000D01*
D27*
X31730000Y29880000D02*
X32780000Y29880000D01*
X31110000Y30500000D02*
X31730000Y29880000D01*
X31110000Y31620000D02*
X31110000Y30500000D01*
X29890000Y32840000D02*
X31110000Y31620000D01*
X74390000Y38330000D02*
X73140000Y38330000D01*
X73140000Y38330000D02*
X70990000Y36180000D01*
X66280000Y36180000D02*
X61480000Y31380000D01*
X61480000Y31380000D02*
X48980000Y31380000D01*
X48980000Y31380000D02*
X46380000Y33980000D01*
X46380000Y33980000D02*
X41680000Y33980000D01*
X41680000Y33980000D02*
X37580000Y29880000D01*
X37580000Y29880000D02*
X32780000Y29880000D01*
D28*
X74380000Y63500000D02*
X74380000Y66580000D01*
X74380000Y66580000D02*
X72230000Y68730000D01*
X35690000Y68730000D02*
X34080000Y67120000D01*
X34080000Y67120000D02*
X34080000Y64890000D01*
X74380000Y56680000D02*
X74380000Y63500000D01*
D26*
X74390000Y38330000D02*
X74380000Y38330000D01*
X74380000Y38330000D02*
X74390000Y38330000D01*
X74390000Y38330000D02*
X74380000Y38330000D01*
D28*
X74380000Y56680000D02*
X74380000Y51680000D01*
X74380000Y51680000D02*
X74380000Y45380000D01*
X74380000Y45380000D02*
X74380000Y38330000D01*
X74380000Y38330000D02*
X74380000Y37780000D01*
X74380000Y37780000D02*
X74380000Y31680000D01*
X74380000Y31680000D02*
X74380000Y24480000D01*
X74380000Y24480000D02*
X74380000Y17680000D01*
X74380000Y17680000D02*
X74380000Y10880000D01*
X74380000Y10880000D02*
X74380000Y3980000D01*
D26*
X32680000Y31080000D02*
X35080000Y31080000D01*
X35080000Y31080000D02*
X36090000Y32090000D01*
X36090000Y32090000D02*
X36090000Y37210000D01*
X36090000Y37210000D02*
X34800000Y38500000D01*
D28*
X13080000Y20480000D02*
X13080000Y58580000D01*
X13080000Y58580000D02*
X13380000Y58880000D01*
X10580000Y47180000D02*
X10580000Y60080000D01*
D27*
X4000000Y3500000D02*
X5240000Y3500000D01*
X0Y3500000D02*
X4000000Y3500000D01*
X10000000Y5500000D02*
X12000000Y5500000D01*
X12000000Y7500000D02*
X10000000Y7500000D01*
X8000000Y7500000D02*
X6000000Y7500000D01*
X4000000Y7500000D02*
X2000000Y7500000D01*
X0Y7500000D02*
X0Y9500000D01*
X2000000Y9500000D02*
X4000000Y9500000D01*
X6000000Y9500000D02*
X8000000Y9500000D01*
X10000000Y9500000D02*
X12000000Y9500000D01*
X11980000Y9520000D02*
X12000000Y9500000D01*
X11980000Y17060000D02*
X11980000Y9520000D01*
X8000000Y9500000D02*
X10000000Y9500000D01*
X4000000Y9500000D02*
X6000000Y9500000D01*
X0Y9500000D02*
X2000000Y9500000D01*
X2000000Y7500000D02*
X0Y7500000D01*
X6000000Y7500000D02*
X4000000Y7500000D01*
X10000000Y7500000D02*
X8000000Y7500000D01*
X12000000Y5500000D02*
X12000000Y7500000D01*
X0Y5500000D02*
X2000000Y5500000D01*
X4000000Y5500000D02*
X6000000Y5500000D01*
X8000000Y5500000D02*
X10000000Y5500000D01*
X6000000Y5500000D02*
X8000000Y5500000D01*
X2000000Y5500000D02*
X4000000Y5500000D01*
X0Y3500000D02*
X0Y5500000D01*
X10000000Y1500000D02*
X8000000Y3500000D01*
X8000000Y3500000D02*
X6000000Y1500000D01*
X10000000Y1500000D02*
X12000000Y3500000D01*
X10000000Y-500000D02*
X8000000Y-500000D01*
X6000000Y-500000D02*
X4000000Y-500000D01*
X8000000Y-500000D02*
X6000000Y-500000D01*
X12000000Y-500000D02*
X10000000Y-500000D01*
X12000000Y3500000D02*
X12000000Y-500000D01*
X6000000Y2740000D02*
X6000000Y1500000D01*
X5240000Y3500000D02*
X6000000Y2740000D01*
X3000000Y74500000D02*
X3000000Y70500000D01*
X5000000Y72500000D02*
X3000000Y74500000D01*
X7000000Y74500000D02*
X11000000Y74500000D01*
X9000000Y72500000D02*
X7000000Y70500000D01*
X9000000Y70500000D02*
X7000000Y70500000D01*
X11000000Y70500000D02*
X11000000Y68500000D01*
X9000000Y68500000D02*
X7000000Y68500000D01*
X5000000Y68500000D02*
X3000000Y68500000D01*
X1000000Y68500000D02*
X-1000000Y68500000D01*
X-1000000Y66500000D02*
X1000000Y66500000D01*
X3000000Y66500000D02*
X5000000Y66500000D01*
X7000000Y66500000D02*
X9000000Y66500000D01*
X9280000Y64780000D02*
X9280000Y63980000D01*
X9280000Y64780000D02*
X11000000Y66500000D01*
X9000000Y66500000D02*
X11000000Y66500000D01*
X5000000Y66500000D02*
X7000000Y66500000D01*
X1000000Y66500000D02*
X3000000Y66500000D01*
X-1000000Y68500000D02*
X-1000000Y66500000D01*
X3000000Y68500000D02*
X1000000Y68500000D01*
X7000000Y68500000D02*
X5000000Y68500000D01*
X11000000Y68500000D02*
X9000000Y68500000D01*
X9000000Y70500000D02*
X11000000Y70500000D01*
X11000000Y74500000D02*
X9000000Y72500000D01*
X3000000Y74500000D02*
X7000000Y74500000D01*
D28*
X11980000Y47530000D02*
X11980000Y47580000D01*
X11980000Y26880000D02*
X11980000Y17060000D01*
X11980000Y17060000D02*
X11960000Y17040000D01*
X2680000Y58640000D02*
X1420000Y58640000D01*
X11980000Y61280000D02*
X11980000Y55180000D01*
X9280000Y63980000D02*
X11980000Y61280000D01*
X1380000Y63980000D02*
X9280000Y63980000D01*
X180000Y62780000D02*
X1380000Y63980000D01*
X180000Y59880000D02*
X180000Y62780000D01*
X1420000Y58640000D02*
X180000Y59880000D01*
X11980000Y26880000D02*
X11980000Y47580000D01*
X11980000Y47580000D02*
X11980000Y55180000D01*
D26*
X760000Y33240000D02*
X2680000Y33240000D01*
X200000Y33800000D02*
X760000Y33240000D01*
X200000Y49100000D02*
X200000Y33800000D01*
X800000Y49700000D02*
X200000Y49100000D01*
X6400000Y49700000D02*
X800000Y49700000D01*
X7200000Y50500000D02*
X6400000Y49700000D01*
X7200000Y51500000D02*
X7200000Y50500000D01*
X6880000Y38320000D02*
X5220000Y38320000D01*
X8510000Y39950000D02*
X6880000Y38320000D01*
X8510000Y51710000D02*
X8510000Y39950000D01*
X8500000Y51720000D02*
X8510000Y51710000D01*
X2680000Y35780000D02*
X3900000Y37000000D01*
X9610000Y38910000D02*
X9610000Y51610000D01*
X7700000Y37000000D02*
X9610000Y38910000D01*
X3900000Y37000000D02*
X7700000Y37000000D01*
X7300000Y42000000D02*
X6160000Y40860000D01*
X7300000Y47300000D02*
X7300000Y42000000D01*
X6160000Y40860000D02*
X5220000Y40860000D01*
X8720000Y33240000D02*
X5220000Y33240000D01*
X9380000Y32580000D02*
X8720000Y33240000D01*
X9380000Y24880000D02*
X9380000Y32580000D01*
X9680000Y24580000D02*
X9380000Y24880000D01*
X5220000Y35780000D02*
X8680000Y35780000D01*
X10880000Y33580000D02*
X10880000Y24380000D01*
X8680000Y35780000D02*
X10880000Y33580000D01*
X5220000Y28160000D02*
X7000000Y28160000D01*
X7480000Y27680000D02*
X7480000Y22980000D01*
X7000000Y28160000D02*
X7480000Y27680000D01*
X5220000Y30700000D02*
X7260000Y30700000D01*
X8380000Y29580000D02*
X8380000Y21780000D01*
X7260000Y30700000D02*
X8380000Y29580000D01*
D27*
X33500000Y23500000D02*
X32000000Y23500000D01*
X30500000Y25000000D02*
X30500000Y23500000D01*
X29240000Y19240000D02*
X30500000Y20500000D01*
X30500000Y20500000D02*
X30500000Y23500000D01*
X29240000Y19240000D02*
X26450000Y19240000D01*
X32000000Y23500000D02*
X30500000Y25000000D01*
X26450000Y19240000D02*
X26450000Y18350000D01*
X26800000Y18000000D02*
X31400000Y18000000D01*
X26450000Y18350000D02*
X26800000Y18000000D01*
X28580000Y46580000D02*
X28580000Y45260000D01*
X28580000Y45260000D02*
X29050000Y44790000D01*
D28*
X27550000Y20340000D02*
X27550000Y26860000D01*
X26450000Y19240000D02*
X27550000Y20340000D01*
X26820000Y29620000D02*
X26820000Y31230000D01*
X27550000Y26860000D02*
X27550000Y28890000D01*
X27550000Y28890000D02*
X26820000Y29620000D01*
D27*
X38760000Y62880000D02*
X33280000Y62880000D01*
X40150000Y61490000D02*
X38760000Y62880000D01*
D28*
X28580000Y46580000D02*
X29340000Y46580000D01*
X30300000Y47540000D02*
X30300000Y48480000D01*
X29340000Y46580000D02*
X30300000Y47540000D01*
X34980000Y54790000D02*
X34960000Y54790000D01*
X34960000Y54790000D02*
X34950000Y54780000D01*
D27*
X32380000Y58580000D02*
X32380000Y60580000D01*
X30380000Y60580000D02*
X28380000Y60580000D01*
X26380000Y60580000D02*
X26380000Y58580000D01*
X28380000Y58580000D02*
X30380000Y58580000D01*
X30380000Y58580000D02*
X30380000Y54780000D01*
X26380000Y58580000D02*
X28380000Y58580000D01*
X28380000Y60580000D02*
X26380000Y60580000D01*
X32380000Y60580000D02*
X30380000Y60580000D01*
D29*
X26820000Y31230000D02*
X26830000Y31230000D01*
D26*
X26830000Y31230000D02*
X30360000Y34760000D01*
X30360000Y34760000D02*
X33340000Y34760000D01*
X33340000Y34760000D02*
X34070000Y34760000D01*
X34070000Y34760000D02*
X35320000Y33510000D01*
D27*
X33280000Y62880000D02*
X29480000Y62880000D01*
X34980000Y61180000D02*
X33280000Y62880000D01*
X34980000Y54790000D02*
X34980000Y61180000D01*
X34980000Y50080000D02*
X34980000Y54790000D01*
X32100000Y47210000D02*
X34980000Y50080000D01*
D10*
G36*
X13920000Y59329871D02*
X13777036Y59473085D01*
X13519850Y59579878D01*
X13241372Y59580121D01*
X12984000Y59473777D01*
X12786915Y59277036D01*
X12686371Y59034899D01*
X12655736Y59004264D01*
X12525672Y58809610D01*
X12480000Y58580000D01*
X12480000Y20860383D01*
X12380122Y20619850D01*
X12379879Y20341372D01*
X12486223Y20084000D01*
X12682964Y19886915D01*
X12940150Y19780122D01*
X13218628Y19779879D01*
X13476000Y19886223D01*
X13673085Y20082964D01*
X13779878Y20340150D01*
X13780121Y20618628D01*
X13680000Y20860939D01*
X13680000Y58246557D01*
X13776000Y58286223D01*
X13920000Y58429972D01*
X13920000Y-2950000D01*
X-2980000Y-2950000D01*
X-2980000Y-1636001D01*
X-1565290Y-1636001D01*
X-1326837Y-1911300D01*
X-494415Y-2273570D01*
X413278Y-2289709D01*
X1258053Y-1957260D01*
X1326837Y-1911300D01*
X1565290Y-1636001D01*
X0Y-70711D01*
X-1565290Y-1636001D01*
X-2980000Y-1636001D01*
X-2980000Y-413278D01*
X-2289709Y-413278D01*
X-1957260Y-1258053D01*
X-1911300Y-1326837D01*
X-1636001Y-1565290D01*
X-70711Y0D01*
X70711Y0D01*
X1636001Y-1565290D01*
X1911300Y-1326837D01*
X2273570Y-494415D01*
X2289709Y413278D01*
X1964921Y1238588D01*
X2679772Y1238588D01*
X2880306Y753257D01*
X3251304Y381611D01*
X3736284Y180230D01*
X4261412Y179772D01*
X4746743Y380306D01*
X5118389Y751304D01*
X5319770Y1236284D01*
X5320228Y1761412D01*
X5119694Y2246743D01*
X4748696Y2618389D01*
X4263716Y2819770D01*
X3738588Y2820228D01*
X3253257Y2619694D01*
X2881611Y2248696D01*
X2680230Y1763716D01*
X2679772Y1238588D01*
X1964921Y1238588D01*
X1957260Y1258053D01*
X1911300Y1326837D01*
X1636001Y1565290D01*
X70711Y0D01*
X-70711Y0D01*
X-1636001Y1565290D01*
X-1911300Y1326837D01*
X-2273570Y494415D01*
X-2289709Y-413278D01*
X-2980000Y-413278D01*
X-2980000Y1636001D01*
X-1565290Y1636001D01*
X0Y70711D01*
X1565290Y1636001D01*
X1326837Y1911300D01*
X494415Y2273570D01*
X-413278Y2289709D01*
X-1258053Y1957260D01*
X-1326837Y1911300D01*
X-1565290Y1636001D01*
X-2980000Y1636001D01*
X-2980000Y12712497D01*
X1451502Y12712497D01*
X1487899Y12578918D01*
X1691052Y12239763D01*
X2008530Y12004168D01*
X2392000Y11908000D01*
X2630000Y11908000D01*
X2630000Y12870000D01*
X2730000Y12870000D01*
X2730000Y11908000D01*
X2968000Y11908000D01*
X3351470Y12004168D01*
X3668948Y12239763D01*
X3872101Y12578918D01*
X3908498Y12712497D01*
X3866183Y12870000D01*
X2730000Y12870000D01*
X2630000Y12870000D01*
X1493817Y12870000D01*
X1451502Y12712497D01*
X-2980000Y12712497D01*
X-2980000Y12920000D01*
X3945511Y12920000D01*
X4022545Y12532724D01*
X4241919Y12204408D01*
X4570235Y11985034D01*
X4957511Y11908000D01*
X5482489Y11908000D01*
X5869765Y11985034D01*
X6198081Y12204408D01*
X6417455Y12532724D01*
X6494489Y12920000D01*
X6417455Y13307276D01*
X6198081Y13635592D01*
X5869765Y13854966D01*
X5482489Y13932000D01*
X4957511Y13932000D01*
X4570235Y13854966D01*
X4241919Y13635592D01*
X4022545Y13307276D01*
X3945511Y12920000D01*
X-2980000Y12920000D01*
X-2980000Y13127503D01*
X1451502Y13127503D01*
X1493817Y12970000D01*
X2630000Y12970000D01*
X2630000Y13932000D01*
X2730000Y13932000D01*
X2730000Y12970000D01*
X3866183Y12970000D01*
X3908498Y13127503D01*
X3872101Y13261082D01*
X3668948Y13600237D01*
X3351470Y13835832D01*
X2968000Y13932000D01*
X2730000Y13932000D01*
X2630000Y13932000D01*
X2392000Y13932000D01*
X2008530Y13835832D01*
X1691052Y13600237D01*
X1487899Y13261082D01*
X1451502Y13127503D01*
X-2980000Y13127503D01*
X-2980000Y15252497D01*
X1451502Y15252497D01*
X1487899Y15118918D01*
X1691052Y14779763D01*
X2008530Y14544168D01*
X2392000Y14448000D01*
X2630000Y14448000D01*
X2630000Y15410000D01*
X2730000Y15410000D01*
X2730000Y14448000D01*
X2968000Y14448000D01*
X3351470Y14544168D01*
X3668948Y14779763D01*
X3872101Y15118918D01*
X3908498Y15252497D01*
X3866183Y15410000D01*
X2730000Y15410000D01*
X2630000Y15410000D01*
X1493817Y15410000D01*
X1451502Y15252497D01*
X-2980000Y15252497D01*
X-2980000Y15460000D01*
X3945511Y15460000D01*
X4022545Y15072724D01*
X4241919Y14744408D01*
X4570235Y14525034D01*
X4957511Y14448000D01*
X5482489Y14448000D01*
X5869765Y14525034D01*
X6198081Y14744408D01*
X6417455Y15072724D01*
X6494489Y15460000D01*
X6417455Y15847276D01*
X6198081Y16175592D01*
X5869765Y16394966D01*
X5482489Y16472000D01*
X4957511Y16472000D01*
X4570235Y16394966D01*
X4241919Y16175592D01*
X4022545Y15847276D01*
X3945511Y15460000D01*
X-2980000Y15460000D01*
X-2980000Y15667503D01*
X1451502Y15667503D01*
X1493817Y15510000D01*
X2630000Y15510000D01*
X2630000Y16472000D01*
X2730000Y16472000D01*
X2730000Y15510000D01*
X3866183Y15510000D01*
X3908498Y15667503D01*
X3872101Y15801082D01*
X3668948Y16140237D01*
X3351470Y16375832D01*
X2968000Y16472000D01*
X2730000Y16472000D01*
X2630000Y16472000D01*
X2392000Y16472000D01*
X2008530Y16375832D01*
X1691052Y16140237D01*
X1487899Y15801082D01*
X1451502Y15667503D01*
X-2980000Y15667503D01*
X-2980000Y18000000D01*
X1405511Y18000000D01*
X1482545Y17612724D01*
X1701919Y17284408D01*
X2030235Y17065034D01*
X2417511Y16988000D01*
X2942489Y16988000D01*
X3329765Y17065034D01*
X3658081Y17284408D01*
X3877455Y17612724D01*
X3950000Y17977432D01*
X4022545Y17612724D01*
X4241919Y17284408D01*
X4570235Y17065034D01*
X4957511Y16988000D01*
X5482489Y16988000D01*
X5869765Y17065034D01*
X6198081Y17284408D01*
X6417455Y17612724D01*
X6494489Y18000000D01*
X6417455Y18387276D01*
X6198081Y18715592D01*
X5869765Y18934966D01*
X5482489Y19012000D01*
X4957511Y19012000D01*
X4570235Y18934966D01*
X4241919Y18715592D01*
X4022545Y18387276D01*
X3950000Y18022568D01*
X3877455Y18387276D01*
X3658081Y18715592D01*
X3329765Y18934966D01*
X2942489Y19012000D01*
X2417511Y19012000D01*
X2030235Y18934966D01*
X1701919Y18715592D01*
X1482545Y18387276D01*
X1405511Y18000000D01*
X-2980000Y18000000D01*
X-2980000Y20540000D01*
X1405511Y20540000D01*
X1482545Y20152724D01*
X1701919Y19824408D01*
X2030235Y19605034D01*
X2417511Y19528000D01*
X2942489Y19528000D01*
X3329765Y19605034D01*
X3658081Y19824408D01*
X3877455Y20152724D01*
X3950000Y20517432D01*
X4022545Y20152724D01*
X4241919Y19824408D01*
X4570235Y19605034D01*
X4957511Y19528000D01*
X5482489Y19528000D01*
X5869765Y19605034D01*
X6198081Y19824408D01*
X6417455Y20152724D01*
X6494489Y20540000D01*
X6417455Y20927276D01*
X6198081Y21255592D01*
X5869765Y21474966D01*
X5482489Y21552000D01*
X4957511Y21552000D01*
X4570235Y21474966D01*
X4241919Y21255592D01*
X4022545Y20927276D01*
X3950000Y20562568D01*
X3877455Y20927276D01*
X3658081Y21255592D01*
X3329765Y21474966D01*
X2942489Y21552000D01*
X2417511Y21552000D01*
X2030235Y21474966D01*
X1701919Y21255592D01*
X1482545Y20927276D01*
X1405511Y20540000D01*
X-2980000Y20540000D01*
X-2980000Y23080000D01*
X1405511Y23080000D01*
X1482545Y22692724D01*
X1701919Y22364408D01*
X2030235Y22145034D01*
X2417511Y22068000D01*
X2942489Y22068000D01*
X3329765Y22145034D01*
X3658081Y22364408D01*
X3877455Y22692724D01*
X3950000Y23057432D01*
X4022545Y22692724D01*
X4241919Y22364408D01*
X4570235Y22145034D01*
X4957511Y22068000D01*
X5482489Y22068000D01*
X5869765Y22145034D01*
X6198081Y22364408D01*
X6417455Y22692724D01*
X6494489Y23080000D01*
X6417455Y23467276D01*
X6198081Y23795592D01*
X5869765Y24014966D01*
X5482489Y24092000D01*
X4957511Y24092000D01*
X4570235Y24014966D01*
X4241919Y23795592D01*
X4022545Y23467276D01*
X3950000Y23102568D01*
X3877455Y23467276D01*
X3658081Y23795592D01*
X3329765Y24014966D01*
X2942489Y24092000D01*
X2417511Y24092000D01*
X2030235Y24014966D01*
X1701919Y23795592D01*
X1482545Y23467276D01*
X1405511Y23080000D01*
X-2980000Y23080000D01*
X-2980000Y25620000D01*
X1405511Y25620000D01*
X1482545Y25232724D01*
X1701919Y24904408D01*
X2030235Y24685034D01*
X2417511Y24608000D01*
X2942489Y24608000D01*
X3329765Y24685034D01*
X3658081Y24904408D01*
X3877455Y25232724D01*
X3950000Y25597432D01*
X4022545Y25232724D01*
X4241919Y24904408D01*
X4570235Y24685034D01*
X4957511Y24608000D01*
X5482489Y24608000D01*
X5869765Y24685034D01*
X6198081Y24904408D01*
X6417455Y25232724D01*
X6494489Y25620000D01*
X6417455Y26007276D01*
X6198081Y26335592D01*
X5869765Y26554966D01*
X5482489Y26632000D01*
X4957511Y26632000D01*
X4570235Y26554966D01*
X4241919Y26335592D01*
X4022545Y26007276D01*
X3950000Y25642568D01*
X3877455Y26007276D01*
X3658081Y26335592D01*
X3329765Y26554966D01*
X2942489Y26632000D01*
X2417511Y26632000D01*
X2030235Y26554966D01*
X1701919Y26335592D01*
X1482545Y26007276D01*
X1405511Y25620000D01*
X-2980000Y25620000D01*
X-2980000Y27952497D01*
X1451502Y27952497D01*
X1487899Y27818918D01*
X1691052Y27479763D01*
X2008530Y27244168D01*
X2392000Y27148000D01*
X2630000Y27148000D01*
X2630000Y28110000D01*
X2730000Y28110000D01*
X2730000Y27148000D01*
X2968000Y27148000D01*
X3351470Y27244168D01*
X3668948Y27479763D01*
X3872101Y27818918D01*
X3908498Y27952497D01*
X3866183Y28110000D01*
X2730000Y28110000D01*
X2630000Y28110000D01*
X1493817Y28110000D01*
X1451502Y27952497D01*
X-2980000Y27952497D01*
X-2980000Y28367503D01*
X1451502Y28367503D01*
X1493817Y28210000D01*
X2630000Y28210000D01*
X2630000Y29172000D01*
X2730000Y29172000D01*
X2730000Y28210000D01*
X3866183Y28210000D01*
X3908498Y28367503D01*
X3872101Y28501082D01*
X3668948Y28840237D01*
X3351470Y29075832D01*
X2968000Y29172000D01*
X2730000Y29172000D01*
X2630000Y29172000D01*
X2392000Y29172000D01*
X2008530Y29075832D01*
X1691052Y28840237D01*
X1487899Y28501082D01*
X1451502Y28367503D01*
X-2980000Y28367503D01*
X-2980000Y30492497D01*
X1451502Y30492497D01*
X1487899Y30358918D01*
X1691052Y30019763D01*
X2008530Y29784168D01*
X2392000Y29688000D01*
X2630000Y29688000D01*
X2630000Y30650000D01*
X2730000Y30650000D01*
X2730000Y29688000D01*
X2968000Y29688000D01*
X3351470Y29784168D01*
X3668948Y30019763D01*
X3872101Y30358918D01*
X3908498Y30492497D01*
X3866183Y30650000D01*
X2730000Y30650000D01*
X2630000Y30650000D01*
X1493817Y30650000D01*
X1451502Y30492497D01*
X-2980000Y30492497D01*
X-2980000Y30700000D01*
X3945511Y30700000D01*
X4022545Y30312724D01*
X4241919Y29984408D01*
X4570235Y29765034D01*
X4957511Y29688000D01*
X5482489Y29688000D01*
X5869765Y29765034D01*
X6198081Y29984408D01*
X6408953Y30300000D01*
X7094314Y30300000D01*
X7980000Y29414314D01*
X7980000Y23328397D01*
X7880000Y23428572D01*
X7880000Y27679995D01*
X7880001Y27680000D01*
X7849552Y27833073D01*
X7820096Y27877157D01*
X7762843Y27962843D01*
X7762840Y27962845D01*
X7282843Y28442843D01*
X7153074Y28529552D01*
X7000000Y28560000D01*
X6408953Y28560000D01*
X6198081Y28875592D01*
X5869765Y29094966D01*
X5482489Y29172000D01*
X4957511Y29172000D01*
X4570235Y29094966D01*
X4241919Y28875592D01*
X4022545Y28547276D01*
X3945511Y28160000D01*
X4022545Y27772724D01*
X4241919Y27444408D01*
X4570235Y27225034D01*
X4957511Y27148000D01*
X5482489Y27148000D01*
X5869765Y27225034D01*
X6198081Y27444408D01*
X6408953Y27760000D01*
X6834314Y27760000D01*
X7080000Y27514315D01*
X7080000Y23428487D01*
X6971641Y23320317D01*
X6880104Y23099871D01*
X6879896Y22861176D01*
X6971048Y22640571D01*
X7139683Y22471641D01*
X7360129Y22380104D01*
X7598824Y22379896D01*
X7819429Y22471048D01*
X7980000Y22631339D01*
X7980000Y22228487D01*
X7871641Y22120317D01*
X7780104Y21899871D01*
X7779896Y21661176D01*
X7871048Y21440571D01*
X8039683Y21271641D01*
X8260129Y21180104D01*
X8498824Y21179896D01*
X8719429Y21271048D01*
X8888359Y21439683D01*
X8979896Y21660129D01*
X8980104Y21898824D01*
X8888952Y22119429D01*
X8780000Y22228572D01*
X8780000Y29580000D01*
X8749552Y29733073D01*
X8749552Y29733074D01*
X8662843Y29862843D01*
X7542843Y30982843D01*
X7413074Y31069552D01*
X7260000Y31100000D01*
X6408953Y31100000D01*
X6198081Y31415592D01*
X5869765Y31634966D01*
X5482489Y31712000D01*
X4957511Y31712000D01*
X4570235Y31634966D01*
X4241919Y31415592D01*
X4022545Y31087276D01*
X3945511Y30700000D01*
X-2980000Y30700000D01*
X-2980000Y30907503D01*
X1451502Y30907503D01*
X1493817Y30750000D01*
X2630000Y30750000D01*
X2630000Y31712000D01*
X2730000Y31712000D01*
X2730000Y30750000D01*
X3866183Y30750000D01*
X3908498Y30907503D01*
X3872101Y31041082D01*
X3668948Y31380237D01*
X3351470Y31615832D01*
X2968000Y31712000D01*
X2730000Y31712000D01*
X2630000Y31712000D01*
X2392000Y31712000D01*
X2008530Y31615832D01*
X1691052Y31380237D01*
X1487899Y31041082D01*
X1451502Y30907503D01*
X-2980000Y30907503D01*
X-2980000Y49100000D01*
X-200000Y49100000D01*
X-200000Y33800000D01*
X-169552Y33646926D01*
X-82843Y33517157D01*
X477155Y32957160D01*
X477157Y32957157D01*
X606927Y32870448D01*
X760000Y32839999D01*
X760005Y32840000D01*
X1491047Y32840000D01*
X1701919Y32524408D01*
X2030235Y32305034D01*
X2417511Y32228000D01*
X2942489Y32228000D01*
X3329765Y32305034D01*
X3658081Y32524408D01*
X3877455Y32852724D01*
X3950000Y33217432D01*
X4022545Y32852724D01*
X4241919Y32524408D01*
X4570235Y32305034D01*
X4957511Y32228000D01*
X5482489Y32228000D01*
X5869765Y32305034D01*
X6198081Y32524408D01*
X6408953Y32840000D01*
X8554314Y32840000D01*
X8980000Y32414314D01*
X8980000Y24880000D01*
X9010448Y24726926D01*
X9080037Y24622779D01*
X9079896Y24461176D01*
X9171048Y24240571D01*
X9339683Y24071641D01*
X9560129Y23980104D01*
X9798824Y23979896D01*
X10019429Y24071048D01*
X10188359Y24239683D01*
X10279896Y24460129D01*
X10280104Y24698824D01*
X10188952Y24919429D01*
X10020317Y25088359D01*
X9799871Y25179896D01*
X9780000Y25179913D01*
X9780000Y32580000D01*
X9749552Y32733073D01*
X9749552Y32733074D01*
X9662843Y32862843D01*
X9002843Y33522843D01*
X8873074Y33609552D01*
X8720000Y33640000D01*
X6408953Y33640000D01*
X6198081Y33955592D01*
X5869765Y34174966D01*
X5482489Y34252000D01*
X4957511Y34252000D01*
X4570235Y34174966D01*
X4241919Y33955592D01*
X4022545Y33627276D01*
X3950000Y33262568D01*
X3877455Y33627276D01*
X3658081Y33955592D01*
X3329765Y34174966D01*
X2942489Y34252000D01*
X2417511Y34252000D01*
X2030235Y34174966D01*
X1701919Y33955592D01*
X1491047Y33640000D01*
X925685Y33640000D01*
X600000Y33965686D01*
X600000Y35780000D01*
X1405511Y35780000D01*
X1482545Y35392724D01*
X1701919Y35064408D01*
X2030235Y34845034D01*
X2417511Y34768000D01*
X2942489Y34768000D01*
X3329765Y34845034D01*
X3658081Y35064408D01*
X3877455Y35392724D01*
X3950000Y35757432D01*
X4022545Y35392724D01*
X4241919Y35064408D01*
X4570235Y34845034D01*
X4957511Y34768000D01*
X5482489Y34768000D01*
X5869765Y34845034D01*
X6198081Y35064408D01*
X6408953Y35380000D01*
X8514314Y35380000D01*
X10480000Y33414314D01*
X10480000Y24828487D01*
X10371641Y24720317D01*
X10280104Y24499871D01*
X10279896Y24261176D01*
X10371048Y24040571D01*
X10539683Y23871641D01*
X10760129Y23780104D01*
X10998824Y23779896D01*
X11219429Y23871048D01*
X11388359Y24039683D01*
X11479896Y24260129D01*
X11480104Y24498824D01*
X11388952Y24719429D01*
X11280000Y24828572D01*
X11280000Y33579995D01*
X11280001Y33580000D01*
X11249552Y33733074D01*
X11162843Y33862843D01*
X8962843Y36062843D01*
X8833074Y36149552D01*
X8680000Y36180000D01*
X6408953Y36180000D01*
X6198081Y36495592D01*
X6041824Y36600000D01*
X7700000Y36600000D01*
X7853074Y36630448D01*
X7982843Y36717157D01*
X9892843Y38627157D01*
X9979552Y38756926D01*
X10010000Y38910000D01*
X10010000Y46760181D01*
X10182964Y46586915D01*
X10440150Y46480122D01*
X10718628Y46479879D01*
X10976000Y46586223D01*
X11173085Y46782964D01*
X11279878Y47040150D01*
X11280121Y47318628D01*
X11180000Y47560939D01*
X11180000Y59699617D01*
X11279878Y59940150D01*
X11280121Y60218628D01*
X11173777Y60476000D01*
X10977036Y60673085D01*
X10719850Y60779878D01*
X10441372Y60780121D01*
X10184000Y60673777D01*
X9986915Y60477036D01*
X9880122Y60219850D01*
X9879879Y59941372D01*
X9980000Y59699061D01*
X9980000Y52088624D01*
X9950317Y52118359D01*
X9729871Y52209896D01*
X9491176Y52210104D01*
X9270571Y52118952D01*
X9101641Y51950317D01*
X9077780Y51892853D01*
X9008952Y52059429D01*
X8840317Y52228359D01*
X8619871Y52319896D01*
X8381176Y52320104D01*
X8160571Y52228952D01*
X7991641Y52060317D01*
X7900104Y51839871D01*
X7899896Y51601176D01*
X7991048Y51380571D01*
X8110000Y51261411D01*
X8110000Y40115686D01*
X6714314Y38720000D01*
X6408953Y38720000D01*
X6198081Y39035592D01*
X5869765Y39254966D01*
X5482489Y39332000D01*
X4957511Y39332000D01*
X4570235Y39254966D01*
X4241919Y39035592D01*
X4022545Y38707276D01*
X3945511Y38320000D01*
X4022545Y37932724D01*
X4241919Y37604408D01*
X4547837Y37400000D01*
X3900005Y37400000D01*
X3900000Y37400001D01*
X3746927Y37369552D01*
X3617157Y37282843D01*
X3617155Y37282840D01*
X3095816Y36761501D01*
X2942489Y36792000D01*
X2417511Y36792000D01*
X2030235Y36714966D01*
X1701919Y36495592D01*
X1482545Y36167276D01*
X1405511Y35780000D01*
X600000Y35780000D01*
X600000Y38112497D01*
X1451502Y38112497D01*
X1487899Y37978918D01*
X1691052Y37639763D01*
X2008530Y37404168D01*
X2392000Y37308000D01*
X2630000Y37308000D01*
X2630000Y38270000D01*
X2730000Y38270000D01*
X2730000Y37308000D01*
X2968000Y37308000D01*
X3351470Y37404168D01*
X3668948Y37639763D01*
X3872101Y37978918D01*
X3908498Y38112497D01*
X3866183Y38270000D01*
X2730000Y38270000D01*
X2630000Y38270000D01*
X1493817Y38270000D01*
X1451502Y38112497D01*
X600000Y38112497D01*
X600000Y38527503D01*
X1451502Y38527503D01*
X1493817Y38370000D01*
X2630000Y38370000D01*
X2630000Y39332000D01*
X2730000Y39332000D01*
X2730000Y38370000D01*
X3866183Y38370000D01*
X3908498Y38527503D01*
X3872101Y38661082D01*
X3668948Y39000237D01*
X3351470Y39235832D01*
X2968000Y39332000D01*
X2730000Y39332000D01*
X2630000Y39332000D01*
X2392000Y39332000D01*
X2008530Y39235832D01*
X1691052Y39000237D01*
X1487899Y38661082D01*
X1451502Y38527503D01*
X600000Y38527503D01*
X600000Y40652497D01*
X1451502Y40652497D01*
X1487899Y40518918D01*
X1691052Y40179763D01*
X2008530Y39944168D01*
X2392000Y39848000D01*
X2630000Y39848000D01*
X2630000Y40810000D01*
X2730000Y40810000D01*
X2730000Y39848000D01*
X2968000Y39848000D01*
X3351470Y39944168D01*
X3668948Y40179763D01*
X3872101Y40518918D01*
X3908498Y40652497D01*
X3866183Y40810000D01*
X2730000Y40810000D01*
X2630000Y40810000D01*
X1493817Y40810000D01*
X1451502Y40652497D01*
X600000Y40652497D01*
X600000Y40860000D01*
X3945511Y40860000D01*
X4022545Y40472724D01*
X4241919Y40144408D01*
X4570235Y39925034D01*
X4957511Y39848000D01*
X5482489Y39848000D01*
X5869765Y39925034D01*
X6198081Y40144408D01*
X6417455Y40472724D01*
X6437521Y40573601D01*
X6442843Y40577157D01*
X7582840Y41717155D01*
X7582843Y41717157D01*
X7669552Y41846927D01*
X7700000Y42000000D01*
X7700000Y46851513D01*
X7808359Y46959683D01*
X7899896Y47180129D01*
X7900104Y47418824D01*
X7808952Y47639429D01*
X7640317Y47808359D01*
X7419871Y47899896D01*
X7181176Y47900104D01*
X6960571Y47808952D01*
X6791641Y47640317D01*
X6700104Y47419871D01*
X6699896Y47181176D01*
X6791048Y46960571D01*
X6900000Y46851428D01*
X6900000Y42165685D01*
X6242872Y41508558D01*
X6198081Y41575592D01*
X5869765Y41794966D01*
X5482489Y41872000D01*
X4957511Y41872000D01*
X4570235Y41794966D01*
X4241919Y41575592D01*
X4022545Y41247276D01*
X3945511Y40860000D01*
X600000Y40860000D01*
X600000Y41067503D01*
X1451502Y41067503D01*
X1493817Y40910000D01*
X2630000Y40910000D01*
X2630000Y41872000D01*
X2730000Y41872000D01*
X2730000Y40910000D01*
X3866183Y40910000D01*
X3908498Y41067503D01*
X3872101Y41201082D01*
X3668948Y41540237D01*
X3351470Y41775832D01*
X2968000Y41872000D01*
X2730000Y41872000D01*
X2630000Y41872000D01*
X2392000Y41872000D01*
X2008530Y41775832D01*
X1691052Y41540237D01*
X1487899Y41201082D01*
X1451502Y41067503D01*
X600000Y41067503D01*
X600000Y43400000D01*
X1405511Y43400000D01*
X1482545Y43012724D01*
X1701919Y42684408D01*
X2030235Y42465034D01*
X2417511Y42388000D01*
X2942489Y42388000D01*
X3329765Y42465034D01*
X3658081Y42684408D01*
X3877455Y43012724D01*
X3950000Y43377432D01*
X4022545Y43012724D01*
X4241919Y42684408D01*
X4570235Y42465034D01*
X4957511Y42388000D01*
X5482489Y42388000D01*
X5869765Y42465034D01*
X6198081Y42684408D01*
X6417455Y43012724D01*
X6494489Y43400000D01*
X6417455Y43787276D01*
X6198081Y44115592D01*
X5869765Y44334966D01*
X5482489Y44412000D01*
X4957511Y44412000D01*
X4570235Y44334966D01*
X4241919Y44115592D01*
X4022545Y43787276D01*
X3950000Y43422568D01*
X3877455Y43787276D01*
X3658081Y44115592D01*
X3329765Y44334966D01*
X2942489Y44412000D01*
X2417511Y44412000D01*
X2030235Y44334966D01*
X1701919Y44115592D01*
X1482545Y43787276D01*
X1405511Y43400000D01*
X600000Y43400000D01*
X600000Y45732497D01*
X1451502Y45732497D01*
X1487899Y45598918D01*
X1691052Y45259763D01*
X2008530Y45024168D01*
X2392000Y44928000D01*
X2630000Y44928000D01*
X2630000Y45890000D01*
X2730000Y45890000D01*
X2730000Y44928000D01*
X2968000Y44928000D01*
X3351470Y45024168D01*
X3668948Y45259763D01*
X3872101Y45598918D01*
X3908498Y45732497D01*
X3866183Y45890000D01*
X2730000Y45890000D01*
X2630000Y45890000D01*
X1493817Y45890000D01*
X1451502Y45732497D01*
X600000Y45732497D01*
X600000Y45940000D01*
X3945511Y45940000D01*
X4022545Y45552724D01*
X4241919Y45224408D01*
X4570235Y45005034D01*
X4957511Y44928000D01*
X5482489Y44928000D01*
X5869765Y45005034D01*
X6198081Y45224408D01*
X6417455Y45552724D01*
X6494489Y45940000D01*
X6417455Y46327276D01*
X6198081Y46655592D01*
X5869765Y46874966D01*
X5482489Y46952000D01*
X4957511Y46952000D01*
X4570235Y46874966D01*
X4241919Y46655592D01*
X4022545Y46327276D01*
X3945511Y45940000D01*
X600000Y45940000D01*
X600000Y46147503D01*
X1451502Y46147503D01*
X1493817Y45990000D01*
X2630000Y45990000D01*
X2630000Y46952000D01*
X2730000Y46952000D01*
X2730000Y45990000D01*
X3866183Y45990000D01*
X3908498Y46147503D01*
X3872101Y46281082D01*
X3668948Y46620237D01*
X3351470Y46855832D01*
X2968000Y46952000D01*
X2730000Y46952000D01*
X2630000Y46952000D01*
X2392000Y46952000D01*
X2008530Y46855832D01*
X1691052Y46620237D01*
X1487899Y46281082D01*
X1451502Y46147503D01*
X600000Y46147503D01*
X600000Y48272497D01*
X1451502Y48272497D01*
X1487899Y48138918D01*
X1691052Y47799763D01*
X2008530Y47564168D01*
X2392000Y47468000D01*
X2630000Y47468000D01*
X2630000Y48430000D01*
X2730000Y48430000D01*
X2730000Y47468000D01*
X2968000Y47468000D01*
X3351470Y47564168D01*
X3668948Y47799763D01*
X3872101Y48138918D01*
X3908498Y48272497D01*
X3866183Y48430000D01*
X2730000Y48430000D01*
X2630000Y48430000D01*
X1493817Y48430000D01*
X1451502Y48272497D01*
X600000Y48272497D01*
X600000Y48934314D01*
X965686Y49300000D01*
X1879391Y49300000D01*
X1691052Y49160237D01*
X1487899Y48821082D01*
X1451502Y48687503D01*
X1493817Y48530000D01*
X2630000Y48530000D01*
X2630000Y48550000D01*
X2730000Y48550000D01*
X2730000Y48530000D01*
X3866183Y48530000D01*
X3908498Y48687503D01*
X3872101Y48821082D01*
X3668948Y49160237D01*
X3480609Y49300000D01*
X4398176Y49300000D01*
X4241919Y49195592D01*
X4022545Y48867276D01*
X3945511Y48480000D01*
X4022545Y48092724D01*
X4241919Y47764408D01*
X4570235Y47545034D01*
X4957511Y47468000D01*
X5482489Y47468000D01*
X5869765Y47545034D01*
X6198081Y47764408D01*
X6417455Y48092724D01*
X6494489Y48480000D01*
X6417455Y48867276D01*
X6198081Y49195592D01*
X6041824Y49300000D01*
X6400000Y49300000D01*
X6553074Y49330448D01*
X6682843Y49417157D01*
X7482843Y50217157D01*
X7569552Y50346926D01*
X7600001Y50500000D01*
X7600000Y50500005D01*
X7600000Y51051513D01*
X7708359Y51159683D01*
X7799896Y51380129D01*
X7800104Y51618824D01*
X7708952Y51839429D01*
X7540317Y52008359D01*
X7319871Y52099896D01*
X7081176Y52100104D01*
X6860571Y52008952D01*
X6691641Y51840317D01*
X6600104Y51619871D01*
X6599896Y51381176D01*
X6691048Y51160571D01*
X6800000Y51051428D01*
X6800000Y50665686D01*
X6234314Y50100000D01*
X5892163Y50100000D01*
X6198081Y50304408D01*
X6417455Y50632724D01*
X6494489Y51020000D01*
X6417455Y51407276D01*
X6198081Y51735592D01*
X5869765Y51954966D01*
X5482489Y52032000D01*
X4957511Y52032000D01*
X4570235Y51954966D01*
X4241919Y51735592D01*
X4022545Y51407276D01*
X3950000Y51042568D01*
X3877455Y51407276D01*
X3658081Y51735592D01*
X3329765Y51954966D01*
X2942489Y52032000D01*
X2417511Y52032000D01*
X2030235Y51954966D01*
X1701919Y51735592D01*
X1482545Y51407276D01*
X1405511Y51020000D01*
X1482545Y50632724D01*
X1701919Y50304408D01*
X2007837Y50100000D01*
X800000Y50100000D01*
X646926Y50069552D01*
X517157Y49982843D01*
X-82843Y49382843D01*
X-169552Y49253074D01*
X-169552Y49253073D01*
X-200000Y49100000D01*
X-2980000Y49100000D01*
X-2980000Y53352497D01*
X1451502Y53352497D01*
X1487899Y53218918D01*
X1691052Y52879763D01*
X2008530Y52644168D01*
X2392000Y52548000D01*
X2630000Y52548000D01*
X2630000Y53510000D01*
X2730000Y53510000D01*
X2730000Y52548000D01*
X2968000Y52548000D01*
X3351470Y52644168D01*
X3668948Y52879763D01*
X3872101Y53218918D01*
X3908498Y53352497D01*
X3866183Y53510000D01*
X2730000Y53510000D01*
X2630000Y53510000D01*
X1493817Y53510000D01*
X1451502Y53352497D01*
X-2980000Y53352497D01*
X-2980000Y53560000D01*
X3945511Y53560000D01*
X4022545Y53172724D01*
X4241919Y52844408D01*
X4570235Y52625034D01*
X4957511Y52548000D01*
X5482489Y52548000D01*
X5869765Y52625034D01*
X6198081Y52844408D01*
X6417455Y53172724D01*
X6494489Y53560000D01*
X6417455Y53947276D01*
X6198081Y54275592D01*
X5869765Y54494966D01*
X5482489Y54572000D01*
X4957511Y54572000D01*
X4570235Y54494966D01*
X4241919Y54275592D01*
X4022545Y53947276D01*
X3945511Y53560000D01*
X-2980000Y53560000D01*
X-2980000Y53767503D01*
X1451502Y53767503D01*
X1493817Y53610000D01*
X2630000Y53610000D01*
X2630000Y54572000D01*
X2730000Y54572000D01*
X2730000Y53610000D01*
X3866183Y53610000D01*
X3908498Y53767503D01*
X3872101Y53901082D01*
X3668948Y54240237D01*
X3351470Y54475832D01*
X2968000Y54572000D01*
X2730000Y54572000D01*
X2630000Y54572000D01*
X2392000Y54572000D01*
X2008530Y54475832D01*
X1691052Y54240237D01*
X1487899Y53901082D01*
X1451502Y53767503D01*
X-2980000Y53767503D01*
X-2980000Y55892497D01*
X1451502Y55892497D01*
X1487899Y55758918D01*
X1691052Y55419763D01*
X2008530Y55184168D01*
X2392000Y55088000D01*
X2630000Y55088000D01*
X2630000Y56050000D01*
X2730000Y56050000D01*
X2730000Y55088000D01*
X2968000Y55088000D01*
X3351470Y55184168D01*
X3668948Y55419763D01*
X3872101Y55758918D01*
X3908498Y55892497D01*
X3866183Y56050000D01*
X2730000Y56050000D01*
X2630000Y56050000D01*
X1493817Y56050000D01*
X1451502Y55892497D01*
X-2980000Y55892497D01*
X-2980000Y56100000D01*
X3945511Y56100000D01*
X4022545Y55712724D01*
X4241919Y55384408D01*
X4570235Y55165034D01*
X4957511Y55088000D01*
X5482489Y55088000D01*
X5869765Y55165034D01*
X6198081Y55384408D01*
X6417455Y55712724D01*
X6494489Y56100000D01*
X6417455Y56487276D01*
X6198081Y56815592D01*
X5869765Y57034966D01*
X5482489Y57112000D01*
X4957511Y57112000D01*
X4570235Y57034966D01*
X4241919Y56815592D01*
X4022545Y56487276D01*
X3945511Y56100000D01*
X-2980000Y56100000D01*
X-2980000Y56307503D01*
X1451502Y56307503D01*
X1493817Y56150000D01*
X2630000Y56150000D01*
X2630000Y57112000D01*
X2730000Y57112000D01*
X2730000Y56150000D01*
X3866183Y56150000D01*
X3908498Y56307503D01*
X3872101Y56441082D01*
X3668948Y56780237D01*
X3351470Y57015832D01*
X2968000Y57112000D01*
X2730000Y57112000D01*
X2630000Y57112000D01*
X2392000Y57112000D01*
X2008530Y57015832D01*
X1691052Y56780237D01*
X1487899Y56441082D01*
X1451502Y56307503D01*
X-2980000Y56307503D01*
X-2980000Y58432497D01*
X1451502Y58432497D01*
X1487899Y58298918D01*
X1691052Y57959763D01*
X2008530Y57724168D01*
X2392000Y57628000D01*
X2630000Y57628000D01*
X2630000Y58590000D01*
X2730000Y58590000D01*
X2730000Y57628000D01*
X2968000Y57628000D01*
X3351470Y57724168D01*
X3668948Y57959763D01*
X3872101Y58298918D01*
X3908498Y58432497D01*
X3866183Y58590000D01*
X2730000Y58590000D01*
X2630000Y58590000D01*
X1493817Y58590000D01*
X1451502Y58432497D01*
X-2980000Y58432497D01*
X-2980000Y58640000D01*
X3945511Y58640000D01*
X4022545Y58252724D01*
X4241919Y57924408D01*
X4570235Y57705034D01*
X4957511Y57628000D01*
X5482489Y57628000D01*
X5869765Y57705034D01*
X6198081Y57924408D01*
X6417455Y58252724D01*
X6494489Y58640000D01*
X6417455Y59027276D01*
X6198081Y59355592D01*
X5869765Y59574966D01*
X5482489Y59652000D01*
X4957511Y59652000D01*
X4570235Y59574966D01*
X4241919Y59355592D01*
X4022545Y59027276D01*
X3945511Y58640000D01*
X-2980000Y58640000D01*
X-2980000Y58847503D01*
X1451502Y58847503D01*
X1493817Y58690000D01*
X2630000Y58690000D01*
X2630000Y59652000D01*
X2730000Y59652000D01*
X2730000Y58690000D01*
X3866183Y58690000D01*
X3908498Y58847503D01*
X3872101Y58981082D01*
X3668948Y59320237D01*
X3351470Y59555832D01*
X2968000Y59652000D01*
X2730000Y59652000D01*
X2630000Y59652000D01*
X2392000Y59652000D01*
X2008530Y59555832D01*
X1691052Y59320237D01*
X1487899Y58981082D01*
X1451502Y58847503D01*
X-2980000Y58847503D01*
X-2980000Y61942000D01*
X1425103Y61942000D01*
X1425103Y60418000D01*
X1442535Y60325356D01*
X1497288Y60240268D01*
X1580831Y60183185D01*
X1680000Y60163103D01*
X3680000Y60163103D01*
X3772644Y60180535D01*
X3857732Y60235288D01*
X3914815Y60318831D01*
X3934897Y60418000D01*
X3934897Y61180000D01*
X3945511Y61180000D01*
X4022545Y60792724D01*
X4241919Y60464408D01*
X4570235Y60245034D01*
X4957511Y60168000D01*
X5482489Y60168000D01*
X5869765Y60245034D01*
X6198081Y60464408D01*
X6417455Y60792724D01*
X6494489Y61180000D01*
X6417455Y61567276D01*
X6198081Y61895592D01*
X5869765Y62114966D01*
X5482489Y62192000D01*
X4957511Y62192000D01*
X4570235Y62114966D01*
X4241919Y61895592D01*
X4022545Y61567276D01*
X3945511Y61180000D01*
X3934897Y61180000D01*
X3934897Y61942000D01*
X3917465Y62034644D01*
X3862712Y62119732D01*
X3779169Y62176815D01*
X3680000Y62196897D01*
X1680000Y62196897D01*
X1587356Y62179465D01*
X1502268Y62124712D01*
X1445185Y62041169D01*
X1425103Y61942000D01*
X-2980000Y61942000D01*
X-2980000Y70863999D01*
X-1565290Y70863999D01*
X-1326837Y70588700D01*
X-494415Y70226430D01*
X413278Y70210291D01*
X485182Y70238588D01*
X3679772Y70238588D01*
X3880306Y69753257D01*
X4251304Y69381611D01*
X4736284Y69180230D01*
X5261412Y69179772D01*
X5746743Y69380306D01*
X6118389Y69751304D01*
X6319770Y70236284D01*
X6320228Y70761412D01*
X6119694Y71246743D01*
X5748696Y71618389D01*
X5263716Y71819770D01*
X4738588Y71820228D01*
X4253257Y71619694D01*
X3881611Y71248696D01*
X3680230Y70763716D01*
X3679772Y70238588D01*
X485182Y70238588D01*
X1258053Y70542740D01*
X1326837Y70588700D01*
X1565290Y70863999D01*
X0Y72429289D01*
X-1565290Y70863999D01*
X-2980000Y70863999D01*
X-2980000Y72086722D01*
X-2289709Y72086722D01*
X-1957260Y71241947D01*
X-1911300Y71173163D01*
X-1636001Y70934710D01*
X-70711Y72500000D01*
X70711Y72500000D01*
X1636001Y70934710D01*
X1911300Y71173163D01*
X2273570Y72005585D01*
X2289709Y72913278D01*
X1957260Y73758053D01*
X1911300Y73826837D01*
X1636001Y74065290D01*
X70711Y72500000D01*
X-70711Y72500000D01*
X-1636001Y74065290D01*
X-1911300Y73826837D01*
X-2273570Y72994415D01*
X-2289709Y72086722D01*
X-2980000Y72086722D01*
X-2980000Y74136001D01*
X-1565290Y74136001D01*
X0Y72570711D01*
X1565290Y74136001D01*
X1326837Y74411300D01*
X494415Y74773570D01*
X-413278Y74789709D01*
X-1258053Y74457260D01*
X-1326837Y74411300D01*
X-1565290Y74136001D01*
X-2980000Y74136001D01*
X-2980000Y75950000D01*
X13920000Y75950000D01*
X13920000Y59329871D01*
X13920000Y59329871D01*
G37*
X13920000Y59329871D02*
X13777036Y59473085D01*
X13519850Y59579878D01*
X13241372Y59580121D01*
X12984000Y59473777D01*
X12786915Y59277036D01*
X12686371Y59034899D01*
X12655736Y59004264D01*
X12525672Y58809610D01*
X12480000Y58580000D01*
X12480000Y20860383D01*
X12380122Y20619850D01*
X12379879Y20341372D01*
X12486223Y20084000D01*
X12682964Y19886915D01*
X12940150Y19780122D01*
X13218628Y19779879D01*
X13476000Y19886223D01*
X13673085Y20082964D01*
X13779878Y20340150D01*
X13780121Y20618628D01*
X13680000Y20860939D01*
X13680000Y58246557D01*
X13776000Y58286223D01*
X13920000Y58429972D01*
X13920000Y-2950000D01*
X-2980000Y-2950000D01*
X-2980000Y-1636001D01*
X-1565290Y-1636001D01*
X-1326837Y-1911300D01*
X-494415Y-2273570D01*
X413278Y-2289709D01*
X1258053Y-1957260D01*
X1326837Y-1911300D01*
X1565290Y-1636001D01*
X0Y-70711D01*
X-1565290Y-1636001D01*
X-2980000Y-1636001D01*
X-2980000Y-413278D01*
X-2289709Y-413278D01*
X-1957260Y-1258053D01*
X-1911300Y-1326837D01*
X-1636001Y-1565290D01*
X-70711Y0D01*
X70711Y0D01*
X1636001Y-1565290D01*
X1911300Y-1326837D01*
X2273570Y-494415D01*
X2289709Y413278D01*
X1964921Y1238588D01*
X2679772Y1238588D01*
X2880306Y753257D01*
X3251304Y381611D01*
X3736284Y180230D01*
X4261412Y179772D01*
X4746743Y380306D01*
X5118389Y751304D01*
X5319770Y1236284D01*
X5320228Y1761412D01*
X5119694Y2246743D01*
X4748696Y2618389D01*
X4263716Y2819770D01*
X3738588Y2820228D01*
X3253257Y2619694D01*
X2881611Y2248696D01*
X2680230Y1763716D01*
X2679772Y1238588D01*
X1964921Y1238588D01*
X1957260Y1258053D01*
X1911300Y1326837D01*
X1636001Y1565290D01*
X70711Y0D01*
X-70711Y0D01*
X-1636001Y1565290D01*
X-1911300Y1326837D01*
X-2273570Y494415D01*
X-2289709Y-413278D01*
X-2980000Y-413278D01*
X-2980000Y1636001D01*
X-1565290Y1636001D01*
X0Y70711D01*
X1565290Y1636001D01*
X1326837Y1911300D01*
X494415Y2273570D01*
X-413278Y2289709D01*
X-1258053Y1957260D01*
X-1326837Y1911300D01*
X-1565290Y1636001D01*
X-2980000Y1636001D01*
X-2980000Y12712497D01*
X1451502Y12712497D01*
X1487899Y12578918D01*
X1691052Y12239763D01*
X2008530Y12004168D01*
X2392000Y11908000D01*
X2630000Y11908000D01*
X2630000Y12870000D01*
X2730000Y12870000D01*
X2730000Y11908000D01*
X2968000Y11908000D01*
X3351470Y12004168D01*
X3668948Y12239763D01*
X3872101Y12578918D01*
X3908498Y12712497D01*
X3866183Y12870000D01*
X2730000Y12870000D01*
X2630000Y12870000D01*
X1493817Y12870000D01*
X1451502Y12712497D01*
X-2980000Y12712497D01*
X-2980000Y12920000D01*
X3945511Y12920000D01*
X4022545Y12532724D01*
X4241919Y12204408D01*
X4570235Y11985034D01*
X4957511Y11908000D01*
X5482489Y11908000D01*
X5869765Y11985034D01*
X6198081Y12204408D01*
X6417455Y12532724D01*
X6494489Y12920000D01*
X6417455Y13307276D01*
X6198081Y13635592D01*
X5869765Y13854966D01*
X5482489Y13932000D01*
X4957511Y13932000D01*
X4570235Y13854966D01*
X4241919Y13635592D01*
X4022545Y13307276D01*
X3945511Y12920000D01*
X-2980000Y12920000D01*
X-2980000Y13127503D01*
X1451502Y13127503D01*
X1493817Y12970000D01*
X2630000Y12970000D01*
X2630000Y13932000D01*
X2730000Y13932000D01*
X2730000Y12970000D01*
X3866183Y12970000D01*
X3908498Y13127503D01*
X3872101Y13261082D01*
X3668948Y13600237D01*
X3351470Y13835832D01*
X2968000Y13932000D01*
X2730000Y13932000D01*
X2630000Y13932000D01*
X2392000Y13932000D01*
X2008530Y13835832D01*
X1691052Y13600237D01*
X1487899Y13261082D01*
X1451502Y13127503D01*
X-2980000Y13127503D01*
X-2980000Y15252497D01*
X1451502Y15252497D01*
X1487899Y15118918D01*
X1691052Y14779763D01*
X2008530Y14544168D01*
X2392000Y14448000D01*
X2630000Y14448000D01*
X2630000Y15410000D01*
X2730000Y15410000D01*
X2730000Y14448000D01*
X2968000Y14448000D01*
X3351470Y14544168D01*
X3668948Y14779763D01*
X3872101Y15118918D01*
X3908498Y15252497D01*
X3866183Y15410000D01*
X2730000Y15410000D01*
X2630000Y15410000D01*
X1493817Y15410000D01*
X1451502Y15252497D01*
X-2980000Y15252497D01*
X-2980000Y15460000D01*
X3945511Y15460000D01*
X4022545Y15072724D01*
X4241919Y14744408D01*
X4570235Y14525034D01*
X4957511Y14448000D01*
X5482489Y14448000D01*
X5869765Y14525034D01*
X6198081Y14744408D01*
X6417455Y15072724D01*
X6494489Y15460000D01*
X6417455Y15847276D01*
X6198081Y16175592D01*
X5869765Y16394966D01*
X5482489Y16472000D01*
X4957511Y16472000D01*
X4570235Y16394966D01*
X4241919Y16175592D01*
X4022545Y15847276D01*
X3945511Y15460000D01*
X-2980000Y15460000D01*
X-2980000Y15667503D01*
X1451502Y15667503D01*
X1493817Y15510000D01*
X2630000Y15510000D01*
X2630000Y16472000D01*
X2730000Y16472000D01*
X2730000Y15510000D01*
X3866183Y15510000D01*
X3908498Y15667503D01*
X3872101Y15801082D01*
X3668948Y16140237D01*
X3351470Y16375832D01*
X2968000Y16472000D01*
X2730000Y16472000D01*
X2630000Y16472000D01*
X2392000Y16472000D01*
X2008530Y16375832D01*
X1691052Y16140237D01*
X1487899Y15801082D01*
X1451502Y15667503D01*
X-2980000Y15667503D01*
X-2980000Y18000000D01*
X1405511Y18000000D01*
X1482545Y17612724D01*
X1701919Y17284408D01*
X2030235Y17065034D01*
X2417511Y16988000D01*
X2942489Y16988000D01*
X3329765Y17065034D01*
X3658081Y17284408D01*
X3877455Y17612724D01*
X3950000Y17977432D01*
X4022545Y17612724D01*
X4241919Y17284408D01*
X4570235Y17065034D01*
X4957511Y16988000D01*
X5482489Y16988000D01*
X5869765Y17065034D01*
X6198081Y17284408D01*
X6417455Y17612724D01*
X6494489Y18000000D01*
X6417455Y18387276D01*
X6198081Y18715592D01*
X5869765Y18934966D01*
X5482489Y19012000D01*
X4957511Y19012000D01*
X4570235Y18934966D01*
X4241919Y18715592D01*
X4022545Y18387276D01*
X3950000Y18022568D01*
X3877455Y18387276D01*
X3658081Y18715592D01*
X3329765Y18934966D01*
X2942489Y19012000D01*
X2417511Y19012000D01*
X2030235Y18934966D01*
X1701919Y18715592D01*
X1482545Y18387276D01*
X1405511Y18000000D01*
X-2980000Y18000000D01*
X-2980000Y20540000D01*
X1405511Y20540000D01*
X1482545Y20152724D01*
X1701919Y19824408D01*
X2030235Y19605034D01*
X2417511Y19528000D01*
X2942489Y19528000D01*
X3329765Y19605034D01*
X3658081Y19824408D01*
X3877455Y20152724D01*
X3950000Y20517432D01*
X4022545Y20152724D01*
X4241919Y19824408D01*
X4570235Y19605034D01*
X4957511Y19528000D01*
X5482489Y19528000D01*
X5869765Y19605034D01*
X6198081Y19824408D01*
X6417455Y20152724D01*
X6494489Y20540000D01*
X6417455Y20927276D01*
X6198081Y21255592D01*
X5869765Y21474966D01*
X5482489Y21552000D01*
X4957511Y21552000D01*
X4570235Y21474966D01*
X4241919Y21255592D01*
X4022545Y20927276D01*
X3950000Y20562568D01*
X3877455Y20927276D01*
X3658081Y21255592D01*
X3329765Y21474966D01*
X2942489Y21552000D01*
X2417511Y21552000D01*
X2030235Y21474966D01*
X1701919Y21255592D01*
X1482545Y20927276D01*
X1405511Y20540000D01*
X-2980000Y20540000D01*
X-2980000Y23080000D01*
X1405511Y23080000D01*
X1482545Y22692724D01*
X1701919Y22364408D01*
X2030235Y22145034D01*
X2417511Y22068000D01*
X2942489Y22068000D01*
X3329765Y22145034D01*
X3658081Y22364408D01*
X3877455Y22692724D01*
X3950000Y23057432D01*
X4022545Y22692724D01*
X4241919Y22364408D01*
X4570235Y22145034D01*
X4957511Y22068000D01*
X5482489Y22068000D01*
X5869765Y22145034D01*
X6198081Y22364408D01*
X6417455Y22692724D01*
X6494489Y23080000D01*
X6417455Y23467276D01*
X6198081Y23795592D01*
X5869765Y24014966D01*
X5482489Y24092000D01*
X4957511Y24092000D01*
X4570235Y24014966D01*
X4241919Y23795592D01*
X4022545Y23467276D01*
X3950000Y23102568D01*
X3877455Y23467276D01*
X3658081Y23795592D01*
X3329765Y24014966D01*
X2942489Y24092000D01*
X2417511Y24092000D01*
X2030235Y24014966D01*
X1701919Y23795592D01*
X1482545Y23467276D01*
X1405511Y23080000D01*
X-2980000Y23080000D01*
X-2980000Y25620000D01*
X1405511Y25620000D01*
X1482545Y25232724D01*
X1701919Y24904408D01*
X2030235Y24685034D01*
X2417511Y24608000D01*
X2942489Y24608000D01*
X3329765Y24685034D01*
X3658081Y24904408D01*
X3877455Y25232724D01*
X3950000Y25597432D01*
X4022545Y25232724D01*
X4241919Y24904408D01*
X4570235Y24685034D01*
X4957511Y24608000D01*
X5482489Y24608000D01*
X5869765Y24685034D01*
X6198081Y24904408D01*
X6417455Y25232724D01*
X6494489Y25620000D01*
X6417455Y26007276D01*
X6198081Y26335592D01*
X5869765Y26554966D01*
X5482489Y26632000D01*
X4957511Y26632000D01*
X4570235Y26554966D01*
X4241919Y26335592D01*
X4022545Y26007276D01*
X3950000Y25642568D01*
X3877455Y26007276D01*
X3658081Y26335592D01*
X3329765Y26554966D01*
X2942489Y26632000D01*
X2417511Y26632000D01*
X2030235Y26554966D01*
X1701919Y26335592D01*
X1482545Y26007276D01*
X1405511Y25620000D01*
X-2980000Y25620000D01*
X-2980000Y27952497D01*
X1451502Y27952497D01*
X1487899Y27818918D01*
X1691052Y27479763D01*
X2008530Y27244168D01*
X2392000Y27148000D01*
X2630000Y27148000D01*
X2630000Y28110000D01*
X2730000Y28110000D01*
X2730000Y27148000D01*
X2968000Y27148000D01*
X3351470Y27244168D01*
X3668948Y27479763D01*
X3872101Y27818918D01*
X3908498Y27952497D01*
X3866183Y28110000D01*
X2730000Y28110000D01*
X2630000Y28110000D01*
X1493817Y28110000D01*
X1451502Y27952497D01*
X-2980000Y27952497D01*
X-2980000Y28367503D01*
X1451502Y28367503D01*
X1493817Y28210000D01*
X2630000Y28210000D01*
X2630000Y29172000D01*
X2730000Y29172000D01*
X2730000Y28210000D01*
X3866183Y28210000D01*
X3908498Y28367503D01*
X3872101Y28501082D01*
X3668948Y28840237D01*
X3351470Y29075832D01*
X2968000Y29172000D01*
X2730000Y29172000D01*
X2630000Y29172000D01*
X2392000Y29172000D01*
X2008530Y29075832D01*
X1691052Y28840237D01*
X1487899Y28501082D01*
X1451502Y28367503D01*
X-2980000Y28367503D01*
X-2980000Y30492497D01*
X1451502Y30492497D01*
X1487899Y30358918D01*
X1691052Y30019763D01*
X2008530Y29784168D01*
X2392000Y29688000D01*
X2630000Y29688000D01*
X2630000Y30650000D01*
X2730000Y30650000D01*
X2730000Y29688000D01*
X2968000Y29688000D01*
X3351470Y29784168D01*
X3668948Y30019763D01*
X3872101Y30358918D01*
X3908498Y30492497D01*
X3866183Y30650000D01*
X2730000Y30650000D01*
X2630000Y30650000D01*
X1493817Y30650000D01*
X1451502Y30492497D01*
X-2980000Y30492497D01*
X-2980000Y30700000D01*
X3945511Y30700000D01*
X4022545Y30312724D01*
X4241919Y29984408D01*
X4570235Y29765034D01*
X4957511Y29688000D01*
X5482489Y29688000D01*
X5869765Y29765034D01*
X6198081Y29984408D01*
X6408953Y30300000D01*
X7094314Y30300000D01*
X7980000Y29414314D01*
X7980000Y23328397D01*
X7880000Y23428572D01*
X7880000Y27679995D01*
X7880001Y27680000D01*
X7849552Y27833073D01*
X7820096Y27877157D01*
X7762843Y27962843D01*
X7762840Y27962845D01*
X7282843Y28442843D01*
X7153074Y28529552D01*
X7000000Y28560000D01*
X6408953Y28560000D01*
X6198081Y28875592D01*
X5869765Y29094966D01*
X5482489Y29172000D01*
X4957511Y29172000D01*
X4570235Y29094966D01*
X4241919Y28875592D01*
X4022545Y28547276D01*
X3945511Y28160000D01*
X4022545Y27772724D01*
X4241919Y27444408D01*
X4570235Y27225034D01*
X4957511Y27148000D01*
X5482489Y27148000D01*
X5869765Y27225034D01*
X6198081Y27444408D01*
X6408953Y27760000D01*
X6834314Y27760000D01*
X7080000Y27514315D01*
X7080000Y23428487D01*
X6971641Y23320317D01*
X6880104Y23099871D01*
X6879896Y22861176D01*
X6971048Y22640571D01*
X7139683Y22471641D01*
X7360129Y22380104D01*
X7598824Y22379896D01*
X7819429Y22471048D01*
X7980000Y22631339D01*
X7980000Y22228487D01*
X7871641Y22120317D01*
X7780104Y21899871D01*
X7779896Y21661176D01*
X7871048Y21440571D01*
X8039683Y21271641D01*
X8260129Y21180104D01*
X8498824Y21179896D01*
X8719429Y21271048D01*
X8888359Y21439683D01*
X8979896Y21660129D01*
X8980104Y21898824D01*
X8888952Y22119429D01*
X8780000Y22228572D01*
X8780000Y29580000D01*
X8749552Y29733073D01*
X8749552Y29733074D01*
X8662843Y29862843D01*
X7542843Y30982843D01*
X7413074Y31069552D01*
X7260000Y31100000D01*
X6408953Y31100000D01*
X6198081Y31415592D01*
X5869765Y31634966D01*
X5482489Y31712000D01*
X4957511Y31712000D01*
X4570235Y31634966D01*
X4241919Y31415592D01*
X4022545Y31087276D01*
X3945511Y30700000D01*
X-2980000Y30700000D01*
X-2980000Y30907503D01*
X1451502Y30907503D01*
X1493817Y30750000D01*
X2630000Y30750000D01*
X2630000Y31712000D01*
X2730000Y31712000D01*
X2730000Y30750000D01*
X3866183Y30750000D01*
X3908498Y30907503D01*
X3872101Y31041082D01*
X3668948Y31380237D01*
X3351470Y31615832D01*
X2968000Y31712000D01*
X2730000Y31712000D01*
X2630000Y31712000D01*
X2392000Y31712000D01*
X2008530Y31615832D01*
X1691052Y31380237D01*
X1487899Y31041082D01*
X1451502Y30907503D01*
X-2980000Y30907503D01*
X-2980000Y49100000D01*
X-200000Y49100000D01*
X-200000Y33800000D01*
X-169552Y33646926D01*
X-82843Y33517157D01*
X477155Y32957160D01*
X477157Y32957157D01*
X606927Y32870448D01*
X760000Y32839999D01*
X760005Y32840000D01*
X1491047Y32840000D01*
X1701919Y32524408D01*
X2030235Y32305034D01*
X2417511Y32228000D01*
X2942489Y32228000D01*
X3329765Y32305034D01*
X3658081Y32524408D01*
X3877455Y32852724D01*
X3950000Y33217432D01*
X4022545Y32852724D01*
X4241919Y32524408D01*
X4570235Y32305034D01*
X4957511Y32228000D01*
X5482489Y32228000D01*
X5869765Y32305034D01*
X6198081Y32524408D01*
X6408953Y32840000D01*
X8554314Y32840000D01*
X8980000Y32414314D01*
X8980000Y24880000D01*
X9010448Y24726926D01*
X9080037Y24622779D01*
X9079896Y24461176D01*
X9171048Y24240571D01*
X9339683Y24071641D01*
X9560129Y23980104D01*
X9798824Y23979896D01*
X10019429Y24071048D01*
X10188359Y24239683D01*
X10279896Y24460129D01*
X10280104Y24698824D01*
X10188952Y24919429D01*
X10020317Y25088359D01*
X9799871Y25179896D01*
X9780000Y25179913D01*
X9780000Y32580000D01*
X9749552Y32733073D01*
X9749552Y32733074D01*
X9662843Y32862843D01*
X9002843Y33522843D01*
X8873074Y33609552D01*
X8720000Y33640000D01*
X6408953Y33640000D01*
X6198081Y33955592D01*
X5869765Y34174966D01*
X5482489Y34252000D01*
X4957511Y34252000D01*
X4570235Y34174966D01*
X4241919Y33955592D01*
X4022545Y33627276D01*
X3950000Y33262568D01*
X3877455Y33627276D01*
X3658081Y33955592D01*
X3329765Y34174966D01*
X2942489Y34252000D01*
X2417511Y34252000D01*
X2030235Y34174966D01*
X1701919Y33955592D01*
X1491047Y33640000D01*
X925685Y33640000D01*
X600000Y33965686D01*
X600000Y35780000D01*
X1405511Y35780000D01*
X1482545Y35392724D01*
X1701919Y35064408D01*
X2030235Y34845034D01*
X2417511Y34768000D01*
X2942489Y34768000D01*
X3329765Y34845034D01*
X3658081Y35064408D01*
X3877455Y35392724D01*
X3950000Y35757432D01*
X4022545Y35392724D01*
X4241919Y35064408D01*
X4570235Y34845034D01*
X4957511Y34768000D01*
X5482489Y34768000D01*
X5869765Y34845034D01*
X6198081Y35064408D01*
X6408953Y35380000D01*
X8514314Y35380000D01*
X10480000Y33414314D01*
X10480000Y24828487D01*
X10371641Y24720317D01*
X10280104Y24499871D01*
X10279896Y24261176D01*
X10371048Y24040571D01*
X10539683Y23871641D01*
X10760129Y23780104D01*
X10998824Y23779896D01*
X11219429Y23871048D01*
X11388359Y24039683D01*
X11479896Y24260129D01*
X11480104Y24498824D01*
X11388952Y24719429D01*
X11280000Y24828572D01*
X11280000Y33579995D01*
X11280001Y33580000D01*
X11249552Y33733074D01*
X11162843Y33862843D01*
X8962843Y36062843D01*
X8833074Y36149552D01*
X8680000Y36180000D01*
X6408953Y36180000D01*
X6198081Y36495592D01*
X6041824Y36600000D01*
X7700000Y36600000D01*
X7853074Y36630448D01*
X7982843Y36717157D01*
X9892843Y38627157D01*
X9979552Y38756926D01*
X10010000Y38910000D01*
X10010000Y46760181D01*
X10182964Y46586915D01*
X10440150Y46480122D01*
X10718628Y46479879D01*
X10976000Y46586223D01*
X11173085Y46782964D01*
X11279878Y47040150D01*
X11280121Y47318628D01*
X11180000Y47560939D01*
X11180000Y59699617D01*
X11279878Y59940150D01*
X11280121Y60218628D01*
X11173777Y60476000D01*
X10977036Y60673085D01*
X10719850Y60779878D01*
X10441372Y60780121D01*
X10184000Y60673777D01*
X9986915Y60477036D01*
X9880122Y60219850D01*
X9879879Y59941372D01*
X9980000Y59699061D01*
X9980000Y52088624D01*
X9950317Y52118359D01*
X9729871Y52209896D01*
X9491176Y52210104D01*
X9270571Y52118952D01*
X9101641Y51950317D01*
X9077780Y51892853D01*
X9008952Y52059429D01*
X8840317Y52228359D01*
X8619871Y52319896D01*
X8381176Y52320104D01*
X8160571Y52228952D01*
X7991641Y52060317D01*
X7900104Y51839871D01*
X7899896Y51601176D01*
X7991048Y51380571D01*
X8110000Y51261411D01*
X8110000Y40115686D01*
X6714314Y38720000D01*
X6408953Y38720000D01*
X6198081Y39035592D01*
X5869765Y39254966D01*
X5482489Y39332000D01*
X4957511Y39332000D01*
X4570235Y39254966D01*
X4241919Y39035592D01*
X4022545Y38707276D01*
X3945511Y38320000D01*
X4022545Y37932724D01*
X4241919Y37604408D01*
X4547837Y37400000D01*
X3900005Y37400000D01*
X3900000Y37400001D01*
X3746927Y37369552D01*
X3617157Y37282843D01*
X3617155Y37282840D01*
X3095816Y36761501D01*
X2942489Y36792000D01*
X2417511Y36792000D01*
X2030235Y36714966D01*
X1701919Y36495592D01*
X1482545Y36167276D01*
X1405511Y35780000D01*
X600000Y35780000D01*
X600000Y38112497D01*
X1451502Y38112497D01*
X1487899Y37978918D01*
X1691052Y37639763D01*
X2008530Y37404168D01*
X2392000Y37308000D01*
X2630000Y37308000D01*
X2630000Y38270000D01*
X2730000Y38270000D01*
X2730000Y37308000D01*
X2968000Y37308000D01*
X3351470Y37404168D01*
X3668948Y37639763D01*
X3872101Y37978918D01*
X3908498Y38112497D01*
X3866183Y38270000D01*
X2730000Y38270000D01*
X2630000Y38270000D01*
X1493817Y38270000D01*
X1451502Y38112497D01*
X600000Y38112497D01*
X600000Y38527503D01*
X1451502Y38527503D01*
X1493817Y38370000D01*
X2630000Y38370000D01*
X2630000Y39332000D01*
X2730000Y39332000D01*
X2730000Y38370000D01*
X3866183Y38370000D01*
X3908498Y38527503D01*
X3872101Y38661082D01*
X3668948Y39000237D01*
X3351470Y39235832D01*
X2968000Y39332000D01*
X2730000Y39332000D01*
X2630000Y39332000D01*
X2392000Y39332000D01*
X2008530Y39235832D01*
X1691052Y39000237D01*
X1487899Y38661082D01*
X1451502Y38527503D01*
X600000Y38527503D01*
X600000Y40652497D01*
X1451502Y40652497D01*
X1487899Y40518918D01*
X1691052Y40179763D01*
X2008530Y39944168D01*
X2392000Y39848000D01*
X2630000Y39848000D01*
X2630000Y40810000D01*
X2730000Y40810000D01*
X2730000Y39848000D01*
X2968000Y39848000D01*
X3351470Y39944168D01*
X3668948Y40179763D01*
X3872101Y40518918D01*
X3908498Y40652497D01*
X3866183Y40810000D01*
X2730000Y40810000D01*
X2630000Y40810000D01*
X1493817Y40810000D01*
X1451502Y40652497D01*
X600000Y40652497D01*
X600000Y40860000D01*
X3945511Y40860000D01*
X4022545Y40472724D01*
X4241919Y40144408D01*
X4570235Y39925034D01*
X4957511Y39848000D01*
X5482489Y39848000D01*
X5869765Y39925034D01*
X6198081Y40144408D01*
X6417455Y40472724D01*
X6437521Y40573601D01*
X6442843Y40577157D01*
X7582840Y41717155D01*
X7582843Y41717157D01*
X7669552Y41846927D01*
X7700000Y42000000D01*
X7700000Y46851513D01*
X7808359Y46959683D01*
X7899896Y47180129D01*
X7900104Y47418824D01*
X7808952Y47639429D01*
X7640317Y47808359D01*
X7419871Y47899896D01*
X7181176Y47900104D01*
X6960571Y47808952D01*
X6791641Y47640317D01*
X6700104Y47419871D01*
X6699896Y47181176D01*
X6791048Y46960571D01*
X6900000Y46851428D01*
X6900000Y42165685D01*
X6242872Y41508558D01*
X6198081Y41575592D01*
X5869765Y41794966D01*
X5482489Y41872000D01*
X4957511Y41872000D01*
X4570235Y41794966D01*
X4241919Y41575592D01*
X4022545Y41247276D01*
X3945511Y40860000D01*
X600000Y40860000D01*
X600000Y41067503D01*
X1451502Y41067503D01*
X1493817Y40910000D01*
X2630000Y40910000D01*
X2630000Y41872000D01*
X2730000Y41872000D01*
X2730000Y40910000D01*
X3866183Y40910000D01*
X3908498Y41067503D01*
X3872101Y41201082D01*
X3668948Y41540237D01*
X3351470Y41775832D01*
X2968000Y41872000D01*
X2730000Y41872000D01*
X2630000Y41872000D01*
X2392000Y41872000D01*
X2008530Y41775832D01*
X1691052Y41540237D01*
X1487899Y41201082D01*
X1451502Y41067503D01*
X600000Y41067503D01*
X600000Y43400000D01*
X1405511Y43400000D01*
X1482545Y43012724D01*
X1701919Y42684408D01*
X2030235Y42465034D01*
X2417511Y42388000D01*
X2942489Y42388000D01*
X3329765Y42465034D01*
X3658081Y42684408D01*
X3877455Y43012724D01*
X3950000Y43377432D01*
X4022545Y43012724D01*
X4241919Y42684408D01*
X4570235Y42465034D01*
X4957511Y42388000D01*
X5482489Y42388000D01*
X5869765Y42465034D01*
X6198081Y42684408D01*
X6417455Y43012724D01*
X6494489Y43400000D01*
X6417455Y43787276D01*
X6198081Y44115592D01*
X5869765Y44334966D01*
X5482489Y44412000D01*
X4957511Y44412000D01*
X4570235Y44334966D01*
X4241919Y44115592D01*
X4022545Y43787276D01*
X3950000Y43422568D01*
X3877455Y43787276D01*
X3658081Y44115592D01*
X3329765Y44334966D01*
X2942489Y44412000D01*
X2417511Y44412000D01*
X2030235Y44334966D01*
X1701919Y44115592D01*
X1482545Y43787276D01*
X1405511Y43400000D01*
X600000Y43400000D01*
X600000Y45732497D01*
X1451502Y45732497D01*
X1487899Y45598918D01*
X1691052Y45259763D01*
X2008530Y45024168D01*
X2392000Y44928000D01*
X2630000Y44928000D01*
X2630000Y45890000D01*
X2730000Y45890000D01*
X2730000Y44928000D01*
X2968000Y44928000D01*
X3351470Y45024168D01*
X3668948Y45259763D01*
X3872101Y45598918D01*
X3908498Y45732497D01*
X3866183Y45890000D01*
X2730000Y45890000D01*
X2630000Y45890000D01*
X1493817Y45890000D01*
X1451502Y45732497D01*
X600000Y45732497D01*
X600000Y45940000D01*
X3945511Y45940000D01*
X4022545Y45552724D01*
X4241919Y45224408D01*
X4570235Y45005034D01*
X4957511Y44928000D01*
X5482489Y44928000D01*
X5869765Y45005034D01*
X6198081Y45224408D01*
X6417455Y45552724D01*
X6494489Y45940000D01*
X6417455Y46327276D01*
X6198081Y46655592D01*
X5869765Y46874966D01*
X5482489Y46952000D01*
X4957511Y46952000D01*
X4570235Y46874966D01*
X4241919Y46655592D01*
X4022545Y46327276D01*
X3945511Y45940000D01*
X600000Y45940000D01*
X600000Y46147503D01*
X1451502Y46147503D01*
X1493817Y45990000D01*
X2630000Y45990000D01*
X2630000Y46952000D01*
X2730000Y46952000D01*
X2730000Y45990000D01*
X3866183Y45990000D01*
X3908498Y46147503D01*
X3872101Y46281082D01*
X3668948Y46620237D01*
X3351470Y46855832D01*
X2968000Y46952000D01*
X2730000Y46952000D01*
X2630000Y46952000D01*
X2392000Y46952000D01*
X2008530Y46855832D01*
X1691052Y46620237D01*
X1487899Y46281082D01*
X1451502Y46147503D01*
X600000Y46147503D01*
X600000Y48272497D01*
X1451502Y48272497D01*
X1487899Y48138918D01*
X1691052Y47799763D01*
X2008530Y47564168D01*
X2392000Y47468000D01*
X2630000Y47468000D01*
X2630000Y48430000D01*
X2730000Y48430000D01*
X2730000Y47468000D01*
X2968000Y47468000D01*
X3351470Y47564168D01*
X3668948Y47799763D01*
X3872101Y48138918D01*
X3908498Y48272497D01*
X3866183Y48430000D01*
X2730000Y48430000D01*
X2630000Y48430000D01*
X1493817Y48430000D01*
X1451502Y48272497D01*
X600000Y48272497D01*
X600000Y48934314D01*
X965686Y49300000D01*
X1879391Y49300000D01*
X1691052Y49160237D01*
X1487899Y48821082D01*
X1451502Y48687503D01*
X1493817Y48530000D01*
X2630000Y48530000D01*
X2630000Y48550000D01*
X2730000Y48550000D01*
X2730000Y48530000D01*
X3866183Y48530000D01*
X3908498Y48687503D01*
X3872101Y48821082D01*
X3668948Y49160237D01*
X3480609Y49300000D01*
X4398176Y49300000D01*
X4241919Y49195592D01*
X4022545Y48867276D01*
X3945511Y48480000D01*
X4022545Y48092724D01*
X4241919Y47764408D01*
X4570235Y47545034D01*
X4957511Y47468000D01*
X5482489Y47468000D01*
X5869765Y47545034D01*
X6198081Y47764408D01*
X6417455Y48092724D01*
X6494489Y48480000D01*
X6417455Y48867276D01*
X6198081Y49195592D01*
X6041824Y49300000D01*
X6400000Y49300000D01*
X6553074Y49330448D01*
X6682843Y49417157D01*
X7482843Y50217157D01*
X7569552Y50346926D01*
X7600001Y50500000D01*
X7600000Y50500005D01*
X7600000Y51051513D01*
X7708359Y51159683D01*
X7799896Y51380129D01*
X7800104Y51618824D01*
X7708952Y51839429D01*
X7540317Y52008359D01*
X7319871Y52099896D01*
X7081176Y52100104D01*
X6860571Y52008952D01*
X6691641Y51840317D01*
X6600104Y51619871D01*
X6599896Y51381176D01*
X6691048Y51160571D01*
X6800000Y51051428D01*
X6800000Y50665686D01*
X6234314Y50100000D01*
X5892163Y50100000D01*
X6198081Y50304408D01*
X6417455Y50632724D01*
X6494489Y51020000D01*
X6417455Y51407276D01*
X6198081Y51735592D01*
X5869765Y51954966D01*
X5482489Y52032000D01*
X4957511Y52032000D01*
X4570235Y51954966D01*
X4241919Y51735592D01*
X4022545Y51407276D01*
X3950000Y51042568D01*
X3877455Y51407276D01*
X3658081Y51735592D01*
X3329765Y51954966D01*
X2942489Y52032000D01*
X2417511Y52032000D01*
X2030235Y51954966D01*
X1701919Y51735592D01*
X1482545Y51407276D01*
X1405511Y51020000D01*
X1482545Y50632724D01*
X1701919Y50304408D01*
X2007837Y50100000D01*
X800000Y50100000D01*
X646926Y50069552D01*
X517157Y49982843D01*
X-82843Y49382843D01*
X-169552Y49253074D01*
X-169552Y49253073D01*
X-200000Y49100000D01*
X-2980000Y49100000D01*
X-2980000Y53352497D01*
X1451502Y53352497D01*
X1487899Y53218918D01*
X1691052Y52879763D01*
X2008530Y52644168D01*
X2392000Y52548000D01*
X2630000Y52548000D01*
X2630000Y53510000D01*
X2730000Y53510000D01*
X2730000Y52548000D01*
X2968000Y52548000D01*
X3351470Y52644168D01*
X3668948Y52879763D01*
X3872101Y53218918D01*
X3908498Y53352497D01*
X3866183Y53510000D01*
X2730000Y53510000D01*
X2630000Y53510000D01*
X1493817Y53510000D01*
X1451502Y53352497D01*
X-2980000Y53352497D01*
X-2980000Y53560000D01*
X3945511Y53560000D01*
X4022545Y53172724D01*
X4241919Y52844408D01*
X4570235Y52625034D01*
X4957511Y52548000D01*
X5482489Y52548000D01*
X5869765Y52625034D01*
X6198081Y52844408D01*
X6417455Y53172724D01*
X6494489Y53560000D01*
X6417455Y53947276D01*
X6198081Y54275592D01*
X5869765Y54494966D01*
X5482489Y54572000D01*
X4957511Y54572000D01*
X4570235Y54494966D01*
X4241919Y54275592D01*
X4022545Y53947276D01*
X3945511Y53560000D01*
X-2980000Y53560000D01*
X-2980000Y53767503D01*
X1451502Y53767503D01*
X1493817Y53610000D01*
X2630000Y53610000D01*
X2630000Y54572000D01*
X2730000Y54572000D01*
X2730000Y53610000D01*
X3866183Y53610000D01*
X3908498Y53767503D01*
X3872101Y53901082D01*
X3668948Y54240237D01*
X3351470Y54475832D01*
X2968000Y54572000D01*
X2730000Y54572000D01*
X2630000Y54572000D01*
X2392000Y54572000D01*
X2008530Y54475832D01*
X1691052Y54240237D01*
X1487899Y53901082D01*
X1451502Y53767503D01*
X-2980000Y53767503D01*
X-2980000Y55892497D01*
X1451502Y55892497D01*
X1487899Y55758918D01*
X1691052Y55419763D01*
X2008530Y55184168D01*
X2392000Y55088000D01*
X2630000Y55088000D01*
X2630000Y56050000D01*
X2730000Y56050000D01*
X2730000Y55088000D01*
X2968000Y55088000D01*
X3351470Y55184168D01*
X3668948Y55419763D01*
X3872101Y55758918D01*
X3908498Y55892497D01*
X3866183Y56050000D01*
X2730000Y56050000D01*
X2630000Y56050000D01*
X1493817Y56050000D01*
X1451502Y55892497D01*
X-2980000Y55892497D01*
X-2980000Y56100000D01*
X3945511Y56100000D01*
X4022545Y55712724D01*
X4241919Y55384408D01*
X4570235Y55165034D01*
X4957511Y55088000D01*
X5482489Y55088000D01*
X5869765Y55165034D01*
X6198081Y55384408D01*
X6417455Y55712724D01*
X6494489Y56100000D01*
X6417455Y56487276D01*
X6198081Y56815592D01*
X5869765Y57034966D01*
X5482489Y57112000D01*
X4957511Y57112000D01*
X4570235Y57034966D01*
X4241919Y56815592D01*
X4022545Y56487276D01*
X3945511Y56100000D01*
X-2980000Y56100000D01*
X-2980000Y56307503D01*
X1451502Y56307503D01*
X1493817Y56150000D01*
X2630000Y56150000D01*
X2630000Y57112000D01*
X2730000Y57112000D01*
X2730000Y56150000D01*
X3866183Y56150000D01*
X3908498Y56307503D01*
X3872101Y56441082D01*
X3668948Y56780237D01*
X3351470Y57015832D01*
X2968000Y57112000D01*
X2730000Y57112000D01*
X2630000Y57112000D01*
X2392000Y57112000D01*
X2008530Y57015832D01*
X1691052Y56780237D01*
X1487899Y56441082D01*
X1451502Y56307503D01*
X-2980000Y56307503D01*
X-2980000Y58432497D01*
X1451502Y58432497D01*
X1487899Y58298918D01*
X1691052Y57959763D01*
X2008530Y57724168D01*
X2392000Y57628000D01*
X2630000Y57628000D01*
X2630000Y58590000D01*
X2730000Y58590000D01*
X2730000Y57628000D01*
X2968000Y57628000D01*
X3351470Y57724168D01*
X3668948Y57959763D01*
X3872101Y58298918D01*
X3908498Y58432497D01*
X3866183Y58590000D01*
X2730000Y58590000D01*
X2630000Y58590000D01*
X1493817Y58590000D01*
X1451502Y58432497D01*
X-2980000Y58432497D01*
X-2980000Y58640000D01*
X3945511Y58640000D01*
X4022545Y58252724D01*
X4241919Y57924408D01*
X4570235Y57705034D01*
X4957511Y57628000D01*
X5482489Y57628000D01*
X5869765Y57705034D01*
X6198081Y57924408D01*
X6417455Y58252724D01*
X6494489Y58640000D01*
X6417455Y59027276D01*
X6198081Y59355592D01*
X5869765Y59574966D01*
X5482489Y59652000D01*
X4957511Y59652000D01*
X4570235Y59574966D01*
X4241919Y59355592D01*
X4022545Y59027276D01*
X3945511Y58640000D01*
X-2980000Y58640000D01*
X-2980000Y58847503D01*
X1451502Y58847503D01*
X1493817Y58690000D01*
X2630000Y58690000D01*
X2630000Y59652000D01*
X2730000Y59652000D01*
X2730000Y58690000D01*
X3866183Y58690000D01*
X3908498Y58847503D01*
X3872101Y58981082D01*
X3668948Y59320237D01*
X3351470Y59555832D01*
X2968000Y59652000D01*
X2730000Y59652000D01*
X2630000Y59652000D01*
X2392000Y59652000D01*
X2008530Y59555832D01*
X1691052Y59320237D01*
X1487899Y58981082D01*
X1451502Y58847503D01*
X-2980000Y58847503D01*
X-2980000Y61942000D01*
X1425103Y61942000D01*
X1425103Y60418000D01*
X1442535Y60325356D01*
X1497288Y60240268D01*
X1580831Y60183185D01*
X1680000Y60163103D01*
X3680000Y60163103D01*
X3772644Y60180535D01*
X3857732Y60235288D01*
X3914815Y60318831D01*
X3934897Y60418000D01*
X3934897Y61180000D01*
X3945511Y61180000D01*
X4022545Y60792724D01*
X4241919Y60464408D01*
X4570235Y60245034D01*
X4957511Y60168000D01*
X5482489Y60168000D01*
X5869765Y60245034D01*
X6198081Y60464408D01*
X6417455Y60792724D01*
X6494489Y61180000D01*
X6417455Y61567276D01*
X6198081Y61895592D01*
X5869765Y62114966D01*
X5482489Y62192000D01*
X4957511Y62192000D01*
X4570235Y62114966D01*
X4241919Y61895592D01*
X4022545Y61567276D01*
X3945511Y61180000D01*
X3934897Y61180000D01*
X3934897Y61942000D01*
X3917465Y62034644D01*
X3862712Y62119732D01*
X3779169Y62176815D01*
X3680000Y62196897D01*
X1680000Y62196897D01*
X1587356Y62179465D01*
X1502268Y62124712D01*
X1445185Y62041169D01*
X1425103Y61942000D01*
X-2980000Y61942000D01*
X-2980000Y70863999D01*
X-1565290Y70863999D01*
X-1326837Y70588700D01*
X-494415Y70226430D01*
X413278Y70210291D01*
X485182Y70238588D01*
X3679772Y70238588D01*
X3880306Y69753257D01*
X4251304Y69381611D01*
X4736284Y69180230D01*
X5261412Y69179772D01*
X5746743Y69380306D01*
X6118389Y69751304D01*
X6319770Y70236284D01*
X6320228Y70761412D01*
X6119694Y71246743D01*
X5748696Y71618389D01*
X5263716Y71819770D01*
X4738588Y71820228D01*
X4253257Y71619694D01*
X3881611Y71248696D01*
X3680230Y70763716D01*
X3679772Y70238588D01*
X485182Y70238588D01*
X1258053Y70542740D01*
X1326837Y70588700D01*
X1565290Y70863999D01*
X0Y72429289D01*
X-1565290Y70863999D01*
X-2980000Y70863999D01*
X-2980000Y72086722D01*
X-2289709Y72086722D01*
X-1957260Y71241947D01*
X-1911300Y71173163D01*
X-1636001Y70934710D01*
X-70711Y72500000D01*
X70711Y72500000D01*
X1636001Y70934710D01*
X1911300Y71173163D01*
X2273570Y72005585D01*
X2289709Y72913278D01*
X1957260Y73758053D01*
X1911300Y73826837D01*
X1636001Y74065290D01*
X70711Y72500000D01*
X-70711Y72500000D01*
X-1636001Y74065290D01*
X-1911300Y73826837D01*
X-2273570Y72994415D01*
X-2289709Y72086722D01*
X-2980000Y72086722D01*
X-2980000Y74136001D01*
X-1565290Y74136001D01*
X0Y72570711D01*
X1565290Y74136001D01*
X1326837Y74411300D01*
X494415Y74773570D01*
X-413278Y74789709D01*
X-1258053Y74457260D01*
X-1326837Y74411300D01*
X-1565290Y74136001D01*
X-2980000Y74136001D01*
X-2980000Y75950000D01*
X13920000Y75950000D01*
X13920000Y59329871D01*
G36*
X53950000Y69330000D02*
X35690000Y69330000D01*
X35460390Y69284328D01*
X35265736Y69154264D01*
X33655736Y67544264D01*
X33525672Y67349610D01*
X33480000Y67120000D01*
X33480000Y65270383D01*
X33380122Y65029850D01*
X33379879Y64751372D01*
X33486223Y64494000D01*
X33682964Y64296915D01*
X33940150Y64190122D01*
X34218628Y64189879D01*
X34476000Y64296223D01*
X34673085Y64492964D01*
X34779878Y64750150D01*
X34780121Y65028628D01*
X34680000Y65270939D01*
X34680000Y66871472D01*
X35938528Y68130000D01*
X53950000Y68130000D01*
X53950000Y63310000D01*
X45500000Y63310000D01*
X45480547Y63306061D01*
X45464160Y63294864D01*
X45453419Y63278173D01*
X45450000Y63260000D01*
X45450000Y58810000D01*
X37000000Y58810000D01*
X36980547Y58806061D01*
X36964160Y58794864D01*
X36953419Y58778173D01*
X36950000Y58760000D01*
X36950000Y44550000D01*
X32960005Y44550000D01*
X32960000Y44550001D01*
X32806926Y44519552D01*
X32677157Y44432843D01*
X32222918Y43978604D01*
X32219850Y43979878D01*
X31941372Y43980121D01*
X31684000Y43873777D01*
X31486915Y43677036D01*
X31380122Y43419850D01*
X31379879Y43141372D01*
X31486223Y42884000D01*
X31682964Y42686915D01*
X31940150Y42580122D01*
X32218628Y42579879D01*
X32476000Y42686223D01*
X32673085Y42882964D01*
X32779878Y43140150D01*
X32780109Y43404423D01*
X33125686Y43750000D01*
X36950000Y43750000D01*
X36950000Y33242431D01*
X36820571Y33188952D01*
X36651641Y33020317D01*
X36560104Y32799871D01*
X36559896Y32561176D01*
X36651048Y32340571D01*
X36819683Y32171641D01*
X36950000Y32117529D01*
X36950000Y30380000D01*
X33269959Y30380000D01*
X33177036Y30473085D01*
X32980175Y30554829D01*
X33019429Y30571048D01*
X33128572Y30680000D01*
X35080000Y30680000D01*
X35233074Y30710448D01*
X35362843Y30797157D01*
X36372840Y31807155D01*
X36372843Y31807157D01*
X36427815Y31889429D01*
X36459552Y31936926D01*
X36490001Y32090000D01*
X36490000Y32090005D01*
X36490000Y37210000D01*
X36459552Y37363073D01*
X36372843Y37492843D01*
X36372840Y37492845D01*
X35399971Y38465715D01*
X35400104Y38618824D01*
X35308952Y38839429D01*
X35140317Y39008359D01*
X34919871Y39099896D01*
X34681176Y39100104D01*
X34460571Y39008952D01*
X34291641Y38840317D01*
X34200104Y38619871D01*
X34199896Y38381176D01*
X34291048Y38160571D01*
X34459683Y37991641D01*
X34680129Y37900104D01*
X34834345Y37899970D01*
X35690000Y37044315D01*
X35690000Y32255685D01*
X34914314Y31480000D01*
X33128487Y31480000D01*
X33020317Y31588359D01*
X32799871Y31679896D01*
X32561176Y31680104D01*
X32340571Y31588952D01*
X32171641Y31420317D01*
X32080104Y31199871D01*
X32079896Y30961176D01*
X32171048Y30740571D01*
X32339683Y30571641D01*
X32479919Y30513410D01*
X32384000Y30473777D01*
X32290059Y30380000D01*
X31937107Y30380000D01*
X31610000Y30707106D01*
X31610000Y31620000D01*
X31571940Y31811342D01*
X31526064Y31880000D01*
X31463554Y31973553D01*
X30590006Y32847100D01*
X30590121Y32978628D01*
X30483777Y33236000D01*
X30287036Y33433085D01*
X30029850Y33539878D01*
X29751372Y33540121D01*
X29494000Y33433777D01*
X29296915Y33237036D01*
X29190122Y32979850D01*
X29189879Y32701372D01*
X29296223Y32444000D01*
X29492964Y32246915D01*
X29750150Y32140122D01*
X29882888Y32140006D01*
X30610000Y31412893D01*
X30610000Y30500000D01*
X30642577Y30336223D01*
X30648060Y30308658D01*
X30756447Y30146447D01*
X31376446Y29526447D01*
X31441523Y29482964D01*
X31538658Y29418060D01*
X31730000Y29380000D01*
X32290041Y29380000D01*
X32382964Y29286915D01*
X32640150Y29180122D01*
X32918628Y29179879D01*
X33176000Y29286223D01*
X33269941Y29380000D01*
X36950000Y29380000D01*
X36950000Y20380000D01*
X31860383Y20380000D01*
X31619850Y20479878D01*
X31341372Y20480121D01*
X31084000Y20373777D01*
X30886915Y20177036D01*
X30780122Y19919850D01*
X30779879Y19641372D01*
X30886223Y19384000D01*
X31082964Y19186915D01*
X31340150Y19080122D01*
X31618628Y19079879D01*
X31860939Y19180000D01*
X36950000Y19180000D01*
X36950000Y16910000D01*
X25050000Y16910000D01*
X25050000Y28261472D01*
X25386765Y27924707D01*
X25480000Y27699061D01*
X25480000Y20825176D01*
X25405122Y20644850D01*
X25404879Y20366372D01*
X25511223Y20109000D01*
X25707964Y19911915D01*
X25965150Y19805122D01*
X26243628Y19804879D01*
X26501000Y19911223D01*
X26698085Y20107964D01*
X26804878Y20365150D01*
X26805121Y20643628D01*
X26698777Y20901000D01*
X26680000Y20919810D01*
X26680000Y21641372D01*
X33979879Y21641372D01*
X34086223Y21384000D01*
X34282964Y21186915D01*
X34540150Y21080122D01*
X34818628Y21079879D01*
X35076000Y21186223D01*
X35273085Y21382964D01*
X35379878Y21640150D01*
X35380121Y21918628D01*
X35363779Y21958178D01*
X35390000Y22090000D01*
X35390000Y24960216D01*
X35583085Y25152964D01*
X35689878Y25410150D01*
X35690121Y25688628D01*
X35583777Y25946000D01*
X35387036Y26143085D01*
X35129850Y26249878D01*
X34851372Y26250121D01*
X34594000Y26143777D01*
X34396915Y25947036D01*
X34290122Y25689850D01*
X34289879Y25411372D01*
X34396223Y25154000D01*
X34590000Y24959884D01*
X34590000Y22480079D01*
X34541372Y22480121D01*
X34284000Y22373777D01*
X34086915Y22177036D01*
X33980122Y21919850D01*
X33979879Y21641372D01*
X26680000Y21641372D01*
X26680000Y27699617D01*
X26779878Y27940150D01*
X26780121Y28218628D01*
X26673777Y28476000D01*
X26477036Y28673085D01*
X26234899Y28773629D01*
X25050000Y29958528D01*
X25050000Y31117500D01*
X25554000Y31117500D01*
X25554000Y30316672D01*
X25592060Y30224786D01*
X25662386Y30154460D01*
X25754272Y30116400D01*
X26707500Y30116400D01*
X26770000Y30178900D01*
X26770000Y31180000D01*
X26870000Y31180000D01*
X26870000Y30178900D01*
X26932500Y30116400D01*
X27885728Y30116400D01*
X27977614Y30154460D01*
X28047940Y30224786D01*
X28086000Y30316672D01*
X28086000Y31117500D01*
X28023500Y31180000D01*
X26870000Y31180000D01*
X26770000Y31180000D01*
X25616500Y31180000D01*
X25554000Y31117500D01*
X25050000Y31117500D01*
X25050000Y32143328D01*
X25554000Y32143328D01*
X25554000Y31342500D01*
X25616500Y31280000D01*
X26770000Y31280000D01*
X26770000Y32281100D01*
X26870000Y32281100D01*
X26870000Y31280000D01*
X28023500Y31280000D01*
X28086000Y31342500D01*
X28086000Y31416403D01*
X28171048Y31210571D01*
X28280000Y31101428D01*
X28280000Y23728487D01*
X28171641Y23620317D01*
X28080104Y23399871D01*
X28079896Y23161176D01*
X28171048Y22940571D01*
X28339683Y22771641D01*
X28560129Y22680104D01*
X28798824Y22679896D01*
X29019429Y22771048D01*
X29188359Y22939683D01*
X29279896Y23160129D01*
X29280104Y23398824D01*
X29188952Y23619429D01*
X29080000Y23728572D01*
X29080000Y31101513D01*
X29188359Y31209683D01*
X29279896Y31430129D01*
X29280104Y31668824D01*
X29188952Y31889429D01*
X29020317Y32058359D01*
X28799871Y32149896D01*
X28561176Y32150104D01*
X28340571Y32058952D01*
X28171641Y31890317D01*
X28086000Y31684070D01*
X28086000Y32143328D01*
X28047940Y32235214D01*
X27977614Y32305540D01*
X27885728Y32343600D01*
X26932500Y32343600D01*
X26870000Y32281100D01*
X26770000Y32281100D01*
X26707500Y32343600D01*
X25754272Y32343600D01*
X25662386Y32305540D01*
X25592060Y32235214D01*
X25554000Y32143328D01*
X25050000Y32143328D01*
X25050000Y33770000D01*
X25529198Y33770000D01*
X25613966Y33343844D01*
X25855364Y32982566D01*
X26216642Y32741168D01*
X26642798Y32656400D01*
X26997202Y32656400D01*
X27423358Y32741168D01*
X27784636Y32982566D01*
X28026034Y33343844D01*
X28110802Y33770000D01*
X28026034Y34196156D01*
X27784636Y34557434D01*
X27423358Y34798832D01*
X26997202Y34883600D01*
X26642798Y34883600D01*
X26216642Y34798832D01*
X25855364Y34557434D01*
X25613966Y34196156D01*
X25529198Y33770000D01*
X25050000Y33770000D01*
X25050000Y36310000D01*
X25529198Y36310000D01*
X25613966Y35883844D01*
X25855364Y35522566D01*
X26216642Y35281168D01*
X26642798Y35196400D01*
X26997202Y35196400D01*
X27423358Y35281168D01*
X27784636Y35522566D01*
X28026034Y35883844D01*
X28110802Y36310000D01*
X28026034Y36736156D01*
X27784636Y37097434D01*
X27423358Y37338832D01*
X26997202Y37423600D01*
X26642798Y37423600D01*
X26216642Y37338832D01*
X25855364Y37097434D01*
X25613966Y36736156D01*
X25529198Y36310000D01*
X25050000Y36310000D01*
X25050000Y38850000D01*
X25529198Y38850000D01*
X25613966Y38423844D01*
X25855364Y38062566D01*
X26216642Y37821168D01*
X26642798Y37736400D01*
X26997202Y37736400D01*
X27423358Y37821168D01*
X27784636Y38062566D01*
X28026034Y38423844D01*
X28110802Y38850000D01*
X28026034Y39276156D01*
X27784636Y39637434D01*
X27423358Y39878832D01*
X26997202Y39963600D01*
X26642798Y39963600D01*
X26216642Y39878832D01*
X25855364Y39637434D01*
X25613966Y39276156D01*
X25529198Y38850000D01*
X25050000Y38850000D01*
X25050000Y41390000D01*
X25529198Y41390000D01*
X25613966Y40963844D01*
X25855364Y40602566D01*
X26216642Y40361168D01*
X26642798Y40276400D01*
X26997202Y40276400D01*
X27423358Y40361168D01*
X27784636Y40602566D01*
X28026034Y40963844D01*
X28110802Y41390000D01*
X28026034Y41816156D01*
X27784636Y42177434D01*
X27423358Y42418832D01*
X26997202Y42503600D01*
X26642798Y42503600D01*
X26216642Y42418832D01*
X25855364Y42177434D01*
X25613966Y41816156D01*
X25529198Y41390000D01*
X25050000Y41390000D01*
X25050000Y54481472D01*
X25421391Y54852863D01*
X25325672Y54709610D01*
X25280000Y54480000D01*
X25280000Y49160383D01*
X25180122Y48919850D01*
X25179879Y48641372D01*
X25286223Y48384000D01*
X25482964Y48186915D01*
X25740150Y48080122D01*
X26018628Y48079879D01*
X26276000Y48186223D01*
X26473085Y48382964D01*
X26480000Y48399617D01*
X26480000Y44728487D01*
X26371641Y44620317D01*
X26280104Y44399871D01*
X26279896Y44161176D01*
X26371048Y43940571D01*
X26539683Y43771641D01*
X26760129Y43680104D01*
X26998824Y43679896D01*
X27169948Y43750603D01*
X27169896Y43691176D01*
X27261048Y43470571D01*
X27429683Y43301641D01*
X27650129Y43210104D01*
X27888824Y43209896D01*
X28109429Y43301048D01*
X28278359Y43469683D01*
X28369896Y43690129D01*
X28370104Y43928824D01*
X28278952Y44149429D01*
X28160000Y44268589D01*
X28160000Y52571513D01*
X28268359Y52679683D01*
X28359896Y52900129D01*
X28360104Y53138824D01*
X28268952Y53359429D01*
X28217100Y53411372D01*
X29689879Y53411372D01*
X29796223Y53154000D01*
X29992964Y52956915D01*
X30083625Y52919269D01*
X32629994Y50372900D01*
X32629879Y50241372D01*
X32736223Y49984000D01*
X32932964Y49786915D01*
X33190150Y49680122D01*
X33468628Y49679879D01*
X33726000Y49786223D01*
X33923085Y49982964D01*
X34029878Y50240150D01*
X34030121Y50518628D01*
X33923777Y50776000D01*
X33727036Y50973085D01*
X33469850Y51079878D01*
X33337112Y51079994D01*
X31065548Y53351558D01*
X31089878Y53410150D01*
X31090121Y53688628D01*
X30983777Y53946000D01*
X30787036Y54143085D01*
X30529850Y54249878D01*
X30251372Y54250121D01*
X29994000Y54143777D01*
X29796915Y53947036D01*
X29690122Y53689850D01*
X29689879Y53411372D01*
X28217100Y53411372D01*
X28100317Y53528359D01*
X27879871Y53619896D01*
X27641176Y53620104D01*
X27420571Y53528952D01*
X27251641Y53360317D01*
X27160104Y53139871D01*
X27159896Y52901176D01*
X27251048Y52680571D01*
X27360000Y52571428D01*
X27360000Y52348432D01*
X27220317Y52488359D01*
X26999871Y52579896D01*
X26761176Y52580104D01*
X26540571Y52488952D01*
X26480000Y52428487D01*
X26480000Y54231472D01*
X26569264Y54320736D01*
X26699328Y54515390D01*
X26745000Y54745000D01*
X26745000Y56044617D01*
X26844878Y56285150D01*
X26845121Y56563628D01*
X26738777Y56821000D01*
X26542036Y57018085D01*
X26284850Y57124878D01*
X26006372Y57125121D01*
X25749000Y57018777D01*
X25551915Y56822036D01*
X25451371Y56579899D01*
X25050000Y56178528D01*
X25050000Y69710000D01*
X53950000Y69710000D01*
X53950000Y69330000D01*
X53950000Y69330000D01*
G37*
X53950000Y69330000D02*
X35690000Y69330000D01*
X35460390Y69284328D01*
X35265736Y69154264D01*
X33655736Y67544264D01*
X33525672Y67349610D01*
X33480000Y67120000D01*
X33480000Y65270383D01*
X33380122Y65029850D01*
X33379879Y64751372D01*
X33486223Y64494000D01*
X33682964Y64296915D01*
X33940150Y64190122D01*
X34218628Y64189879D01*
X34476000Y64296223D01*
X34673085Y64492964D01*
X34779878Y64750150D01*
X34780121Y65028628D01*
X34680000Y65270939D01*
X34680000Y66871472D01*
X35938528Y68130000D01*
X53950000Y68130000D01*
X53950000Y63310000D01*
X45500000Y63310000D01*
X45480547Y63306061D01*
X45464160Y63294864D01*
X45453419Y63278173D01*
X45450000Y63260000D01*
X45450000Y58810000D01*
X37000000Y58810000D01*
X36980547Y58806061D01*
X36964160Y58794864D01*
X36953419Y58778173D01*
X36950000Y58760000D01*
X36950000Y44550000D01*
X32960005Y44550000D01*
X32960000Y44550001D01*
X32806926Y44519552D01*
X32677157Y44432843D01*
X32222918Y43978604D01*
X32219850Y43979878D01*
X31941372Y43980121D01*
X31684000Y43873777D01*
X31486915Y43677036D01*
X31380122Y43419850D01*
X31379879Y43141372D01*
X31486223Y42884000D01*
X31682964Y42686915D01*
X31940150Y42580122D01*
X32218628Y42579879D01*
X32476000Y42686223D01*
X32673085Y42882964D01*
X32779878Y43140150D01*
X32780109Y43404423D01*
X33125686Y43750000D01*
X36950000Y43750000D01*
X36950000Y33242431D01*
X36820571Y33188952D01*
X36651641Y33020317D01*
X36560104Y32799871D01*
X36559896Y32561176D01*
X36651048Y32340571D01*
X36819683Y32171641D01*
X36950000Y32117529D01*
X36950000Y30380000D01*
X33269959Y30380000D01*
X33177036Y30473085D01*
X32980175Y30554829D01*
X33019429Y30571048D01*
X33128572Y30680000D01*
X35080000Y30680000D01*
X35233074Y30710448D01*
X35362843Y30797157D01*
X36372840Y31807155D01*
X36372843Y31807157D01*
X36427815Y31889429D01*
X36459552Y31936926D01*
X36490001Y32090000D01*
X36490000Y32090005D01*
X36490000Y37210000D01*
X36459552Y37363073D01*
X36372843Y37492843D01*
X36372840Y37492845D01*
X35399971Y38465715D01*
X35400104Y38618824D01*
X35308952Y38839429D01*
X35140317Y39008359D01*
X34919871Y39099896D01*
X34681176Y39100104D01*
X34460571Y39008952D01*
X34291641Y38840317D01*
X34200104Y38619871D01*
X34199896Y38381176D01*
X34291048Y38160571D01*
X34459683Y37991641D01*
X34680129Y37900104D01*
X34834345Y37899970D01*
X35690000Y37044315D01*
X35690000Y32255685D01*
X34914314Y31480000D01*
X33128487Y31480000D01*
X33020317Y31588359D01*
X32799871Y31679896D01*
X32561176Y31680104D01*
X32340571Y31588952D01*
X32171641Y31420317D01*
X32080104Y31199871D01*
X32079896Y30961176D01*
X32171048Y30740571D01*
X32339683Y30571641D01*
X32479919Y30513410D01*
X32384000Y30473777D01*
X32290059Y30380000D01*
X31937107Y30380000D01*
X31610000Y30707106D01*
X31610000Y31620000D01*
X31571940Y31811342D01*
X31526064Y31880000D01*
X31463554Y31973553D01*
X30590006Y32847100D01*
X30590121Y32978628D01*
X30483777Y33236000D01*
X30287036Y33433085D01*
X30029850Y33539878D01*
X29751372Y33540121D01*
X29494000Y33433777D01*
X29296915Y33237036D01*
X29190122Y32979850D01*
X29189879Y32701372D01*
X29296223Y32444000D01*
X29492964Y32246915D01*
X29750150Y32140122D01*
X29882888Y32140006D01*
X30610000Y31412893D01*
X30610000Y30500000D01*
X30642577Y30336223D01*
X30648060Y30308658D01*
X30756447Y30146447D01*
X31376446Y29526447D01*
X31441523Y29482964D01*
X31538658Y29418060D01*
X31730000Y29380000D01*
X32290041Y29380000D01*
X32382964Y29286915D01*
X32640150Y29180122D01*
X32918628Y29179879D01*
X33176000Y29286223D01*
X33269941Y29380000D01*
X36950000Y29380000D01*
X36950000Y20380000D01*
X31860383Y20380000D01*
X31619850Y20479878D01*
X31341372Y20480121D01*
X31084000Y20373777D01*
X30886915Y20177036D01*
X30780122Y19919850D01*
X30779879Y19641372D01*
X30886223Y19384000D01*
X31082964Y19186915D01*
X31340150Y19080122D01*
X31618628Y19079879D01*
X31860939Y19180000D01*
X36950000Y19180000D01*
X36950000Y16910000D01*
X25050000Y16910000D01*
X25050000Y28261472D01*
X25386765Y27924707D01*
X25480000Y27699061D01*
X25480000Y20825176D01*
X25405122Y20644850D01*
X25404879Y20366372D01*
X25511223Y20109000D01*
X25707964Y19911915D01*
X25965150Y19805122D01*
X26243628Y19804879D01*
X26501000Y19911223D01*
X26698085Y20107964D01*
X26804878Y20365150D01*
X26805121Y20643628D01*
X26698777Y20901000D01*
X26680000Y20919810D01*
X26680000Y21641372D01*
X33979879Y21641372D01*
X34086223Y21384000D01*
X34282964Y21186915D01*
X34540150Y21080122D01*
X34818628Y21079879D01*
X35076000Y21186223D01*
X35273085Y21382964D01*
X35379878Y21640150D01*
X35380121Y21918628D01*
X35363779Y21958178D01*
X35390000Y22090000D01*
X35390000Y24960216D01*
X35583085Y25152964D01*
X35689878Y25410150D01*
X35690121Y25688628D01*
X35583777Y25946000D01*
X35387036Y26143085D01*
X35129850Y26249878D01*
X34851372Y26250121D01*
X34594000Y26143777D01*
X34396915Y25947036D01*
X34290122Y25689850D01*
X34289879Y25411372D01*
X34396223Y25154000D01*
X34590000Y24959884D01*
X34590000Y22480079D01*
X34541372Y22480121D01*
X34284000Y22373777D01*
X34086915Y22177036D01*
X33980122Y21919850D01*
X33979879Y21641372D01*
X26680000Y21641372D01*
X26680000Y27699617D01*
X26779878Y27940150D01*
X26780121Y28218628D01*
X26673777Y28476000D01*
X26477036Y28673085D01*
X26234899Y28773629D01*
X25050000Y29958528D01*
X25050000Y31117500D01*
X25554000Y31117500D01*
X25554000Y30316672D01*
X25592060Y30224786D01*
X25662386Y30154460D01*
X25754272Y30116400D01*
X26707500Y30116400D01*
X26770000Y30178900D01*
X26770000Y31180000D01*
X26870000Y31180000D01*
X26870000Y30178900D01*
X26932500Y30116400D01*
X27885728Y30116400D01*
X27977614Y30154460D01*
X28047940Y30224786D01*
X28086000Y30316672D01*
X28086000Y31117500D01*
X28023500Y31180000D01*
X26870000Y31180000D01*
X26770000Y31180000D01*
X25616500Y31180000D01*
X25554000Y31117500D01*
X25050000Y31117500D01*
X25050000Y32143328D01*
X25554000Y32143328D01*
X25554000Y31342500D01*
X25616500Y31280000D01*
X26770000Y31280000D01*
X26770000Y32281100D01*
X26870000Y32281100D01*
X26870000Y31280000D01*
X28023500Y31280000D01*
X28086000Y31342500D01*
X28086000Y31416403D01*
X28171048Y31210571D01*
X28280000Y31101428D01*
X28280000Y23728487D01*
X28171641Y23620317D01*
X28080104Y23399871D01*
X28079896Y23161176D01*
X28171048Y22940571D01*
X28339683Y22771641D01*
X28560129Y22680104D01*
X28798824Y22679896D01*
X29019429Y22771048D01*
X29188359Y22939683D01*
X29279896Y23160129D01*
X29280104Y23398824D01*
X29188952Y23619429D01*
X29080000Y23728572D01*
X29080000Y31101513D01*
X29188359Y31209683D01*
X29279896Y31430129D01*
X29280104Y31668824D01*
X29188952Y31889429D01*
X29020317Y32058359D01*
X28799871Y32149896D01*
X28561176Y32150104D01*
X28340571Y32058952D01*
X28171641Y31890317D01*
X28086000Y31684070D01*
X28086000Y32143328D01*
X28047940Y32235214D01*
X27977614Y32305540D01*
X27885728Y32343600D01*
X26932500Y32343600D01*
X26870000Y32281100D01*
X26770000Y32281100D01*
X26707500Y32343600D01*
X25754272Y32343600D01*
X25662386Y32305540D01*
X25592060Y32235214D01*
X25554000Y32143328D01*
X25050000Y32143328D01*
X25050000Y33770000D01*
X25529198Y33770000D01*
X25613966Y33343844D01*
X25855364Y32982566D01*
X26216642Y32741168D01*
X26642798Y32656400D01*
X26997202Y32656400D01*
X27423358Y32741168D01*
X27784636Y32982566D01*
X28026034Y33343844D01*
X28110802Y33770000D01*
X28026034Y34196156D01*
X27784636Y34557434D01*
X27423358Y34798832D01*
X26997202Y34883600D01*
X26642798Y34883600D01*
X26216642Y34798832D01*
X25855364Y34557434D01*
X25613966Y34196156D01*
X25529198Y33770000D01*
X25050000Y33770000D01*
X25050000Y36310000D01*
X25529198Y36310000D01*
X25613966Y35883844D01*
X25855364Y35522566D01*
X26216642Y35281168D01*
X26642798Y35196400D01*
X26997202Y35196400D01*
X27423358Y35281168D01*
X27784636Y35522566D01*
X28026034Y35883844D01*
X28110802Y36310000D01*
X28026034Y36736156D01*
X27784636Y37097434D01*
X27423358Y37338832D01*
X26997202Y37423600D01*
X26642798Y37423600D01*
X26216642Y37338832D01*
X25855364Y37097434D01*
X25613966Y36736156D01*
X25529198Y36310000D01*
X25050000Y36310000D01*
X25050000Y38850000D01*
X25529198Y38850000D01*
X25613966Y38423844D01*
X25855364Y38062566D01*
X26216642Y37821168D01*
X26642798Y37736400D01*
X26997202Y37736400D01*
X27423358Y37821168D01*
X27784636Y38062566D01*
X28026034Y38423844D01*
X28110802Y38850000D01*
X28026034Y39276156D01*
X27784636Y39637434D01*
X27423358Y39878832D01*
X26997202Y39963600D01*
X26642798Y39963600D01*
X26216642Y39878832D01*
X25855364Y39637434D01*
X25613966Y39276156D01*
X25529198Y38850000D01*
X25050000Y38850000D01*
X25050000Y41390000D01*
X25529198Y41390000D01*
X25613966Y40963844D01*
X25855364Y40602566D01*
X26216642Y40361168D01*
X26642798Y40276400D01*
X26997202Y40276400D01*
X27423358Y40361168D01*
X27784636Y40602566D01*
X28026034Y40963844D01*
X28110802Y41390000D01*
X28026034Y41816156D01*
X27784636Y42177434D01*
X27423358Y42418832D01*
X26997202Y42503600D01*
X26642798Y42503600D01*
X26216642Y42418832D01*
X25855364Y42177434D01*
X25613966Y41816156D01*
X25529198Y41390000D01*
X25050000Y41390000D01*
X25050000Y54481472D01*
X25421391Y54852863D01*
X25325672Y54709610D01*
X25280000Y54480000D01*
X25280000Y49160383D01*
X25180122Y48919850D01*
X25179879Y48641372D01*
X25286223Y48384000D01*
X25482964Y48186915D01*
X25740150Y48080122D01*
X26018628Y48079879D01*
X26276000Y48186223D01*
X26473085Y48382964D01*
X26480000Y48399617D01*
X26480000Y44728487D01*
X26371641Y44620317D01*
X26280104Y44399871D01*
X26279896Y44161176D01*
X26371048Y43940571D01*
X26539683Y43771641D01*
X26760129Y43680104D01*
X26998824Y43679896D01*
X27169948Y43750603D01*
X27169896Y43691176D01*
X27261048Y43470571D01*
X27429683Y43301641D01*
X27650129Y43210104D01*
X27888824Y43209896D01*
X28109429Y43301048D01*
X28278359Y43469683D01*
X28369896Y43690129D01*
X28370104Y43928824D01*
X28278952Y44149429D01*
X28160000Y44268589D01*
X28160000Y52571513D01*
X28268359Y52679683D01*
X28359896Y52900129D01*
X28360104Y53138824D01*
X28268952Y53359429D01*
X28217100Y53411372D01*
X29689879Y53411372D01*
X29796223Y53154000D01*
X29992964Y52956915D01*
X30083625Y52919269D01*
X32629994Y50372900D01*
X32629879Y50241372D01*
X32736223Y49984000D01*
X32932964Y49786915D01*
X33190150Y49680122D01*
X33468628Y49679879D01*
X33726000Y49786223D01*
X33923085Y49982964D01*
X34029878Y50240150D01*
X34030121Y50518628D01*
X33923777Y50776000D01*
X33727036Y50973085D01*
X33469850Y51079878D01*
X33337112Y51079994D01*
X31065548Y53351558D01*
X31089878Y53410150D01*
X31090121Y53688628D01*
X30983777Y53946000D01*
X30787036Y54143085D01*
X30529850Y54249878D01*
X30251372Y54250121D01*
X29994000Y54143777D01*
X29796915Y53947036D01*
X29690122Y53689850D01*
X29689879Y53411372D01*
X28217100Y53411372D01*
X28100317Y53528359D01*
X27879871Y53619896D01*
X27641176Y53620104D01*
X27420571Y53528952D01*
X27251641Y53360317D01*
X27160104Y53139871D01*
X27159896Y52901176D01*
X27251048Y52680571D01*
X27360000Y52571428D01*
X27360000Y52348432D01*
X27220317Y52488359D01*
X26999871Y52579896D01*
X26761176Y52580104D01*
X26540571Y52488952D01*
X26480000Y52428487D01*
X26480000Y54231472D01*
X26569264Y54320736D01*
X26699328Y54515390D01*
X26745000Y54745000D01*
X26745000Y56044617D01*
X26844878Y56285150D01*
X26845121Y56563628D01*
X26738777Y56821000D01*
X26542036Y57018085D01*
X26284850Y57124878D01*
X26006372Y57125121D01*
X25749000Y57018777D01*
X25551915Y56822036D01*
X25451371Y56579899D01*
X25050000Y56178528D01*
X25050000Y69710000D01*
X53950000Y69710000D01*
X53950000Y69330000D01*
G36*
X81200000Y-2950000D02*
X25050000Y-2950000D01*
X25050000Y197800D01*
X40987191Y197800D01*
X40987191Y-2943800D01*
X62012810Y-2943800D01*
X62012810Y-1636001D01*
X76434710Y-1636001D01*
X76673163Y-1911300D01*
X77505585Y-2273570D01*
X78413278Y-2289709D01*
X79258053Y-1957260D01*
X79326837Y-1911300D01*
X79565290Y-1636001D01*
X78000000Y-70711D01*
X76434710Y-1636001D01*
X62012810Y-1636001D01*
X62012810Y197800D01*
X40987191Y197800D01*
X25050000Y197800D01*
X25050000Y238588D01*
X66679772Y238588D01*
X66880306Y-246743D01*
X67251304Y-618389D01*
X67736284Y-819770D01*
X68261412Y-820228D01*
X68746743Y-619694D01*
X68953519Y-413278D01*
X75710291Y-413278D01*
X76042740Y-1258053D01*
X76088700Y-1326837D01*
X76363999Y-1565290D01*
X77929289Y0D01*
X78070711Y0D01*
X79636001Y-1565290D01*
X79911300Y-1326837D01*
X80273570Y-494415D01*
X80289709Y413278D01*
X79957260Y1258053D01*
X79911300Y1326837D01*
X79636001Y1565290D01*
X78070711Y0D01*
X77929289Y0D01*
X76363999Y1565290D01*
X76088700Y1326837D01*
X75726430Y494415D01*
X75710291Y-413278D01*
X68953519Y-413278D01*
X69118389Y-248696D01*
X69319770Y236284D01*
X69320228Y761412D01*
X69119694Y1246743D01*
X68748696Y1618389D01*
X68706282Y1636001D01*
X76434710Y1636001D01*
X78000000Y70711D01*
X79565290Y1636001D01*
X79326837Y1911300D01*
X78494415Y2273570D01*
X77586722Y2289709D01*
X76741947Y1957260D01*
X76673163Y1911300D01*
X76434710Y1636001D01*
X68706282Y1636001D01*
X68263716Y1819770D01*
X67738588Y1820228D01*
X67253257Y1619694D01*
X66881611Y1248696D01*
X66680230Y763716D01*
X66679772Y238588D01*
X25050000Y238588D01*
X25050000Y2766000D01*
X36239103Y2766000D01*
X36239103Y734000D01*
X36256535Y641356D01*
X36311288Y556268D01*
X36394831Y499185D01*
X36494000Y479103D01*
X38526000Y479103D01*
X38618644Y496535D01*
X38703732Y551288D01*
X38760815Y634831D01*
X38780897Y734000D01*
X38780897Y1774802D01*
X38784000Y1774802D01*
X38784000Y1725198D01*
X38880369Y1240721D01*
X39154803Y830001D01*
X39565523Y555567D01*
X40050000Y459198D01*
X40534477Y555567D01*
X40945197Y830001D01*
X41219631Y1240721D01*
X41316000Y1725198D01*
X41316000Y1774802D01*
X41279719Y1957202D01*
X46586400Y1957202D01*
X46586400Y1602798D01*
X46671168Y1176642D01*
X46912566Y815364D01*
X47273844Y573966D01*
X47700000Y489198D01*
X48126156Y573966D01*
X48487434Y815364D01*
X48728832Y1176642D01*
X48813600Y1602798D01*
X48813600Y1957202D01*
X48728832Y2383358D01*
X48487434Y2744636D01*
X48126156Y2986034D01*
X47700000Y3070802D01*
X47273844Y2986034D01*
X46912566Y2744636D01*
X46671168Y2383358D01*
X46586400Y1957202D01*
X41279719Y1957202D01*
X41219631Y2259279D01*
X40945197Y2669999D01*
X40627777Y2882092D01*
X40975685Y3230000D01*
X49274314Y3230000D01*
X49636666Y2867648D01*
X49452566Y2744636D01*
X49211168Y2383358D01*
X49126400Y1957202D01*
X49126400Y1602798D01*
X49211168Y1176642D01*
X49452566Y815364D01*
X49813844Y573966D01*
X50240000Y489198D01*
X50666156Y573966D01*
X51027434Y815364D01*
X51268832Y1176642D01*
X51353600Y1602798D01*
X51353600Y1957202D01*
X51268832Y2383358D01*
X51027434Y2744636D01*
X50950563Y2796000D01*
X51661503Y2796000D01*
X51661503Y764000D01*
X51678935Y671356D01*
X51733688Y586268D01*
X51817231Y529185D01*
X51916400Y509103D01*
X53643600Y509103D01*
X53736244Y526535D01*
X53821332Y581288D01*
X53878415Y664831D01*
X53898497Y764000D01*
X53898497Y2796000D01*
X53881065Y2888644D01*
X53826312Y2973732D01*
X53742769Y3030815D01*
X53643600Y3050897D01*
X51916400Y3050897D01*
X51823756Y3033465D01*
X51738668Y2978712D01*
X51681585Y2895169D01*
X51661503Y2796000D01*
X50950563Y2796000D01*
X50666156Y2986034D01*
X50598595Y2999473D01*
X50522843Y3112843D01*
X49722843Y3912843D01*
X49593074Y3999552D01*
X49440000Y4030000D01*
X40810000Y4030000D01*
X40656927Y3999552D01*
X40527157Y3912843D01*
X40527155Y3912840D01*
X39767157Y3152843D01*
X39680448Y3023074D01*
X39668896Y2964995D01*
X39565523Y2944433D01*
X39154803Y2669999D01*
X38880369Y2259279D01*
X38784000Y1774802D01*
X38780897Y1774802D01*
X38780897Y2766000D01*
X38763465Y2858644D01*
X38708712Y2943732D01*
X38625169Y3000815D01*
X38526000Y3020897D01*
X36494000Y3020897D01*
X36401356Y3003465D01*
X36316268Y2948712D01*
X36259185Y2865169D01*
X36239103Y2766000D01*
X25050000Y2766000D01*
X25050000Y9000000D01*
X45489198Y9000000D01*
X45573966Y8573844D01*
X45815364Y8212566D01*
X46176642Y7971168D01*
X46602798Y7886400D01*
X46957202Y7886400D01*
X47383358Y7971168D01*
X47744636Y8212566D01*
X47986034Y8573844D01*
X47991237Y8600000D01*
X51562741Y8600000D01*
X51563966Y8593844D01*
X51805364Y8232566D01*
X52166642Y7991168D01*
X52592798Y7906400D01*
X52947202Y7906400D01*
X53373358Y7991168D01*
X53734636Y8232566D01*
X53976034Y8593844D01*
X54060802Y9020000D01*
X53976034Y9446156D01*
X53734636Y9807434D01*
X53373358Y10048832D01*
X52947202Y10133600D01*
X52592798Y10133600D01*
X52166642Y10048832D01*
X51805364Y9807434D01*
X51563966Y9446156D01*
X51554785Y9400000D01*
X47991237Y9400000D01*
X47986034Y9426156D01*
X47744636Y9787434D01*
X47383358Y10028832D01*
X46957202Y10113600D01*
X46602798Y10113600D01*
X46176642Y10028832D01*
X45815364Y9787434D01*
X45573966Y9426156D01*
X45489198Y9000000D01*
X25050000Y9000000D01*
X25050000Y11540000D01*
X45489198Y11540000D01*
X45573966Y11113844D01*
X45815364Y10752566D01*
X46176642Y10511168D01*
X46602798Y10426400D01*
X46957202Y10426400D01*
X47383358Y10511168D01*
X47744636Y10752566D01*
X47986034Y11113844D01*
X48070802Y11540000D01*
X48066824Y11560000D01*
X51479198Y11560000D01*
X51563966Y11133844D01*
X51805364Y10772566D01*
X52166642Y10531168D01*
X52592798Y10446400D01*
X52947202Y10446400D01*
X53373358Y10531168D01*
X53734636Y10772566D01*
X53976034Y11133844D01*
X54060802Y11560000D01*
X53976034Y11986156D01*
X53734636Y12347434D01*
X53373358Y12588832D01*
X52947202Y12673600D01*
X52592798Y12673600D01*
X52166642Y12588832D01*
X51805364Y12347434D01*
X51563966Y11986156D01*
X51479198Y11560000D01*
X48066824Y11560000D01*
X47986034Y11966156D01*
X47744636Y12327434D01*
X47383358Y12568832D01*
X46957202Y12653600D01*
X46602798Y12653600D01*
X46176642Y12568832D01*
X45815364Y12327434D01*
X45573966Y11966156D01*
X45489198Y11540000D01*
X25050000Y11540000D01*
X25050000Y14943600D01*
X45509103Y14943600D01*
X45509103Y13216400D01*
X45526535Y13123756D01*
X45581288Y13038668D01*
X45664831Y12981585D01*
X45764000Y12961503D01*
X47796000Y12961503D01*
X47888644Y12978935D01*
X47973732Y13033688D01*
X48030815Y13117231D01*
X48050897Y13216400D01*
X48050897Y14943600D01*
X48047134Y14963600D01*
X51499103Y14963600D01*
X51499103Y13236400D01*
X51516535Y13143756D01*
X51571288Y13058668D01*
X51654831Y13001585D01*
X51754000Y12981503D01*
X53786000Y12981503D01*
X53878644Y12998935D01*
X53963732Y13053688D01*
X54020815Y13137231D01*
X54040897Y13236400D01*
X54040897Y14963600D01*
X54023465Y15056244D01*
X53968712Y15141332D01*
X53885169Y15198415D01*
X53786000Y15218497D01*
X51754000Y15218497D01*
X51661356Y15201065D01*
X51576268Y15146312D01*
X51519185Y15062769D01*
X51499103Y14963600D01*
X48047134Y14963600D01*
X48033465Y15036244D01*
X47978712Y15121332D01*
X47895169Y15178415D01*
X47796000Y15198497D01*
X45764000Y15198497D01*
X45671356Y15181065D01*
X45586268Y15126312D01*
X45529185Y15042769D01*
X45509103Y14943600D01*
X25050000Y14943600D01*
X25050000Y15700000D01*
X38250000Y15700000D01*
X38269453Y15703939D01*
X38285840Y15715136D01*
X38296581Y15731827D01*
X38300000Y15750000D01*
X38300000Y29892894D01*
X41887107Y33480000D01*
X46172894Y33480000D01*
X48626446Y31026447D01*
X48775388Y30926927D01*
X48788658Y30918060D01*
X48980000Y30880000D01*
X61480000Y30880000D01*
X61671342Y30918060D01*
X61833553Y31026447D01*
X66287100Y35479994D01*
X66418628Y35479879D01*
X66676000Y35586223D01*
X66873085Y35782964D01*
X66979878Y36040150D01*
X66980121Y36318628D01*
X66873777Y36576000D01*
X66677036Y36773085D01*
X66419850Y36879878D01*
X66141372Y36880121D01*
X65884000Y36773777D01*
X65686915Y36577036D01*
X65580122Y36319850D01*
X65580006Y36187112D01*
X61272894Y31880000D01*
X49187107Y31880000D01*
X46733553Y34333553D01*
X46571342Y34441940D01*
X46380000Y34480000D01*
X41680000Y34480000D01*
X41488658Y34441940D01*
X41423686Y34398526D01*
X41326447Y34333554D01*
X38300000Y31307106D01*
X38300000Y57450000D01*
X46750000Y57450000D01*
X46769453Y57453939D01*
X46785840Y57465136D01*
X46796581Y57481827D01*
X46800000Y57500000D01*
X46800000Y61950000D01*
X55250000Y61950000D01*
X55269453Y61953939D01*
X55285840Y61965136D01*
X55296581Y61981827D01*
X55300000Y62000000D01*
X55300000Y68130000D01*
X71981472Y68130000D01*
X73780000Y66331472D01*
X73780000Y63880383D01*
X73680122Y63639850D01*
X73679879Y63361372D01*
X73780000Y63119061D01*
X73780000Y57060383D01*
X73680122Y56819850D01*
X73679879Y56541372D01*
X73780000Y56299061D01*
X73780000Y52060383D01*
X73680122Y51819850D01*
X73679879Y51541372D01*
X73780000Y51299061D01*
X73780000Y45760383D01*
X73680122Y45519850D01*
X73679879Y45241372D01*
X73780000Y44999061D01*
X73780000Y38830000D01*
X73140000Y38830000D01*
X72948658Y38791940D01*
X72786446Y38683553D01*
X70982900Y36880006D01*
X70851372Y36880121D01*
X70594000Y36773777D01*
X70396915Y36577036D01*
X70290122Y36319850D01*
X70289879Y36041372D01*
X70396223Y35784000D01*
X70592964Y35586915D01*
X70850150Y35480122D01*
X71128628Y35479879D01*
X71386000Y35586223D01*
X71583085Y35782964D01*
X71689878Y36040150D01*
X71689994Y36172888D01*
X73347107Y37830000D01*
X73780000Y37830000D01*
X73780000Y32060383D01*
X73680122Y31819850D01*
X73679879Y31541372D01*
X73780000Y31299061D01*
X73780000Y24860383D01*
X73680122Y24619850D01*
X73679879Y24341372D01*
X73780000Y24099061D01*
X73780000Y18060383D01*
X73680122Y17819850D01*
X73679879Y17541372D01*
X73780000Y17299061D01*
X73780000Y11260383D01*
X73680122Y11019850D01*
X73679879Y10741372D01*
X73780000Y10499061D01*
X73780000Y4360383D01*
X73680122Y4119850D01*
X73679879Y3841372D01*
X73786223Y3584000D01*
X73982964Y3386915D01*
X74240150Y3280122D01*
X74518628Y3279879D01*
X74776000Y3386223D01*
X74973085Y3582964D01*
X75079878Y3840150D01*
X75080121Y4118628D01*
X74980000Y4360939D01*
X74980000Y10499617D01*
X75079878Y10740150D01*
X75080121Y11018628D01*
X74980000Y11260939D01*
X74980000Y11620000D01*
X77389198Y11620000D01*
X77473966Y11193844D01*
X77715364Y10832566D01*
X78076642Y10591168D01*
X78502798Y10506400D01*
X78857202Y10506400D01*
X79283358Y10591168D01*
X79644636Y10832566D01*
X79886034Y11193844D01*
X79970802Y11620000D01*
X79886034Y12046156D01*
X79644636Y12407434D01*
X79283358Y12648832D01*
X78857202Y12733600D01*
X78502798Y12733600D01*
X78076642Y12648832D01*
X77715364Y12407434D01*
X77473966Y12046156D01*
X77389198Y11620000D01*
X74980000Y11620000D01*
X74980000Y14160000D01*
X77389198Y14160000D01*
X77473966Y13733844D01*
X77715364Y13372566D01*
X78076642Y13131168D01*
X78502798Y13046400D01*
X78857202Y13046400D01*
X79283358Y13131168D01*
X79644636Y13372566D01*
X79886034Y13733844D01*
X79970802Y14160000D01*
X79886034Y14586156D01*
X79644636Y14947434D01*
X79283358Y15188832D01*
X78857202Y15273600D01*
X78502798Y15273600D01*
X78076642Y15188832D01*
X77715364Y14947434D01*
X77473966Y14586156D01*
X77389198Y14160000D01*
X74980000Y14160000D01*
X74980000Y16700000D01*
X77389198Y16700000D01*
X77473966Y16273844D01*
X77715364Y15912566D01*
X78076642Y15671168D01*
X78502798Y15586400D01*
X78857202Y15586400D01*
X79283358Y15671168D01*
X79644636Y15912566D01*
X79886034Y16273844D01*
X79970802Y16700000D01*
X79886034Y17126156D01*
X79644636Y17487434D01*
X79283358Y17728832D01*
X78857202Y17813600D01*
X78502798Y17813600D01*
X78076642Y17728832D01*
X77715364Y17487434D01*
X77473966Y17126156D01*
X77389198Y16700000D01*
X74980000Y16700000D01*
X74980000Y17299617D01*
X75079878Y17540150D01*
X75080121Y17818628D01*
X74980000Y18060939D01*
X74980000Y19240000D01*
X77389198Y19240000D01*
X77473966Y18813844D01*
X77715364Y18452566D01*
X78076642Y18211168D01*
X78502798Y18126400D01*
X78857202Y18126400D01*
X79283358Y18211168D01*
X79644636Y18452566D01*
X79886034Y18813844D01*
X79970802Y19240000D01*
X79886034Y19666156D01*
X79644636Y20027434D01*
X79283358Y20268832D01*
X78857202Y20353600D01*
X78502798Y20353600D01*
X78076642Y20268832D01*
X77715364Y20027434D01*
X77473966Y19666156D01*
X77389198Y19240000D01*
X74980000Y19240000D01*
X74980000Y21780000D01*
X77389198Y21780000D01*
X77473966Y21353844D01*
X77715364Y20992566D01*
X78076642Y20751168D01*
X78502798Y20666400D01*
X78857202Y20666400D01*
X79283358Y20751168D01*
X79644636Y20992566D01*
X79886034Y21353844D01*
X79970802Y21780000D01*
X79886034Y22206156D01*
X79644636Y22567434D01*
X79283358Y22808832D01*
X78857202Y22893600D01*
X78502798Y22893600D01*
X78076642Y22808832D01*
X77715364Y22567434D01*
X77473966Y22206156D01*
X77389198Y21780000D01*
X74980000Y21780000D01*
X74980000Y24099617D01*
X75071510Y24320000D01*
X77389198Y24320000D01*
X77473966Y23893844D01*
X77715364Y23532566D01*
X78076642Y23291168D01*
X78502798Y23206400D01*
X78857202Y23206400D01*
X79283358Y23291168D01*
X79644636Y23532566D01*
X79886034Y23893844D01*
X79970802Y24320000D01*
X79886034Y24746156D01*
X79644636Y25107434D01*
X79283358Y25348832D01*
X78857202Y25433600D01*
X78502798Y25433600D01*
X78076642Y25348832D01*
X77715364Y25107434D01*
X77473966Y24746156D01*
X77389198Y24320000D01*
X75071510Y24320000D01*
X75079878Y24340150D01*
X75080121Y24618628D01*
X74980000Y24860939D01*
X74980000Y26860000D01*
X77389198Y26860000D01*
X77473966Y26433844D01*
X77715364Y26072566D01*
X78076642Y25831168D01*
X78502798Y25746400D01*
X78857202Y25746400D01*
X79283358Y25831168D01*
X79644636Y26072566D01*
X79886034Y26433844D01*
X79970802Y26860000D01*
X79886034Y27286156D01*
X79644636Y27647434D01*
X79283358Y27888832D01*
X78857202Y27973600D01*
X78502798Y27973600D01*
X78076642Y27888832D01*
X77715364Y27647434D01*
X77473966Y27286156D01*
X77389198Y26860000D01*
X74980000Y26860000D01*
X74980000Y29400000D01*
X77389198Y29400000D01*
X77473966Y28973844D01*
X77715364Y28612566D01*
X78076642Y28371168D01*
X78502798Y28286400D01*
X78857202Y28286400D01*
X79283358Y28371168D01*
X79644636Y28612566D01*
X79886034Y28973844D01*
X79970802Y29400000D01*
X79886034Y29826156D01*
X79644636Y30187434D01*
X79283358Y30428832D01*
X78857202Y30513600D01*
X78502798Y30513600D01*
X78076642Y30428832D01*
X77715364Y30187434D01*
X77473966Y29826156D01*
X77389198Y29400000D01*
X74980000Y29400000D01*
X74980000Y31299617D01*
X75079878Y31540150D01*
X75080121Y31818628D01*
X75029972Y31940000D01*
X77389198Y31940000D01*
X77473966Y31513844D01*
X77715364Y31152566D01*
X78076642Y30911168D01*
X78502798Y30826400D01*
X78857202Y30826400D01*
X79283358Y30911168D01*
X79644636Y31152566D01*
X79886034Y31513844D01*
X79970802Y31940000D01*
X79886034Y32366156D01*
X79644636Y32727434D01*
X79283358Y32968832D01*
X78857202Y33053600D01*
X78502798Y33053600D01*
X78076642Y32968832D01*
X77715364Y32727434D01*
X77473966Y32366156D01*
X77389198Y31940000D01*
X75029972Y31940000D01*
X74980000Y32060939D01*
X74980000Y34480000D01*
X77389198Y34480000D01*
X77473966Y34053844D01*
X77715364Y33692566D01*
X78076642Y33451168D01*
X78502798Y33366400D01*
X78857202Y33366400D01*
X79283358Y33451168D01*
X79644636Y33692566D01*
X79886034Y34053844D01*
X79970802Y34480000D01*
X79886034Y34906156D01*
X79644636Y35267434D01*
X79283358Y35508832D01*
X78857202Y35593600D01*
X78502798Y35593600D01*
X78076642Y35508832D01*
X77715364Y35267434D01*
X77473966Y34906156D01*
X77389198Y34480000D01*
X74980000Y34480000D01*
X74980000Y37020000D01*
X77389198Y37020000D01*
X77473966Y36593844D01*
X77715364Y36232566D01*
X78076642Y35991168D01*
X78502798Y35906400D01*
X78857202Y35906400D01*
X79283358Y35991168D01*
X79644636Y36232566D01*
X79886034Y36593844D01*
X79970802Y37020000D01*
X79886034Y37446156D01*
X79644636Y37807434D01*
X79283358Y38048832D01*
X78857202Y38133600D01*
X78502798Y38133600D01*
X78076642Y38048832D01*
X77715364Y37807434D01*
X77473966Y37446156D01*
X77389198Y37020000D01*
X74980000Y37020000D01*
X74980000Y37929884D01*
X74983085Y37932964D01*
X75089878Y38190150D01*
X75090121Y38468628D01*
X74983777Y38726000D01*
X74980000Y38729784D01*
X74980000Y39560000D01*
X77389198Y39560000D01*
X77473966Y39133844D01*
X77715364Y38772566D01*
X78076642Y38531168D01*
X78502798Y38446400D01*
X78857202Y38446400D01*
X79283358Y38531168D01*
X79644636Y38772566D01*
X79886034Y39133844D01*
X79970802Y39560000D01*
X79886034Y39986156D01*
X79644636Y40347434D01*
X79283358Y40588832D01*
X78857202Y40673600D01*
X78502798Y40673600D01*
X78076642Y40588832D01*
X77715364Y40347434D01*
X77473966Y39986156D01*
X77389198Y39560000D01*
X74980000Y39560000D01*
X74980000Y42100000D01*
X77389198Y42100000D01*
X77473966Y41673844D01*
X77715364Y41312566D01*
X78076642Y41071168D01*
X78502798Y40986400D01*
X78857202Y40986400D01*
X79283358Y41071168D01*
X79644636Y41312566D01*
X79886034Y41673844D01*
X79970802Y42100000D01*
X79886034Y42526156D01*
X79644636Y42887434D01*
X79283358Y43128832D01*
X78857202Y43213600D01*
X78502798Y43213600D01*
X78076642Y43128832D01*
X77715364Y42887434D01*
X77473966Y42526156D01*
X77389198Y42100000D01*
X74980000Y42100000D01*
X74980000Y44640000D01*
X77389198Y44640000D01*
X77473966Y44213844D01*
X77715364Y43852566D01*
X78076642Y43611168D01*
X78502798Y43526400D01*
X78857202Y43526400D01*
X79283358Y43611168D01*
X79644636Y43852566D01*
X79886034Y44213844D01*
X79970802Y44640000D01*
X79886034Y45066156D01*
X79644636Y45427434D01*
X79283358Y45668832D01*
X78857202Y45753600D01*
X78502798Y45753600D01*
X78076642Y45668832D01*
X77715364Y45427434D01*
X77473966Y45066156D01*
X77389198Y44640000D01*
X74980000Y44640000D01*
X74980000Y44999617D01*
X75079878Y45240150D01*
X75080121Y45518628D01*
X74980000Y45760939D01*
X74980000Y47180000D01*
X77389198Y47180000D01*
X77473966Y46753844D01*
X77715364Y46392566D01*
X78076642Y46151168D01*
X78502798Y46066400D01*
X78857202Y46066400D01*
X79283358Y46151168D01*
X79644636Y46392566D01*
X79886034Y46753844D01*
X79970802Y47180000D01*
X79886034Y47606156D01*
X79644636Y47967434D01*
X79283358Y48208832D01*
X78857202Y48293600D01*
X78502798Y48293600D01*
X78076642Y48208832D01*
X77715364Y47967434D01*
X77473966Y47606156D01*
X77389198Y47180000D01*
X74980000Y47180000D01*
X74980000Y49720000D01*
X77389198Y49720000D01*
X77473966Y49293844D01*
X77715364Y48932566D01*
X78076642Y48691168D01*
X78502798Y48606400D01*
X78857202Y48606400D01*
X79283358Y48691168D01*
X79644636Y48932566D01*
X79886034Y49293844D01*
X79970802Y49720000D01*
X79886034Y50146156D01*
X79644636Y50507434D01*
X79283358Y50748832D01*
X78857202Y50833600D01*
X78502798Y50833600D01*
X78076642Y50748832D01*
X77715364Y50507434D01*
X77473966Y50146156D01*
X77389198Y49720000D01*
X74980000Y49720000D01*
X74980000Y51299617D01*
X75079878Y51540150D01*
X75080121Y51818628D01*
X74980000Y52060939D01*
X74980000Y52260000D01*
X77389198Y52260000D01*
X77473966Y51833844D01*
X77715364Y51472566D01*
X78076642Y51231168D01*
X78502798Y51146400D01*
X78857202Y51146400D01*
X79283358Y51231168D01*
X79644636Y51472566D01*
X79886034Y51833844D01*
X79970802Y52260000D01*
X79886034Y52686156D01*
X79644636Y53047434D01*
X79283358Y53288832D01*
X78857202Y53373600D01*
X78502798Y53373600D01*
X78076642Y53288832D01*
X77715364Y53047434D01*
X77473966Y52686156D01*
X77389198Y52260000D01*
X74980000Y52260000D01*
X74980000Y54800000D01*
X77389198Y54800000D01*
X77473966Y54373844D01*
X77715364Y54012566D01*
X78076642Y53771168D01*
X78502798Y53686400D01*
X78857202Y53686400D01*
X79283358Y53771168D01*
X79644636Y54012566D01*
X79886034Y54373844D01*
X79970802Y54800000D01*
X79886034Y55226156D01*
X79644636Y55587434D01*
X79283358Y55828832D01*
X78857202Y55913600D01*
X78502798Y55913600D01*
X78076642Y55828832D01*
X77715364Y55587434D01*
X77473966Y55226156D01*
X77389198Y54800000D01*
X74980000Y54800000D01*
X74980000Y56299617D01*
X75079878Y56540150D01*
X75080121Y56818628D01*
X74980000Y57060939D01*
X74980000Y57340000D01*
X77389198Y57340000D01*
X77473966Y56913844D01*
X77715364Y56552566D01*
X78076642Y56311168D01*
X78502798Y56226400D01*
X78857202Y56226400D01*
X79283358Y56311168D01*
X79644636Y56552566D01*
X79886034Y56913844D01*
X79970802Y57340000D01*
X79886034Y57766156D01*
X79644636Y58127434D01*
X79283358Y58368832D01*
X78857202Y58453600D01*
X78502798Y58453600D01*
X78076642Y58368832D01*
X77715364Y58127434D01*
X77473966Y57766156D01*
X77389198Y57340000D01*
X74980000Y57340000D01*
X74980000Y60743600D01*
X77409103Y60743600D01*
X77409103Y59016400D01*
X77426535Y58923756D01*
X77481288Y58838668D01*
X77564831Y58781585D01*
X77664000Y58761503D01*
X79696000Y58761503D01*
X79788644Y58778935D01*
X79873732Y58833688D01*
X79930815Y58917231D01*
X79950897Y59016400D01*
X79950897Y60743600D01*
X79933465Y60836244D01*
X79878712Y60921332D01*
X79795169Y60978415D01*
X79696000Y60998497D01*
X77664000Y60998497D01*
X77571356Y60981065D01*
X77486268Y60926312D01*
X77429185Y60842769D01*
X77409103Y60743600D01*
X74980000Y60743600D01*
X74980000Y63119617D01*
X75079878Y63360150D01*
X75080121Y63638628D01*
X74980000Y63880939D01*
X74980000Y66580000D01*
X74934328Y66809610D01*
X74804264Y67004264D01*
X72654264Y69154264D01*
X72459610Y69284328D01*
X72230000Y69330000D01*
X55300000Y69330000D01*
X55300000Y70750000D01*
X55296061Y70769453D01*
X55284864Y70785840D01*
X55268173Y70796581D01*
X55250000Y70800000D01*
X25050000Y70800000D01*
X25050000Y71238588D01*
X65679772Y71238588D01*
X65880306Y70753257D01*
X66251304Y70381611D01*
X66736284Y70180230D01*
X67261412Y70179772D01*
X67746743Y70380306D01*
X68118389Y70751304D01*
X68165183Y70863999D01*
X76234710Y70863999D01*
X76473163Y70588700D01*
X77305585Y70226430D01*
X78213278Y70210291D01*
X79058053Y70542740D01*
X79126837Y70588700D01*
X79365290Y70863999D01*
X77800000Y72429289D01*
X76234710Y70863999D01*
X68165183Y70863999D01*
X68319770Y71236284D01*
X68320228Y71761412D01*
X68185814Y72086722D01*
X75510291Y72086722D01*
X75842740Y71241947D01*
X75888700Y71173163D01*
X76163999Y70934710D01*
X77729289Y72500000D01*
X77870711Y72500000D01*
X79436001Y70934710D01*
X79711300Y71173163D01*
X80073570Y72005585D01*
X80089709Y72913278D01*
X79757260Y73758053D01*
X79711300Y73826837D01*
X79436001Y74065290D01*
X77870711Y72500000D01*
X77729289Y72500000D01*
X76163999Y74065290D01*
X75888700Y73826837D01*
X75526430Y72994415D01*
X75510291Y72086722D01*
X68185814Y72086722D01*
X68119694Y72246743D01*
X67748696Y72618389D01*
X67263716Y72819770D01*
X66738588Y72820228D01*
X66253257Y72619694D01*
X65881611Y72248696D01*
X65680230Y71763716D01*
X65679772Y71238588D01*
X25050000Y71238588D01*
X25050000Y74136001D01*
X76234710Y74136001D01*
X77800000Y72570711D01*
X79365290Y74136001D01*
X79126837Y74411300D01*
X78294415Y74773570D01*
X77386722Y74789709D01*
X76541947Y74457260D01*
X76473163Y74411300D01*
X76234710Y74136001D01*
X25050000Y74136001D01*
X25050000Y75950000D01*
X81200000Y75950000D01*
X81200000Y-2950000D01*
X81200000Y-2950000D01*
G37*
X81200000Y-2950000D02*
X25050000Y-2950000D01*
X25050000Y197800D01*
X40987191Y197800D01*
X40987191Y-2943800D01*
X62012810Y-2943800D01*
X62012810Y-1636001D01*
X76434710Y-1636001D01*
X76673163Y-1911300D01*
X77505585Y-2273570D01*
X78413278Y-2289709D01*
X79258053Y-1957260D01*
X79326837Y-1911300D01*
X79565290Y-1636001D01*
X78000000Y-70711D01*
X76434710Y-1636001D01*
X62012810Y-1636001D01*
X62012810Y197800D01*
X40987191Y197800D01*
X25050000Y197800D01*
X25050000Y238588D01*
X66679772Y238588D01*
X66880306Y-246743D01*
X67251304Y-618389D01*
X67736284Y-819770D01*
X68261412Y-820228D01*
X68746743Y-619694D01*
X68953519Y-413278D01*
X75710291Y-413278D01*
X76042740Y-1258053D01*
X76088700Y-1326837D01*
X76363999Y-1565290D01*
X77929289Y0D01*
X78070711Y0D01*
X79636001Y-1565290D01*
X79911300Y-1326837D01*
X80273570Y-494415D01*
X80289709Y413278D01*
X79957260Y1258053D01*
X79911300Y1326837D01*
X79636001Y1565290D01*
X78070711Y0D01*
X77929289Y0D01*
X76363999Y1565290D01*
X76088700Y1326837D01*
X75726430Y494415D01*
X75710291Y-413278D01*
X68953519Y-413278D01*
X69118389Y-248696D01*
X69319770Y236284D01*
X69320228Y761412D01*
X69119694Y1246743D01*
X68748696Y1618389D01*
X68706282Y1636001D01*
X76434710Y1636001D01*
X78000000Y70711D01*
X79565290Y1636001D01*
X79326837Y1911300D01*
X78494415Y2273570D01*
X77586722Y2289709D01*
X76741947Y1957260D01*
X76673163Y1911300D01*
X76434710Y1636001D01*
X68706282Y1636001D01*
X68263716Y1819770D01*
X67738588Y1820228D01*
X67253257Y1619694D01*
X66881611Y1248696D01*
X66680230Y763716D01*
X66679772Y238588D01*
X25050000Y238588D01*
X25050000Y2766000D01*
X36239103Y2766000D01*
X36239103Y734000D01*
X36256535Y641356D01*
X36311288Y556268D01*
X36394831Y499185D01*
X36494000Y479103D01*
X38526000Y479103D01*
X38618644Y496535D01*
X38703732Y551288D01*
X38760815Y634831D01*
X38780897Y734000D01*
X38780897Y1774802D01*
X38784000Y1774802D01*
X38784000Y1725198D01*
X38880369Y1240721D01*
X39154803Y830001D01*
X39565523Y555567D01*
X40050000Y459198D01*
X40534477Y555567D01*
X40945197Y830001D01*
X41219631Y1240721D01*
X41316000Y1725198D01*
X41316000Y1774802D01*
X41279719Y1957202D01*
X46586400Y1957202D01*
X46586400Y1602798D01*
X46671168Y1176642D01*
X46912566Y815364D01*
X47273844Y573966D01*
X47700000Y489198D01*
X48126156Y573966D01*
X48487434Y815364D01*
X48728832Y1176642D01*
X48813600Y1602798D01*
X48813600Y1957202D01*
X48728832Y2383358D01*
X48487434Y2744636D01*
X48126156Y2986034D01*
X47700000Y3070802D01*
X47273844Y2986034D01*
X46912566Y2744636D01*
X46671168Y2383358D01*
X46586400Y1957202D01*
X41279719Y1957202D01*
X41219631Y2259279D01*
X40945197Y2669999D01*
X40627777Y2882092D01*
X40975685Y3230000D01*
X49274314Y3230000D01*
X49636666Y2867648D01*
X49452566Y2744636D01*
X49211168Y2383358D01*
X49126400Y1957202D01*
X49126400Y1602798D01*
X49211168Y1176642D01*
X49452566Y815364D01*
X49813844Y573966D01*
X50240000Y489198D01*
X50666156Y573966D01*
X51027434Y815364D01*
X51268832Y1176642D01*
X51353600Y1602798D01*
X51353600Y1957202D01*
X51268832Y2383358D01*
X51027434Y2744636D01*
X50950563Y2796000D01*
X51661503Y2796000D01*
X51661503Y764000D01*
X51678935Y671356D01*
X51733688Y586268D01*
X51817231Y529185D01*
X51916400Y509103D01*
X53643600Y509103D01*
X53736244Y526535D01*
X53821332Y581288D01*
X53878415Y664831D01*
X53898497Y764000D01*
X53898497Y2796000D01*
X53881065Y2888644D01*
X53826312Y2973732D01*
X53742769Y3030815D01*
X53643600Y3050897D01*
X51916400Y3050897D01*
X51823756Y3033465D01*
X51738668Y2978712D01*
X51681585Y2895169D01*
X51661503Y2796000D01*
X50950563Y2796000D01*
X50666156Y2986034D01*
X50598595Y2999473D01*
X50522843Y3112843D01*
X49722843Y3912843D01*
X49593074Y3999552D01*
X49440000Y4030000D01*
X40810000Y4030000D01*
X40656927Y3999552D01*
X40527157Y3912843D01*
X40527155Y3912840D01*
X39767157Y3152843D01*
X39680448Y3023074D01*
X39668896Y2964995D01*
X39565523Y2944433D01*
X39154803Y2669999D01*
X38880369Y2259279D01*
X38784000Y1774802D01*
X38780897Y1774802D01*
X38780897Y2766000D01*
X38763465Y2858644D01*
X38708712Y2943732D01*
X38625169Y3000815D01*
X38526000Y3020897D01*
X36494000Y3020897D01*
X36401356Y3003465D01*
X36316268Y2948712D01*
X36259185Y2865169D01*
X36239103Y2766000D01*
X25050000Y2766000D01*
X25050000Y9000000D01*
X45489198Y9000000D01*
X45573966Y8573844D01*
X45815364Y8212566D01*
X46176642Y7971168D01*
X46602798Y7886400D01*
X46957202Y7886400D01*
X47383358Y7971168D01*
X47744636Y8212566D01*
X47986034Y8573844D01*
X47991237Y8600000D01*
X51562741Y8600000D01*
X51563966Y8593844D01*
X51805364Y8232566D01*
X52166642Y7991168D01*
X52592798Y7906400D01*
X52947202Y7906400D01*
X53373358Y7991168D01*
X53734636Y8232566D01*
X53976034Y8593844D01*
X54060802Y9020000D01*
X53976034Y9446156D01*
X53734636Y9807434D01*
X53373358Y10048832D01*
X52947202Y10133600D01*
X52592798Y10133600D01*
X52166642Y10048832D01*
X51805364Y9807434D01*
X51563966Y9446156D01*
X51554785Y9400000D01*
X47991237Y9400000D01*
X47986034Y9426156D01*
X47744636Y9787434D01*
X47383358Y10028832D01*
X46957202Y10113600D01*
X46602798Y10113600D01*
X46176642Y10028832D01*
X45815364Y9787434D01*
X45573966Y9426156D01*
X45489198Y9000000D01*
X25050000Y9000000D01*
X25050000Y11540000D01*
X45489198Y11540000D01*
X45573966Y11113844D01*
X45815364Y10752566D01*
X46176642Y10511168D01*
X46602798Y10426400D01*
X46957202Y10426400D01*
X47383358Y10511168D01*
X47744636Y10752566D01*
X47986034Y11113844D01*
X48070802Y11540000D01*
X48066824Y11560000D01*
X51479198Y11560000D01*
X51563966Y11133844D01*
X51805364Y10772566D01*
X52166642Y10531168D01*
X52592798Y10446400D01*
X52947202Y10446400D01*
X53373358Y10531168D01*
X53734636Y10772566D01*
X53976034Y11133844D01*
X54060802Y11560000D01*
X53976034Y11986156D01*
X53734636Y12347434D01*
X53373358Y12588832D01*
X52947202Y12673600D01*
X52592798Y12673600D01*
X52166642Y12588832D01*
X51805364Y12347434D01*
X51563966Y11986156D01*
X51479198Y11560000D01*
X48066824Y11560000D01*
X47986034Y11966156D01*
X47744636Y12327434D01*
X47383358Y12568832D01*
X46957202Y12653600D01*
X46602798Y12653600D01*
X46176642Y12568832D01*
X45815364Y12327434D01*
X45573966Y11966156D01*
X45489198Y11540000D01*
X25050000Y11540000D01*
X25050000Y14943600D01*
X45509103Y14943600D01*
X45509103Y13216400D01*
X45526535Y13123756D01*
X45581288Y13038668D01*
X45664831Y12981585D01*
X45764000Y12961503D01*
X47796000Y12961503D01*
X47888644Y12978935D01*
X47973732Y13033688D01*
X48030815Y13117231D01*
X48050897Y13216400D01*
X48050897Y14943600D01*
X48047134Y14963600D01*
X51499103Y14963600D01*
X51499103Y13236400D01*
X51516535Y13143756D01*
X51571288Y13058668D01*
X51654831Y13001585D01*
X51754000Y12981503D01*
X53786000Y12981503D01*
X53878644Y12998935D01*
X53963732Y13053688D01*
X54020815Y13137231D01*
X54040897Y13236400D01*
X54040897Y14963600D01*
X54023465Y15056244D01*
X53968712Y15141332D01*
X53885169Y15198415D01*
X53786000Y15218497D01*
X51754000Y15218497D01*
X51661356Y15201065D01*
X51576268Y15146312D01*
X51519185Y15062769D01*
X51499103Y14963600D01*
X48047134Y14963600D01*
X48033465Y15036244D01*
X47978712Y15121332D01*
X47895169Y15178415D01*
X47796000Y15198497D01*
X45764000Y15198497D01*
X45671356Y15181065D01*
X45586268Y15126312D01*
X45529185Y15042769D01*
X45509103Y14943600D01*
X25050000Y14943600D01*
X25050000Y15700000D01*
X38250000Y15700000D01*
X38269453Y15703939D01*
X38285840Y15715136D01*
X38296581Y15731827D01*
X38300000Y15750000D01*
X38300000Y29892894D01*
X41887107Y33480000D01*
X46172894Y33480000D01*
X48626446Y31026447D01*
X48775388Y30926927D01*
X48788658Y30918060D01*
X48980000Y30880000D01*
X61480000Y30880000D01*
X61671342Y30918060D01*
X61833553Y31026447D01*
X66287100Y35479994D01*
X66418628Y35479879D01*
X66676000Y35586223D01*
X66873085Y35782964D01*
X66979878Y36040150D01*
X66980121Y36318628D01*
X66873777Y36576000D01*
X66677036Y36773085D01*
X66419850Y36879878D01*
X66141372Y36880121D01*
X65884000Y36773777D01*
X65686915Y36577036D01*
X65580122Y36319850D01*
X65580006Y36187112D01*
X61272894Y31880000D01*
X49187107Y31880000D01*
X46733553Y34333553D01*
X46571342Y34441940D01*
X46380000Y34480000D01*
X41680000Y34480000D01*
X41488658Y34441940D01*
X41423686Y34398526D01*
X41326447Y34333554D01*
X38300000Y31307106D01*
X38300000Y57450000D01*
X46750000Y57450000D01*
X46769453Y57453939D01*
X46785840Y57465136D01*
X46796581Y57481827D01*
X46800000Y57500000D01*
X46800000Y61950000D01*
X55250000Y61950000D01*
X55269453Y61953939D01*
X55285840Y61965136D01*
X55296581Y61981827D01*
X55300000Y62000000D01*
X55300000Y68130000D01*
X71981472Y68130000D01*
X73780000Y66331472D01*
X73780000Y63880383D01*
X73680122Y63639850D01*
X73679879Y63361372D01*
X73780000Y63119061D01*
X73780000Y57060383D01*
X73680122Y56819850D01*
X73679879Y56541372D01*
X73780000Y56299061D01*
X73780000Y52060383D01*
X73680122Y51819850D01*
X73679879Y51541372D01*
X73780000Y51299061D01*
X73780000Y45760383D01*
X73680122Y45519850D01*
X73679879Y45241372D01*
X73780000Y44999061D01*
X73780000Y38830000D01*
X73140000Y38830000D01*
X72948658Y38791940D01*
X72786446Y38683553D01*
X70982900Y36880006D01*
X70851372Y36880121D01*
X70594000Y36773777D01*
X70396915Y36577036D01*
X70290122Y36319850D01*
X70289879Y36041372D01*
X70396223Y35784000D01*
X70592964Y35586915D01*
X70850150Y35480122D01*
X71128628Y35479879D01*
X71386000Y35586223D01*
X71583085Y35782964D01*
X71689878Y36040150D01*
X71689994Y36172888D01*
X73347107Y37830000D01*
X73780000Y37830000D01*
X73780000Y32060383D01*
X73680122Y31819850D01*
X73679879Y31541372D01*
X73780000Y31299061D01*
X73780000Y24860383D01*
X73680122Y24619850D01*
X73679879Y24341372D01*
X73780000Y24099061D01*
X73780000Y18060383D01*
X73680122Y17819850D01*
X73679879Y17541372D01*
X73780000Y17299061D01*
X73780000Y11260383D01*
X73680122Y11019850D01*
X73679879Y10741372D01*
X73780000Y10499061D01*
X73780000Y4360383D01*
X73680122Y4119850D01*
X73679879Y3841372D01*
X73786223Y3584000D01*
X73982964Y3386915D01*
X74240150Y3280122D01*
X74518628Y3279879D01*
X74776000Y3386223D01*
X74973085Y3582964D01*
X75079878Y3840150D01*
X75080121Y4118628D01*
X74980000Y4360939D01*
X74980000Y10499617D01*
X75079878Y10740150D01*
X75080121Y11018628D01*
X74980000Y11260939D01*
X74980000Y11620000D01*
X77389198Y11620000D01*
X77473966Y11193844D01*
X77715364Y10832566D01*
X78076642Y10591168D01*
X78502798Y10506400D01*
X78857202Y10506400D01*
X79283358Y10591168D01*
X79644636Y10832566D01*
X79886034Y11193844D01*
X79970802Y11620000D01*
X79886034Y12046156D01*
X79644636Y12407434D01*
X79283358Y12648832D01*
X78857202Y12733600D01*
X78502798Y12733600D01*
X78076642Y12648832D01*
X77715364Y12407434D01*
X77473966Y12046156D01*
X77389198Y11620000D01*
X74980000Y11620000D01*
X74980000Y14160000D01*
X77389198Y14160000D01*
X77473966Y13733844D01*
X77715364Y13372566D01*
X78076642Y13131168D01*
X78502798Y13046400D01*
X78857202Y13046400D01*
X79283358Y13131168D01*
X79644636Y13372566D01*
X79886034Y13733844D01*
X79970802Y14160000D01*
X79886034Y14586156D01*
X79644636Y14947434D01*
X79283358Y15188832D01*
X78857202Y15273600D01*
X78502798Y15273600D01*
X78076642Y15188832D01*
X77715364Y14947434D01*
X77473966Y14586156D01*
X77389198Y14160000D01*
X74980000Y14160000D01*
X74980000Y16700000D01*
X77389198Y16700000D01*
X77473966Y16273844D01*
X77715364Y15912566D01*
X78076642Y15671168D01*
X78502798Y15586400D01*
X78857202Y15586400D01*
X79283358Y15671168D01*
X79644636Y15912566D01*
X79886034Y16273844D01*
X79970802Y16700000D01*
X79886034Y17126156D01*
X79644636Y17487434D01*
X79283358Y17728832D01*
X78857202Y17813600D01*
X78502798Y17813600D01*
X78076642Y17728832D01*
X77715364Y17487434D01*
X77473966Y17126156D01*
X77389198Y16700000D01*
X74980000Y16700000D01*
X74980000Y17299617D01*
X75079878Y17540150D01*
X75080121Y17818628D01*
X74980000Y18060939D01*
X74980000Y19240000D01*
X77389198Y19240000D01*
X77473966Y18813844D01*
X77715364Y18452566D01*
X78076642Y18211168D01*
X78502798Y18126400D01*
X78857202Y18126400D01*
X79283358Y18211168D01*
X79644636Y18452566D01*
X79886034Y18813844D01*
X79970802Y19240000D01*
X79886034Y19666156D01*
X79644636Y20027434D01*
X79283358Y20268832D01*
X78857202Y20353600D01*
X78502798Y20353600D01*
X78076642Y20268832D01*
X77715364Y20027434D01*
X77473966Y19666156D01*
X77389198Y19240000D01*
X74980000Y19240000D01*
X74980000Y21780000D01*
X77389198Y21780000D01*
X77473966Y21353844D01*
X77715364Y20992566D01*
X78076642Y20751168D01*
X78502798Y20666400D01*
X78857202Y20666400D01*
X79283358Y20751168D01*
X79644636Y20992566D01*
X79886034Y21353844D01*
X79970802Y21780000D01*
X79886034Y22206156D01*
X79644636Y22567434D01*
X79283358Y22808832D01*
X78857202Y22893600D01*
X78502798Y22893600D01*
X78076642Y22808832D01*
X77715364Y22567434D01*
X77473966Y22206156D01*
X77389198Y21780000D01*
X74980000Y21780000D01*
X74980000Y24099617D01*
X75071510Y24320000D01*
X77389198Y24320000D01*
X77473966Y23893844D01*
X77715364Y23532566D01*
X78076642Y23291168D01*
X78502798Y23206400D01*
X78857202Y23206400D01*
X79283358Y23291168D01*
X79644636Y23532566D01*
X79886034Y23893844D01*
X79970802Y24320000D01*
X79886034Y24746156D01*
X79644636Y25107434D01*
X79283358Y25348832D01*
X78857202Y25433600D01*
X78502798Y25433600D01*
X78076642Y25348832D01*
X77715364Y25107434D01*
X77473966Y24746156D01*
X77389198Y24320000D01*
X75071510Y24320000D01*
X75079878Y24340150D01*
X75080121Y24618628D01*
X74980000Y24860939D01*
X74980000Y26860000D01*
X77389198Y26860000D01*
X77473966Y26433844D01*
X77715364Y26072566D01*
X78076642Y25831168D01*
X78502798Y25746400D01*
X78857202Y25746400D01*
X79283358Y25831168D01*
X79644636Y26072566D01*
X79886034Y26433844D01*
X79970802Y26860000D01*
X79886034Y27286156D01*
X79644636Y27647434D01*
X79283358Y27888832D01*
X78857202Y27973600D01*
X78502798Y27973600D01*
X78076642Y27888832D01*
X77715364Y27647434D01*
X77473966Y27286156D01*
X77389198Y26860000D01*
X74980000Y26860000D01*
X74980000Y29400000D01*
X77389198Y29400000D01*
X77473966Y28973844D01*
X77715364Y28612566D01*
X78076642Y28371168D01*
X78502798Y28286400D01*
X78857202Y28286400D01*
X79283358Y28371168D01*
X79644636Y28612566D01*
X79886034Y28973844D01*
X79970802Y29400000D01*
X79886034Y29826156D01*
X79644636Y30187434D01*
X79283358Y30428832D01*
X78857202Y30513600D01*
X78502798Y30513600D01*
X78076642Y30428832D01*
X77715364Y30187434D01*
X77473966Y29826156D01*
X77389198Y29400000D01*
X74980000Y29400000D01*
X74980000Y31299617D01*
X75079878Y31540150D01*
X75080121Y31818628D01*
X75029972Y31940000D01*
X77389198Y31940000D01*
X77473966Y31513844D01*
X77715364Y31152566D01*
X78076642Y30911168D01*
X78502798Y30826400D01*
X78857202Y30826400D01*
X79283358Y30911168D01*
X79644636Y31152566D01*
X79886034Y31513844D01*
X79970802Y31940000D01*
X79886034Y32366156D01*
X79644636Y32727434D01*
X79283358Y32968832D01*
X78857202Y33053600D01*
X78502798Y33053600D01*
X78076642Y32968832D01*
X77715364Y32727434D01*
X77473966Y32366156D01*
X77389198Y31940000D01*
X75029972Y31940000D01*
X74980000Y32060939D01*
X74980000Y34480000D01*
X77389198Y34480000D01*
X77473966Y34053844D01*
X77715364Y33692566D01*
X78076642Y33451168D01*
X78502798Y33366400D01*
X78857202Y33366400D01*
X79283358Y33451168D01*
X79644636Y33692566D01*
X79886034Y34053844D01*
X79970802Y34480000D01*
X79886034Y34906156D01*
X79644636Y35267434D01*
X79283358Y35508832D01*
X78857202Y35593600D01*
X78502798Y35593600D01*
X78076642Y35508832D01*
X77715364Y35267434D01*
X77473966Y34906156D01*
X77389198Y34480000D01*
X74980000Y34480000D01*
X74980000Y37020000D01*
X77389198Y37020000D01*
X77473966Y36593844D01*
X77715364Y36232566D01*
X78076642Y35991168D01*
X78502798Y35906400D01*
X78857202Y35906400D01*
X79283358Y35991168D01*
X79644636Y36232566D01*
X79886034Y36593844D01*
X79970802Y37020000D01*
X79886034Y37446156D01*
X79644636Y37807434D01*
X79283358Y38048832D01*
X78857202Y38133600D01*
X78502798Y38133600D01*
X78076642Y38048832D01*
X77715364Y37807434D01*
X77473966Y37446156D01*
X77389198Y37020000D01*
X74980000Y37020000D01*
X74980000Y37929884D01*
X74983085Y37932964D01*
X75089878Y38190150D01*
X75090121Y38468628D01*
X74983777Y38726000D01*
X74980000Y38729784D01*
X74980000Y39560000D01*
X77389198Y39560000D01*
X77473966Y39133844D01*
X77715364Y38772566D01*
X78076642Y38531168D01*
X78502798Y38446400D01*
X78857202Y38446400D01*
X79283358Y38531168D01*
X79644636Y38772566D01*
X79886034Y39133844D01*
X79970802Y39560000D01*
X79886034Y39986156D01*
X79644636Y40347434D01*
X79283358Y40588832D01*
X78857202Y40673600D01*
X78502798Y40673600D01*
X78076642Y40588832D01*
X77715364Y40347434D01*
X77473966Y39986156D01*
X77389198Y39560000D01*
X74980000Y39560000D01*
X74980000Y42100000D01*
X77389198Y42100000D01*
X77473966Y41673844D01*
X77715364Y41312566D01*
X78076642Y41071168D01*
X78502798Y40986400D01*
X78857202Y40986400D01*
X79283358Y41071168D01*
X79644636Y41312566D01*
X79886034Y41673844D01*
X79970802Y42100000D01*
X79886034Y42526156D01*
X79644636Y42887434D01*
X79283358Y43128832D01*
X78857202Y43213600D01*
X78502798Y43213600D01*
X78076642Y43128832D01*
X77715364Y42887434D01*
X77473966Y42526156D01*
X77389198Y42100000D01*
X74980000Y42100000D01*
X74980000Y44640000D01*
X77389198Y44640000D01*
X77473966Y44213844D01*
X77715364Y43852566D01*
X78076642Y43611168D01*
X78502798Y43526400D01*
X78857202Y43526400D01*
X79283358Y43611168D01*
X79644636Y43852566D01*
X79886034Y44213844D01*
X79970802Y44640000D01*
X79886034Y45066156D01*
X79644636Y45427434D01*
X79283358Y45668832D01*
X78857202Y45753600D01*
X78502798Y45753600D01*
X78076642Y45668832D01*
X77715364Y45427434D01*
X77473966Y45066156D01*
X77389198Y44640000D01*
X74980000Y44640000D01*
X74980000Y44999617D01*
X75079878Y45240150D01*
X75080121Y45518628D01*
X74980000Y45760939D01*
X74980000Y47180000D01*
X77389198Y47180000D01*
X77473966Y46753844D01*
X77715364Y46392566D01*
X78076642Y46151168D01*
X78502798Y46066400D01*
X78857202Y46066400D01*
X79283358Y46151168D01*
X79644636Y46392566D01*
X79886034Y46753844D01*
X79970802Y47180000D01*
X79886034Y47606156D01*
X79644636Y47967434D01*
X79283358Y48208832D01*
X78857202Y48293600D01*
X78502798Y48293600D01*
X78076642Y48208832D01*
X77715364Y47967434D01*
X77473966Y47606156D01*
X77389198Y47180000D01*
X74980000Y47180000D01*
X74980000Y49720000D01*
X77389198Y49720000D01*
X77473966Y49293844D01*
X77715364Y48932566D01*
X78076642Y48691168D01*
X78502798Y48606400D01*
X78857202Y48606400D01*
X79283358Y48691168D01*
X79644636Y48932566D01*
X79886034Y49293844D01*
X79970802Y49720000D01*
X79886034Y50146156D01*
X79644636Y50507434D01*
X79283358Y50748832D01*
X78857202Y50833600D01*
X78502798Y50833600D01*
X78076642Y50748832D01*
X77715364Y50507434D01*
X77473966Y50146156D01*
X77389198Y49720000D01*
X74980000Y49720000D01*
X74980000Y51299617D01*
X75079878Y51540150D01*
X75080121Y51818628D01*
X74980000Y52060939D01*
X74980000Y52260000D01*
X77389198Y52260000D01*
X77473966Y51833844D01*
X77715364Y51472566D01*
X78076642Y51231168D01*
X78502798Y51146400D01*
X78857202Y51146400D01*
X79283358Y51231168D01*
X79644636Y51472566D01*
X79886034Y51833844D01*
X79970802Y52260000D01*
X79886034Y52686156D01*
X79644636Y53047434D01*
X79283358Y53288832D01*
X78857202Y53373600D01*
X78502798Y53373600D01*
X78076642Y53288832D01*
X77715364Y53047434D01*
X77473966Y52686156D01*
X77389198Y52260000D01*
X74980000Y52260000D01*
X74980000Y54800000D01*
X77389198Y54800000D01*
X77473966Y54373844D01*
X77715364Y54012566D01*
X78076642Y53771168D01*
X78502798Y53686400D01*
X78857202Y53686400D01*
X79283358Y53771168D01*
X79644636Y54012566D01*
X79886034Y54373844D01*
X79970802Y54800000D01*
X79886034Y55226156D01*
X79644636Y55587434D01*
X79283358Y55828832D01*
X78857202Y55913600D01*
X78502798Y55913600D01*
X78076642Y55828832D01*
X77715364Y55587434D01*
X77473966Y55226156D01*
X77389198Y54800000D01*
X74980000Y54800000D01*
X74980000Y56299617D01*
X75079878Y56540150D01*
X75080121Y56818628D01*
X74980000Y57060939D01*
X74980000Y57340000D01*
X77389198Y57340000D01*
X77473966Y56913844D01*
X77715364Y56552566D01*
X78076642Y56311168D01*
X78502798Y56226400D01*
X78857202Y56226400D01*
X79283358Y56311168D01*
X79644636Y56552566D01*
X79886034Y56913844D01*
X79970802Y57340000D01*
X79886034Y57766156D01*
X79644636Y58127434D01*
X79283358Y58368832D01*
X78857202Y58453600D01*
X78502798Y58453600D01*
X78076642Y58368832D01*
X77715364Y58127434D01*
X77473966Y57766156D01*
X77389198Y57340000D01*
X74980000Y57340000D01*
X74980000Y60743600D01*
X77409103Y60743600D01*
X77409103Y59016400D01*
X77426535Y58923756D01*
X77481288Y58838668D01*
X77564831Y58781585D01*
X77664000Y58761503D01*
X79696000Y58761503D01*
X79788644Y58778935D01*
X79873732Y58833688D01*
X79930815Y58917231D01*
X79950897Y59016400D01*
X79950897Y60743600D01*
X79933465Y60836244D01*
X79878712Y60921332D01*
X79795169Y60978415D01*
X79696000Y60998497D01*
X77664000Y60998497D01*
X77571356Y60981065D01*
X77486268Y60926312D01*
X77429185Y60842769D01*
X77409103Y60743600D01*
X74980000Y60743600D01*
X74980000Y63119617D01*
X75079878Y63360150D01*
X75080121Y63638628D01*
X74980000Y63880939D01*
X74980000Y66580000D01*
X74934328Y66809610D01*
X74804264Y67004264D01*
X72654264Y69154264D01*
X72459610Y69284328D01*
X72230000Y69330000D01*
X55300000Y69330000D01*
X55300000Y70750000D01*
X55296061Y70769453D01*
X55284864Y70785840D01*
X55268173Y70796581D01*
X55250000Y70800000D01*
X25050000Y70800000D01*
X25050000Y71238588D01*
X65679772Y71238588D01*
X65880306Y70753257D01*
X66251304Y70381611D01*
X66736284Y70180230D01*
X67261412Y70179772D01*
X67746743Y70380306D01*
X68118389Y70751304D01*
X68165183Y70863999D01*
X76234710Y70863999D01*
X76473163Y70588700D01*
X77305585Y70226430D01*
X78213278Y70210291D01*
X79058053Y70542740D01*
X79126837Y70588700D01*
X79365290Y70863999D01*
X77800000Y72429289D01*
X76234710Y70863999D01*
X68165183Y70863999D01*
X68319770Y71236284D01*
X68320228Y71761412D01*
X68185814Y72086722D01*
X75510291Y72086722D01*
X75842740Y71241947D01*
X75888700Y71173163D01*
X76163999Y70934710D01*
X77729289Y72500000D01*
X77870711Y72500000D01*
X79436001Y70934710D01*
X79711300Y71173163D01*
X80073570Y72005585D01*
X80089709Y72913278D01*
X79757260Y73758053D01*
X79711300Y73826837D01*
X79436001Y74065290D01*
X77870711Y72500000D01*
X77729289Y72500000D01*
X76163999Y74065290D01*
X75888700Y73826837D01*
X75526430Y72994415D01*
X75510291Y72086722D01*
X68185814Y72086722D01*
X68119694Y72246743D01*
X67748696Y72618389D01*
X67263716Y72819770D01*
X66738588Y72820228D01*
X66253257Y72619694D01*
X65881611Y72248696D01*
X65680230Y71763716D01*
X65679772Y71238588D01*
X25050000Y71238588D01*
X25050000Y74136001D01*
X76234710Y74136001D01*
X77800000Y72570711D01*
X79365290Y74136001D01*
X79126837Y74411300D01*
X78294415Y74773570D01*
X77386722Y74789709D01*
X76541947Y74457260D01*
X76473163Y74411300D01*
X76234710Y74136001D01*
X25050000Y74136001D01*
X25050000Y75950000D01*
X81200000Y75950000D01*
X81200000Y-2950000D01*
M02*
