G04 #@! TF.FileFunction,Drawing*
%FSLAX46Y46*%
G04 Gerber Fmt 4.6, Leading zero omitted, Abs format (unit mm)*
G04 Created by KiCad (PCBNEW 4.0.2-stable) date 30/10/2016 11:04:25*
%MOMM*%
G01*
G04 APERTURE LIST*
%ADD10C,0.100000*%
%ADD11C,0.150000*%
%ADD12C,0.300000*%
%ADD13C,0.200000*%
G04 APERTURE END LIST*
D10*
D11*
X1666666Y0D02*
G75*
G03X1666666Y0I-1666666J0D01*
G01*
X-2500000Y0D02*
X2500000Y0D01*
X0Y2500000D02*
X0Y-2500000D01*
D12*
X-10378571Y2214285D02*
X-11378571Y2214285D01*
X-9807143Y2571428D02*
X-10878571Y2928571D01*
X-10878571Y1999999D01*
X-11307143Y1357143D02*
X-11378571Y1357143D01*
X-11521429Y1428571D01*
X-11592857Y1500000D01*
X-9878571Y428571D02*
X-9878571Y285714D01*
X-9950000Y142857D01*
X-10021429Y71428D01*
X-10164286Y-1D01*
X-10450000Y-71429D01*
X-10807143Y-71429D01*
X-11092857Y-1D01*
X-11235714Y71428D01*
X-11307143Y142857D01*
X-11378571Y285714D01*
X-11378571Y428571D01*
X-11307143Y571428D01*
X-11235714Y642857D01*
X-11092857Y714285D01*
X-10807143Y785714D01*
X-10450000Y785714D01*
X-10164286Y714285D01*
X-10021429Y642857D01*
X-9950000Y571428D01*
X-9878571Y428571D01*
X-9878571Y-1000000D02*
X-9878571Y-1142857D01*
X-9950000Y-1285714D01*
X-10021429Y-1357143D01*
X-10164286Y-1428572D01*
X-10450000Y-1500000D01*
X-10807143Y-1500000D01*
X-11092857Y-1428572D01*
X-11235714Y-1357143D01*
X-11307143Y-1285714D01*
X-11378571Y-1142857D01*
X-11378571Y-1000000D01*
X-11307143Y-857143D01*
X-11235714Y-785714D01*
X-11092857Y-714286D01*
X-10807143Y-642857D01*
X-10450000Y-642857D01*
X-10164286Y-714286D01*
X-10021429Y-785714D01*
X-9950000Y-857143D01*
X-9878571Y-1000000D01*
X-9878571Y-2428571D02*
X-9878571Y-2571428D01*
X-9950000Y-2714285D01*
X-10021429Y-2785714D01*
X-10164286Y-2857143D01*
X-10450000Y-2928571D01*
X-10807143Y-2928571D01*
X-11092857Y-2857143D01*
X-11235714Y-2785714D01*
X-11307143Y-2714285D01*
X-11378571Y-2571428D01*
X-11378571Y-2428571D01*
X-11307143Y-2285714D01*
X-11235714Y-2214285D01*
X-11092857Y-2142857D01*
X-10807143Y-2071428D01*
X-10450000Y-2071428D01*
X-10164286Y-2142857D01*
X-10021429Y-2214285D01*
X-9950000Y-2285714D01*
X-9878571Y-2428571D01*
X-11378571Y-3571428D02*
X-10378571Y-3571428D01*
X-10521429Y-3571428D02*
X-10450000Y-3642856D01*
X-10378571Y-3785714D01*
X-10378571Y-3999999D01*
X-10450000Y-4142856D01*
X-10592857Y-4214285D01*
X-11378571Y-4214285D01*
X-10592857Y-4214285D02*
X-10450000Y-4285714D01*
X-10378571Y-4428571D01*
X-10378571Y-4642856D01*
X-10450000Y-4785714D01*
X-10592857Y-4857142D01*
X-11378571Y-4857142D01*
X-11378571Y-5571428D02*
X-10378571Y-5571428D01*
X-10521429Y-5571428D02*
X-10450000Y-5642856D01*
X-10378571Y-5785714D01*
X-10378571Y-5999999D01*
X-10450000Y-6142856D01*
X-10592857Y-6214285D01*
X-11378571Y-6214285D01*
X-10592857Y-6214285D02*
X-10450000Y-6285714D01*
X-10378571Y-6428571D01*
X-10378571Y-6642856D01*
X-10450000Y-6785714D01*
X-10592857Y-6857142D01*
X-11378571Y-6857142D01*
X-6700000Y0D02*
X-6700000Y-4000000D01*
X-4000000Y0D02*
X-9400000Y0D01*
X-4000000Y-4000000D02*
X-9400000Y-4000000D01*
X-6700000Y-4000000D02*
X-7286421Y-2873496D01*
X-6700000Y-4000000D02*
X-6113579Y-2873496D01*
X-6700000Y0D02*
X-7286421Y-1126504D01*
X-6700000Y0D02*
X-6113579Y-1126504D01*
D13*
X800000Y-11100000D02*
X11100000Y-11100000D01*
X-2000000Y-8300000D02*
X800000Y-11100000D01*
D12*
X1685715Y-9478571D02*
X1685715Y-10478571D01*
X1328572Y-8907143D02*
X971429Y-9978571D01*
X1900001Y-9978571D01*
X2542857Y-10407143D02*
X2542857Y-10478571D01*
X2471429Y-10621429D01*
X2400000Y-10692857D01*
X3471429Y-8978571D02*
X3614286Y-8978571D01*
X3757143Y-9050000D01*
X3828572Y-9121429D01*
X3900001Y-9264286D01*
X3971429Y-9550000D01*
X3971429Y-9907143D01*
X3900001Y-10192857D01*
X3828572Y-10335714D01*
X3757143Y-10407143D01*
X3614286Y-10478571D01*
X3471429Y-10478571D01*
X3328572Y-10407143D01*
X3257143Y-10335714D01*
X3185715Y-10192857D01*
X3114286Y-9907143D01*
X3114286Y-9550000D01*
X3185715Y-9264286D01*
X3257143Y-9121429D01*
X3328572Y-9050000D01*
X3471429Y-8978571D01*
X4900000Y-8978571D02*
X5042857Y-8978571D01*
X5185714Y-9050000D01*
X5257143Y-9121429D01*
X5328572Y-9264286D01*
X5400000Y-9550000D01*
X5400000Y-9907143D01*
X5328572Y-10192857D01*
X5257143Y-10335714D01*
X5185714Y-10407143D01*
X5042857Y-10478571D01*
X4900000Y-10478571D01*
X4757143Y-10407143D01*
X4685714Y-10335714D01*
X4614286Y-10192857D01*
X4542857Y-9907143D01*
X4542857Y-9550000D01*
X4614286Y-9264286D01*
X4685714Y-9121429D01*
X4757143Y-9050000D01*
X4900000Y-8978571D01*
X6328571Y-8978571D02*
X6471428Y-8978571D01*
X6614285Y-9050000D01*
X6685714Y-9121429D01*
X6757143Y-9264286D01*
X6828571Y-9550000D01*
X6828571Y-9907143D01*
X6757143Y-10192857D01*
X6685714Y-10335714D01*
X6614285Y-10407143D01*
X6471428Y-10478571D01*
X6328571Y-10478571D01*
X6185714Y-10407143D01*
X6114285Y-10335714D01*
X6042857Y-10192857D01*
X5971428Y-9907143D01*
X5971428Y-9550000D01*
X6042857Y-9264286D01*
X6114285Y-9121429D01*
X6185714Y-9050000D01*
X6328571Y-8978571D01*
X7471428Y-10478571D02*
X7471428Y-9478571D01*
X7471428Y-9621429D02*
X7542856Y-9550000D01*
X7685714Y-9478571D01*
X7899999Y-9478571D01*
X8042856Y-9550000D01*
X8114285Y-9692857D01*
X8114285Y-10478571D01*
X8114285Y-9692857D02*
X8185714Y-9550000D01*
X8328571Y-9478571D01*
X8542856Y-9478571D01*
X8685714Y-9550000D01*
X8757142Y-9692857D01*
X8757142Y-10478571D01*
X9471428Y-10478571D02*
X9471428Y-9478571D01*
X9471428Y-9621429D02*
X9542856Y-9550000D01*
X9685714Y-9478571D01*
X9899999Y-9478571D01*
X10042856Y-9550000D01*
X10114285Y-9692857D01*
X10114285Y-10478571D01*
X10114285Y-9692857D02*
X10185714Y-9550000D01*
X10328571Y-9478571D01*
X10542856Y-9478571D01*
X10685714Y-9550000D01*
X10757142Y-9692857D01*
X10757142Y-10478571D01*
X0Y-6900000D02*
X-4000000Y-6900000D01*
X0Y-3900000D02*
X0Y-9600000D01*
X-4000000Y-3900000D02*
X-4000000Y-9600000D01*
X-4000000Y-6900000D02*
X-2873496Y-6313579D01*
X-4000000Y-6900000D02*
X-2873496Y-7486421D01*
X0Y-6900000D02*
X-1126504Y-6313579D01*
X0Y-6900000D02*
X-1126504Y-7486421D01*
D13*
X-10400000Y77000000D02*
X-10400000Y87800000D01*
X-7800000Y74400000D02*
X-10400000Y77000000D01*
D12*
X-6214285Y83521429D02*
X-6214285Y82521429D01*
X-6571428Y84092857D02*
X-6928571Y83021429D01*
X-5999999Y83021429D01*
X-5357143Y82592857D02*
X-5357143Y82521429D01*
X-5428571Y82378571D01*
X-5500000Y82307143D01*
X-4428571Y84021429D02*
X-4285714Y84021429D01*
X-4142857Y83950000D01*
X-4071428Y83878571D01*
X-3999999Y83735714D01*
X-3928571Y83450000D01*
X-3928571Y83092857D01*
X-3999999Y82807143D01*
X-4071428Y82664286D01*
X-4142857Y82592857D01*
X-4285714Y82521429D01*
X-4428571Y82521429D01*
X-4571428Y82592857D01*
X-4642857Y82664286D01*
X-4714285Y82807143D01*
X-4785714Y83092857D01*
X-4785714Y83450000D01*
X-4714285Y83735714D01*
X-4642857Y83878571D01*
X-4571428Y83950000D01*
X-4428571Y84021429D01*
X-3000000Y84021429D02*
X-2857143Y84021429D01*
X-2714286Y83950000D01*
X-2642857Y83878571D01*
X-2571428Y83735714D01*
X-2500000Y83450000D01*
X-2500000Y83092857D01*
X-2571428Y82807143D01*
X-2642857Y82664286D01*
X-2714286Y82592857D01*
X-2857143Y82521429D01*
X-3000000Y82521429D01*
X-3142857Y82592857D01*
X-3214286Y82664286D01*
X-3285714Y82807143D01*
X-3357143Y83092857D01*
X-3357143Y83450000D01*
X-3285714Y83735714D01*
X-3214286Y83878571D01*
X-3142857Y83950000D01*
X-3000000Y84021429D01*
X-1571429Y84021429D02*
X-1428572Y84021429D01*
X-1285715Y83950000D01*
X-1214286Y83878571D01*
X-1142857Y83735714D01*
X-1071429Y83450000D01*
X-1071429Y83092857D01*
X-1142857Y82807143D01*
X-1214286Y82664286D01*
X-1285715Y82592857D01*
X-1428572Y82521429D01*
X-1571429Y82521429D01*
X-1714286Y82592857D01*
X-1785715Y82664286D01*
X-1857143Y82807143D01*
X-1928572Y83092857D01*
X-1928572Y83450000D01*
X-1857143Y83735714D01*
X-1785715Y83878571D01*
X-1714286Y83950000D01*
X-1571429Y84021429D01*
X-428572Y82521429D02*
X-428572Y83521429D01*
X-428572Y83378571D02*
X-357144Y83450000D01*
X-214286Y83521429D01*
X-1Y83521429D01*
X142856Y83450000D01*
X214285Y83307143D01*
X214285Y82521429D01*
X214285Y83307143D02*
X285714Y83450000D01*
X428571Y83521429D01*
X642856Y83521429D01*
X785714Y83450000D01*
X857142Y83307143D01*
X857142Y82521429D01*
X1571428Y82521429D02*
X1571428Y83521429D01*
X1571428Y83378571D02*
X1642856Y83450000D01*
X1785714Y83521429D01*
X1999999Y83521429D01*
X2142856Y83450000D01*
X2214285Y83307143D01*
X2214285Y82521429D01*
X2214285Y83307143D02*
X2285714Y83450000D01*
X2428571Y83521429D01*
X2642856Y83521429D01*
X2785714Y83450000D01*
X2857142Y83307143D01*
X2857142Y82521429D01*
X0Y79200000D02*
X-4000000Y79200000D01*
X0Y76500000D02*
X0Y81900000D01*
X-4000000Y76500000D02*
X-4000000Y81900000D01*
X-4000000Y79200000D02*
X-2873496Y79786421D01*
X-4000000Y79200000D02*
X-2873496Y78613579D01*
X0Y79200000D02*
X-1126504Y79786421D01*
X0Y79200000D02*
X-1126504Y78613579D01*
D13*
X77800000Y82100000D02*
X68000000Y82100000D01*
X79800000Y80100000D02*
X77800000Y82100000D01*
D12*
X68485715Y83621429D02*
X68485715Y82621429D01*
X68128572Y84192857D02*
X67771429Y83121429D01*
X68700001Y83121429D01*
X69342857Y82692857D02*
X69342857Y82621429D01*
X69271429Y82478571D01*
X69200000Y82407143D01*
X70271429Y84121429D02*
X70414286Y84121429D01*
X70557143Y84050000D01*
X70628572Y83978571D01*
X70700001Y83835714D01*
X70771429Y83550000D01*
X70771429Y83192857D01*
X70700001Y82907143D01*
X70628572Y82764286D01*
X70557143Y82692857D01*
X70414286Y82621429D01*
X70271429Y82621429D01*
X70128572Y82692857D01*
X70057143Y82764286D01*
X69985715Y82907143D01*
X69914286Y83192857D01*
X69914286Y83550000D01*
X69985715Y83835714D01*
X70057143Y83978571D01*
X70128572Y84050000D01*
X70271429Y84121429D01*
X71700000Y84121429D02*
X71842857Y84121429D01*
X71985714Y84050000D01*
X72057143Y83978571D01*
X72128572Y83835714D01*
X72200000Y83550000D01*
X72200000Y83192857D01*
X72128572Y82907143D01*
X72057143Y82764286D01*
X71985714Y82692857D01*
X71842857Y82621429D01*
X71700000Y82621429D01*
X71557143Y82692857D01*
X71485714Y82764286D01*
X71414286Y82907143D01*
X71342857Y83192857D01*
X71342857Y83550000D01*
X71414286Y83835714D01*
X71485714Y83978571D01*
X71557143Y84050000D01*
X71700000Y84121429D01*
X73128571Y84121429D02*
X73271428Y84121429D01*
X73414285Y84050000D01*
X73485714Y83978571D01*
X73557143Y83835714D01*
X73628571Y83550000D01*
X73628571Y83192857D01*
X73557143Y82907143D01*
X73485714Y82764286D01*
X73414285Y82692857D01*
X73271428Y82621429D01*
X73128571Y82621429D01*
X72985714Y82692857D01*
X72914285Y82764286D01*
X72842857Y82907143D01*
X72771428Y83192857D01*
X72771428Y83550000D01*
X72842857Y83835714D01*
X72914285Y83978571D01*
X72985714Y84050000D01*
X73128571Y84121429D01*
X74271428Y82621429D02*
X74271428Y83621429D01*
X74271428Y83478571D02*
X74342856Y83550000D01*
X74485714Y83621429D01*
X74699999Y83621429D01*
X74842856Y83550000D01*
X74914285Y83407143D01*
X74914285Y82621429D01*
X74914285Y83407143D02*
X74985714Y83550000D01*
X75128571Y83621429D01*
X75342856Y83621429D01*
X75485714Y83550000D01*
X75557142Y83407143D01*
X75557142Y82621429D01*
X76271428Y82621429D02*
X76271428Y83621429D01*
X76271428Y83478571D02*
X76342856Y83550000D01*
X76485714Y83621429D01*
X76699999Y83621429D01*
X76842856Y83550000D01*
X76914285Y83407143D01*
X76914285Y82621429D01*
X76914285Y83407143D02*
X76985714Y83550000D01*
X77128571Y83621429D01*
X77342856Y83621429D01*
X77485714Y83550000D01*
X77557142Y83407143D01*
X77557142Y82621429D01*
X77800000Y79100000D02*
X81800000Y79100000D01*
X77800000Y76500000D02*
X77800000Y81800000D01*
X81800000Y76500000D02*
X81800000Y81800000D01*
X81800000Y79100000D02*
X80673496Y78513579D01*
X81800000Y79100000D02*
X80673496Y79686421D01*
X77800000Y79100000D02*
X78926504Y78513579D01*
X77800000Y79100000D02*
X78926504Y79686421D01*
X-12371429Y64064287D02*
X-12371429Y63207144D01*
X-12371429Y63635716D02*
X-13871429Y63635716D01*
X-13657143Y63492859D01*
X-13514286Y63350001D01*
X-13442857Y63207144D01*
X-13871429Y65421430D02*
X-13871429Y64707144D01*
X-13157143Y64635715D01*
X-13228571Y64707144D01*
X-13300000Y64850001D01*
X-13300000Y65207144D01*
X-13228571Y65350001D01*
X-13157143Y65421430D01*
X-13014286Y65492858D01*
X-12657143Y65492858D01*
X-12514286Y65421430D01*
X-12442857Y65350001D01*
X-12371429Y65207144D01*
X-12371429Y64850001D01*
X-12442857Y64707144D01*
X-12514286Y64635715D01*
X-12442857Y66207143D02*
X-12371429Y66207143D01*
X-12228571Y66135715D01*
X-12157143Y66064286D01*
X-13871429Y66707144D02*
X-13871429Y67635715D01*
X-13300000Y67135715D01*
X-13300000Y67350001D01*
X-13228571Y67492858D01*
X-13157143Y67564287D01*
X-13014286Y67635715D01*
X-12657143Y67635715D01*
X-12514286Y67564287D01*
X-12442857Y67492858D01*
X-12371429Y67350001D01*
X-12371429Y66921429D01*
X-12442857Y66778572D01*
X-12514286Y66707144D01*
X-13871429Y68564286D02*
X-13871429Y68707143D01*
X-13800000Y68850000D01*
X-13728571Y68921429D01*
X-13585714Y68992858D01*
X-13300000Y69064286D01*
X-12942857Y69064286D01*
X-12657143Y68992858D01*
X-12514286Y68921429D01*
X-12442857Y68850000D01*
X-12371429Y68707143D01*
X-12371429Y68564286D01*
X-12442857Y68421429D01*
X-12514286Y68350000D01*
X-12657143Y68278572D01*
X-12942857Y68207143D01*
X-13300000Y68207143D01*
X-13585714Y68278572D01*
X-13728571Y68350000D01*
X-13800000Y68421429D01*
X-13871429Y68564286D01*
X-13871429Y69992857D02*
X-13871429Y70135714D01*
X-13800000Y70278571D01*
X-13728571Y70350000D01*
X-13585714Y70421429D01*
X-13300000Y70492857D01*
X-12942857Y70492857D01*
X-12657143Y70421429D01*
X-12514286Y70350000D01*
X-12442857Y70278571D01*
X-12371429Y70135714D01*
X-12371429Y69992857D01*
X-12442857Y69850000D01*
X-12514286Y69778571D01*
X-12657143Y69707143D01*
X-12942857Y69635714D01*
X-13300000Y69635714D01*
X-13585714Y69707143D01*
X-13728571Y69778571D01*
X-13800000Y69850000D01*
X-13871429Y69992857D01*
X-12371429Y71135714D02*
X-13371429Y71135714D01*
X-13228571Y71135714D02*
X-13300000Y71207142D01*
X-13371429Y71350000D01*
X-13371429Y71564285D01*
X-13300000Y71707142D01*
X-13157143Y71778571D01*
X-12371429Y71778571D01*
X-13157143Y71778571D02*
X-13300000Y71850000D01*
X-13371429Y71992857D01*
X-13371429Y72207142D01*
X-13300000Y72350000D01*
X-13157143Y72421428D01*
X-12371429Y72421428D01*
X-12371429Y73135714D02*
X-13371429Y73135714D01*
X-13228571Y73135714D02*
X-13300000Y73207142D01*
X-13371429Y73350000D01*
X-13371429Y73564285D01*
X-13300000Y73707142D01*
X-13157143Y73778571D01*
X-12371429Y73778571D01*
X-13157143Y73778571D02*
X-13300000Y73850000D01*
X-13371429Y73992857D01*
X-13371429Y74207142D01*
X-13300000Y74350000D01*
X-13157143Y74421428D01*
X-12371429Y74421428D01*
X-11700000Y61200000D02*
X-11700000Y76500000D01*
X2700000Y61200000D02*
X-14400000Y61200000D01*
X2700000Y76500000D02*
X-14400000Y76500000D01*
X-11700000Y76500000D02*
X-11113579Y75373496D01*
X-11700000Y76500000D02*
X-12286421Y75373496D01*
X-11700000Y61200000D02*
X-11113579Y62326504D01*
X-11700000Y61200000D02*
X-12286421Y62326504D01*
X-11721429Y78285715D02*
X-10721429Y78285715D01*
X-12292857Y77928572D02*
X-11221429Y77571429D01*
X-11221429Y78500001D01*
X-10792857Y79142857D02*
X-10721429Y79142857D01*
X-10578571Y79071429D01*
X-10507143Y79000000D01*
X-12221429Y80071429D02*
X-12221429Y80214286D01*
X-12150000Y80357143D01*
X-12078571Y80428572D01*
X-11935714Y80500001D01*
X-11650000Y80571429D01*
X-11292857Y80571429D01*
X-11007143Y80500001D01*
X-10864286Y80428572D01*
X-10792857Y80357143D01*
X-10721429Y80214286D01*
X-10721429Y80071429D01*
X-10792857Y79928572D01*
X-10864286Y79857143D01*
X-11007143Y79785715D01*
X-11292857Y79714286D01*
X-11650000Y79714286D01*
X-11935714Y79785715D01*
X-12078571Y79857143D01*
X-12150000Y79928572D01*
X-12221429Y80071429D01*
X-12221429Y81500000D02*
X-12221429Y81642857D01*
X-12150000Y81785714D01*
X-12078571Y81857143D01*
X-11935714Y81928572D01*
X-11650000Y82000000D01*
X-11292857Y82000000D01*
X-11007143Y81928572D01*
X-10864286Y81857143D01*
X-10792857Y81785714D01*
X-10721429Y81642857D01*
X-10721429Y81500000D01*
X-10792857Y81357143D01*
X-10864286Y81285714D01*
X-11007143Y81214286D01*
X-11292857Y81142857D01*
X-11650000Y81142857D01*
X-11935714Y81214286D01*
X-12078571Y81285714D01*
X-12150000Y81357143D01*
X-12221429Y81500000D01*
X-12221429Y82928571D02*
X-12221429Y83071428D01*
X-12150000Y83214285D01*
X-12078571Y83285714D01*
X-11935714Y83357143D01*
X-11650000Y83428571D01*
X-11292857Y83428571D01*
X-11007143Y83357143D01*
X-10864286Y83285714D01*
X-10792857Y83214285D01*
X-10721429Y83071428D01*
X-10721429Y82928571D01*
X-10792857Y82785714D01*
X-10864286Y82714285D01*
X-11007143Y82642857D01*
X-11292857Y82571428D01*
X-11650000Y82571428D01*
X-11935714Y82642857D01*
X-12078571Y82714285D01*
X-12150000Y82785714D01*
X-12221429Y82928571D01*
X-10721429Y84071428D02*
X-11721429Y84071428D01*
X-11578571Y84071428D02*
X-11650000Y84142856D01*
X-11721429Y84285714D01*
X-11721429Y84499999D01*
X-11650000Y84642856D01*
X-11507143Y84714285D01*
X-10721429Y84714285D01*
X-11507143Y84714285D02*
X-11650000Y84785714D01*
X-11721429Y84928571D01*
X-11721429Y85142856D01*
X-11650000Y85285714D01*
X-11507143Y85357142D01*
X-10721429Y85357142D01*
X-10721429Y86071428D02*
X-11721429Y86071428D01*
X-11578571Y86071428D02*
X-11650000Y86142856D01*
X-11721429Y86285714D01*
X-11721429Y86499999D01*
X-11650000Y86642856D01*
X-11507143Y86714285D01*
X-10721429Y86714285D01*
X-11507143Y86714285D02*
X-11650000Y86785714D01*
X-11721429Y86928571D01*
X-11721429Y87142856D01*
X-11650000Y87285714D01*
X-11507143Y87357142D01*
X-10721429Y87357142D01*
X-7000000Y72500000D02*
X-7000000Y76500000D01*
X0Y72500000D02*
X-9700000Y72500000D01*
X0Y76500000D02*
X-9700000Y76500000D01*
X-7000000Y76500000D02*
X-6413579Y75373496D01*
X-7000000Y76500000D02*
X-7586421Y75373496D01*
X-7000000Y72500000D02*
X-6413579Y73626504D01*
X-7000000Y72500000D02*
X-7586421Y73626504D01*
X91627193Y61392687D02*
X91625155Y60535547D01*
X91626174Y60964118D02*
X90126178Y60967683D01*
X90340124Y60824317D01*
X90482641Y60681120D01*
X90553730Y60538094D01*
X90271413Y61967340D02*
X90200154Y62038939D01*
X90129065Y62181965D01*
X90129914Y62539107D01*
X90201682Y62681794D01*
X90273281Y62753053D01*
X90416307Y62824141D01*
X90559164Y62823801D01*
X90773279Y62751864D01*
X91628381Y61892686D01*
X91630589Y62821254D01*
X91560859Y63535707D02*
X91632287Y63535537D01*
X91774974Y63463770D01*
X91846232Y63392171D01*
X90135347Y64824815D02*
X90134668Y64539101D01*
X90205757Y64396075D01*
X90277016Y64324476D01*
X90490961Y64181110D01*
X90776505Y64109002D01*
X91347932Y64107644D01*
X91490958Y64178733D01*
X91562557Y64249991D01*
X91634324Y64392679D01*
X91635003Y64678392D01*
X91563915Y64821419D01*
X91492656Y64893017D01*
X91349969Y64964785D01*
X90992827Y64965634D01*
X90849801Y64894545D01*
X90778203Y64823286D01*
X90706435Y64680600D01*
X90705756Y64394886D01*
X90776845Y64251859D01*
X90848103Y64180261D01*
X90990790Y64108493D01*
X90279903Y65538758D02*
X90208644Y65610356D01*
X90137555Y65753383D01*
X90138404Y66110525D01*
X90210172Y66253212D01*
X90281771Y66324471D01*
X90424797Y66395559D01*
X90567654Y66395219D01*
X90781769Y66323282D01*
X91636871Y65464104D01*
X91639078Y66392672D01*
X90141290Y67324806D02*
X90141630Y67467663D01*
X90213398Y67610350D01*
X90284997Y67681609D01*
X90428023Y67752698D01*
X90713906Y67823447D01*
X91071048Y67822598D01*
X91356591Y67750491D01*
X91499278Y67678722D01*
X91570537Y67607124D01*
X91641625Y67464097D01*
X91641286Y67321241D01*
X91569518Y67178554D01*
X91497920Y67107295D01*
X91354893Y67036207D01*
X91069010Y66965457D01*
X90711868Y66966306D01*
X90426325Y67038414D01*
X90283638Y67110181D01*
X90212379Y67181780D01*
X90141290Y67324806D01*
X91644003Y68464094D02*
X90644005Y68466472D01*
X90786863Y68466132D02*
X90715604Y68537730D01*
X90644515Y68680757D01*
X90645024Y68895041D01*
X90716793Y69037728D01*
X90859819Y69108817D01*
X91645531Y69106950D01*
X90859819Y69108817D02*
X90717132Y69180586D01*
X90646043Y69323612D01*
X90646552Y69537897D01*
X90718321Y69680584D01*
X90861347Y69751673D01*
X91647059Y69749805D01*
X91648757Y70464089D02*
X90648760Y70466466D01*
X90791617Y70466126D02*
X90720358Y70537724D01*
X90649269Y70680751D01*
X90649779Y70895036D01*
X90721547Y71037723D01*
X90864573Y71108812D01*
X91650285Y71106944D01*
X90864573Y71108812D02*
X90721887Y71180580D01*
X90650797Y71323607D01*
X90651307Y71537891D01*
X90723075Y71680579D01*
X90866102Y71751667D01*
X91651813Y71749799D01*
X89008487Y72473831D02*
X88978487Y59853831D01*
X78000000Y72500000D02*
X91708479Y72467413D01*
X77970000Y59880000D02*
X91678479Y59847413D01*
X88978487Y59853831D02*
X88394746Y60981726D01*
X88978487Y59853831D02*
X89567584Y60978938D01*
X89008487Y72473831D02*
X88419390Y71348724D01*
X89008487Y72473831D02*
X89592228Y71345936D01*
D13*
X87000000Y75500000D02*
X87000000Y87500000D01*
X88000000Y74500000D02*
X87000000Y75500000D01*
D12*
X85678571Y78285715D02*
X86678571Y78285715D01*
X85107143Y77928572D02*
X86178571Y77571429D01*
X86178571Y78500001D01*
X86607143Y79142857D02*
X86678571Y79142857D01*
X86821429Y79071429D01*
X86892857Y79000000D01*
X85178571Y80071429D02*
X85178571Y80214286D01*
X85250000Y80357143D01*
X85321429Y80428572D01*
X85464286Y80500001D01*
X85750000Y80571429D01*
X86107143Y80571429D01*
X86392857Y80500001D01*
X86535714Y80428572D01*
X86607143Y80357143D01*
X86678571Y80214286D01*
X86678571Y80071429D01*
X86607143Y79928572D01*
X86535714Y79857143D01*
X86392857Y79785715D01*
X86107143Y79714286D01*
X85750000Y79714286D01*
X85464286Y79785715D01*
X85321429Y79857143D01*
X85250000Y79928572D01*
X85178571Y80071429D01*
X85178571Y81500000D02*
X85178571Y81642857D01*
X85250000Y81785714D01*
X85321429Y81857143D01*
X85464286Y81928572D01*
X85750000Y82000000D01*
X86107143Y82000000D01*
X86392857Y81928572D01*
X86535714Y81857143D01*
X86607143Y81785714D01*
X86678571Y81642857D01*
X86678571Y81500000D01*
X86607143Y81357143D01*
X86535714Y81285714D01*
X86392857Y81214286D01*
X86107143Y81142857D01*
X85750000Y81142857D01*
X85464286Y81214286D01*
X85321429Y81285714D01*
X85250000Y81357143D01*
X85178571Y81500000D01*
X85178571Y82928571D02*
X85178571Y83071428D01*
X85250000Y83214285D01*
X85321429Y83285714D01*
X85464286Y83357143D01*
X85750000Y83428571D01*
X86107143Y83428571D01*
X86392857Y83357143D01*
X86535714Y83285714D01*
X86607143Y83214285D01*
X86678571Y83071428D01*
X86678571Y82928571D01*
X86607143Y82785714D01*
X86535714Y82714285D01*
X86392857Y82642857D01*
X86107143Y82571428D01*
X85750000Y82571428D01*
X85464286Y82642857D01*
X85321429Y82714285D01*
X85250000Y82785714D01*
X85178571Y82928571D01*
X86678571Y84071428D02*
X85678571Y84071428D01*
X85821429Y84071428D02*
X85750000Y84142856D01*
X85678571Y84285714D01*
X85678571Y84499999D01*
X85750000Y84642856D01*
X85892857Y84714285D01*
X86678571Y84714285D01*
X85892857Y84714285D02*
X85750000Y84785714D01*
X85678571Y84928571D01*
X85678571Y85142856D01*
X85750000Y85285714D01*
X85892857Y85357142D01*
X86678571Y85357142D01*
X86678571Y86071428D02*
X85678571Y86071428D01*
X85821429Y86071428D02*
X85750000Y86142856D01*
X85678571Y86285714D01*
X85678571Y86499999D01*
X85750000Y86642856D01*
X85892857Y86714285D01*
X86678571Y86714285D01*
X85892857Y86714285D02*
X85750000Y86785714D01*
X85678571Y86928571D01*
X85678571Y87142856D01*
X85750000Y87285714D01*
X85892857Y87357142D01*
X86678571Y87357142D01*
X89000000Y72500000D02*
X89000000Y76500000D01*
X78000000Y72500000D02*
X91700000Y72500000D01*
X78000000Y76500000D02*
X91700000Y76500000D01*
X89000000Y76500000D02*
X89586421Y75373496D01*
X89000000Y76500000D02*
X88413579Y75373496D01*
X89000000Y72500000D02*
X89586421Y73626504D01*
X89000000Y72500000D02*
X88413579Y73626504D01*
X99564776Y41701534D02*
X99636169Y41844410D01*
X99707580Y41915856D01*
X99850420Y41987320D01*
X99921848Y41987338D01*
X100064722Y41915944D01*
X100136169Y41844534D01*
X100207634Y41701694D01*
X100207705Y41415980D01*
X100136311Y41273105D01*
X100064900Y41201658D01*
X99922061Y41130195D01*
X99850633Y41130177D01*
X99707758Y41201570D01*
X99636311Y41272981D01*
X99564847Y41415820D01*
X99564776Y41701534D01*
X99493312Y41844374D01*
X99421865Y41915785D01*
X99278991Y41987178D01*
X98993277Y41987107D01*
X98850437Y41915643D01*
X98779026Y41844197D01*
X98707634Y41701321D01*
X98707705Y41415607D01*
X98779168Y41272768D01*
X98850615Y41201357D01*
X98993490Y41129964D01*
X99279204Y41130035D01*
X99422043Y41201499D01*
X99493454Y41272945D01*
X99564847Y41415820D01*
X100208006Y40201695D02*
X100208042Y40058838D01*
X100136648Y39915963D01*
X100065237Y39844517D01*
X99922398Y39773052D01*
X99636702Y39701553D01*
X99279559Y39701464D01*
X98993827Y39772821D01*
X98850952Y39844215D01*
X98779505Y39915626D01*
X98708042Y40058465D01*
X98708006Y40201322D01*
X98779399Y40344197D01*
X98850810Y40415644D01*
X98993649Y40487107D01*
X99279346Y40558607D01*
X99636489Y40558696D01*
X99922220Y40487338D01*
X100065095Y40415946D01*
X100136542Y40344534D01*
X100208006Y40201695D01*
X98779736Y38987055D02*
X98708308Y38987037D01*
X98565433Y39058430D01*
X98493987Y39129841D01*
X99708628Y37701571D02*
X98708628Y37701322D01*
X100279967Y38058856D02*
X99208450Y38415733D01*
X99208681Y37487161D01*
X99566018Y36701535D02*
X99637412Y36844411D01*
X99708823Y36915857D01*
X99851662Y36987321D01*
X99923090Y36987339D01*
X100065965Y36915946D01*
X100137412Y36844535D01*
X100208876Y36701695D01*
X100208947Y36415981D01*
X100137554Y36273106D01*
X100066142Y36201660D01*
X99923303Y36130196D01*
X99851875Y36130178D01*
X99709000Y36201571D01*
X99637554Y36272982D01*
X99566089Y36415821D01*
X99566018Y36701535D01*
X99494555Y36844376D01*
X99423108Y36915786D01*
X99280233Y36987179D01*
X98994519Y36987108D01*
X98851680Y36915644D01*
X98780269Y36844198D01*
X98708876Y36701322D01*
X98708947Y36415608D01*
X98780411Y36272769D01*
X98851858Y36201358D01*
X98994732Y36129965D01*
X99280446Y36130036D01*
X99423286Y36201500D01*
X99494697Y36272947D01*
X99566089Y36415821D01*
X100209249Y35201696D02*
X100209284Y35058839D01*
X100137891Y34915964D01*
X100066480Y34844518D01*
X99923640Y34773053D01*
X99637944Y34701554D01*
X99280801Y34701465D01*
X98995070Y34772822D01*
X98852195Y34844216D01*
X98780748Y34915627D01*
X98709285Y35058466D01*
X98709249Y35201323D01*
X98780642Y35344198D01*
X98852053Y35415645D01*
X98994892Y35487108D01*
X99280588Y35558608D01*
X99637731Y35558697D01*
X99923463Y35487339D01*
X100066338Y35415947D01*
X100137784Y35344535D01*
X100209249Y35201696D01*
X98709533Y34058466D02*
X99709533Y34058715D01*
X99566675Y34058679D02*
X99638122Y33987269D01*
X99709586Y33844429D01*
X99709640Y33630144D01*
X99638246Y33487269D01*
X99495407Y33415805D01*
X98709693Y33415609D01*
X99495407Y33415805D02*
X99638282Y33344411D01*
X99709746Y33201572D01*
X99709799Y32987287D01*
X99638406Y32844411D01*
X99495567Y32772948D01*
X98709853Y32772752D01*
X98710030Y32058467D02*
X99710030Y32058715D01*
X99567172Y32058680D02*
X99638619Y31987269D01*
X99710083Y31844429D01*
X99710137Y31630144D01*
X99638743Y31487269D01*
X99495904Y31415805D01*
X98710190Y31415610D01*
X99495904Y31415805D02*
X99638779Y31344411D01*
X99710243Y31201572D01*
X99710296Y30987287D01*
X99638903Y30844411D01*
X99496064Y30772948D01*
X98710350Y30772753D01*
X98047536Y-3895987D02*
X98027536Y76584013D01*
X81900000Y-3900000D02*
X100747536Y-3895316D01*
X81880000Y76580000D02*
X100727536Y76584684D01*
X98027536Y76584013D02*
X98614237Y75457655D01*
X98027536Y76584013D02*
X97441395Y75457364D01*
X98047536Y-3895987D02*
X98633677Y-2769338D01*
X98047536Y-3895987D02*
X97460835Y-2769629D01*
X33592859Y-18111429D02*
X33450001Y-18040000D01*
X33378573Y-17968571D01*
X33307144Y-17825714D01*
X33307144Y-17754286D01*
X33378573Y-17611429D01*
X33450001Y-17540000D01*
X33592859Y-17468571D01*
X33878573Y-17468571D01*
X34021430Y-17540000D01*
X34092859Y-17611429D01*
X34164287Y-17754286D01*
X34164287Y-17825714D01*
X34092859Y-17968571D01*
X34021430Y-18040000D01*
X33878573Y-18111429D01*
X33592859Y-18111429D01*
X33450001Y-18182857D01*
X33378573Y-18254286D01*
X33307144Y-18397143D01*
X33307144Y-18682857D01*
X33378573Y-18825714D01*
X33450001Y-18897143D01*
X33592859Y-18968571D01*
X33878573Y-18968571D01*
X34021430Y-18897143D01*
X34092859Y-18825714D01*
X34164287Y-18682857D01*
X34164287Y-18397143D01*
X34092859Y-18254286D01*
X34021430Y-18182857D01*
X33878573Y-18111429D01*
X35521430Y-17468571D02*
X34807144Y-17468571D01*
X34735715Y-18182857D01*
X34807144Y-18111429D01*
X34950001Y-18040000D01*
X35307144Y-18040000D01*
X35450001Y-18111429D01*
X35521430Y-18182857D01*
X35592858Y-18325714D01*
X35592858Y-18682857D01*
X35521430Y-18825714D01*
X35450001Y-18897143D01*
X35307144Y-18968571D01*
X34950001Y-18968571D01*
X34807144Y-18897143D01*
X34735715Y-18825714D01*
X36307143Y-18897143D02*
X36307143Y-18968571D01*
X36235715Y-19111429D01*
X36164286Y-19182857D01*
X37164287Y-18111429D02*
X37021429Y-18040000D01*
X36950001Y-17968571D01*
X36878572Y-17825714D01*
X36878572Y-17754286D01*
X36950001Y-17611429D01*
X37021429Y-17540000D01*
X37164287Y-17468571D01*
X37450001Y-17468571D01*
X37592858Y-17540000D01*
X37664287Y-17611429D01*
X37735715Y-17754286D01*
X37735715Y-17825714D01*
X37664287Y-17968571D01*
X37592858Y-18040000D01*
X37450001Y-18111429D01*
X37164287Y-18111429D01*
X37021429Y-18182857D01*
X36950001Y-18254286D01*
X36878572Y-18397143D01*
X36878572Y-18682857D01*
X36950001Y-18825714D01*
X37021429Y-18897143D01*
X37164287Y-18968571D01*
X37450001Y-18968571D01*
X37592858Y-18897143D01*
X37664287Y-18825714D01*
X37735715Y-18682857D01*
X37735715Y-18397143D01*
X37664287Y-18254286D01*
X37592858Y-18182857D01*
X37450001Y-18111429D01*
X39021429Y-17468571D02*
X38735715Y-17468571D01*
X38592858Y-17540000D01*
X38521429Y-17611429D01*
X38378572Y-17825714D01*
X38307143Y-18111429D01*
X38307143Y-18682857D01*
X38378572Y-18825714D01*
X38450000Y-18897143D01*
X38592858Y-18968571D01*
X38878572Y-18968571D01*
X39021429Y-18897143D01*
X39092858Y-18825714D01*
X39164286Y-18682857D01*
X39164286Y-18325714D01*
X39092858Y-18182857D01*
X39021429Y-18111429D01*
X38878572Y-18040000D01*
X38592858Y-18040000D01*
X38450000Y-18111429D01*
X38378572Y-18182857D01*
X38307143Y-18325714D01*
X40092857Y-17468571D02*
X40235714Y-17468571D01*
X40378571Y-17540000D01*
X40450000Y-17611429D01*
X40521429Y-17754286D01*
X40592857Y-18040000D01*
X40592857Y-18397143D01*
X40521429Y-18682857D01*
X40450000Y-18825714D01*
X40378571Y-18897143D01*
X40235714Y-18968571D01*
X40092857Y-18968571D01*
X39950000Y-18897143D01*
X39878571Y-18825714D01*
X39807143Y-18682857D01*
X39735714Y-18397143D01*
X39735714Y-18040000D01*
X39807143Y-17754286D01*
X39878571Y-17611429D01*
X39950000Y-17540000D01*
X40092857Y-17468571D01*
X41235714Y-18968571D02*
X41235714Y-17968571D01*
X41235714Y-18111429D02*
X41307142Y-18040000D01*
X41450000Y-17968571D01*
X41664285Y-17968571D01*
X41807142Y-18040000D01*
X41878571Y-18182857D01*
X41878571Y-18968571D01*
X41878571Y-18182857D02*
X41950000Y-18040000D01*
X42092857Y-17968571D01*
X42307142Y-17968571D01*
X42450000Y-18040000D01*
X42521428Y-18182857D01*
X42521428Y-18968571D01*
X43235714Y-18968571D02*
X43235714Y-17968571D01*
X43235714Y-18111429D02*
X43307142Y-18040000D01*
X43450000Y-17968571D01*
X43664285Y-17968571D01*
X43807142Y-18040000D01*
X43878571Y-18182857D01*
X43878571Y-18968571D01*
X43878571Y-18182857D02*
X43950000Y-18040000D01*
X44092857Y-17968571D01*
X44307142Y-17968571D01*
X44450000Y-18040000D01*
X44521428Y-18182857D01*
X44521428Y-18968571D01*
X-3980000Y-16940000D02*
X81880000Y-16940000D01*
X-3980000Y-3920000D02*
X-3980000Y-19640000D01*
X81880000Y-3920000D02*
X81880000Y-19640000D01*
X81880000Y-16940000D02*
X80753496Y-17526421D01*
X81880000Y-16940000D02*
X80753496Y-16353579D01*
X-3980000Y-16940000D02*
X-2853496Y-17526421D01*
X-3980000Y-16940000D02*
X-2853496Y-16353579D01*
D13*
X15361948Y29240000D02*
G75*
G03X15361948Y29240000I-231948J0D01*
G01*
X15053452Y57500000D02*
G75*
G03X15053452Y57500000I-233452J0D01*
G01*
X43830000Y32260000D02*
G75*
G03X43830000Y32260000I-230000J0D01*
G01*
X35380227Y17510000D02*
G75*
G03X35380227Y17510000I-220227J0D01*
G01*
D11*
X-3985000Y76580000D02*
X81880000Y76580000D01*
X-3985000Y76580000D02*
X-3985000Y-3920000D01*
X81875000Y-3920000D02*
X81875000Y76580000D01*
X-3990000Y-3920000D02*
X81875000Y-3920000D01*
D12*
X-76249287Y124701429D02*
X-76249287Y126201429D01*
X-75677859Y126201429D01*
X-75535001Y126130000D01*
X-75463573Y126058571D01*
X-75392144Y125915714D01*
X-75392144Y125701429D01*
X-75463573Y125558571D01*
X-75535001Y125487143D01*
X-75677859Y125415714D01*
X-76249287Y125415714D01*
X-74463573Y126201429D02*
X-74177859Y126201429D01*
X-74035001Y126130000D01*
X-73892144Y125987143D01*
X-73820716Y125701429D01*
X-73820716Y125201429D01*
X-73892144Y124915714D01*
X-74035001Y124772857D01*
X-74177859Y124701429D01*
X-74463573Y124701429D01*
X-74606430Y124772857D01*
X-74749287Y124915714D01*
X-74820716Y125201429D01*
X-74820716Y125701429D01*
X-74749287Y125987143D01*
X-74606430Y126130000D01*
X-74463573Y126201429D01*
X-73177858Y124701429D02*
X-73177858Y126201429D01*
X-72320715Y124701429D01*
X-72320715Y126201429D01*
X-70749286Y124844286D02*
X-70820715Y124772857D01*
X-71035001Y124701429D01*
X-71177858Y124701429D01*
X-71392143Y124772857D01*
X-71535001Y124915714D01*
X-71606429Y125058571D01*
X-71677858Y125344286D01*
X-71677858Y125558571D01*
X-71606429Y125844286D01*
X-71535001Y125987143D01*
X-71392143Y126130000D01*
X-71177858Y126201429D01*
X-71035001Y126201429D01*
X-70820715Y126130000D01*
X-70749286Y126058571D01*
X-70106429Y124701429D02*
X-70106429Y126201429D01*
X-70106429Y125487143D02*
X-69249286Y125487143D01*
X-69249286Y124701429D02*
X-69249286Y126201429D01*
X-68249286Y126201429D02*
X-67963572Y126201429D01*
X-67820714Y126130000D01*
X-67677857Y125987143D01*
X-67606429Y125701429D01*
X-67606429Y125201429D01*
X-67677857Y124915714D01*
X-67820714Y124772857D01*
X-67963572Y124701429D01*
X-68249286Y124701429D01*
X-68392143Y124772857D01*
X-68535000Y124915714D01*
X-68606429Y125201429D01*
X-68606429Y125701429D01*
X-68535000Y125987143D01*
X-68392143Y126130000D01*
X-68249286Y126201429D01*
X-65820714Y124701429D02*
X-65820714Y126201429D01*
X-65320714Y125130000D01*
X-64820714Y126201429D01*
X-64820714Y124701429D01*
X-64106428Y125487143D02*
X-63606428Y125487143D01*
X-63392142Y124701429D02*
X-64106428Y124701429D01*
X-64106428Y126201429D01*
X-63392142Y126201429D01*
X-62749285Y124701429D02*
X-62749285Y126201429D01*
X-62392142Y126201429D01*
X-62177857Y126130000D01*
X-62034999Y125987143D01*
X-61963571Y125844286D01*
X-61892142Y125558571D01*
X-61892142Y125344286D01*
X-61963571Y125058571D01*
X-62034999Y124915714D01*
X-62177857Y124772857D01*
X-62392142Y124701429D01*
X-62749285Y124701429D01*
X-61249285Y124701429D02*
X-61249285Y126201429D01*
X-60606428Y125130000D02*
X-59892142Y125130000D01*
X-60749285Y124701429D02*
X-60249285Y126201429D01*
X-59749285Y124701429D01*
X-59249285Y124701429D02*
X-59249285Y126201429D01*
X-58392142Y124701429D01*
X-58392142Y126201429D01*
X-57392142Y126201429D02*
X-57106428Y126201429D01*
X-56963570Y126130000D01*
X-56820713Y125987143D01*
X-56749285Y125701429D01*
X-56749285Y125201429D01*
X-56820713Y124915714D01*
X-56963570Y124772857D01*
X-57106428Y124701429D01*
X-57392142Y124701429D01*
X-57534999Y124772857D01*
X-57677856Y124915714D01*
X-57749285Y125201429D01*
X-57749285Y125701429D01*
X-57677856Y125987143D01*
X-57534999Y126130000D01*
X-57392142Y126201429D01*
X-86070716Y122301429D02*
X-86070716Y123801429D01*
X-85427859Y122301429D02*
X-85427859Y123087143D01*
X-85499288Y123230000D01*
X-85642145Y123301429D01*
X-85856430Y123301429D01*
X-85999288Y123230000D01*
X-86070716Y123158571D01*
X-84927859Y123301429D02*
X-84356430Y123301429D01*
X-84713573Y123801429D02*
X-84713573Y122515714D01*
X-84642145Y122372857D01*
X-84499287Y122301429D01*
X-84356430Y122301429D01*
X-84070716Y123301429D02*
X-83499287Y123301429D01*
X-83856430Y123801429D02*
X-83856430Y122515714D01*
X-83785002Y122372857D01*
X-83642144Y122301429D01*
X-83499287Y122301429D01*
X-82999287Y123301429D02*
X-82999287Y121801429D01*
X-82999287Y123230000D02*
X-82856430Y123301429D01*
X-82570716Y123301429D01*
X-82427859Y123230000D01*
X-82356430Y123158571D01*
X-82285001Y123015714D01*
X-82285001Y122587143D01*
X-82356430Y122444286D01*
X-82427859Y122372857D01*
X-82570716Y122301429D01*
X-82856430Y122301429D01*
X-82999287Y122372857D01*
X-81642144Y122444286D02*
X-81570716Y122372857D01*
X-81642144Y122301429D01*
X-81713573Y122372857D01*
X-81642144Y122444286D01*
X-81642144Y122301429D01*
X-81642144Y123230000D02*
X-81570716Y123158571D01*
X-81642144Y123087143D01*
X-81713573Y123158571D01*
X-81642144Y123230000D01*
X-81642144Y123087143D01*
X-79856430Y123872857D02*
X-81142144Y121944286D01*
X-78285001Y123872857D02*
X-79570715Y121944286D01*
X-77927857Y123301429D02*
X-77642143Y122301429D01*
X-77356429Y123015714D01*
X-77070714Y122301429D01*
X-76785000Y123301429D01*
X-76356428Y123301429D02*
X-76070714Y122301429D01*
X-75785000Y123015714D01*
X-75499285Y122301429D01*
X-75213571Y123301429D01*
X-74784999Y123301429D02*
X-74499285Y122301429D01*
X-74213571Y123015714D01*
X-73927856Y122301429D01*
X-73642142Y123301429D01*
X-73070713Y122444286D02*
X-72999285Y122372857D01*
X-73070713Y122301429D01*
X-73142142Y122372857D01*
X-73070713Y122444286D01*
X-73070713Y122301429D01*
X-72356427Y123301429D02*
X-72356427Y121801429D01*
X-72356427Y123230000D02*
X-72213570Y123301429D01*
X-71927856Y123301429D01*
X-71784999Y123230000D01*
X-71713570Y123158571D01*
X-71642141Y123015714D01*
X-71642141Y122587143D01*
X-71713570Y122444286D01*
X-71784999Y122372857D01*
X-71927856Y122301429D01*
X-72213570Y122301429D01*
X-72356427Y122372857D01*
X-70999284Y122301429D02*
X-70999284Y123301429D01*
X-70999284Y123015714D02*
X-70927856Y123158571D01*
X-70856427Y123230000D01*
X-70713570Y123301429D01*
X-70570713Y123301429D01*
X-69856427Y122301429D02*
X-69999285Y122372857D01*
X-70070713Y122444286D01*
X-70142142Y122587143D01*
X-70142142Y123015714D01*
X-70070713Y123158571D01*
X-69999285Y123230000D01*
X-69856427Y123301429D01*
X-69642142Y123301429D01*
X-69499285Y123230000D01*
X-69427856Y123158571D01*
X-69356427Y123015714D01*
X-69356427Y122587143D01*
X-69427856Y122444286D01*
X-69499285Y122372857D01*
X-69642142Y122301429D01*
X-69856427Y122301429D01*
X-68856427Y123301429D02*
X-68499284Y122301429D01*
X-68142142Y123301429D02*
X-68499284Y122301429D01*
X-68642142Y121944286D01*
X-68713570Y121872857D01*
X-68856427Y121801429D01*
X-66999285Y122372857D02*
X-67142142Y122301429D01*
X-67427856Y122301429D01*
X-67570713Y122372857D01*
X-67642142Y122515714D01*
X-67642142Y123087143D01*
X-67570713Y123230000D01*
X-67427856Y123301429D01*
X-67142142Y123301429D01*
X-66999285Y123230000D01*
X-66927856Y123087143D01*
X-66927856Y122944286D01*
X-67642142Y122801429D01*
X-65642142Y122372857D02*
X-65784999Y122301429D01*
X-66070713Y122301429D01*
X-66213571Y122372857D01*
X-66284999Y122444286D01*
X-66356428Y122587143D01*
X-66356428Y123015714D01*
X-66284999Y123158571D01*
X-66213571Y123230000D01*
X-66070713Y123301429D01*
X-65784999Y123301429D01*
X-65642142Y123230000D01*
X-65213571Y123301429D02*
X-64642142Y123301429D01*
X-64999285Y123801429D02*
X-64999285Y122515714D01*
X-64927857Y122372857D01*
X-64784999Y122301429D01*
X-64642142Y122301429D01*
X-63927856Y122301429D02*
X-64070714Y122372857D01*
X-64142142Y122444286D01*
X-64213571Y122587143D01*
X-64213571Y123015714D01*
X-64142142Y123158571D01*
X-64070714Y123230000D01*
X-63927856Y123301429D01*
X-63713571Y123301429D01*
X-63570714Y123230000D01*
X-63499285Y123158571D01*
X-63427856Y123015714D01*
X-63427856Y122587143D01*
X-63499285Y122444286D01*
X-63570714Y122372857D01*
X-63713571Y122301429D01*
X-63927856Y122301429D01*
X-62784999Y122872857D02*
X-61642142Y122872857D01*
X-60284999Y122372857D02*
X-60427856Y122301429D01*
X-60713570Y122301429D01*
X-60856428Y122372857D01*
X-60927856Y122444286D01*
X-60999285Y122587143D01*
X-60999285Y123015714D01*
X-60927856Y123158571D01*
X-60856428Y123230000D01*
X-60713570Y123301429D01*
X-60427856Y123301429D01*
X-60284999Y123230000D01*
X-59642142Y122301429D02*
X-59642142Y123301429D01*
X-59642142Y123801429D02*
X-59713571Y123730000D01*
X-59642142Y123658571D01*
X-59570714Y123730000D01*
X-59642142Y123801429D01*
X-59642142Y123658571D01*
X-58284999Y122301429D02*
X-58284999Y123087143D01*
X-58356428Y123230000D01*
X-58499285Y123301429D01*
X-58784999Y123301429D01*
X-58927856Y123230000D01*
X-58284999Y122372857D02*
X-58427856Y122301429D01*
X-58784999Y122301429D01*
X-58927856Y122372857D01*
X-58999285Y122515714D01*
X-58999285Y122658571D01*
X-58927856Y122801429D01*
X-58784999Y122872857D01*
X-58427856Y122872857D01*
X-58284999Y122944286D01*
X-56927856Y122301429D02*
X-56927856Y123087143D01*
X-56999285Y123230000D01*
X-57142142Y123301429D01*
X-57427856Y123301429D01*
X-57570713Y123230000D01*
X-56927856Y122372857D02*
X-57070713Y122301429D01*
X-57427856Y122301429D01*
X-57570713Y122372857D01*
X-57642142Y122515714D01*
X-57642142Y122658571D01*
X-57570713Y122801429D01*
X-57427856Y122872857D01*
X-57070713Y122872857D01*
X-56927856Y122944286D01*
X-56213570Y122444286D02*
X-56142142Y122372857D01*
X-56213570Y122301429D01*
X-56284999Y122372857D01*
X-56213570Y122444286D01*
X-56213570Y122301429D01*
X-54856427Y122372857D02*
X-54999284Y122301429D01*
X-55284998Y122301429D01*
X-55427856Y122372857D01*
X-55499284Y122444286D01*
X-55570713Y122587143D01*
X-55570713Y123015714D01*
X-55499284Y123158571D01*
X-55427856Y123230000D01*
X-55284998Y123301429D01*
X-54999284Y123301429D01*
X-54856427Y123230000D01*
X-53999284Y122301429D02*
X-54142142Y122372857D01*
X-54213570Y122444286D01*
X-54284999Y122587143D01*
X-54284999Y123015714D01*
X-54213570Y123158571D01*
X-54142142Y123230000D01*
X-53999284Y123301429D01*
X-53784999Y123301429D01*
X-53642142Y123230000D01*
X-53570713Y123158571D01*
X-53499284Y123015714D01*
X-53499284Y122587143D01*
X-53570713Y122444286D01*
X-53642142Y122372857D01*
X-53784999Y122301429D01*
X-53999284Y122301429D01*
X-52856427Y122301429D02*
X-52856427Y123301429D01*
X-52856427Y123158571D02*
X-52784999Y123230000D01*
X-52642141Y123301429D01*
X-52427856Y123301429D01*
X-52284999Y123230000D01*
X-52213570Y123087143D01*
X-52213570Y122301429D01*
X-52213570Y123087143D02*
X-52142141Y123230000D01*
X-51999284Y123301429D01*
X-51784999Y123301429D01*
X-51642141Y123230000D01*
X-51570713Y123087143D01*
X-51570713Y122301429D01*
X-50856427Y122444286D02*
X-50784999Y122372857D01*
X-50856427Y122301429D01*
X-50927856Y122372857D01*
X-50856427Y122444286D01*
X-50856427Y122301429D01*
X-49499284Y122301429D02*
X-49499284Y123087143D01*
X-49570713Y123230000D01*
X-49713570Y123301429D01*
X-49999284Y123301429D01*
X-50142141Y123230000D01*
X-49499284Y122372857D02*
X-49642141Y122301429D01*
X-49999284Y122301429D01*
X-50142141Y122372857D01*
X-50213570Y122515714D01*
X-50213570Y122658571D01*
X-50142141Y122801429D01*
X-49999284Y122872857D01*
X-49642141Y122872857D01*
X-49499284Y122944286D01*
X-48784998Y122301429D02*
X-48784998Y123301429D01*
X-48784998Y123015714D02*
X-48713570Y123158571D01*
X-48642141Y123230000D01*
X-48499284Y123301429D01*
X-48356427Y123301429D01*
X-46784999Y123872857D02*
X-48070713Y121944286D01*
D11*
X37605000Y67530000D02*
X-4305000Y67530000D01*
X37605000Y6570000D02*
X-4305000Y6570000D01*
X37605000Y67530000D02*
X37605000Y6570000D01*
X-4305000Y6570000D02*
X-4305000Y67530000D01*
M02*
