G04 #@! TF.FileFunction,Legend,Bot*
%FSLAX46Y46*%
G04 Gerber Fmt 4.6, Leading zero omitted, Abs format (unit mm)*
G04 Created by KiCad (PCBNEW 4.0.2-stable) date 30/10/2016 11:04:25*
%MOMM*%
G01*
G04 APERTURE LIST*
%ADD10C,0.100000*%
%ADD11C,0.150000*%
%ADD12C,0.200000*%
G04 APERTURE END LIST*
D10*
D11*
X1666666Y0D02*
G75*
G03X1666666Y0I-1666666J0D01*
G01*
X-2500000Y0D02*
X2500000Y0D01*
X0Y2500000D02*
X0Y-2500000D01*
D12*
X54400000Y15600000D02*
X54300000Y15600000D01*
D11*
X-3985000Y76580000D02*
X81880000Y76580000D01*
X-3985000Y76580000D02*
X-3985000Y-3920000D01*
X81875000Y-3920000D02*
X81875000Y76580000D01*
X-3990000Y-3920000D02*
X81875000Y-3920000D01*
X9833333Y70571429D02*
X10166667Y70571429D01*
X10166667Y70047619D02*
X10166667Y71047619D01*
X9690476Y71047619D01*
X9309524Y70047619D02*
X9309524Y71047619D01*
X9071429Y71047619D01*
X8928571Y71000000D01*
X8833333Y70904762D01*
X8785714Y70809524D01*
X8738095Y70619048D01*
X8738095Y70476190D01*
X8785714Y70285714D01*
X8833333Y70190476D01*
X8928571Y70095238D01*
X9071429Y70047619D01*
X9309524Y70047619D01*
X7833333Y71047619D02*
X8309524Y71047619D01*
X8357143Y70571429D01*
X8309524Y70619048D01*
X8214286Y70666667D01*
X7976190Y70666667D01*
X7880952Y70619048D01*
X7833333Y70571429D01*
X7785714Y70476190D01*
X7785714Y70238095D01*
X7833333Y70142857D01*
X7880952Y70095238D01*
X7976190Y70047619D01*
X8214286Y70047619D01*
X8309524Y70095238D01*
X8357143Y70142857D01*
X70833333Y70071429D02*
X71166667Y70071429D01*
X71166667Y69547619D02*
X71166667Y70547619D01*
X70690476Y70547619D01*
X70309524Y69547619D02*
X70309524Y70547619D01*
X70071429Y70547619D01*
X69928571Y70500000D01*
X69833333Y70404762D01*
X69785714Y70309524D01*
X69738095Y70119048D01*
X69738095Y69976190D01*
X69785714Y69785714D01*
X69833333Y69690476D01*
X69928571Y69595238D01*
X70071429Y69547619D01*
X70309524Y69547619D01*
X68880952Y70547619D02*
X69071429Y70547619D01*
X69166667Y70500000D01*
X69214286Y70452381D01*
X69309524Y70309524D01*
X69357143Y70119048D01*
X69357143Y69738095D01*
X69309524Y69642857D01*
X69261905Y69595238D01*
X69166667Y69547619D01*
X68976190Y69547619D01*
X68880952Y69595238D01*
X68833333Y69642857D01*
X68785714Y69738095D01*
X68785714Y69976190D01*
X68833333Y70071429D01*
X68880952Y70119048D01*
X68976190Y70166667D01*
X69166667Y70166667D01*
X69261905Y70119048D01*
X69309524Y70071429D01*
X69357143Y69976190D01*
X6833333Y71429D02*
X7166667Y71429D01*
X7166667Y-452381D02*
X7166667Y547619D01*
X6690476Y547619D01*
X6309524Y-452381D02*
X6309524Y547619D01*
X6071429Y547619D01*
X5928571Y500000D01*
X5833333Y404762D01*
X5785714Y309524D01*
X5738095Y119048D01*
X5738095Y-23810D01*
X5785714Y-214286D01*
X5833333Y-309524D01*
X5928571Y-404762D01*
X6071429Y-452381D01*
X6309524Y-452381D01*
X5404762Y547619D02*
X4738095Y547619D01*
X5166667Y-452381D01*
X68833333Y-1928571D02*
X69166667Y-1928571D01*
X69166667Y-2452381D02*
X69166667Y-1452381D01*
X68690476Y-1452381D01*
X68309524Y-2452381D02*
X68309524Y-1452381D01*
X68071429Y-1452381D01*
X67928571Y-1500000D01*
X67833333Y-1595238D01*
X67785714Y-1690476D01*
X67738095Y-1880952D01*
X67738095Y-2023810D01*
X67785714Y-2214286D01*
X67833333Y-2309524D01*
X67928571Y-2404762D01*
X68071429Y-2452381D01*
X68309524Y-2452381D01*
X67166667Y-1880952D02*
X67261905Y-1833333D01*
X67309524Y-1785714D01*
X67357143Y-1690476D01*
X67357143Y-1642857D01*
X67309524Y-1547619D01*
X67261905Y-1500000D01*
X67166667Y-1452381D01*
X66976190Y-1452381D01*
X66880952Y-1500000D01*
X66833333Y-1547619D01*
X66785714Y-1642857D01*
X66785714Y-1690476D01*
X66833333Y-1785714D01*
X66880952Y-1833333D01*
X66976190Y-1880952D01*
X67166667Y-1880952D01*
X67261905Y-1928571D01*
X67309524Y-1976190D01*
X67357143Y-2071429D01*
X67357143Y-2261905D01*
X67309524Y-2357143D01*
X67261905Y-2404762D01*
X67166667Y-2452381D01*
X66976190Y-2452381D01*
X66880952Y-2404762D01*
X66833333Y-2357143D01*
X66785714Y-2261905D01*
X66785714Y-2071429D01*
X66833333Y-1976190D01*
X66880952Y-1928571D01*
X66976190Y-1880952D01*
M02*
