%FSLAX45Y45*%
G04 Gerber Fmt 4.5, Leading zero omitted, Abs format (unit mm)*
G04 Created by KiCad (PCBNEW 4.0.2-stable) date 30/10/2016 11:04:42*
%MOMM*%
G01*
G04 APERTURE LIST*
%ADD10C,0.127000*%
%ADD11C,0.150000*%
%ADD12C,0.200000*%
%ADD13C,0.300000*%
G04 APERTURE END LIST*
D10*
D11*
X-398500Y7658000D02*
X8188000Y7658000D01*
X-398500Y7658000D02*
X-398500Y-392000D01*
X8187500Y-392000D02*
X8187500Y7658000D01*
X-399000Y-392000D02*
X8187500Y-392000D01*
D12*
X705000Y5165000D02*
X735000Y5135000D01*
X735000Y5165000D02*
X705000Y5135000D01*
X715000Y4745000D02*
X745000Y4715000D01*
X745000Y4745000D02*
X715000Y4715000D01*
X733000Y2313000D02*
X763000Y2283000D01*
X763000Y2313000D02*
X733000Y2283000D01*
X823000Y2193000D02*
X853000Y2163000D01*
X853000Y2193000D02*
X823000Y2163000D01*
X835000Y5187000D02*
X865000Y5157000D01*
X865000Y5187000D02*
X835000Y5157000D01*
X946000Y5176000D02*
X976000Y5146000D01*
X976000Y5176000D02*
X946000Y5146000D01*
X953000Y2473000D02*
X983000Y2443000D01*
X983000Y2473000D02*
X953000Y2443000D01*
X1073000Y2453000D02*
X1103000Y2423000D01*
X1103000Y2453000D02*
X1073000Y2423000D01*
X2673000Y5213000D02*
X2703000Y5183000D01*
X2703000Y5213000D02*
X2673000Y5183000D01*
X2673000Y4443000D02*
X2703000Y4413000D01*
X2703000Y4443000D02*
X2673000Y4413000D01*
X2761000Y5317000D02*
X2791000Y5287000D01*
X2791000Y5317000D02*
X2761000Y5287000D01*
X2762000Y4396000D02*
X2792000Y4366000D01*
X2792000Y4396000D02*
X2762000Y4366000D01*
X2853000Y3170000D02*
X2883000Y3140000D01*
X2883000Y3170000D02*
X2853000Y3140000D01*
X2853000Y2343000D02*
X2883000Y2313000D01*
X2883000Y2343000D02*
X2853000Y2313000D01*
X3253000Y3123000D02*
X3283000Y3093000D01*
X3283000Y3123000D02*
X3253000Y3093000D01*
X3319000Y3491000D02*
X3349000Y3461000D01*
X3349000Y3491000D02*
X3319000Y3461000D01*
X3465000Y3865000D02*
X3495000Y3835000D01*
X3495000Y3865000D02*
X3465000Y3835000D01*
X3517000Y3366000D02*
X3547000Y3336000D01*
X3547000Y3366000D02*
X3517000Y3336000D01*
X3701000Y3283000D02*
X3731000Y3253000D01*
X3731000Y3283000D02*
X3701000Y3253000D01*
X3890000Y4430000D02*
X3920000Y4400000D01*
X3920000Y4430000D02*
X3890000Y4400000D01*
X3989000Y3536000D02*
X4019000Y3506000D01*
X4019000Y3536000D02*
X3989000Y3506000D01*
X-75000Y6650000D02*
G75*
G03X-75000Y6650000I-25000J0D01*
G01*
X25000Y750000D02*
G75*
G03X25000Y750000I-25000J0D01*
G01*
X25000Y350000D02*
G75*
G03X25000Y350000I-25000J0D01*
G01*
X125000Y6850000D02*
G75*
G03X125000Y6850000I-25000J0D01*
G01*
X225000Y950000D02*
G75*
G03X225000Y950000I-25000J0D01*
G01*
X225000Y550000D02*
G75*
G03X225000Y550000I-25000J0D01*
G01*
X325000Y7450000D02*
G75*
G03X325000Y7450000I-25000J0D01*
G01*
X325000Y7050000D02*
G75*
G03X325000Y7050000I-25000J0D01*
G01*
X325000Y6650000D02*
G75*
G03X325000Y6650000I-25000J0D01*
G01*
X425000Y750000D02*
G75*
G03X425000Y750000I-25000J0D01*
G01*
X425000Y350000D02*
G75*
G03X425000Y350000I-25000J0D01*
G01*
X425000Y-50000D02*
G75*
G03X425000Y-50000I-25000J0D01*
G01*
X525000Y7250000D02*
G75*
G03X525000Y7250000I-25000J0D01*
G01*
X525000Y6850000D02*
G75*
G03X525000Y6850000I-25000J0D01*
G01*
X625000Y950000D02*
G75*
G03X625000Y950000I-25000J0D01*
G01*
X625000Y550000D02*
G75*
G03X625000Y550000I-25000J0D01*
G01*
X625000Y150000D02*
G75*
G03X625000Y150000I-25000J0D01*
G01*
X725000Y7450000D02*
G75*
G03X725000Y7450000I-25000J0D01*
G01*
X725000Y7050000D02*
G75*
G03X725000Y7050000I-25000J0D01*
G01*
X725000Y6650000D02*
G75*
G03X725000Y6650000I-25000J0D01*
G01*
X825000Y750000D02*
G75*
G03X825000Y750000I-25000J0D01*
G01*
X825000Y350000D02*
G75*
G03X825000Y350000I-25000J0D01*
G01*
X825000Y-50000D02*
G75*
G03X825000Y-50000I-25000J0D01*
G01*
X925000Y7250000D02*
G75*
G03X925000Y7250000I-25000J0D01*
G01*
X925000Y6850000D02*
G75*
G03X925000Y6850000I-25000J0D01*
G01*
X1025000Y950000D02*
G75*
G03X1025000Y950000I-25000J0D01*
G01*
X1025000Y550000D02*
G75*
G03X1025000Y550000I-25000J0D01*
G01*
X1025000Y150000D02*
G75*
G03X1025000Y150000I-25000J0D01*
G01*
X1083000Y6008000D02*
G75*
G03X1083000Y6008000I-25000J0D01*
G01*
X1083000Y4718000D02*
G75*
G03X1083000Y4718000I-25000J0D01*
G01*
X1125000Y7450000D02*
G75*
G03X1125000Y7450000I-25000J0D01*
G01*
X1125000Y7050000D02*
G75*
G03X1125000Y7050000I-25000J0D01*
G01*
X1125000Y6650000D02*
G75*
G03X1125000Y6650000I-25000J0D01*
G01*
X1221000Y1704000D02*
G75*
G03X1221000Y1704000I-25000J0D01*
G01*
X1223000Y4753000D02*
G75*
G03X1223000Y4753000I-25000J0D01*
G01*
X1225000Y750000D02*
G75*
G03X1225000Y750000I-25000J0D01*
G01*
X1225000Y350000D02*
G75*
G03X1225000Y350000I-25000J0D01*
G01*
X1225000Y-50000D02*
G75*
G03X1225000Y-50000I-25000J0D01*
G01*
X1333000Y2048000D02*
G75*
G03X1333000Y2048000I-25000J0D01*
G01*
X1363000Y5888000D02*
G75*
G03X1363000Y5888000I-25000J0D01*
G01*
X2613000Y4878000D02*
G75*
G03X2613000Y4878000I-25000J0D01*
G01*
X2633000Y2808000D02*
G75*
G03X2633000Y2808000I-25000J0D01*
G01*
X2635500Y2050500D02*
G75*
G03X2635500Y2050500I-25000J0D01*
G01*
X2639500Y5642500D02*
G75*
G03X2639500Y5642500I-25000J0D01*
G01*
X2663000Y6058000D02*
G75*
G03X2663000Y6058000I-25000J0D01*
G01*
X2663000Y5858000D02*
G75*
G03X2663000Y5858000I-25000J0D01*
G01*
X2670000Y1924000D02*
G75*
G03X2670000Y1924000I-25000J0D01*
G01*
X2713000Y908000D02*
G75*
G03X2713000Y908000I-25000J0D01*
G01*
X2713000Y508000D02*
G75*
G03X2713000Y508000I-25000J0D01*
G01*
X2713000Y108000D02*
G75*
G03X2713000Y108000I-25000J0D01*
G01*
X2775000Y7150000D02*
G75*
G03X2775000Y7150000I-25000J0D01*
G01*
X2780000Y2686000D02*
G75*
G03X2780000Y2686000I-25000J0D01*
G01*
X2863000Y6058000D02*
G75*
G03X2863000Y6058000I-25000J0D01*
G01*
X2863000Y5858000D02*
G75*
G03X2863000Y5858000I-25000J0D01*
G01*
X2883000Y4658000D02*
G75*
G03X2883000Y4658000I-25000J0D01*
G01*
X2913000Y708000D02*
G75*
G03X2913000Y708000I-25000J0D01*
G01*
X2913000Y308000D02*
G75*
G03X2913000Y308000I-25000J0D01*
G01*
X2915000Y-90000D02*
G75*
G03X2915000Y-90000I-25000J0D01*
G01*
X2930000Y4479000D02*
G75*
G03X2930000Y4479000I-25000J0D01*
G01*
X2973000Y6288000D02*
G75*
G03X2973000Y6288000I-25000J0D01*
G01*
X3014000Y3284000D02*
G75*
G03X3014000Y3284000I-25000J0D01*
G01*
X3055000Y4848000D02*
G75*
G03X3055000Y4848000I-25000J0D01*
G01*
X3063000Y6058000D02*
G75*
G03X3063000Y6058000I-25000J0D01*
G01*
X3063000Y5858000D02*
G75*
G03X3063000Y5858000I-25000J0D01*
G01*
X3063000Y5478000D02*
G75*
G03X3063000Y5478000I-25000J0D01*
G01*
X3064000Y5355000D02*
G75*
G03X3064000Y5355000I-25000J0D01*
G01*
X3075000Y7150000D02*
G75*
G03X3075000Y7150000I-25000J0D01*
G01*
X3075000Y2500000D02*
G75*
G03X3075000Y2500000I-25000J0D01*
G01*
X3075000Y2350000D02*
G75*
G03X3075000Y2350000I-25000J0D01*
G01*
X3113000Y908000D02*
G75*
G03X3113000Y908000I-25000J0D01*
G01*
X3113000Y508000D02*
G75*
G03X3113000Y508000I-25000J0D01*
G01*
X3115000Y110000D02*
G75*
G03X3115000Y110000I-25000J0D01*
G01*
X3165000Y1800000D02*
G75*
G03X3165000Y1800000I-25000J0D01*
G01*
X3173000Y1978000D02*
G75*
G03X3173000Y1978000I-25000J0D01*
G01*
X3225000Y2350000D02*
G75*
G03X3225000Y2350000I-25000J0D01*
G01*
X3233000Y4328000D02*
G75*
G03X3233000Y4328000I-25000J0D01*
G01*
X3235000Y4721000D02*
G75*
G03X3235000Y4721000I-25000J0D01*
G01*
X3263000Y6058000D02*
G75*
G03X3263000Y6058000I-25000J0D01*
G01*
X3263000Y5858000D02*
G75*
G03X3263000Y5858000I-25000J0D01*
G01*
X3303000Y2988000D02*
G75*
G03X3303000Y2988000I-25000J0D01*
G01*
X3313000Y708000D02*
G75*
G03X3313000Y708000I-25000J0D01*
G01*
X3313000Y308000D02*
G75*
G03X3313000Y308000I-25000J0D01*
G01*
X3315000Y-90000D02*
G75*
G03X3315000Y-90000I-25000J0D01*
G01*
X3358000Y5038000D02*
G75*
G03X3358000Y5038000I-25000J0D01*
G01*
X3375000Y7150000D02*
G75*
G03X3375000Y7150000I-25000J0D01*
G01*
X3375000Y2350000D02*
G75*
G03X3375000Y2350000I-25000J0D01*
G01*
X3433000Y6489000D02*
G75*
G03X3433000Y6489000I-25000J0D01*
G01*
X3493000Y2178000D02*
G75*
G03X3493000Y2178000I-25000J0D01*
G01*
X3520000Y5478000D02*
G75*
G03X3520000Y5478000I-25000J0D01*
G01*
X3524000Y2555000D02*
G75*
G03X3524000Y2555000I-25000J0D01*
G01*
X3625000Y-90000D02*
G75*
G03X3625000Y-90000I-25000J0D01*
G01*
X3675000Y7150000D02*
G75*
G03X3675000Y7150000I-25000J0D01*
G01*
X3813000Y1978000D02*
G75*
G03X3813000Y1978000I-25000J0D01*
G01*
X3905000Y-150000D02*
G75*
G03X3905000Y-150000I-25000J0D01*
G01*
X3975000Y7150000D02*
G75*
G03X3975000Y7150000I-25000J0D01*
G01*
X4040000Y6149000D02*
G75*
G03X4040000Y6149000I-25000J0D01*
G01*
X4275000Y7150000D02*
G75*
G03X4275000Y7150000I-25000J0D01*
G01*
X4313000Y1958000D02*
G75*
G03X4313000Y1958000I-25000J0D01*
G01*
X4363000Y2408000D02*
G75*
G03X4363000Y2408000I-25000J0D01*
G01*
X4513000Y2810000D02*
G75*
G03X4513000Y2810000I-25000J0D01*
G01*
X4513000Y2558000D02*
G75*
G03X4513000Y2558000I-25000J0D01*
G01*
X4513000Y2258000D02*
G75*
G03X4513000Y2258000I-25000J0D01*
G01*
X4543000Y3093000D02*
G75*
G03X4543000Y3093000I-25000J0D01*
G01*
X4575000Y7150000D02*
G75*
G03X4575000Y7150000I-25000J0D01*
G01*
X4613000Y4758000D02*
G75*
G03X4613000Y4758000I-25000J0D01*
G01*
X4613000Y1958000D02*
G75*
G03X4613000Y1958000I-25000J0D01*
G01*
X4663000Y2408000D02*
G75*
G03X4663000Y2408000I-25000J0D01*
G01*
X4763000Y5108000D02*
G75*
G03X4763000Y5108000I-25000J0D01*
G01*
X4763000Y4908000D02*
G75*
G03X4763000Y4908000I-25000J0D01*
G01*
X4763000Y4608000D02*
G75*
G03X4763000Y4608000I-25000J0D01*
G01*
X4875000Y7150000D02*
G75*
G03X4875000Y7150000I-25000J0D01*
G01*
X4913000Y4758000D02*
G75*
G03X4913000Y4758000I-25000J0D01*
G01*
X4925000Y2500000D02*
G75*
G03X4925000Y2500000I-25000J0D01*
G01*
X4926000Y5808000D02*
G75*
G03X4926000Y5808000I-25000J0D01*
G01*
X5125000Y2500000D02*
G75*
G03X5125000Y2500000I-25000J0D01*
G01*
X5175000Y7150000D02*
G75*
G03X5175000Y7150000I-25000J0D01*
G01*
X5263000Y5808000D02*
G75*
G03X5263000Y5808000I-25000J0D01*
G01*
X5275000Y3400000D02*
G75*
G03X5275000Y3400000I-25000J0D01*
G01*
X5425000Y5950000D02*
G75*
G03X5425000Y5950000I-25000J0D01*
G01*
X5425000Y3550000D02*
G75*
G03X5425000Y3550000I-25000J0D01*
G01*
X5425000Y3250000D02*
G75*
G03X5425000Y3250000I-25000J0D01*
G01*
X5463000Y5358000D02*
G75*
G03X5463000Y5358000I-25000J0D01*
G01*
X5475000Y7150000D02*
G75*
G03X5475000Y7150000I-25000J0D01*
G01*
X5498000Y6561000D02*
G75*
G03X5498000Y6561000I-25000J0D01*
G01*
X5575000Y6100000D02*
G75*
G03X5575000Y6100000I-25000J0D01*
G01*
X5575000Y3950000D02*
G75*
G03X5575000Y3950000I-25000J0D01*
G01*
X5575000Y3400000D02*
G75*
G03X5575000Y3400000I-25000J0D01*
G01*
X5575000Y2850000D02*
G75*
G03X5575000Y2850000I-25000J0D01*
G01*
X5613000Y5508000D02*
G75*
G03X5613000Y5508000I-25000J0D01*
G01*
X5613000Y5208000D02*
G75*
G03X5613000Y5208000I-25000J0D01*
G01*
X5613000Y2158000D02*
G75*
G03X5613000Y2158000I-25000J0D01*
G01*
X5613000Y2008000D02*
G75*
G03X5613000Y2008000I-25000J0D01*
G01*
X5715000Y4830000D02*
G75*
G03X5715000Y4830000I-25000J0D01*
G01*
X5715000Y4600000D02*
G75*
G03X5715000Y4600000I-25000J0D01*
G01*
X5715000Y4080000D02*
G75*
G03X5715000Y4080000I-25000J0D01*
G01*
X5725000Y5950000D02*
G75*
G03X5725000Y5950000I-25000J0D01*
G01*
X5725000Y3550000D02*
G75*
G03X5725000Y3550000I-25000J0D01*
G01*
X5725000Y3250000D02*
G75*
G03X5725000Y3250000I-25000J0D01*
G01*
X5763000Y5358000D02*
G75*
G03X5763000Y5358000I-25000J0D01*
G01*
X5763000Y2158000D02*
G75*
G03X5763000Y2158000I-25000J0D01*
G01*
X5763000Y2008000D02*
G75*
G03X5763000Y2008000I-25000J0D01*
G01*
X5763000Y1858000D02*
G75*
G03X5763000Y1858000I-25000J0D01*
G01*
X5775000Y7150000D02*
G75*
G03X5775000Y7150000I-25000J0D01*
G01*
X5775000Y2850000D02*
G75*
G03X5775000Y2850000I-25000J0D01*
G01*
X6125000Y7150000D02*
G75*
G03X6125000Y7150000I-25000J0D01*
G01*
X6325000Y7350000D02*
G75*
G03X6325000Y7350000I-25000J0D01*
G01*
X6365000Y-150000D02*
G75*
G03X6365000Y-150000I-25000J0D01*
G01*
X6393000Y2754000D02*
G75*
G03X6393000Y2754000I-25000J0D01*
G01*
X6525000Y7150000D02*
G75*
G03X6525000Y7150000I-25000J0D01*
G01*
X6635000Y-150000D02*
G75*
G03X6635000Y-150000I-25000J0D01*
G01*
X6653000Y3618000D02*
G75*
G03X6653000Y3618000I-25000J0D01*
G01*
X6725000Y7350000D02*
G75*
G03X6725000Y7350000I-25000J0D01*
G01*
X6973000Y6763000D02*
G75*
G03X6973000Y6763000I-25000J0D01*
G01*
X6973000Y5918000D02*
G75*
G03X6973000Y5918000I-25000J0D01*
G01*
X6973000Y5433000D02*
G75*
G03X6973000Y5433000I-25000J0D01*
G01*
X6973000Y4688000D02*
G75*
G03X6973000Y4688000I-25000J0D01*
G01*
X6973000Y4159000D02*
G75*
G03X6973000Y4159000I-25000J0D01*
G01*
X6973000Y3308000D02*
G75*
G03X6973000Y3308000I-25000J0D01*
G01*
X6973000Y2756000D02*
G75*
G03X6973000Y2756000I-25000J0D01*
G01*
X6973000Y1384000D02*
G75*
G03X6973000Y1384000I-25000J0D01*
G01*
X6973000Y660000D02*
G75*
G03X6973000Y660000I-25000J0D01*
G01*
X6974000Y2079000D02*
G75*
G03X6974000Y2079000I-25000J0D01*
G01*
X6975000Y7150000D02*
G75*
G03X6975000Y7150000I-25000J0D01*
G01*
X7015000Y-150000D02*
G75*
G03X7015000Y-150000I-25000J0D01*
G01*
X7124000Y3618000D02*
G75*
G03X7124000Y3618000I-25000J0D01*
G01*
X7150000Y0D02*
G75*
G03X7150000Y0I-25000J0D01*
G01*
X7175000Y7350000D02*
G75*
G03X7175000Y7350000I-25000J0D01*
G01*
X7295000Y-150000D02*
G75*
G03X7295000Y-150000I-25000J0D01*
G01*
X7375000Y7150000D02*
G75*
G03X7375000Y7150000I-25000J0D01*
G01*
X7450000Y0D02*
G75*
G03X7450000Y0I-25000J0D01*
G01*
X7463000Y6350000D02*
G75*
G03X7463000Y6350000I-25000J0D01*
G01*
X7463000Y5668000D02*
G75*
G03X7463000Y5668000I-25000J0D01*
G01*
X7463000Y5168000D02*
G75*
G03X7463000Y5168000I-25000J0D01*
G01*
X7463000Y4538000D02*
G75*
G03X7463000Y4538000I-25000J0D01*
G01*
X7463000Y3168000D02*
G75*
G03X7463000Y3168000I-25000J0D01*
G01*
X7463000Y2448000D02*
G75*
G03X7463000Y2448000I-25000J0D01*
G01*
X7463000Y1768000D02*
G75*
G03X7463000Y1768000I-25000J0D01*
G01*
X7463000Y1088000D02*
G75*
G03X7463000Y1088000I-25000J0D01*
G01*
X7463000Y398000D02*
G75*
G03X7463000Y398000I-25000J0D01*
G01*
X7464000Y3833000D02*
G75*
G03X7464000Y3833000I-25000J0D01*
G01*
X7575000Y6950000D02*
G75*
G03X7575000Y6950000I-25000J0D01*
G01*
X7575000Y6550000D02*
G75*
G03X7575000Y6550000I-25000J0D01*
G01*
X7775000Y6750000D02*
G75*
G03X7775000Y6750000I-25000J0D01*
G01*
X7775000Y6350000D02*
G75*
G03X7775000Y6350000I-25000J0D01*
G01*
X7975000Y6950000D02*
G75*
G03X7975000Y6950000I-25000J0D01*
G01*
X7975000Y6550000D02*
G75*
G03X7975000Y6550000I-25000J0D01*
G01*
X268000Y6168800D02*
X268000Y6067200D01*
X217200Y6118000D02*
X318800Y6118000D01*
X268000Y5914800D02*
X268000Y5813200D01*
X217200Y5864000D02*
X318800Y5864000D01*
X268000Y5660800D02*
X268000Y5559200D01*
X217200Y5610000D02*
X318800Y5610000D01*
X268000Y5406800D02*
X268000Y5305200D01*
X217200Y5356000D02*
X318800Y5356000D01*
X268000Y5152800D02*
X268000Y5051200D01*
X217200Y5102000D02*
X318800Y5102000D01*
X268000Y4898800D02*
X268000Y4797200D01*
X217200Y4848000D02*
X318800Y4848000D01*
X268000Y4644800D02*
X268000Y4543200D01*
X217200Y4594000D02*
X318800Y4594000D01*
X268000Y4390800D02*
X268000Y4289200D01*
X217200Y4340000D02*
X318800Y4340000D01*
X268000Y4136800D02*
X268000Y4035200D01*
X217200Y4086000D02*
X318800Y4086000D01*
X268000Y3882800D02*
X268000Y3781200D01*
X217200Y3832000D02*
X318800Y3832000D01*
X268000Y3628800D02*
X268000Y3527200D01*
X217200Y3578000D02*
X318800Y3578000D01*
X268000Y3374800D02*
X268000Y3273200D01*
X217200Y3324000D02*
X318800Y3324000D01*
X268000Y3120800D02*
X268000Y3019200D01*
X217200Y3070000D02*
X318800Y3070000D01*
X268000Y2866800D02*
X268000Y2765200D01*
X217200Y2816000D02*
X318800Y2816000D01*
X268000Y2612800D02*
X268000Y2511200D01*
X217200Y2562000D02*
X318800Y2562000D01*
X268000Y2358800D02*
X268000Y2257200D01*
X217200Y2308000D02*
X318800Y2308000D01*
X268000Y2104800D02*
X268000Y2003200D01*
X217200Y2054000D02*
X318800Y2054000D01*
X268000Y1850800D02*
X268000Y1749200D01*
X217200Y1800000D02*
X318800Y1800000D01*
X268000Y1596800D02*
X268000Y1495200D01*
X217200Y1546000D02*
X318800Y1546000D01*
X268000Y1342800D02*
X268000Y1241200D01*
X217200Y1292000D02*
X318800Y1292000D01*
X522000Y6168800D02*
X522000Y6067200D01*
X471200Y6118000D02*
X572800Y6118000D01*
X522000Y5914800D02*
X522000Y5813200D01*
X471200Y5864000D02*
X572800Y5864000D01*
X522000Y5660800D02*
X522000Y5559200D01*
X471200Y5610000D02*
X572800Y5610000D01*
X522000Y5406800D02*
X522000Y5305200D01*
X471200Y5356000D02*
X572800Y5356000D01*
X522000Y5152800D02*
X522000Y5051200D01*
X471200Y5102000D02*
X572800Y5102000D01*
X522000Y4898800D02*
X522000Y4797200D01*
X471200Y4848000D02*
X572800Y4848000D01*
X522000Y4644800D02*
X522000Y4543200D01*
X471200Y4594000D02*
X572800Y4594000D01*
X522000Y4390800D02*
X522000Y4289200D01*
X471200Y4340000D02*
X572800Y4340000D01*
X522000Y4136800D02*
X522000Y4035200D01*
X471200Y4086000D02*
X572800Y4086000D01*
X522000Y3882800D02*
X522000Y3781200D01*
X471200Y3832000D02*
X572800Y3832000D01*
X522000Y3628800D02*
X522000Y3527200D01*
X471200Y3578000D02*
X572800Y3578000D01*
X522000Y3374800D02*
X522000Y3273200D01*
X471200Y3324000D02*
X572800Y3324000D01*
X522000Y3120800D02*
X522000Y3019200D01*
X471200Y3070000D02*
X572800Y3070000D01*
X522000Y2866800D02*
X522000Y2765200D01*
X471200Y2816000D02*
X572800Y2816000D01*
X522000Y2612800D02*
X522000Y2511200D01*
X471200Y2562000D02*
X572800Y2562000D01*
X522000Y2358800D02*
X522000Y2257200D01*
X471200Y2308000D02*
X572800Y2308000D01*
X522000Y2104800D02*
X522000Y2003200D01*
X471200Y2054000D02*
X572800Y2054000D01*
X522000Y1850800D02*
X522000Y1749200D01*
X471200Y1800000D02*
X572800Y1800000D01*
X522000Y1596800D02*
X522000Y1495200D01*
X471200Y1546000D02*
X572800Y1546000D01*
X522000Y1342800D02*
X522000Y1241200D01*
X471200Y1292000D02*
X572800Y1292000D01*
X2682000Y4189800D02*
X2682000Y4088200D01*
X2631200Y4139000D02*
X2732800Y4139000D01*
X2682000Y3935800D02*
X2682000Y3834200D01*
X2631200Y3885000D02*
X2732800Y3885000D01*
X2682000Y3681800D02*
X2682000Y3580200D01*
X2631200Y3631000D02*
X2732800Y3631000D01*
X2682000Y3427800D02*
X2682000Y3326200D01*
X2631200Y3377000D02*
X2732800Y3377000D01*
X2682000Y3173800D02*
X2682000Y3072200D01*
X2631200Y3123000D02*
X2732800Y3123000D01*
X3751000Y225800D02*
X3751000Y124200D01*
X3700200Y175000D02*
X3801800Y175000D01*
X4005000Y225800D02*
X4005000Y124200D01*
X3954200Y175000D02*
X4055800Y175000D01*
X4678000Y1458800D02*
X4678000Y1357200D01*
X4627200Y1408000D02*
X4728800Y1408000D01*
X4678000Y1204800D02*
X4678000Y1103200D01*
X4627200Y1154000D02*
X4728800Y1154000D01*
X4678000Y950800D02*
X4678000Y849200D01*
X4627200Y900000D02*
X4728800Y900000D01*
X4770000Y228800D02*
X4770000Y127200D01*
X4719200Y178000D02*
X4820800Y178000D01*
X5024000Y228800D02*
X5024000Y127200D01*
X4973200Y178000D02*
X5074800Y178000D01*
X5277000Y1460800D02*
X5277000Y1359200D01*
X5226200Y1410000D02*
X5327800Y1410000D01*
X5277000Y1206800D02*
X5277000Y1105200D01*
X5226200Y1156000D02*
X5327800Y1156000D01*
X5277000Y952800D02*
X5277000Y851200D01*
X5226200Y902000D02*
X5327800Y902000D01*
X5278000Y228800D02*
X5278000Y127200D01*
X5227200Y178000D02*
X5328800Y178000D01*
X7868000Y6038800D02*
X7868000Y5937200D01*
X7817200Y5988000D02*
X7918800Y5988000D01*
X7868000Y5784800D02*
X7868000Y5683200D01*
X7817200Y5734000D02*
X7918800Y5734000D01*
X7868000Y5530800D02*
X7868000Y5429200D01*
X7817200Y5480000D02*
X7918800Y5480000D01*
X7868000Y5276800D02*
X7868000Y5175200D01*
X7817200Y5226000D02*
X7918800Y5226000D01*
X7868000Y5022800D02*
X7868000Y4921200D01*
X7817200Y4972000D02*
X7918800Y4972000D01*
X7868000Y4768800D02*
X7868000Y4667200D01*
X7817200Y4718000D02*
X7918800Y4718000D01*
X7868000Y4514800D02*
X7868000Y4413200D01*
X7817200Y4464000D02*
X7918800Y4464000D01*
X7868000Y4260800D02*
X7868000Y4159200D01*
X7817200Y4210000D02*
X7918800Y4210000D01*
X7868000Y4006800D02*
X7868000Y3905200D01*
X7817200Y3956000D02*
X7918800Y3956000D01*
X7868000Y3752800D02*
X7868000Y3651200D01*
X7817200Y3702000D02*
X7918800Y3702000D01*
X7868000Y3498800D02*
X7868000Y3397200D01*
X7817200Y3448000D02*
X7918800Y3448000D01*
X7868000Y3244800D02*
X7868000Y3143200D01*
X7817200Y3194000D02*
X7918800Y3194000D01*
X7868000Y2990800D02*
X7868000Y2889200D01*
X7817200Y2940000D02*
X7918800Y2940000D01*
X7868000Y2736800D02*
X7868000Y2635200D01*
X7817200Y2686000D02*
X7918800Y2686000D01*
X7868000Y2482800D02*
X7868000Y2381200D01*
X7817200Y2432000D02*
X7918800Y2432000D01*
X7868000Y2228800D02*
X7868000Y2127200D01*
X7817200Y2178000D02*
X7918800Y2178000D01*
X7868000Y1974800D02*
X7868000Y1873200D01*
X7817200Y1924000D02*
X7918800Y1924000D01*
X7868000Y1720800D02*
X7868000Y1619200D01*
X7817200Y1670000D02*
X7918800Y1670000D01*
X7868000Y1466800D02*
X7868000Y1365200D01*
X7817200Y1416000D02*
X7918800Y1416000D01*
X7868000Y1212800D02*
X7868000Y1111200D01*
X7817200Y1162000D02*
X7918800Y1162000D01*
X107764Y7142236D02*
X107764Y7357764D01*
X-107764Y7357764D01*
X-107764Y7142236D01*
X107764Y7142236D01*
X107764Y-107764D02*
X107764Y107764D01*
X-107764Y107764D01*
X-107764Y-107764D01*
X107764Y-107764D01*
X7887764Y7142236D02*
X7887764Y7357764D01*
X7672236Y7357764D01*
X7672236Y7142236D01*
X7887764Y7142236D01*
X7907764Y-107764D02*
X7907764Y107764D01*
X7692236Y107764D01*
X7692236Y-107764D01*
X7907764Y-107764D01*
D13*
X-135072Y-865214D02*
X-135072Y-565214D01*
X-63643Y-565214D01*
X-20786Y-579500D01*
X7786Y-608072D01*
X22071Y-636643D01*
X36357Y-693786D01*
X36357Y-736643D01*
X22071Y-793786D01*
X7786Y-822357D01*
X-20786Y-850929D01*
X-63643Y-865214D01*
X-135072Y-865214D01*
X164929Y-865214D02*
X164929Y-665214D01*
X164929Y-722357D02*
X179214Y-693786D01*
X193500Y-679500D01*
X222071Y-665214D01*
X250643Y-665214D01*
X350643Y-865214D02*
X350643Y-665214D01*
X350643Y-565214D02*
X336357Y-579500D01*
X350643Y-593786D01*
X364928Y-579500D01*
X350643Y-565214D01*
X350643Y-593786D01*
X536357Y-865214D02*
X507786Y-850929D01*
X493500Y-822357D01*
X493500Y-565214D01*
X693500Y-865214D02*
X664929Y-850929D01*
X650643Y-822357D01*
X650643Y-565214D01*
X1036357Y-865214D02*
X1036357Y-565214D01*
X1136357Y-779500D01*
X1236357Y-565214D01*
X1236357Y-865214D01*
X1507786Y-865214D02*
X1507786Y-708071D01*
X1493500Y-679500D01*
X1464928Y-665214D01*
X1407786Y-665214D01*
X1379214Y-679500D01*
X1507786Y-850929D02*
X1479214Y-865214D01*
X1407786Y-865214D01*
X1379214Y-850929D01*
X1364929Y-822357D01*
X1364929Y-793786D01*
X1379214Y-765214D01*
X1407786Y-750929D01*
X1479214Y-750929D01*
X1507786Y-736643D01*
X1650643Y-665214D02*
X1650643Y-965214D01*
X1650643Y-679500D02*
X1679214Y-665214D01*
X1736357Y-665214D01*
X1764928Y-679500D01*
X1779214Y-693786D01*
X1793500Y-722357D01*
X1793500Y-808071D01*
X1779214Y-836643D01*
X1764928Y-850929D01*
X1736357Y-865214D01*
X1679214Y-865214D01*
X1650643Y-850929D01*
X1922071Y-836643D02*
X1936357Y-850929D01*
X1922071Y-865214D01*
X1907786Y-850929D01*
X1922071Y-836643D01*
X1922071Y-865214D01*
X1922071Y-679500D02*
X1936357Y-693786D01*
X1922071Y-708071D01*
X1907786Y-693786D01*
X1922071Y-679500D01*
X1922071Y-708071D01*
X-436500Y-1344500D02*
X-406500Y-1374500D01*
X-406500Y-1344500D02*
X-436500Y-1374500D01*
X-77929Y-1195214D02*
X-49357Y-1195214D01*
X-20786Y-1209500D01*
X-6500Y-1223786D01*
X7786Y-1252357D01*
X22071Y-1309500D01*
X22071Y-1380929D01*
X7786Y-1438071D01*
X-6500Y-1466643D01*
X-20786Y-1480929D01*
X-49357Y-1495214D01*
X-77929Y-1495214D01*
X-106500Y-1480929D01*
X-120786Y-1466643D01*
X-135072Y-1438071D01*
X-149357Y-1380929D01*
X-149357Y-1309500D01*
X-135072Y-1252357D01*
X-120786Y-1223786D01*
X-106500Y-1209500D01*
X-77929Y-1195214D01*
X150643Y-1466643D02*
X164929Y-1480929D01*
X150643Y-1495214D01*
X136357Y-1480929D01*
X150643Y-1466643D01*
X150643Y-1495214D01*
X264928Y-1195214D02*
X450643Y-1195214D01*
X350643Y-1309500D01*
X393500Y-1309500D01*
X422071Y-1323786D01*
X436357Y-1338072D01*
X450643Y-1366643D01*
X450643Y-1438071D01*
X436357Y-1466643D01*
X422071Y-1480929D01*
X393500Y-1495214D01*
X307786Y-1495214D01*
X279214Y-1480929D01*
X264928Y-1466643D01*
X636357Y-1195214D02*
X664929Y-1195214D01*
X693500Y-1209500D01*
X707786Y-1223786D01*
X722071Y-1252357D01*
X736357Y-1309500D01*
X736357Y-1380929D01*
X722071Y-1438071D01*
X707786Y-1466643D01*
X693500Y-1480929D01*
X664929Y-1495214D01*
X636357Y-1495214D01*
X607786Y-1480929D01*
X593500Y-1466643D01*
X579214Y-1438071D01*
X564929Y-1380929D01*
X564929Y-1309500D01*
X579214Y-1252357D01*
X593500Y-1223786D01*
X607786Y-1209500D01*
X636357Y-1195214D01*
X864928Y-1495214D02*
X864928Y-1295214D01*
X864928Y-1323786D02*
X879214Y-1309500D01*
X907786Y-1295214D01*
X950643Y-1295214D01*
X979214Y-1309500D01*
X993500Y-1338072D01*
X993500Y-1495214D01*
X993500Y-1338072D02*
X1007786Y-1309500D01*
X1036357Y-1295214D01*
X1079214Y-1295214D01*
X1107786Y-1309500D01*
X1122071Y-1338072D01*
X1122071Y-1495214D01*
X1264929Y-1495214D02*
X1264929Y-1295214D01*
X1264929Y-1323786D02*
X1279214Y-1309500D01*
X1307786Y-1295214D01*
X1350643Y-1295214D01*
X1379214Y-1309500D01*
X1393500Y-1338072D01*
X1393500Y-1495214D01*
X1393500Y-1338072D02*
X1407786Y-1309500D01*
X1436357Y-1295214D01*
X1479214Y-1295214D01*
X1507786Y-1309500D01*
X1522071Y-1338072D01*
X1522071Y-1495214D01*
X2107786Y-1180929D02*
X1850643Y-1566643D01*
X2493500Y-1195214D02*
X2522071Y-1195214D01*
X2550643Y-1209500D01*
X2564928Y-1223786D01*
X2579214Y-1252357D01*
X2593500Y-1309500D01*
X2593500Y-1380929D01*
X2579214Y-1438071D01*
X2564928Y-1466643D01*
X2550643Y-1480929D01*
X2522071Y-1495214D01*
X2493500Y-1495214D01*
X2464928Y-1480929D01*
X2450643Y-1466643D01*
X2436357Y-1438071D01*
X2422071Y-1380929D01*
X2422071Y-1309500D01*
X2436357Y-1252357D01*
X2450643Y-1223786D01*
X2464928Y-1209500D01*
X2493500Y-1195214D01*
X2722071Y-1466643D02*
X2736357Y-1480929D01*
X2722071Y-1495214D01*
X2707786Y-1480929D01*
X2722071Y-1466643D01*
X2722071Y-1495214D01*
X2922071Y-1195214D02*
X2950643Y-1195214D01*
X2979214Y-1209500D01*
X2993500Y-1223786D01*
X3007785Y-1252357D01*
X3022071Y-1309500D01*
X3022071Y-1380929D01*
X3007785Y-1438071D01*
X2993500Y-1466643D01*
X2979214Y-1480929D01*
X2950643Y-1495214D01*
X2922071Y-1495214D01*
X2893500Y-1480929D01*
X2879214Y-1466643D01*
X2864928Y-1438071D01*
X2850643Y-1380929D01*
X2850643Y-1309500D01*
X2864928Y-1252357D01*
X2879214Y-1223786D01*
X2893500Y-1209500D01*
X2922071Y-1195214D01*
X3307785Y-1495214D02*
X3136357Y-1495214D01*
X3222071Y-1495214D02*
X3222071Y-1195214D01*
X3193500Y-1238072D01*
X3164928Y-1266643D01*
X3136357Y-1280929D01*
X3422071Y-1223786D02*
X3436357Y-1209500D01*
X3464928Y-1195214D01*
X3536357Y-1195214D01*
X3564928Y-1209500D01*
X3579214Y-1223786D01*
X3593500Y-1252357D01*
X3593500Y-1280929D01*
X3579214Y-1323786D01*
X3407785Y-1495214D01*
X3593500Y-1495214D01*
X3707786Y-1195214D02*
X3707786Y-1252357D01*
X3822071Y-1195214D02*
X3822071Y-1252357D01*
X4264928Y-1609500D02*
X4250643Y-1595214D01*
X4222071Y-1552357D01*
X4207786Y-1523786D01*
X4193500Y-1480929D01*
X4179214Y-1409500D01*
X4179214Y-1352357D01*
X4193500Y-1280929D01*
X4207786Y-1238072D01*
X4222071Y-1209500D01*
X4250643Y-1166643D01*
X4264928Y-1152357D01*
X4364928Y-1223786D02*
X4379214Y-1209500D01*
X4407786Y-1195214D01*
X4479214Y-1195214D01*
X4507786Y-1209500D01*
X4522071Y-1223786D01*
X4536357Y-1252357D01*
X4536357Y-1280929D01*
X4522071Y-1323786D01*
X4350643Y-1495214D01*
X4536357Y-1495214D01*
X4822071Y-1495214D02*
X4650643Y-1495214D01*
X4736357Y-1495214D02*
X4736357Y-1195214D01*
X4707786Y-1238072D01*
X4679214Y-1266643D01*
X4650643Y-1280929D01*
X5179214Y-1495214D02*
X5179214Y-1195214D01*
X5307786Y-1495214D02*
X5307786Y-1338072D01*
X5293500Y-1309500D01*
X5264928Y-1295214D01*
X5222071Y-1295214D01*
X5193500Y-1309500D01*
X5179214Y-1323786D01*
X5493500Y-1495214D02*
X5464928Y-1480929D01*
X5450643Y-1466643D01*
X5436357Y-1438071D01*
X5436357Y-1352357D01*
X5450643Y-1323786D01*
X5464928Y-1309500D01*
X5493500Y-1295214D01*
X5536357Y-1295214D01*
X5564928Y-1309500D01*
X5579214Y-1323786D01*
X5593500Y-1352357D01*
X5593500Y-1438071D01*
X5579214Y-1466643D01*
X5564928Y-1480929D01*
X5536357Y-1495214D01*
X5493500Y-1495214D01*
X5764928Y-1495214D02*
X5736357Y-1480929D01*
X5722071Y-1452357D01*
X5722071Y-1195214D01*
X5993500Y-1480929D02*
X5964928Y-1495214D01*
X5907786Y-1495214D01*
X5879214Y-1480929D01*
X5864928Y-1452357D01*
X5864928Y-1338072D01*
X5879214Y-1309500D01*
X5907786Y-1295214D01*
X5964928Y-1295214D01*
X5993500Y-1309500D01*
X6007786Y-1338072D01*
X6007786Y-1366643D01*
X5864928Y-1395214D01*
X6122071Y-1480929D02*
X6150643Y-1495214D01*
X6207786Y-1495214D01*
X6236357Y-1480929D01*
X6250643Y-1452357D01*
X6250643Y-1438071D01*
X6236357Y-1409500D01*
X6207786Y-1395214D01*
X6164928Y-1395214D01*
X6136357Y-1380929D01*
X6122071Y-1352357D01*
X6122071Y-1338072D01*
X6136357Y-1309500D01*
X6164928Y-1295214D01*
X6207786Y-1295214D01*
X6236357Y-1309500D01*
X6350643Y-1609500D02*
X6364928Y-1595214D01*
X6393500Y-1552357D01*
X6407786Y-1523786D01*
X6422071Y-1480929D01*
X6436357Y-1409500D01*
X6436357Y-1352357D01*
X6422071Y-1280929D01*
X6407786Y-1238072D01*
X6393500Y-1209500D01*
X6364928Y-1166643D01*
X6350643Y-1152357D01*
X-406500Y-1755500D02*
G75*
G03X-406500Y-1755500I-25000J0D01*
G01*
X-77929Y-1591214D02*
X-49357Y-1591214D01*
X-20786Y-1605500D01*
X-6500Y-1619786D01*
X7786Y-1648357D01*
X22071Y-1705500D01*
X22071Y-1776929D01*
X7786Y-1834071D01*
X-6500Y-1862643D01*
X-20786Y-1876929D01*
X-49357Y-1891214D01*
X-77929Y-1891214D01*
X-106500Y-1876929D01*
X-120786Y-1862643D01*
X-135072Y-1834071D01*
X-149357Y-1776929D01*
X-149357Y-1705500D01*
X-135072Y-1648357D01*
X-120786Y-1619786D01*
X-106500Y-1605500D01*
X-77929Y-1591214D01*
X150643Y-1862643D02*
X164929Y-1876929D01*
X150643Y-1891214D01*
X136357Y-1876929D01*
X150643Y-1862643D01*
X150643Y-1891214D01*
X436357Y-1591214D02*
X293500Y-1591214D01*
X279214Y-1734071D01*
X293500Y-1719786D01*
X322071Y-1705500D01*
X393500Y-1705500D01*
X422071Y-1719786D01*
X436357Y-1734071D01*
X450643Y-1762643D01*
X450643Y-1834071D01*
X436357Y-1862643D01*
X422071Y-1876929D01*
X393500Y-1891214D01*
X322071Y-1891214D01*
X293500Y-1876929D01*
X279214Y-1862643D01*
X636357Y-1591214D02*
X664929Y-1591214D01*
X693500Y-1605500D01*
X707786Y-1619786D01*
X722071Y-1648357D01*
X736357Y-1705500D01*
X736357Y-1776929D01*
X722071Y-1834071D01*
X707786Y-1862643D01*
X693500Y-1876929D01*
X664929Y-1891214D01*
X636357Y-1891214D01*
X607786Y-1876929D01*
X593500Y-1862643D01*
X579214Y-1834071D01*
X564929Y-1776929D01*
X564929Y-1705500D01*
X579214Y-1648357D01*
X593500Y-1619786D01*
X607786Y-1605500D01*
X636357Y-1591214D01*
X864928Y-1891214D02*
X864928Y-1691214D01*
X864928Y-1719786D02*
X879214Y-1705500D01*
X907786Y-1691214D01*
X950643Y-1691214D01*
X979214Y-1705500D01*
X993500Y-1734071D01*
X993500Y-1891214D01*
X993500Y-1734071D02*
X1007786Y-1705500D01*
X1036357Y-1691214D01*
X1079214Y-1691214D01*
X1107786Y-1705500D01*
X1122071Y-1734071D01*
X1122071Y-1891214D01*
X1264929Y-1891214D02*
X1264929Y-1691214D01*
X1264929Y-1719786D02*
X1279214Y-1705500D01*
X1307786Y-1691214D01*
X1350643Y-1691214D01*
X1379214Y-1705500D01*
X1393500Y-1734071D01*
X1393500Y-1891214D01*
X1393500Y-1734071D02*
X1407786Y-1705500D01*
X1436357Y-1691214D01*
X1479214Y-1691214D01*
X1507786Y-1705500D01*
X1522071Y-1734071D01*
X1522071Y-1891214D01*
X2107786Y-1576929D02*
X1850643Y-1962643D01*
X2493500Y-1591214D02*
X2522071Y-1591214D01*
X2550643Y-1605500D01*
X2564928Y-1619786D01*
X2579214Y-1648357D01*
X2593500Y-1705500D01*
X2593500Y-1776929D01*
X2579214Y-1834071D01*
X2564928Y-1862643D01*
X2550643Y-1876929D01*
X2522071Y-1891214D01*
X2493500Y-1891214D01*
X2464928Y-1876929D01*
X2450643Y-1862643D01*
X2436357Y-1834071D01*
X2422071Y-1776929D01*
X2422071Y-1705500D01*
X2436357Y-1648357D01*
X2450643Y-1619786D01*
X2464928Y-1605500D01*
X2493500Y-1591214D01*
X2722071Y-1862643D02*
X2736357Y-1876929D01*
X2722071Y-1891214D01*
X2707786Y-1876929D01*
X2722071Y-1862643D01*
X2722071Y-1891214D01*
X2922071Y-1591214D02*
X2950643Y-1591214D01*
X2979214Y-1605500D01*
X2993500Y-1619786D01*
X3007785Y-1648357D01*
X3022071Y-1705500D01*
X3022071Y-1776929D01*
X3007785Y-1834071D01*
X2993500Y-1862643D01*
X2979214Y-1876929D01*
X2950643Y-1891214D01*
X2922071Y-1891214D01*
X2893500Y-1876929D01*
X2879214Y-1862643D01*
X2864928Y-1834071D01*
X2850643Y-1776929D01*
X2850643Y-1705500D01*
X2864928Y-1648357D01*
X2879214Y-1619786D01*
X2893500Y-1605500D01*
X2922071Y-1591214D01*
X3136357Y-1619786D02*
X3150643Y-1605500D01*
X3179214Y-1591214D01*
X3250643Y-1591214D01*
X3279214Y-1605500D01*
X3293500Y-1619786D01*
X3307785Y-1648357D01*
X3307785Y-1676929D01*
X3293500Y-1719786D01*
X3122071Y-1891214D01*
X3307785Y-1891214D01*
X3493500Y-1591214D02*
X3522071Y-1591214D01*
X3550643Y-1605500D01*
X3564928Y-1619786D01*
X3579214Y-1648357D01*
X3593500Y-1705500D01*
X3593500Y-1776929D01*
X3579214Y-1834071D01*
X3564928Y-1862643D01*
X3550643Y-1876929D01*
X3522071Y-1891214D01*
X3493500Y-1891214D01*
X3464928Y-1876929D01*
X3450643Y-1862643D01*
X3436357Y-1834071D01*
X3422071Y-1776929D01*
X3422071Y-1705500D01*
X3436357Y-1648357D01*
X3450643Y-1619786D01*
X3464928Y-1605500D01*
X3493500Y-1591214D01*
X3707786Y-1591214D02*
X3707786Y-1648357D01*
X3822071Y-1591214D02*
X3822071Y-1648357D01*
X4264928Y-2005500D02*
X4250643Y-1991214D01*
X4222071Y-1948357D01*
X4207786Y-1919786D01*
X4193500Y-1876929D01*
X4179214Y-1805500D01*
X4179214Y-1748357D01*
X4193500Y-1676929D01*
X4207786Y-1634071D01*
X4222071Y-1605500D01*
X4250643Y-1562643D01*
X4264928Y-1548357D01*
X4536357Y-1891214D02*
X4364928Y-1891214D01*
X4450643Y-1891214D02*
X4450643Y-1591214D01*
X4422071Y-1634071D01*
X4393500Y-1662643D01*
X4364928Y-1676929D01*
X4707786Y-1719786D02*
X4679214Y-1705500D01*
X4664928Y-1691214D01*
X4650643Y-1662643D01*
X4650643Y-1648357D01*
X4664928Y-1619786D01*
X4679214Y-1605500D01*
X4707786Y-1591214D01*
X4764928Y-1591214D01*
X4793500Y-1605500D01*
X4807786Y-1619786D01*
X4822071Y-1648357D01*
X4822071Y-1662643D01*
X4807786Y-1691214D01*
X4793500Y-1705500D01*
X4764928Y-1719786D01*
X4707786Y-1719786D01*
X4679214Y-1734071D01*
X4664928Y-1748357D01*
X4650643Y-1776929D01*
X4650643Y-1834071D01*
X4664928Y-1862643D01*
X4679214Y-1876929D01*
X4707786Y-1891214D01*
X4764928Y-1891214D01*
X4793500Y-1876929D01*
X4807786Y-1862643D01*
X4822071Y-1834071D01*
X4822071Y-1776929D01*
X4807786Y-1748357D01*
X4793500Y-1734071D01*
X4764928Y-1719786D01*
X5079214Y-1591214D02*
X5022071Y-1591214D01*
X4993500Y-1605500D01*
X4979214Y-1619786D01*
X4950643Y-1662643D01*
X4936357Y-1719786D01*
X4936357Y-1834071D01*
X4950643Y-1862643D01*
X4964928Y-1876929D01*
X4993500Y-1891214D01*
X5050643Y-1891214D01*
X5079214Y-1876929D01*
X5093500Y-1862643D01*
X5107786Y-1834071D01*
X5107786Y-1762643D01*
X5093500Y-1734071D01*
X5079214Y-1719786D01*
X5050643Y-1705500D01*
X4993500Y-1705500D01*
X4964928Y-1719786D01*
X4950643Y-1734071D01*
X4936357Y-1762643D01*
X5464928Y-1891214D02*
X5464928Y-1591214D01*
X5593500Y-1891214D02*
X5593500Y-1734071D01*
X5579214Y-1705500D01*
X5550643Y-1691214D01*
X5507786Y-1691214D01*
X5479214Y-1705500D01*
X5464928Y-1719786D01*
X5779214Y-1891214D02*
X5750643Y-1876929D01*
X5736357Y-1862643D01*
X5722071Y-1834071D01*
X5722071Y-1748357D01*
X5736357Y-1719786D01*
X5750643Y-1705500D01*
X5779214Y-1691214D01*
X5822071Y-1691214D01*
X5850643Y-1705500D01*
X5864928Y-1719786D01*
X5879214Y-1748357D01*
X5879214Y-1834071D01*
X5864928Y-1862643D01*
X5850643Y-1876929D01*
X5822071Y-1891214D01*
X5779214Y-1891214D01*
X6050643Y-1891214D02*
X6022071Y-1876929D01*
X6007786Y-1848357D01*
X6007786Y-1591214D01*
X6279214Y-1876929D02*
X6250643Y-1891214D01*
X6193500Y-1891214D01*
X6164928Y-1876929D01*
X6150643Y-1848357D01*
X6150643Y-1734071D01*
X6164928Y-1705500D01*
X6193500Y-1691214D01*
X6250643Y-1691214D01*
X6279214Y-1705500D01*
X6293500Y-1734071D01*
X6293500Y-1762643D01*
X6150643Y-1791214D01*
X6407786Y-1876929D02*
X6436357Y-1891214D01*
X6493500Y-1891214D01*
X6522071Y-1876929D01*
X6536357Y-1848357D01*
X6536357Y-1834071D01*
X6522071Y-1805500D01*
X6493500Y-1791214D01*
X6450643Y-1791214D01*
X6422071Y-1776929D01*
X6407786Y-1748357D01*
X6407786Y-1734071D01*
X6422071Y-1705500D01*
X6450643Y-1691214D01*
X6493500Y-1691214D01*
X6522071Y-1705500D01*
X6636357Y-2005500D02*
X6650643Y-1991214D01*
X6679214Y-1948357D01*
X6693500Y-1919786D01*
X6707786Y-1876929D01*
X6722071Y-1805500D01*
X6722071Y-1748357D01*
X6707786Y-1676929D01*
X6693500Y-1634071D01*
X6679214Y-1605500D01*
X6650643Y-1562643D01*
X6636357Y-1548357D01*
X-457300Y-2100700D02*
X-457300Y-2202300D01*
X-508100Y-2151500D02*
X-406500Y-2151500D01*
X22071Y-2287214D02*
X-149357Y-2287214D01*
X-63643Y-2287214D02*
X-63643Y-1987214D01*
X-92214Y-2030071D01*
X-120786Y-2058643D01*
X-149357Y-2072929D01*
X150643Y-2258643D02*
X164929Y-2272929D01*
X150643Y-2287214D01*
X136357Y-2272929D01*
X150643Y-2258643D01*
X150643Y-2287214D01*
X350643Y-1987214D02*
X379214Y-1987214D01*
X407786Y-2001500D01*
X422071Y-2015786D01*
X436357Y-2044357D01*
X450643Y-2101500D01*
X450643Y-2172929D01*
X436357Y-2230072D01*
X422071Y-2258643D01*
X407786Y-2272929D01*
X379214Y-2287214D01*
X350643Y-2287214D01*
X322071Y-2272929D01*
X307786Y-2258643D01*
X293500Y-2230072D01*
X279214Y-2172929D01*
X279214Y-2101500D01*
X293500Y-2044357D01*
X307786Y-2015786D01*
X322071Y-2001500D01*
X350643Y-1987214D01*
X564929Y-2015786D02*
X579214Y-2001500D01*
X607786Y-1987214D01*
X679214Y-1987214D01*
X707786Y-2001500D01*
X722071Y-2015786D01*
X736357Y-2044357D01*
X736357Y-2072929D01*
X722071Y-2115786D01*
X550643Y-2287214D01*
X736357Y-2287214D01*
X864928Y-2287214D02*
X864928Y-2087214D01*
X864928Y-2115786D02*
X879214Y-2101500D01*
X907786Y-2087214D01*
X950643Y-2087214D01*
X979214Y-2101500D01*
X993500Y-2130072D01*
X993500Y-2287214D01*
X993500Y-2130072D02*
X1007786Y-2101500D01*
X1036357Y-2087214D01*
X1079214Y-2087214D01*
X1107786Y-2101500D01*
X1122071Y-2130072D01*
X1122071Y-2287214D01*
X1264929Y-2287214D02*
X1264929Y-2087214D01*
X1264929Y-2115786D02*
X1279214Y-2101500D01*
X1307786Y-2087214D01*
X1350643Y-2087214D01*
X1379214Y-2101500D01*
X1393500Y-2130072D01*
X1393500Y-2287214D01*
X1393500Y-2130072D02*
X1407786Y-2101500D01*
X1436357Y-2087214D01*
X1479214Y-2087214D01*
X1507786Y-2101500D01*
X1522071Y-2130072D01*
X1522071Y-2287214D01*
X2107786Y-1972929D02*
X1850643Y-2358643D01*
X2493500Y-1987214D02*
X2522071Y-1987214D01*
X2550643Y-2001500D01*
X2564928Y-2015786D01*
X2579214Y-2044357D01*
X2593500Y-2101500D01*
X2593500Y-2172929D01*
X2579214Y-2230072D01*
X2564928Y-2258643D01*
X2550643Y-2272929D01*
X2522071Y-2287214D01*
X2493500Y-2287214D01*
X2464928Y-2272929D01*
X2450643Y-2258643D01*
X2436357Y-2230072D01*
X2422071Y-2172929D01*
X2422071Y-2101500D01*
X2436357Y-2044357D01*
X2450643Y-2015786D01*
X2464928Y-2001500D01*
X2493500Y-1987214D01*
X2722071Y-2258643D02*
X2736357Y-2272929D01*
X2722071Y-2287214D01*
X2707786Y-2272929D01*
X2722071Y-2258643D01*
X2722071Y-2287214D01*
X2922071Y-1987214D02*
X2950643Y-1987214D01*
X2979214Y-2001500D01*
X2993500Y-2015786D01*
X3007785Y-2044357D01*
X3022071Y-2101500D01*
X3022071Y-2172929D01*
X3007785Y-2230072D01*
X2993500Y-2258643D01*
X2979214Y-2272929D01*
X2950643Y-2287214D01*
X2922071Y-2287214D01*
X2893500Y-2272929D01*
X2879214Y-2258643D01*
X2864928Y-2230072D01*
X2850643Y-2172929D01*
X2850643Y-2101500D01*
X2864928Y-2044357D01*
X2879214Y-2015786D01*
X2893500Y-2001500D01*
X2922071Y-1987214D01*
X3279214Y-2087214D02*
X3279214Y-2287214D01*
X3207785Y-1972929D02*
X3136357Y-2187214D01*
X3322071Y-2187214D01*
X3493500Y-1987214D02*
X3522071Y-1987214D01*
X3550643Y-2001500D01*
X3564928Y-2015786D01*
X3579214Y-2044357D01*
X3593500Y-2101500D01*
X3593500Y-2172929D01*
X3579214Y-2230072D01*
X3564928Y-2258643D01*
X3550643Y-2272929D01*
X3522071Y-2287214D01*
X3493500Y-2287214D01*
X3464928Y-2272929D01*
X3450643Y-2258643D01*
X3436357Y-2230072D01*
X3422071Y-2172929D01*
X3422071Y-2101500D01*
X3436357Y-2044357D01*
X3450643Y-2015786D01*
X3464928Y-2001500D01*
X3493500Y-1987214D01*
X3707786Y-1987214D02*
X3707786Y-2044357D01*
X3822071Y-1987214D02*
X3822071Y-2044357D01*
X4264928Y-2401500D02*
X4250643Y-2387214D01*
X4222071Y-2344357D01*
X4207786Y-2315786D01*
X4193500Y-2272929D01*
X4179214Y-2201500D01*
X4179214Y-2144357D01*
X4193500Y-2072929D01*
X4207786Y-2030071D01*
X4222071Y-2001500D01*
X4250643Y-1958643D01*
X4264928Y-1944357D01*
X4350643Y-1987214D02*
X4550643Y-1987214D01*
X4422071Y-2287214D01*
X4793500Y-1987214D02*
X4736357Y-1987214D01*
X4707786Y-2001500D01*
X4693500Y-2015786D01*
X4664928Y-2058643D01*
X4650643Y-2115786D01*
X4650643Y-2230072D01*
X4664928Y-2258643D01*
X4679214Y-2272929D01*
X4707786Y-2287214D01*
X4764928Y-2287214D01*
X4793500Y-2272929D01*
X4807786Y-2258643D01*
X4822071Y-2230072D01*
X4822071Y-2158643D01*
X4807786Y-2130072D01*
X4793500Y-2115786D01*
X4764928Y-2101500D01*
X4707786Y-2101500D01*
X4679214Y-2115786D01*
X4664928Y-2130072D01*
X4650643Y-2158643D01*
X5179214Y-2287214D02*
X5179214Y-1987214D01*
X5307786Y-2287214D02*
X5307786Y-2130072D01*
X5293500Y-2101500D01*
X5264928Y-2087214D01*
X5222071Y-2087214D01*
X5193500Y-2101500D01*
X5179214Y-2115786D01*
X5493500Y-2287214D02*
X5464928Y-2272929D01*
X5450643Y-2258643D01*
X5436357Y-2230072D01*
X5436357Y-2144357D01*
X5450643Y-2115786D01*
X5464928Y-2101500D01*
X5493500Y-2087214D01*
X5536357Y-2087214D01*
X5564928Y-2101500D01*
X5579214Y-2115786D01*
X5593500Y-2144357D01*
X5593500Y-2230072D01*
X5579214Y-2258643D01*
X5564928Y-2272929D01*
X5536357Y-2287214D01*
X5493500Y-2287214D01*
X5764928Y-2287214D02*
X5736357Y-2272929D01*
X5722071Y-2244357D01*
X5722071Y-1987214D01*
X5993500Y-2272929D02*
X5964928Y-2287214D01*
X5907786Y-2287214D01*
X5879214Y-2272929D01*
X5864928Y-2244357D01*
X5864928Y-2130072D01*
X5879214Y-2101500D01*
X5907786Y-2087214D01*
X5964928Y-2087214D01*
X5993500Y-2101500D01*
X6007786Y-2130072D01*
X6007786Y-2158643D01*
X5864928Y-2187214D01*
X6122071Y-2272929D02*
X6150643Y-2287214D01*
X6207786Y-2287214D01*
X6236357Y-2272929D01*
X6250643Y-2244357D01*
X6250643Y-2230072D01*
X6236357Y-2201500D01*
X6207786Y-2187214D01*
X6164928Y-2187214D01*
X6136357Y-2172929D01*
X6122071Y-2144357D01*
X6122071Y-2130072D01*
X6136357Y-2101500D01*
X6164928Y-2087214D01*
X6207786Y-2087214D01*
X6236357Y-2101500D01*
X6350643Y-2401500D02*
X6364928Y-2387214D01*
X6393500Y-2344357D01*
X6407786Y-2315786D01*
X6422071Y-2272929D01*
X6436357Y-2201500D01*
X6436357Y-2144357D01*
X6422071Y-2072929D01*
X6407786Y-2030071D01*
X6393500Y-2001500D01*
X6364928Y-1958643D01*
X6350643Y-1944357D01*
X-451136Y-2655264D02*
X-451136Y-2439736D01*
X-666664Y-2439736D01*
X-666664Y-2655264D01*
X-451136Y-2655264D01*
X-163643Y-2383214D02*
X22071Y-2383214D01*
X-77929Y-2497500D01*
X-35072Y-2497500D01*
X-6500Y-2511786D01*
X7786Y-2526072D01*
X22071Y-2554643D01*
X22071Y-2626072D01*
X7786Y-2654643D01*
X-6500Y-2668929D01*
X-35072Y-2683214D01*
X-120786Y-2683214D01*
X-149357Y-2668929D01*
X-163643Y-2654643D01*
X150643Y-2654643D02*
X164929Y-2668929D01*
X150643Y-2683214D01*
X136357Y-2668929D01*
X150643Y-2654643D01*
X150643Y-2683214D01*
X350643Y-2383214D02*
X379214Y-2383214D01*
X407786Y-2397500D01*
X422071Y-2411786D01*
X436357Y-2440357D01*
X450643Y-2497500D01*
X450643Y-2568929D01*
X436357Y-2626072D01*
X422071Y-2654643D01*
X407786Y-2668929D01*
X379214Y-2683214D01*
X350643Y-2683214D01*
X322071Y-2668929D01*
X307786Y-2654643D01*
X293500Y-2626072D01*
X279214Y-2568929D01*
X279214Y-2497500D01*
X293500Y-2440357D01*
X307786Y-2411786D01*
X322071Y-2397500D01*
X350643Y-2383214D01*
X722071Y-2383214D02*
X579214Y-2383214D01*
X564929Y-2526072D01*
X579214Y-2511786D01*
X607786Y-2497500D01*
X679214Y-2497500D01*
X707786Y-2511786D01*
X722071Y-2526072D01*
X736357Y-2554643D01*
X736357Y-2626072D01*
X722071Y-2654643D01*
X707786Y-2668929D01*
X679214Y-2683214D01*
X607786Y-2683214D01*
X579214Y-2668929D01*
X564929Y-2654643D01*
X864928Y-2683214D02*
X864928Y-2483214D01*
X864928Y-2511786D02*
X879214Y-2497500D01*
X907786Y-2483214D01*
X950643Y-2483214D01*
X979214Y-2497500D01*
X993500Y-2526072D01*
X993500Y-2683214D01*
X993500Y-2526072D02*
X1007786Y-2497500D01*
X1036357Y-2483214D01*
X1079214Y-2483214D01*
X1107786Y-2497500D01*
X1122071Y-2526072D01*
X1122071Y-2683214D01*
X1264929Y-2683214D02*
X1264929Y-2483214D01*
X1264929Y-2511786D02*
X1279214Y-2497500D01*
X1307786Y-2483214D01*
X1350643Y-2483214D01*
X1379214Y-2497500D01*
X1393500Y-2526072D01*
X1393500Y-2683214D01*
X1393500Y-2526072D02*
X1407786Y-2497500D01*
X1436357Y-2483214D01*
X1479214Y-2483214D01*
X1507786Y-2497500D01*
X1522071Y-2526072D01*
X1522071Y-2683214D01*
X2107786Y-2368929D02*
X1850643Y-2754643D01*
X2493500Y-2383214D02*
X2522071Y-2383214D01*
X2550643Y-2397500D01*
X2564928Y-2411786D01*
X2579214Y-2440357D01*
X2593500Y-2497500D01*
X2593500Y-2568929D01*
X2579214Y-2626072D01*
X2564928Y-2654643D01*
X2550643Y-2668929D01*
X2522071Y-2683214D01*
X2493500Y-2683214D01*
X2464928Y-2668929D01*
X2450643Y-2654643D01*
X2436357Y-2626072D01*
X2422071Y-2568929D01*
X2422071Y-2497500D01*
X2436357Y-2440357D01*
X2450643Y-2411786D01*
X2464928Y-2397500D01*
X2493500Y-2383214D01*
X2722071Y-2654643D02*
X2736357Y-2668929D01*
X2722071Y-2683214D01*
X2707786Y-2668929D01*
X2722071Y-2654643D01*
X2722071Y-2683214D01*
X3022071Y-2683214D02*
X2850643Y-2683214D01*
X2936357Y-2683214D02*
X2936357Y-2383214D01*
X2907785Y-2426072D01*
X2879214Y-2454643D01*
X2850643Y-2468929D01*
X3136357Y-2411786D02*
X3150643Y-2397500D01*
X3179214Y-2383214D01*
X3250643Y-2383214D01*
X3279214Y-2397500D01*
X3293500Y-2411786D01*
X3307785Y-2440357D01*
X3307785Y-2468929D01*
X3293500Y-2511786D01*
X3122071Y-2683214D01*
X3307785Y-2683214D01*
X3493500Y-2383214D02*
X3522071Y-2383214D01*
X3550643Y-2397500D01*
X3564928Y-2411786D01*
X3579214Y-2440357D01*
X3593500Y-2497500D01*
X3593500Y-2568929D01*
X3579214Y-2626072D01*
X3564928Y-2654643D01*
X3550643Y-2668929D01*
X3522071Y-2683214D01*
X3493500Y-2683214D01*
X3464928Y-2668929D01*
X3450643Y-2654643D01*
X3436357Y-2626072D01*
X3422071Y-2568929D01*
X3422071Y-2497500D01*
X3436357Y-2440357D01*
X3450643Y-2411786D01*
X3464928Y-2397500D01*
X3493500Y-2383214D01*
X3707786Y-2383214D02*
X3707786Y-2440357D01*
X3822071Y-2383214D02*
X3822071Y-2440357D01*
X4264928Y-2797500D02*
X4250643Y-2783214D01*
X4222071Y-2740357D01*
X4207786Y-2711786D01*
X4193500Y-2668929D01*
X4179214Y-2597500D01*
X4179214Y-2540357D01*
X4193500Y-2468929D01*
X4207786Y-2426072D01*
X4222071Y-2397500D01*
X4250643Y-2354643D01*
X4264928Y-2340357D01*
X4507786Y-2483214D02*
X4507786Y-2683214D01*
X4436357Y-2368929D02*
X4364928Y-2583214D01*
X4550643Y-2583214D01*
X4893500Y-2683214D02*
X4893500Y-2383214D01*
X5022071Y-2683214D02*
X5022071Y-2526072D01*
X5007786Y-2497500D01*
X4979214Y-2483214D01*
X4936357Y-2483214D01*
X4907786Y-2497500D01*
X4893500Y-2511786D01*
X5207786Y-2683214D02*
X5179214Y-2668929D01*
X5164928Y-2654643D01*
X5150643Y-2626072D01*
X5150643Y-2540357D01*
X5164928Y-2511786D01*
X5179214Y-2497500D01*
X5207786Y-2483214D01*
X5250643Y-2483214D01*
X5279214Y-2497500D01*
X5293500Y-2511786D01*
X5307786Y-2540357D01*
X5307786Y-2626072D01*
X5293500Y-2654643D01*
X5279214Y-2668929D01*
X5250643Y-2683214D01*
X5207786Y-2683214D01*
X5479214Y-2683214D02*
X5450643Y-2668929D01*
X5436357Y-2640357D01*
X5436357Y-2383214D01*
X5707786Y-2668929D02*
X5679214Y-2683214D01*
X5622071Y-2683214D01*
X5593500Y-2668929D01*
X5579214Y-2640357D01*
X5579214Y-2526072D01*
X5593500Y-2497500D01*
X5622071Y-2483214D01*
X5679214Y-2483214D01*
X5707786Y-2497500D01*
X5722071Y-2526072D01*
X5722071Y-2554643D01*
X5579214Y-2583214D01*
X5836357Y-2668929D02*
X5864928Y-2683214D01*
X5922071Y-2683214D01*
X5950643Y-2668929D01*
X5964928Y-2640357D01*
X5964928Y-2626072D01*
X5950643Y-2597500D01*
X5922071Y-2583214D01*
X5879214Y-2583214D01*
X5850643Y-2568929D01*
X5836357Y-2540357D01*
X5836357Y-2526072D01*
X5850643Y-2497500D01*
X5879214Y-2483214D01*
X5922071Y-2483214D01*
X5950643Y-2497500D01*
X6064928Y-2797500D02*
X6079214Y-2783214D01*
X6107786Y-2740357D01*
X6122071Y-2711786D01*
X6136357Y-2668929D01*
X6150643Y-2597500D01*
X6150643Y-2540357D01*
X6136357Y-2468929D01*
X6122071Y-2426072D01*
X6107786Y-2397500D01*
X6079214Y-2354643D01*
X6064928Y-2340357D01*
M02*
